G04 Layer_Color=65535*
%FSAX43Y43*%
%MOMM*%
G71*
G01*
G75*
%ADD20C,0.200*%
%ADD21C,0.254*%
G36*
X-0009750Y0030000D02*
X-0010000D01*
Y0030250D01*
X-0009750D01*
Y0030000D01*
D02*
G37*
G36*
X-0009500Y0030250D02*
X-0009250D01*
Y0030000D01*
X-0009500D01*
Y0030250D01*
X-0009750D01*
Y0030500D01*
X-0009500D01*
Y0030250D01*
D02*
G37*
G36*
X-0004500D02*
X-0004000D01*
Y0030000D01*
X-0003750D01*
Y0029750D01*
X-0003250D01*
Y0029000D01*
X-0002750D01*
Y0028500D01*
X-0003000D01*
Y0028750D01*
X-0003500D01*
Y0029000D01*
X-0003750D01*
Y0029250D01*
X-0004000D01*
Y0029000D01*
X-0003750D01*
Y0028750D01*
X-0003500D01*
Y0028500D01*
X-0004000D01*
Y0028750D01*
X-0004500D01*
Y0029000D01*
X-0004750D01*
Y0029250D01*
X-0004500D01*
Y0029000D01*
X-0004250D01*
Y0029500D01*
X-0004000D01*
Y0029750D01*
X-0004500D01*
Y0029500D01*
X-0005000D01*
Y0030000D01*
X-0005250D01*
Y0030250D01*
X-0004750D01*
Y0029750D01*
X-0004500D01*
X-0004500Y0030250D01*
X-0004750D01*
Y0030500D01*
X-0004500D01*
Y0030250D01*
D02*
G37*
G36*
X-0002750Y0029750D02*
X-0003250D01*
Y0030000D01*
X-0003000D01*
Y0030250D01*
X-0002750D01*
Y0029750D01*
D02*
G37*
G36*
X-0006250Y0033000D02*
X-0006500D01*
Y0032750D01*
X-0006250D01*
Y0032500D01*
X-0006000D01*
Y0032250D01*
X-0005750D01*
Y0032000D01*
X-0005250D01*
Y0031500D01*
X-0005000D01*
Y0031750D01*
X-0004750D01*
Y0031250D01*
X-0004250D01*
Y0031000D01*
X-0003750D01*
Y0030500D01*
X-0003500D01*
Y0030250D01*
X-0003750D01*
Y0030500D01*
X-0004000D01*
Y0030750D01*
X-0004250D01*
Y0031000D01*
X-0004500D01*
Y0030750D01*
X-0004750D01*
Y0031250D01*
X-0005000D01*
Y0030750D01*
X-0004750D01*
Y0030500D01*
X-0005000D01*
Y0030750D01*
X-0005500D01*
Y0031000D01*
X-0005750D01*
Y0031250D01*
X-0006000D01*
X-0006000Y0032000D01*
X-0006250D01*
Y0032500D01*
X-0006500D01*
Y0032750D01*
X-0006750D01*
Y0032500D01*
X-0006500D01*
Y0032000D01*
X-0006250D01*
Y0031500D01*
X-0006500D01*
Y0032000D01*
X-0006750D01*
Y0032500D01*
X-0007250D01*
Y0032750D01*
X-0007500D01*
Y0033250D01*
X-0006250D01*
Y0033000D01*
D02*
G37*
G36*
X-0009750Y0031000D02*
X-0009500D01*
Y0030750D01*
X-0009250D01*
Y0030500D01*
X-0009500D01*
Y0030750D01*
X-0010000D01*
Y0031250D01*
X-0009750D01*
Y0031000D01*
D02*
G37*
G36*
X-0008250Y0030000D02*
X-0008750D01*
Y0030250D01*
X-0008250D01*
Y0030000D01*
D02*
G37*
G36*
X-0006750Y0031250D02*
X-0006000D01*
Y0030750D01*
X-0005750D01*
Y0030500D01*
X-0006250D01*
Y0030250D01*
X-0006500D01*
Y0030500D01*
X-0006750D01*
Y0031000D01*
X-0007000D01*
Y0032000D01*
X-0006750D01*
Y0031250D01*
D02*
G37*
G36*
X-0002750Y0027250D02*
X-0003000D01*
Y0027500D01*
X-0002750D01*
Y0027250D01*
D02*
G37*
G36*
X-0007750Y0026000D02*
X-0008000D01*
Y0026250D01*
X-0007750D01*
Y0026000D01*
D02*
G37*
G36*
X-0002750Y0026750D02*
X-0003000D01*
Y0027000D01*
X-0002750D01*
Y0026750D01*
D02*
G37*
G36*
X-0003000Y0027000D02*
X-0003250D01*
Y0027250D01*
X-0003000D01*
Y0027000D01*
D02*
G37*
G36*
X-0007750Y0031500D02*
X-0007500D01*
Y0031250D01*
X-0007250D01*
Y0031000D01*
X-0007000D01*
Y0030250D01*
X-0006750D01*
Y0029750D01*
X-0006500D01*
Y0029500D01*
X-0006750D01*
Y0029250D01*
X-0006250D01*
Y0029000D01*
X-0006000D01*
Y0029500D01*
X-0006250D01*
Y0030000D01*
X-0006000D01*
Y0030250D01*
X-0005750D01*
Y0029750D01*
X-0005250D01*
Y0029500D01*
X-0005000D01*
Y0028500D01*
X-0004750D01*
Y0028250D01*
X-0004500D01*
Y0028500D01*
X-0004250D01*
Y0028250D01*
X-0003750D01*
Y0028000D01*
X-0003500D01*
Y0027750D01*
X-0003250D01*
Y0027500D01*
X-0003750D01*
Y0027250D01*
X-0003500D01*
Y0027000D01*
X-0003250D01*
Y0026750D01*
X-0003000D01*
Y0026500D01*
X-0002750D01*
Y0026250D01*
X-0003000D01*
Y0026500D01*
X-0003250D01*
Y0026000D01*
X-0003500D01*
Y0026250D01*
X-0003750D01*
Y0026500D01*
X-0004000D01*
Y0026250D01*
X-0003750D01*
Y0026000D01*
X-0004500D01*
Y0026500D01*
X-0005250D01*
Y0026250D01*
X-0005000D01*
Y0026000D01*
X-0005750D01*
Y0026250D01*
X-0005500D01*
Y0026500D01*
X-0006000D01*
Y0026250D01*
X-0006250D01*
Y0026000D01*
X-0007250D01*
Y0026250D01*
X-0007750D01*
Y0026750D01*
X-0007500D01*
Y0026500D01*
X-0007250D01*
Y0026750D01*
X-0007500D01*
Y0027000D01*
X-0007750D01*
Y0027250D01*
X-0007500D01*
Y0027000D01*
X-0007250D01*
Y0027250D01*
X-0007000D01*
Y0026750D01*
X-0006750D01*
Y0026500D01*
X-0006500D01*
Y0026750D01*
X-0006000D01*
Y0027250D01*
X-0006250D01*
Y0027000D01*
X-0006750D01*
Y0027250D01*
X-0006500D01*
Y0027500D01*
X-0007750D01*
Y0027750D01*
X-0008000D01*
Y0028000D01*
X-0007750D01*
Y0027750D01*
X-0007250D01*
Y0028000D01*
X-0007500D01*
Y0028250D01*
X-0008250D01*
Y0028000D01*
X-0009750D01*
Y0028500D01*
X-0009250D01*
Y0028750D01*
X-0009500D01*
Y0029000D01*
X-0009750D01*
Y0029500D01*
X-0010000D01*
Y0029750D01*
X-0008000D01*
Y0029500D01*
X-0008500D01*
Y0029250D01*
X-0008000D01*
Y0029000D01*
X-0009000D01*
Y0029250D01*
X-0009250D01*
Y0029500D01*
X-0009500D01*
Y0029000D01*
X-0009250D01*
Y0028750D01*
X-0009000D01*
Y0028250D01*
X-0008750D01*
Y0028500D01*
X-0008500D01*
Y0028250D01*
X-0008250D01*
X-0008250Y0028500D01*
X-0008500D01*
Y0028750D01*
X-0008250D01*
Y0028500D01*
X-0008000D01*
Y0028750D01*
X-0007750D01*
Y0028500D01*
X-0007250D01*
Y0028000D01*
X-0007000D01*
Y0028500D01*
X-0006750D01*
Y0028250D01*
X-0006500D01*
Y0028750D01*
X-0006750D01*
Y0029250D01*
X-0007000D01*
Y0028750D01*
X-0007750D01*
Y0029000D01*
X-0007250D01*
Y0029250D01*
X-0007750D01*
Y0029500D01*
X-0007250D01*
Y0029750D01*
X-0008000D01*
Y0030000D01*
X-0007750D01*
Y0030750D01*
X-0007500D01*
Y0031250D01*
X-0007750D01*
Y0031000D01*
X-0008000D01*
Y0031750D01*
X-0007750D01*
Y0031500D01*
D02*
G37*
G36*
X-0002750Y0029250D02*
X-0003000D01*
Y0029500D01*
X-0002750D01*
Y0029250D01*
D02*
G37*
G36*
X-0008250Y0026000D02*
X-0010000D01*
Y0027500D01*
Y0027750D01*
X-0008250D01*
Y0026000D01*
D02*
G37*
G36*
X-0002750Y0028000D02*
X-0003500D01*
Y0028250D01*
X-0002750D01*
Y0028000D01*
D02*
G37*
G36*
X-0004750Y0032500D02*
X-0005000D01*
Y0032750D01*
X-0004750D01*
Y0032500D01*
D02*
G37*
G36*
X-0005250Y0032750D02*
X-0005500D01*
Y0033000D01*
X-0005750D01*
Y0033250D01*
X-0005250D01*
Y0032750D01*
D02*
G37*
G36*
X-0002750Y0031500D02*
X-0004500D01*
Y0033000D01*
Y0033250D01*
X-0002750D01*
Y0031500D01*
D02*
G37*
G36*
X-0004750Y0032000D02*
X-0005250D01*
Y0032250D01*
X-0004750D01*
Y0032000D01*
D02*
G37*
G36*
X-0026000Y0000750D02*
X-0049000D01*
Y0005000D01*
X-0026000D01*
Y0000750D01*
D02*
G37*
G36*
X-0005750Y0032500D02*
X-0005500D01*
Y0032250D01*
X-0005750D01*
Y0032500D01*
X-0006000D01*
Y0033000D01*
X-0005750D01*
Y0032500D01*
D02*
G37*
G36*
X-0007750Y0032250D02*
X-0007250D01*
Y0031500D01*
X-0007500D01*
Y0031750D01*
X-0007750D01*
Y0032250D01*
X-0008000D01*
Y0033000D01*
X-0007750D01*
Y0032250D01*
D02*
G37*
G36*
X-0003000Y0030750D02*
X-0003500D01*
Y0031000D01*
X-0003750D01*
Y0031250D01*
X-0003000D01*
Y0030750D01*
D02*
G37*
G36*
X-0008000Y0030500D02*
X-0008750D01*
Y0031000D01*
X-0008500D01*
Y0030750D01*
X-0008250D01*
Y0031000D01*
X-0008000D01*
Y0030500D01*
D02*
G37*
G36*
X-0009000Y0030750D02*
X-0009250D01*
Y0031000D01*
X-0009000D01*
Y0030750D01*
D02*
G37*
G36*
X-0008250Y0031500D02*
X-0010000D01*
Y0033000D01*
Y0033250D01*
X-0008250D01*
Y0031500D01*
D02*
G37*
G36*
X-0008250Y0031000D02*
X-0008500D01*
Y0031250D01*
X-0008250D01*
Y0031000D01*
D02*
G37*
%LPC*%
G36*
X-0003500Y0029500D02*
X-0003750D01*
Y0029250D01*
X-0003500D01*
Y0029500D01*
D02*
G37*
G36*
X-0005500Y0031750D02*
X-0005750D01*
Y0031250D01*
X-0005500D01*
Y0031000D01*
X-0005250D01*
Y0031250D01*
X-0005500D01*
Y0031750D01*
D02*
G37*
G36*
X-0005750Y0029750D02*
X-0006000D01*
Y0029500D01*
X-0005750D01*
Y0029000D01*
X-0005250D01*
Y0029500D01*
X-0005750D01*
Y0029750D01*
D02*
G37*
G36*
X-0008750Y0029500D02*
X-0009000D01*
Y0029250D01*
X-0008750D01*
Y0029500D01*
D02*
G37*
G36*
X-0006250Y0029000D02*
X-0006500D01*
Y0028750D01*
X-0006250D01*
Y0029000D01*
D02*
G37*
G36*
X-0004000Y0028000D02*
X-0004750D01*
Y0027250D01*
X-0004500D01*
Y0027000D01*
Y0026750D01*
X-0003750D01*
Y0027000D01*
X-0004500D01*
Y0027250D01*
X-0004000D01*
Y0028000D01*
D02*
G37*
G36*
X-0006250D02*
X-0006750D01*
Y0027750D01*
X-0006500D01*
Y0027500D01*
X-0006250D01*
Y0028000D01*
D02*
G37*
G36*
X-0005250Y0028750D02*
X-0005500D01*
Y0028500D01*
X-0005250D01*
Y0028250D01*
X-0005000D01*
Y0028500D01*
X-0005250D01*
Y0028750D01*
D02*
G37*
G36*
X-0005750D02*
X-0006000D01*
Y0028500D01*
X-0006250D01*
Y0028000D01*
X-0006000D01*
Y0027500D01*
X-0005750D01*
Y0026750D01*
X-0005500D01*
Y0027000D01*
X-0005250D01*
Y0027500D01*
X-0005500D01*
Y0028000D01*
X-0005750D01*
Y0028250D01*
X-0005500D01*
Y0028000D01*
X-0005250D01*
Y0027750D01*
X-0005000D01*
Y0028000D01*
X-0005250D01*
Y0028250D01*
X-0005500D01*
Y0028500D01*
X-0005750D01*
Y0028750D01*
D02*
G37*
%LPD*%
G36*
X-0004250Y0027500D02*
X-0004500D01*
Y0027750D01*
X-0004250D01*
Y0027500D01*
D02*
G37*
%LPC*%
G36*
X-0008500Y0027500D02*
X-0009750D01*
Y0026250D01*
X-0008500D01*
Y0027500D01*
D02*
G37*
%LPD*%
G36*
X-0008750Y0026500D02*
X-0009500D01*
Y0027250D01*
X-0008750D01*
Y0026500D01*
D02*
G37*
%LPC*%
G36*
X-0003000Y0033000D02*
X-0004250D01*
Y0031750D01*
X-0003000D01*
Y0033000D01*
D02*
G37*
%LPD*%
G36*
X-0003250Y0032000D02*
X-0004000D01*
Y0032750D01*
X-0003250D01*
Y0032000D01*
D02*
G37*
%LPC*%
G36*
X-0036218Y0003981D02*
X-0036274D01*
X-0036375Y0003976D01*
X-0036473Y0003963D01*
X-0036561Y0003944D01*
X-0036639Y0003926D01*
X-0036709Y0003907D01*
X-0036760Y0003889D01*
X-0036778Y0003879D01*
X-0036792Y0003875D01*
X-0036797Y0003870D01*
X-0036801D01*
X-0036889Y0003828D01*
X-0036972Y0003777D01*
X-0037042Y0003727D01*
X-0037102Y0003676D01*
X-0037148Y0003629D01*
X-0037185Y0003592D01*
X-0037204Y0003569D01*
X-0037213Y0003565D01*
Y0003560D01*
X-0037273Y0003481D01*
X-0037324Y0003389D01*
X-0037375Y0003301D01*
X-0037417Y0003213D01*
X-0037449Y0003134D01*
X-0037463Y0003102D01*
X-0037472Y0003069D01*
X-0037481Y0003046D01*
X-0037491Y0003028D01*
X-0037495Y0003018D01*
Y0003014D01*
X-0037759Y0002241D01*
X-0037792Y0002135D01*
X-0037819Y0002047D01*
X-0037838Y0001968D01*
X-0037852Y0001903D01*
X-0037861Y0001852D01*
X-0037866Y0001815D01*
X-0037870Y0001797D01*
Y0001787D01*
Y0001732D01*
X-0037866Y0001681D01*
X-0037856Y0001630D01*
X-0037847Y0001588D01*
X-0037833Y0001556D01*
X-0037824Y0001528D01*
X-0037819Y0001510D01*
X-0037815Y0001505D01*
X-0037787Y0001459D01*
X-0037750Y0001417D01*
X-0037713Y0001385D01*
X-0037671Y0001357D01*
X-0037634Y0001334D01*
X-0037606Y0001315D01*
X-0037588Y0001306D01*
X-0037579Y0001302D01*
X-0037509Y0001278D01*
X-0037440Y0001260D01*
X-0037370Y0001251D01*
X-0037301Y0001241D01*
X-0037241Y0001237D01*
X-0037195Y0001232D01*
X-0037153D01*
X-0037056Y0001237D01*
X-0036968Y0001246D01*
X-0036889Y0001255D01*
X-0036824Y0001269D01*
X-0036769Y0001283D01*
X-0036727Y0001297D01*
X-0036699Y0001302D01*
X-0036690Y0001306D01*
X-0036616Y0001339D01*
X-0036547Y0001371D01*
X-0036486Y0001408D01*
X-0036431Y0001445D01*
X-0036385Y0001477D01*
X-0036352Y0001505D01*
X-0036334Y0001524D01*
X-0036325Y0001528D01*
X-0036264Y0001584D01*
X-0036218Y0001635D01*
X-0036176Y0001686D01*
X-0036139Y0001727D01*
X-0036116Y0001760D01*
X-0036098Y0001787D01*
X-0036089Y0001806D01*
X-0036084Y0001811D01*
X-0036056Y0001866D01*
X-0036024Y0001926D01*
X-0035996Y0001991D01*
X-0035973Y0002051D01*
X-0035954Y0002107D01*
X-0035936Y0002148D01*
X-0035931Y0002167D01*
X-0035927Y0002181D01*
X-0035922Y0002185D01*
Y0002190D01*
X-0035857Y0002389D01*
X-0036625D01*
X-0036746Y0002037D01*
X-0036769Y0001968D01*
X-0036792Y0001912D01*
X-0036810Y0001866D01*
X-0036829Y0001829D01*
X-0036843Y0001801D01*
X-0036857Y0001783D01*
X-0036861Y0001774D01*
X-0036866Y0001769D01*
X-0036884Y0001746D01*
X-0036908Y0001732D01*
X-0036959Y0001713D01*
X-0036977Y0001709D01*
X-0036996Y0001704D01*
X-0037009D01*
X-0037033Y0001709D01*
X-0037051Y0001713D01*
X-0037074Y0001732D01*
X-0037083Y0001746D01*
X-0037088Y0001755D01*
Y0001778D01*
X-0037083Y0001811D01*
X-0037074Y0001852D01*
X-0037065Y0001889D01*
X-0037051Y0001926D01*
X-0037042Y0001959D01*
X-0037037Y0001977D01*
X-0037033Y0001986D01*
X-0036838Y0002560D01*
X-0035797D01*
X-0035681Y0002912D01*
X-0035640Y0003046D01*
X-0035607Y0003167D01*
X-0035584Y0003268D01*
X-0035575Y0003356D01*
X-0035566Y0003421D01*
Y0003449D01*
Y0003472D01*
Y0003486D01*
Y0003500D01*
Y0003504D01*
Y0003509D01*
X-0035579Y0003583D01*
X-0035603Y0003652D01*
X-0035635Y0003713D01*
X-0035667Y0003759D01*
X-0035700Y0003801D01*
X-0035732Y0003828D01*
X-0035751Y0003847D01*
X-0035760Y0003851D01*
X-0035834Y0003893D01*
X-0035913Y0003926D01*
X-0036001Y0003949D01*
X-0036084Y0003967D01*
X-0036158Y0003976D01*
X-0036190D01*
X-0036218Y0003981D01*
D02*
G37*
G36*
X-0042716D02*
X-0042748D01*
X-0042808Y0003976D01*
X-0042868Y0003967D01*
X-0042924Y0003958D01*
X-0042970Y0003944D01*
X-0043012Y0003926D01*
X-0043040Y0003916D01*
X-0043058Y0003907D01*
X-0043067Y0003902D01*
X-0043123Y0003870D01*
X-0043178Y0003838D01*
X-0043225Y0003801D01*
X-0043271Y0003764D01*
X-0043308Y0003731D01*
X-0043336Y0003703D01*
X-0043354Y0003685D01*
X-0043359Y0003680D01*
X-0043262Y0003930D01*
X-0044085D01*
X-0044983Y0001278D01*
X-0044173D01*
X-0043567Y0003069D01*
X-0043549Y0003125D01*
X-0043530Y0003171D01*
X-0043516Y0003217D01*
X-0043502Y0003254D01*
X-0043475Y0003319D01*
X-0043456Y0003366D01*
X-0043438Y0003403D01*
X-0043428Y0003426D01*
X-0043419Y0003435D01*
Y0003440D01*
X-0043401Y0003463D01*
X-0043377Y0003481D01*
X-0043359Y0003491D01*
X-0043336Y0003500D01*
X-0043317Y0003504D01*
X-0043303Y0003509D01*
X-0043289D01*
X-0043262Y0003504D01*
X-0043243Y0003500D01*
X-0043229Y0003491D01*
X-0043220Y0003481D01*
X-0043211Y0003458D01*
Y0003453D01*
Y0003449D01*
Y0003435D01*
X-0043215Y0003416D01*
X-0043225Y0003370D01*
X-0043243Y0003315D01*
X-0043257Y0003259D01*
X-0043276Y0003204D01*
X-0043294Y0003157D01*
X-0043299Y0003139D01*
X-0043303Y0003125D01*
X-0043308Y0003116D01*
Y0003111D01*
X-0043928Y0001278D01*
X-0043118D01*
X-0042489Y0003139D01*
X-0042466Y0003204D01*
X-0042447Y0003259D01*
X-0042419Y0003361D01*
X-0042396Y0003449D01*
X-0042378Y0003518D01*
X-0042369Y0003569D01*
X-0042364Y0003606D01*
X-0042359Y0003629D01*
Y0003634D01*
Y0003685D01*
X-0042369Y0003736D01*
X-0042378Y0003777D01*
X-0042396Y0003814D01*
X-0042410Y0003842D01*
X-0042429Y0003861D01*
X-0042438Y0003875D01*
X-0042443Y0003879D01*
X-0042484Y0003912D01*
X-0042531Y0003939D01*
X-0042581Y0003958D01*
X-0042632Y0003967D01*
X-0042679Y0003976D01*
X-0042716Y0003981D01*
D02*
G37*
G36*
X-0039735D02*
X-0039800D01*
X-0039925Y0003976D01*
X-0040036Y0003963D01*
X-0040143Y0003939D01*
X-0040230Y0003916D01*
X-0040300Y0003893D01*
X-0040332Y0003884D01*
X-0040355Y0003870D01*
X-0040374Y0003865D01*
X-0040388Y0003856D01*
X-0040397Y0003851D01*
X-0040402D01*
X-0040490Y0003801D01*
X-0040568Y0003750D01*
X-0040633Y0003699D01*
X-0040689Y0003657D01*
X-0040730Y0003615D01*
X-0040763Y0003583D01*
X-0040781Y0003565D01*
X-0040786Y0003555D01*
X-0040832Y0003486D01*
X-0040874Y0003412D01*
X-0040915Y0003333D01*
X-0040948Y0003254D01*
X-0040976Y0003185D01*
X-0040999Y0003130D01*
X-0041008Y0003106D01*
X-0041013Y0003093D01*
X-0041017Y0003083D01*
Y0003079D01*
X-0041077Y0002903D01*
X-0040318D01*
X-0040226Y0003180D01*
X-0040198Y0003254D01*
X-0040175Y0003319D01*
X-0040156Y0003366D01*
X-0040138Y0003403D01*
X-0040124Y0003426D01*
X-0040115Y0003444D01*
X-0040110Y0003449D01*
Y0003453D01*
X-0040096Y0003472D01*
X-0040078Y0003486D01*
X-0040036Y0003504D01*
X-0040018D01*
X-0040004Y0003509D01*
X-0039990D01*
X-0039967Y0003504D01*
X-0039948Y0003500D01*
X-0039925Y0003477D01*
X-0039916Y0003453D01*
X-0039911Y0003449D01*
Y0003444D01*
Y0003412D01*
X-0039916Y0003375D01*
X-0039925Y0003329D01*
X-0039939Y0003282D01*
X-0039948Y0003241D01*
X-0039962Y0003204D01*
X-0039967Y0003180D01*
X-0039971Y0003176D01*
Y0003171D01*
X-0039990Y0003116D01*
X-0040008Y0003065D01*
X-0040027Y0003028D01*
X-0040041Y0003000D01*
X-0040055Y0002977D01*
X-0040064Y0002958D01*
X-0040073Y0002954D01*
Y0002949D01*
X-0040087Y0002940D01*
X-0040105Y0002926D01*
X-0040138Y0002912D01*
X-0040170Y0002894D01*
X-0040254Y0002861D01*
X-0040342Y0002824D01*
X-0040425Y0002792D01*
X-0040466Y0002778D01*
X-0040499Y0002769D01*
X-0040531Y0002755D01*
X-0040554Y0002750D01*
X-0040568Y0002741D01*
X-0040573D01*
X-0040647Y0002713D01*
X-0040716Y0002690D01*
X-0040781Y0002667D01*
X-0040837Y0002644D01*
X-0040888Y0002620D01*
X-0040934Y0002597D01*
X-0040971Y0002579D01*
X-0041008Y0002560D01*
X-0041036Y0002546D01*
X-0041059Y0002533D01*
X-0041096Y0002509D01*
X-0041119Y0002496D01*
X-0041124Y0002491D01*
X-0041170Y0002445D01*
X-0041216Y0002384D01*
X-0041253Y0002315D01*
X-0041286Y0002250D01*
X-0041318Y0002185D01*
X-0041337Y0002135D01*
X-0041346Y0002116D01*
X-0041350Y0002102D01*
X-0041355Y0002093D01*
Y0002088D01*
X-0041429Y0001871D01*
X-0041452Y0001797D01*
X-0041466Y0001732D01*
X-0041480Y0001672D01*
X-0041485Y0001621D01*
X-0041489Y0001570D01*
Y0001528D01*
X-0041485Y0001491D01*
X-0041480Y0001459D01*
X-0041471Y0001431D01*
X-0041466Y0001408D01*
X-0041448Y0001371D01*
X-0041434Y0001352D01*
X-0041429Y0001348D01*
X-0041374Y0001311D01*
X-0041318Y0001283D01*
X-0041258Y0001260D01*
X-0041202Y0001246D01*
X-0041156Y0001237D01*
X-0041114Y0001232D01*
X-0041082D01*
X-0041022Y0001237D01*
X-0040962Y0001241D01*
X-0040911Y0001255D01*
X-0040864Y0001269D01*
X-0040827Y0001278D01*
X-0040800Y0001292D01*
X-0040781Y0001297D01*
X-0040777Y0001302D01*
X-0040726Y0001329D01*
X-0040675Y0001366D01*
X-0040628Y0001399D01*
X-0040591Y0001436D01*
X-0040559Y0001464D01*
X-0040536Y0001491D01*
X-0040517Y0001510D01*
X-0040513Y0001514D01*
X-0040591Y0001278D01*
X-0039805D01*
X-0039356Y0002607D01*
X-0039314Y0002727D01*
X-0039282Y0002833D01*
X-0039249Y0002931D01*
X-0039222Y0003023D01*
X-0039194Y0003102D01*
X-0039175Y0003171D01*
X-0039157Y0003236D01*
X-0039143Y0003292D01*
X-0039134Y0003338D01*
X-0039120Y0003375D01*
X-0039115Y0003407D01*
X-0039111Y0003435D01*
X-0039106Y0003453D01*
X-0039101Y0003467D01*
Y0003472D01*
Y0003477D01*
X-0039097Y0003555D01*
X-0039106Y0003620D01*
X-0039129Y0003685D01*
X-0039152Y0003736D01*
X-0039180Y0003777D01*
X-0039208Y0003805D01*
X-0039222Y0003828D01*
X-0039231Y0003833D01*
X-0039263Y0003861D01*
X-0039300Y0003884D01*
X-0039388Y0003921D01*
X-0039481Y0003944D01*
X-0039573Y0003963D01*
X-0039661Y0003972D01*
X-0039698Y0003976D01*
X-0039735Y0003981D01*
D02*
G37*
G36*
X-0032076Y0004518D02*
X-0032918D01*
X-0034015Y0001278D01*
X-0032659D01*
X-0032442Y0001926D01*
X-0032955D01*
X-0032076Y0004518D01*
D02*
G37*
G36*
X-0040966Y0004286D02*
X-0041776D01*
X-0041915Y0003870D01*
X-0042091D01*
X-0042234Y0003449D01*
X-0042058D01*
X-0042517Y0002098D01*
X-0042540Y0002028D01*
X-0042563Y0001963D01*
X-0042581Y0001903D01*
X-0042595Y0001852D01*
X-0042609Y0001806D01*
X-0042623Y0001764D01*
X-0042632Y0001727D01*
X-0042642Y0001700D01*
X-0042651Y0001649D01*
X-0042660Y0001616D01*
X-0042665Y0001598D01*
Y0001593D01*
Y0001556D01*
Y0001519D01*
X-0042655Y0001487D01*
X-0042646Y0001459D01*
X-0042637Y0001436D01*
X-0042628Y0001417D01*
X-0042623Y0001408D01*
X-0042618Y0001403D01*
X-0042595Y0001376D01*
X-0042568Y0001352D01*
X-0042540Y0001334D01*
X-0042512Y0001320D01*
X-0042484Y0001311D01*
X-0042466Y0001302D01*
X-0042452Y0001297D01*
X-0042447D01*
X-0042401Y0001292D01*
X-0042341Y0001288D01*
X-0042276Y0001283D01*
X-0042211D01*
X-0042156Y0001278D01*
X-0041735D01*
X-0041591Y0001704D01*
X-0041656D01*
X-0041707Y0001709D01*
X-0041748Y0001713D01*
X-0041776Y0001718D01*
X-0041790Y0001723D01*
X-0041804Y0001727D01*
X-0041809Y0001732D01*
Y0001741D01*
Y0001750D01*
X-0041804Y0001787D01*
X-0041790Y0001838D01*
X-0041776Y0001889D01*
X-0041762Y0001940D01*
X-0041748Y0001982D01*
X-0041744Y0002000D01*
X-0041739Y0002014D01*
X-0041735Y0002019D01*
Y0002023D01*
X-0041249Y0003449D01*
X-0041031D01*
X-0040888Y0003870D01*
X-0041105D01*
X-0040966Y0004286D01*
D02*
G37*
G36*
X-0044488Y0004518D02*
X-0045701D01*
X-0047228Y0001278D01*
X-0046362D01*
X-0046117Y0001861D01*
X-0045807D01*
X-0045960Y0001278D01*
X-0045104D01*
X-0044488Y0004518D01*
D02*
G37*
G36*
X-0034233Y0003981D02*
X-0034274D01*
X-0034372Y0003976D01*
X-0034464Y0003967D01*
X-0034552Y0003953D01*
X-0034626Y0003939D01*
X-0034686Y0003926D01*
X-0034733Y0003912D01*
X-0034751Y0003907D01*
X-0034765Y0003902D01*
X-0034770Y0003898D01*
X-0034774D01*
X-0034853Y0003865D01*
X-0034927Y0003824D01*
X-0034987Y0003787D01*
X-0035038Y0003750D01*
X-0035080Y0003713D01*
X-0035112Y0003685D01*
X-0035131Y0003666D01*
X-0035135Y0003662D01*
X-0035186Y0003602D01*
X-0035228Y0003528D01*
X-0035269Y0003449D01*
X-0035306Y0003375D01*
X-0035339Y0003305D01*
X-0035362Y0003245D01*
X-0035371Y0003227D01*
X-0035376Y0003208D01*
X-0035380Y0003199D01*
Y0003194D01*
X-0035404Y0003116D01*
X-0035417Y0003042D01*
X-0035427Y0002977D01*
X-0035431Y0002921D01*
X-0035436Y0002875D01*
X-0035431Y0002838D01*
Y0002819D01*
Y0002810D01*
X-0035422Y0002778D01*
X-0035413Y0002750D01*
X-0035371Y0002685D01*
X-0035325Y0002625D01*
X-0035269Y0002565D01*
X-0035214Y0002519D01*
X-0035168Y0002477D01*
X-0035149Y0002463D01*
X-0035135Y0002454D01*
X-0035126Y0002449D01*
X-0035121Y0002445D01*
X-0035061Y0002403D01*
X-0035006Y0002366D01*
X-0034959Y0002334D01*
X-0034918Y0002301D01*
X-0034881Y0002278D01*
X-0034848Y0002255D01*
X-0034825Y0002232D01*
X-0034802Y0002218D01*
X-0034774Y0002190D01*
X-0034756Y0002176D01*
X-0034746Y0002167D01*
Y0002162D01*
X-0034742Y0002139D01*
Y0002107D01*
X-0034746Y0002070D01*
X-0034756Y0002028D01*
X-0034765Y0001991D01*
X-0034774Y0001959D01*
X-0034779Y0001936D01*
X-0034783Y0001926D01*
X-0034802Y0001880D01*
X-0034816Y0001838D01*
X-0034834Y0001811D01*
X-0034848Y0001783D01*
X-0034862Y0001764D01*
X-0034871Y0001755D01*
X-0034876Y0001746D01*
X-0034881D01*
X-0034922Y0001723D01*
X-0034964Y0001709D01*
X-0034982D01*
X-0034996Y0001704D01*
X-0035010D01*
X-0035038Y0001709D01*
X-0035061Y0001713D01*
X-0035075Y0001723D01*
X-0035084Y0001737D01*
X-0035098Y0001755D01*
Y0001760D01*
Y0001764D01*
Y0001797D01*
X-0035089Y0001834D01*
X-0035080Y0001880D01*
X-0035066Y0001926D01*
X-0035052Y0001973D01*
X-0035038Y0002010D01*
X-0035033Y0002033D01*
X-0035029Y0002042D01*
X-0034973Y0002213D01*
X-0035690D01*
X-0035732Y0002084D01*
X-0035769Y0001968D01*
X-0035792Y0001866D01*
X-0035811Y0001778D01*
X-0035820Y0001709D01*
X-0035825Y0001653D01*
Y0001616D01*
X-0035820Y0001593D01*
Y0001584D01*
X-0035802Y0001528D01*
X-0035774Y0001477D01*
X-0035741Y0001431D01*
X-0035704Y0001394D01*
X-0035667Y0001366D01*
X-0035635Y0001343D01*
X-0035616Y0001329D01*
X-0035607Y0001325D01*
X-0035533Y0001292D01*
X-0035450Y0001269D01*
X-0035371Y0001255D01*
X-0035288Y0001246D01*
X-0035218Y0001237D01*
X-0035191D01*
X-0035163Y0001232D01*
X-0035112D01*
X-0035010Y0001237D01*
X-0034918Y0001246D01*
X-0034830Y0001260D01*
X-0034756Y0001278D01*
X-0034696Y0001292D01*
X-0034649Y0001306D01*
X-0034631Y0001311D01*
X-0034617Y0001315D01*
X-0034612Y0001320D01*
X-0034608D01*
X-0034529Y0001357D01*
X-0034455Y0001394D01*
X-0034390Y0001436D01*
X-0034339Y0001477D01*
X-0034298Y0001514D01*
X-0034265Y0001542D01*
X-0034247Y0001561D01*
X-0034242Y0001570D01*
X-0034191Y0001639D01*
X-0034145Y0001718D01*
X-0034103Y0001797D01*
X-0034066Y0001880D01*
X-0034034Y0001949D01*
X-0034020Y0001982D01*
X-0034011Y0002010D01*
X-0034001Y0002028D01*
X-0033997Y0002047D01*
X-0033992Y0002056D01*
Y0002060D01*
X-0033964Y0002162D01*
X-0033946Y0002250D01*
X-0033937Y0002329D01*
Y0002389D01*
Y0002440D01*
X-0033941Y0002472D01*
X-0033946Y0002496D01*
X-0033950Y0002500D01*
X-0033964Y0002528D01*
X-0033983Y0002560D01*
X-0034029Y0002616D01*
X-0034089Y0002671D01*
X-0034149Y0002718D01*
X-0034205Y0002764D01*
X-0034256Y0002796D01*
X-0034274Y0002806D01*
X-0034288Y0002815D01*
X-0034298Y0002824D01*
X-0034302D01*
X-0034376Y0002870D01*
X-0034441Y0002912D01*
X-0034492Y0002944D01*
X-0034529Y0002972D01*
X-0034557Y0002995D01*
X-0034575Y0003009D01*
X-0034584Y0003018D01*
X-0034589Y0003023D01*
X-0034608Y0003046D01*
X-0034621Y0003074D01*
X-0034640Y0003111D01*
X-0034649Y0003139D01*
Y0003143D01*
Y0003148D01*
X-0034645Y0003171D01*
X-0034640Y0003199D01*
X-0034626Y0003259D01*
X-0034617Y0003287D01*
X-0034608Y0003310D01*
X-0034603Y0003324D01*
Y0003329D01*
X-0034575Y0003389D01*
X-0034552Y0003430D01*
X-0034534Y0003453D01*
X-0034524Y0003463D01*
X-0034483Y0003491D01*
X-0034446Y0003504D01*
X-0034413Y0003509D01*
X-0034376D01*
X-0034353Y0003500D01*
X-0034339Y0003495D01*
X-0034330Y0003486D01*
X-0034316Y0003467D01*
Y0003463D01*
Y0003458D01*
Y0003435D01*
X-0034321Y0003403D01*
X-0034330Y0003361D01*
X-0034344Y0003324D01*
X-0034353Y0003287D01*
X-0034362Y0003254D01*
X-0034367Y0003236D01*
X-0034372Y0003227D01*
X-0034422Y0003083D01*
X-0033705D01*
X-0033654Y0003236D01*
X-0033631Y0003305D01*
X-0033613Y0003366D01*
X-0033599Y0003416D01*
X-0033589Y0003458D01*
X-0033580Y0003486D01*
Y0003509D01*
X-0033576Y0003523D01*
Y0003528D01*
Y0003565D01*
Y0003602D01*
X-0033594Y0003666D01*
X-0033608Y0003694D01*
X-0033617Y0003713D01*
X-0033622Y0003727D01*
X-0033626Y0003731D01*
X-0033654Y0003773D01*
X-0033687Y0003805D01*
X-0033724Y0003838D01*
X-0033761Y0003865D01*
X-0033793Y0003884D01*
X-0033821Y0003898D01*
X-0033839Y0003907D01*
X-0033849Y0003912D01*
X-0033913Y0003935D01*
X-0033983Y0003953D01*
X-0034052Y0003963D01*
X-0034122Y0003972D01*
X-0034182Y0003976D01*
X-0034233Y0003981D01*
D02*
G37*
G36*
X-0037324D02*
X-0037389Y0003972D01*
X-0037449Y0003958D01*
X-0037509Y0003935D01*
X-0037569Y0003907D01*
X-0037676Y0003842D01*
X-0037773Y0003773D01*
X-0037815Y0003736D01*
X-0037852Y0003699D01*
X-0037889Y0003666D01*
X-0037917Y0003639D01*
X-0037935Y0003615D01*
X-0037954Y0003597D01*
X-0037963Y0003583D01*
X-0037967Y0003578D01*
X-0037824Y0003930D01*
X-0038629D01*
X-0039527Y0001278D01*
X-0038717D01*
X-0038365Y0002324D01*
X-0038342Y0002394D01*
X-0038319Y0002454D01*
X-0038296Y0002514D01*
X-0038277Y0002565D01*
X-0038259Y0002607D01*
X-0038245Y0002648D01*
X-0038231Y0002685D01*
X-0038217Y0002713D01*
X-0038199Y0002759D01*
X-0038180Y0002792D01*
X-0038176Y0002810D01*
X-0038171Y0002815D01*
X-0038148Y0002856D01*
X-0038116Y0002889D01*
X-0038088Y0002917D01*
X-0038060Y0002944D01*
X-0038032Y0002963D01*
X-0038009Y0002977D01*
X-0037995Y0002981D01*
X-0037991Y0002986D01*
X-0037940Y0003005D01*
X-0037884Y0003023D01*
X-0037824Y0003032D01*
X-0037768Y0003037D01*
X-0037722Y0003042D01*
X-0037680Y0003046D01*
X-0037643D01*
X-0037324Y0003981D01*
D02*
G37*
G36*
X-0030623D02*
X-0030688D01*
X-0030813Y0003976D01*
X-0030924Y0003963D01*
X-0031030Y0003939D01*
X-0031118Y0003916D01*
X-0031188Y0003893D01*
X-0031220Y0003884D01*
X-0031243Y0003870D01*
X-0031262Y0003865D01*
X-0031275Y0003856D01*
X-0031285Y0003851D01*
X-0031289D01*
X-0031377Y0003801D01*
X-0031456Y0003750D01*
X-0031521Y0003699D01*
X-0031576Y0003657D01*
X-0031618Y0003615D01*
X-0031650Y0003583D01*
X-0031669Y0003565D01*
X-0031674Y0003555D01*
X-0031720Y0003486D01*
X-0031761Y0003412D01*
X-0031803Y0003333D01*
X-0031835Y0003254D01*
X-0031863Y0003185D01*
X-0031886Y0003130D01*
X-0031896Y0003106D01*
X-0031900Y0003093D01*
X-0031905Y0003083D01*
Y0003079D01*
X-0031965Y0002903D01*
X-0031206D01*
X-0031114Y0003180D01*
X-0031086Y0003254D01*
X-0031063Y0003319D01*
X-0031044Y0003366D01*
X-0031026Y0003403D01*
X-0031012Y0003426D01*
X-0031002Y0003444D01*
X-0030998Y0003449D01*
Y0003453D01*
X-0030984Y0003472D01*
X-0030965Y0003486D01*
X-0030924Y0003504D01*
X-0030905D01*
X-0030891Y0003509D01*
X-0030878D01*
X-0030854Y0003504D01*
X-0030836Y0003500D01*
X-0030813Y0003477D01*
X-0030803Y0003453D01*
X-0030799Y0003449D01*
Y0003444D01*
Y0003412D01*
X-0030803Y0003375D01*
X-0030813Y0003329D01*
X-0030827Y0003282D01*
X-0030836Y0003241D01*
X-0030850Y0003204D01*
X-0030854Y0003180D01*
X-0030859Y0003176D01*
Y0003171D01*
X-0030878Y0003116D01*
X-0030896Y0003065D01*
X-0030915Y0003028D01*
X-0030928Y0003000D01*
X-0030942Y0002977D01*
X-0030952Y0002958D01*
X-0030961Y0002954D01*
Y0002949D01*
X-0030975Y0002940D01*
X-0030993Y0002926D01*
X-0031026Y0002912D01*
X-0031058Y0002894D01*
X-0031141Y0002861D01*
X-0031229Y0002824D01*
X-0031313Y0002792D01*
X-0031354Y0002778D01*
X-0031387Y0002769D01*
X-0031419Y0002755D01*
X-0031442Y0002750D01*
X-0031456Y0002741D01*
X-0031461D01*
X-0031535Y0002713D01*
X-0031604Y0002690D01*
X-0031669Y0002667D01*
X-0031724Y0002644D01*
X-0031775Y0002620D01*
X-0031822Y0002597D01*
X-0031859Y0002579D01*
X-0031896Y0002560D01*
X-0031923Y0002546D01*
X-0031947Y0002533D01*
X-0031984Y0002509D01*
X-0032007Y0002496D01*
X-0032011Y0002491D01*
X-0032058Y0002445D01*
X-0032104Y0002384D01*
X-0032141Y0002315D01*
X-0032173Y0002250D01*
X-0032206Y0002185D01*
X-0032224Y0002135D01*
X-0032233Y0002116D01*
X-0032238Y0002102D01*
X-0032243Y0002093D01*
Y0002088D01*
X-0032317Y0001871D01*
X-0032340Y0001797D01*
X-0032354Y0001732D01*
X-0032368Y0001672D01*
X-0032372Y0001621D01*
X-0032377Y0001570D01*
Y0001528D01*
X-0032372Y0001491D01*
X-0032368Y0001459D01*
X-0032358Y0001431D01*
X-0032354Y0001408D01*
X-0032335Y0001371D01*
X-0032321Y0001352D01*
X-0032317Y0001348D01*
X-0032261Y0001311D01*
X-0032206Y0001283D01*
X-0032146Y0001260D01*
X-0032090Y0001246D01*
X-0032044Y0001237D01*
X-0032002Y0001232D01*
X-0031970D01*
X-0031910Y0001237D01*
X-0031849Y0001241D01*
X-0031798Y0001255D01*
X-0031752Y0001269D01*
X-0031715Y0001278D01*
X-0031687Y0001292D01*
X-0031669Y0001297D01*
X-0031664Y0001302D01*
X-0031613Y0001329D01*
X-0031562Y0001366D01*
X-0031516Y0001399D01*
X-0031479Y0001436D01*
X-0031447Y0001464D01*
X-0031424Y0001491D01*
X-0031405Y0001510D01*
X-0031400Y0001514D01*
X-0031479Y0001278D01*
X-0030692D01*
X-0030243Y0002607D01*
X-0030202Y0002727D01*
X-0030169Y0002833D01*
X-0030137Y0002931D01*
X-0030109Y0003023D01*
X-0030082Y0003102D01*
X-0030063Y0003171D01*
X-0030044Y0003236D01*
X-0030031Y0003292D01*
X-0030021Y0003338D01*
X-0030007Y0003375D01*
X-0030003Y0003407D01*
X-0029998Y0003435D01*
X-0029994Y0003453D01*
X-0029989Y0003467D01*
Y0003472D01*
Y0003477D01*
X-0029984Y0003555D01*
X-0029994Y0003620D01*
X-0030017Y0003685D01*
X-0030040Y0003736D01*
X-0030068Y0003777D01*
X-0030095Y0003805D01*
X-0030109Y0003828D01*
X-0030119Y0003833D01*
X-0030151Y0003861D01*
X-0030188Y0003884D01*
X-0030276Y0003921D01*
X-0030368Y0003944D01*
X-0030461Y0003963D01*
X-0030549Y0003972D01*
X-0030586Y0003976D01*
X-0030623Y0003981D01*
D02*
G37*
G36*
X-0028508Y0004518D02*
X-0029318D01*
X-0030415Y0001278D01*
X-0029656D01*
X-0029535Y0001477D01*
X-0029512Y0001436D01*
X-0029485Y0001394D01*
X-0029457Y0001366D01*
X-0029434Y0001339D01*
X-0029410Y0001320D01*
X-0029392Y0001302D01*
X-0029378Y0001297D01*
X-0029373Y0001292D01*
X-0029332Y0001274D01*
X-0029295Y0001260D01*
X-0029253Y0001246D01*
X-0029216Y0001241D01*
X-0029184Y0001237D01*
X-0029156Y0001232D01*
X-0029133D01*
X-0029059Y0001237D01*
X-0028989Y0001246D01*
X-0028925Y0001265D01*
X-0028869Y0001283D01*
X-0028823Y0001302D01*
X-0028786Y0001320D01*
X-0028763Y0001329D01*
X-0028753Y0001334D01*
X-0028689Y0001376D01*
X-0028633Y0001417D01*
X-0028587Y0001459D01*
X-0028550Y0001501D01*
X-0028522Y0001533D01*
X-0028503Y0001561D01*
X-0028490Y0001579D01*
X-0028485Y0001584D01*
X-0028452Y0001644D01*
X-0028420Y0001713D01*
X-0028388Y0001783D01*
X-0028360Y0001857D01*
X-0028337Y0001917D01*
X-0028318Y0001973D01*
X-0028309Y0001991D01*
X-0028304Y0002005D01*
X-0028300Y0002014D01*
Y0002019D01*
X-0027893Y0003213D01*
X-0027874Y0003268D01*
X-0027860Y0003315D01*
X-0027832Y0003398D01*
X-0027814Y0003463D01*
X-0027800Y0003518D01*
X-0027786Y0003555D01*
X-0027781Y0003578D01*
X-0027777Y0003592D01*
Y0003597D01*
X-0027772Y0003629D01*
Y0003662D01*
X-0027777Y0003722D01*
X-0027781Y0003745D01*
X-0027786Y0003764D01*
X-0027791Y0003773D01*
Y0003777D01*
X-0027805Y0003810D01*
X-0027828Y0003842D01*
X-0027874Y0003889D01*
X-0027893Y0003902D01*
X-0027911Y0003916D01*
X-0027925Y0003926D01*
X-0027930D01*
X-0027971Y0003944D01*
X-0028013Y0003958D01*
X-0028059Y0003967D01*
X-0028101Y0003976D01*
X-0028138D01*
X-0028170Y0003981D01*
X-0028198D01*
X-0028253Y0003976D01*
X-0028304Y0003972D01*
X-0028351Y0003963D01*
X-0028397Y0003953D01*
X-0028434Y0003939D01*
X-0028462Y0003930D01*
X-0028480Y0003926D01*
X-0028485Y0003921D01*
X-0028536Y0003898D01*
X-0028591Y0003870D01*
X-0028638Y0003842D01*
X-0028679Y0003814D01*
X-0028716Y0003787D01*
X-0028744Y0003764D01*
X-0028763Y0003750D01*
X-0028767Y0003745D01*
X-0028508Y0004518D01*
D02*
G37*
%LPD*%
G36*
X-0036371Y0003504D02*
X-0036357Y0003500D01*
X-0036338Y0003481D01*
X-0036329Y0003458D01*
Y0003453D01*
Y0003449D01*
Y0003421D01*
X-0036338Y0003379D01*
X-0036348Y0003338D01*
X-0036362Y0003292D01*
X-0036375Y0003250D01*
X-0036385Y0003213D01*
X-0036394Y0003190D01*
X-0036399Y0003185D01*
Y0003180D01*
X-0036463Y0002991D01*
X-0036695D01*
X-0036630Y0003180D01*
X-0036602Y0003259D01*
X-0036579Y0003319D01*
X-0036561Y0003370D01*
X-0036542Y0003403D01*
X-0036528Y0003430D01*
X-0036519Y0003449D01*
X-0036514Y0003453D01*
Y0003458D01*
X-0036500Y0003477D01*
X-0036482Y0003486D01*
X-0036440Y0003504D01*
X-0036422D01*
X-0036408Y0003509D01*
X-0036394D01*
X-0036371Y0003504D01*
D02*
G37*
G36*
X-0040374Y0001996D02*
X-0040397Y0001926D01*
X-0040416Y0001875D01*
X-0040434Y0001829D01*
X-0040453Y0001797D01*
X-0040462Y0001774D01*
X-0040471Y0001760D01*
X-0040480Y0001755D01*
Y0001750D01*
X-0040513Y0001723D01*
X-0040550Y0001709D01*
X-0040578Y0001704D01*
X-0040591D01*
X-0040619Y0001709D01*
X-0040642Y0001713D01*
X-0040656Y0001723D01*
X-0040665Y0001732D01*
X-0040679Y0001750D01*
Y0001760D01*
Y0001787D01*
X-0040670Y0001824D01*
X-0040661Y0001871D01*
X-0040647Y0001912D01*
X-0040638Y0001954D01*
X-0040624Y0001991D01*
X-0040619Y0002014D01*
X-0040615Y0002023D01*
X-0040591Y0002088D01*
X-0040568Y0002144D01*
X-0040550Y0002190D01*
X-0040531Y0002227D01*
X-0040517Y0002259D01*
X-0040504Y0002278D01*
X-0040499Y0002292D01*
X-0040494Y0002297D01*
X-0040462Y0002334D01*
X-0040420Y0002375D01*
X-0040369Y0002417D01*
X-0040318Y0002454D01*
X-0040267Y0002486D01*
X-0040226Y0002514D01*
X-0040198Y0002533D01*
X-0040193Y0002537D01*
X-0040189D01*
X-0040374Y0001996D01*
D02*
G37*
G36*
X-0045303Y0003791D02*
X-0045304Y0003790D01*
X-0045340Y0003648D01*
X-0045377Y0003504D01*
X-0045409Y0003370D01*
X-0045441Y0003241D01*
X-0045474Y0003120D01*
X-0045502Y0003009D01*
X-0045525Y0002903D01*
X-0045548Y0002810D01*
X-0045571Y0002727D01*
X-0045590Y0002653D01*
X-0045603Y0002588D01*
X-0045617Y0002533D01*
X-0045627Y0002491D01*
X-0045636Y0002458D01*
X-0045640Y0002440D01*
Y0002435D01*
X-0045927D01*
X-0045890Y0002519D01*
X-0045849Y0002616D01*
X-0045802Y0002718D01*
X-0045752Y0002829D01*
X-0045650Y0003051D01*
X-0045599Y0003167D01*
X-0045548Y0003278D01*
X-0045497Y0003379D01*
X-0045451Y0003477D01*
X-0045409Y0003565D01*
X-0045377Y0003643D01*
X-0045344Y0003708D01*
X-0045321Y0003754D01*
X-0045312Y0003773D01*
X-0045307Y0003787D01*
X-0045304Y0003790D01*
X-0045303Y0003796D01*
Y0003791D01*
D02*
G37*
G36*
X-0031262Y0001996D02*
X-0031285Y0001926D01*
X-0031303Y0001875D01*
X-0031322Y0001829D01*
X-0031340Y0001797D01*
X-0031350Y0001774D01*
X-0031359Y0001760D01*
X-0031368Y0001755D01*
Y0001750D01*
X-0031400Y0001723D01*
X-0031437Y0001709D01*
X-0031465Y0001704D01*
X-0031479D01*
X-0031507Y0001709D01*
X-0031530Y0001713D01*
X-0031544Y0001723D01*
X-0031553Y0001732D01*
X-0031567Y0001750D01*
Y0001760D01*
Y0001787D01*
X-0031558Y0001824D01*
X-0031549Y0001871D01*
X-0031535Y0001912D01*
X-0031525Y0001954D01*
X-0031512Y0001991D01*
X-0031507Y0002014D01*
X-0031502Y0002023D01*
X-0031479Y0002088D01*
X-0031456Y0002144D01*
X-0031437Y0002190D01*
X-0031419Y0002227D01*
X-0031405Y0002259D01*
X-0031391Y0002278D01*
X-0031387Y0002292D01*
X-0031382Y0002297D01*
X-0031350Y0002334D01*
X-0031308Y0002375D01*
X-0031257Y0002417D01*
X-0031206Y0002454D01*
X-0031155Y0002486D01*
X-0031114Y0002514D01*
X-0031086Y0002533D01*
X-0031081Y0002537D01*
X-0031076D01*
X-0031262Y0001996D01*
D02*
G37*
G36*
X-0028707Y0003504D02*
X-0028689Y0003500D01*
X-0028675Y0003491D01*
X-0028661Y0003477D01*
X-0028651Y0003453D01*
Y0003449D01*
Y0003444D01*
Y0003416D01*
X-0028661Y0003375D01*
X-0028670Y0003333D01*
X-0028684Y0003287D01*
X-0028693Y0003245D01*
X-0028707Y0003208D01*
X-0028712Y0003185D01*
X-0028716Y0003180D01*
Y0003176D01*
X-0029096Y0002060D01*
X-0029124Y0001982D01*
X-0029147Y0001917D01*
X-0029170Y0001861D01*
X-0029188Y0001824D01*
X-0029202Y0001797D01*
X-0029211Y0001778D01*
X-0029221Y0001769D01*
Y0001764D01*
X-0029239Y0001746D01*
X-0029258Y0001732D01*
X-0029295Y0001713D01*
X-0029313Y0001709D01*
X-0029327Y0001704D01*
X-0029341D01*
X-0029364Y0001709D01*
X-0029383Y0001713D01*
X-0029397Y0001723D01*
X-0029406Y0001732D01*
X-0029415Y0001750D01*
Y0001760D01*
Y0001787D01*
X-0029406Y0001829D01*
X-0029397Y0001871D01*
X-0029383Y0001917D01*
X-0029373Y0001963D01*
X-0029360Y0002000D01*
X-0029355Y0002023D01*
X-0029350Y0002033D01*
X-0028962Y0003176D01*
X-0028934Y0003250D01*
X-0028911Y0003315D01*
X-0028892Y0003361D01*
X-0028874Y0003398D01*
X-0028864Y0003426D01*
X-0028855Y0003440D01*
X-0028846Y0003449D01*
Y0003453D01*
X-0028827Y0003472D01*
X-0028809Y0003486D01*
X-0028772Y0003504D01*
X-0028744Y0003509D01*
X-0028730D01*
X-0028707Y0003504D01*
D02*
G37*
%LPC*%
G36*
X-0008500Y0033000D02*
X-0009750D01*
Y0031750D01*
X-0008500D01*
Y0033000D01*
D02*
G37*
%LPD*%
G36*
X-0008750Y0032000D02*
X-0009500D01*
Y0032750D01*
X-0008750D01*
Y0032000D01*
D02*
G37*
D20*
X-0025146Y0042231D02*
G03*
X-0026018Y0043325I-0002354J-0000981D01*
G01*
X-0029854Y0040269D02*
G03*
X-0028982Y0039175I0002354J0000981D01*
G01*
X-0026018D02*
G03*
X-0025146Y0040269I-0001482J0002075D01*
G01*
X-0028982Y0043325D02*
G03*
X-0029854Y0042231I0001482J-0002075D01*
G01*
X-0027000Y0005500D02*
G03*
X-0024000Y0008500I0000000J0003000D01*
G01*
X-0036000D02*
G03*
X-0033000Y0005500I0003000J0000000D01*
G01*
X-0024000Y0020500D02*
G03*
X-0027000Y0023500I-0003000J0000000D01*
G01*
X-0033000D02*
G03*
X-0036000Y0020500I0000000J-0003000D01*
G01*
X-0042000Y0005500D02*
G03*
X-0039000Y0008500I0000000J0003000D01*
G01*
X-0051000D02*
G03*
X-0048000Y0005500I0003000J0000000D01*
G01*
X-0039000Y0020500D02*
G03*
X-0042000Y0023500I-0003000J0000000D01*
G01*
X-0048000D02*
G03*
X-0051000Y0020500I0000000J-0003000D01*
G01*
X-0046250Y0041250D02*
G03*
X-0046250Y0041250I-0001250J0000000D01*
G01*
X-0036250D02*
G03*
X-0036250Y0041250I-0001250J0000000D01*
G01*
X-0028982Y0039150D02*
X-0026018D01*
X-0028982Y0043350D02*
X-0026018D01*
X-0024000Y0008500D02*
Y0020500D01*
X-0033000Y0005500D02*
X-0027000D01*
X-0036000Y0008500D02*
Y0020500D01*
X-0033000Y0023500D02*
X-0027000D01*
X-0039000Y0008500D02*
Y0020500D01*
X-0048000Y0005500D02*
X-0042000D01*
X-0051000Y0008500D02*
Y0020500D01*
X-0048000Y0023500D02*
X-0042000D01*
X-0044500Y0039500D02*
Y0043000D01*
X-0048250Y0045250D02*
X-0046750D01*
X-0048250Y0037500D02*
X-0046750D01*
X-0050500Y0039500D02*
Y0043000D01*
X-0040500Y0039500D02*
Y0043000D01*
X-0038250Y0037250D02*
X-0036750D01*
X-0038250Y0045000D02*
X-0036750D01*
X-0034500Y0039500D02*
Y0043000D01*
X-0038820Y0023100D02*
X-0037320Y0025600D01*
X-0038820Y0023100D02*
X-0035820D01*
X-0037320Y0025600D02*
X-0035820Y0023100D01*
X-0037777Y0024000D02*
X-0037177Y0024700D01*
X-0037777Y0024000D02*
X-0037077Y0024200D01*
X-0037577Y0023500D02*
X-0037077Y0024200D01*
X-0037577Y0023500D02*
Y0023700D01*
Y0023500D02*
X-0037377Y0023600D01*
X-0061570Y0032600D02*
X-0060070Y0035100D01*
X-0061570Y0032600D02*
X-0058570D01*
X-0060070Y0035100D02*
X-0058570Y0032600D01*
X-0060527Y0033500D02*
X-0059927Y0034200D01*
X-0060527Y0033500D02*
X-0059827Y0033700D01*
X-0060327Y0033000D02*
X-0059827Y0033700D01*
X-0060327Y0033000D02*
Y0033200D01*
Y0033000D02*
X-0060127Y0033100D01*
X-0011320Y0021600D02*
X-0009820Y0024100D01*
X-0011320Y0021600D02*
X-0008320D01*
X-0009820Y0024100D02*
X-0008320Y0021600D01*
X-0010277Y0022500D02*
X-0009677Y0023200D01*
X-0010277Y0022500D02*
X-0009577Y0022700D01*
X-0010077Y0022000D02*
X-0009577Y0022700D01*
X-0010077Y0022000D02*
Y0022200D01*
Y0022000D02*
X-0009877Y0022100D01*
X-0011320Y0036100D02*
X-0009820Y0038600D01*
X-0011320Y0036100D02*
X-0008320D01*
X-0009820Y0038600D02*
X-0008320Y0036100D01*
X-0010277Y0037000D02*
X-0009677Y0037700D01*
X-0010277Y0037000D02*
X-0009577Y0037200D01*
X-0010077Y0036500D02*
X-0009577Y0037200D01*
X-0010077Y0036500D02*
Y0036700D01*
Y0036500D02*
X-0009877Y0036600D01*
X-0033334Y0043333D02*
X-0033500Y0043500D01*
X-0033833D01*
X-0034000Y0043333D01*
Y0043166D01*
X-0033833Y0043000D01*
X-0033500D01*
X-0033334Y0042833D01*
Y0042667D01*
X-0033500Y0042500D01*
X-0033833D01*
X-0034000Y0042667D01*
X-0033000Y0043500D02*
Y0042500D01*
X-0032500D01*
X-0032334Y0042667D01*
Y0042833D01*
X-0032500Y0043000D01*
X-0033000D01*
X-0032500D01*
X-0032334Y0043166D01*
Y0043333D01*
X-0032500Y0043500D01*
X-0033000D01*
X-0031334Y0042500D02*
X-0032001D01*
X-0031334Y0043166D01*
Y0043333D01*
X-0031501Y0043500D01*
X-0031834D01*
X-0032001Y0043333D01*
X-0052834D02*
X-0053000Y0043500D01*
X-0053333D01*
X-0053500Y0043333D01*
Y0043166D01*
X-0053333Y0043000D01*
X-0053000D01*
X-0052834Y0042833D01*
Y0042667D01*
X-0053000Y0042500D01*
X-0053333D01*
X-0053500Y0042667D01*
X-0052500Y0043500D02*
Y0042500D01*
X-0052000D01*
X-0051834Y0042667D01*
Y0042833D01*
X-0052000Y0043000D01*
X-0052500D01*
X-0052000D01*
X-0051834Y0043166D01*
Y0043333D01*
X-0052000Y0043500D01*
X-0052500D01*
X-0051501Y0042500D02*
X-0051167D01*
X-0051334D01*
Y0043500D01*
X-0051501Y0043333D01*
X-0029806Y0044151D02*
Y0045151D01*
X-0029306D01*
X-0029140Y0044984D01*
Y0044651D01*
X-0029306Y0044484D01*
X-0029806D01*
X-0029473D02*
X-0029140Y0044151D01*
X-0028807D02*
X-0028473D01*
X-0028640D01*
Y0045151D01*
X-0028807Y0044984D01*
X-0035902Y0025313D02*
Y0024314D01*
Y0024814D01*
X-0035236D01*
Y0025313D01*
Y0024314D01*
X-0034236Y0025147D02*
X-0034403Y0025313D01*
X-0034736D01*
X-0034903Y0025147D01*
Y0024480D01*
X-0034736Y0024314D01*
X-0034403D01*
X-0034236Y0024480D01*
Y0024814D01*
X-0034569D01*
X-0033903Y0025313D02*
X-0033236D01*
Y0025147D01*
X-0033903Y0024480D01*
Y0024314D01*
X-0050888Y0025313D02*
Y0024314D01*
Y0024814D01*
X-0050222D01*
Y0025313D01*
Y0024314D01*
X-0049222Y0025147D02*
X-0049389Y0025313D01*
X-0049722D01*
X-0049889Y0025147D01*
Y0024480D01*
X-0049722Y0024314D01*
X-0049389D01*
X-0049222Y0024480D01*
Y0024814D01*
X-0049555D01*
X-0048222Y0025313D02*
X-0048556Y0025147D01*
X-0048889Y0024814D01*
Y0024480D01*
X-0048722Y0024314D01*
X-0048389D01*
X-0048222Y0024480D01*
Y0024647D01*
X-0048389Y0024814D01*
X-0048889D01*
X-0033750Y0033500D02*
Y0032500D01*
Y0033000D01*
X-0033084D01*
Y0033500D01*
Y0032500D01*
X-0032084Y0033333D02*
X-0032250Y0033500D01*
X-0032584D01*
X-0032750Y0033333D01*
Y0032667D01*
X-0032584Y0032500D01*
X-0032250D01*
X-0032084Y0032667D01*
Y0033000D01*
X-0032417D01*
X-0031084Y0033500D02*
X-0031751D01*
Y0033000D01*
X-0031417Y0033166D01*
X-0031251D01*
X-0031084Y0033000D01*
Y0032667D01*
X-0031251Y0032500D01*
X-0031584D01*
X-0031751Y0032667D01*
X-0043750Y0033500D02*
Y0032500D01*
Y0033000D01*
X-0043084D01*
Y0033500D01*
Y0032500D01*
X-0042084Y0033333D02*
X-0042250Y0033500D01*
X-0042584D01*
X-0042750Y0033333D01*
Y0032667D01*
X-0042584Y0032500D01*
X-0042250D01*
X-0042084Y0032667D01*
Y0033000D01*
X-0042417D01*
X-0041251Y0032500D02*
Y0033500D01*
X-0041751Y0033000D01*
X-0041084D01*
X-0053750Y0033500D02*
Y0032500D01*
Y0033000D01*
X-0053084D01*
Y0033500D01*
Y0032500D01*
X-0052084Y0033333D02*
X-0052250Y0033500D01*
X-0052584D01*
X-0052750Y0033333D01*
Y0032667D01*
X-0052584Y0032500D01*
X-0052250D01*
X-0052084Y0032667D01*
Y0033000D01*
X-0052417D01*
X-0051751Y0033333D02*
X-0051584Y0033500D01*
X-0051251D01*
X-0051084Y0033333D01*
Y0033166D01*
X-0051251Y0033000D01*
X-0051417D01*
X-0051251D01*
X-0051084Y0032833D01*
Y0032667D01*
X-0051251Y0032500D01*
X-0051584D01*
X-0051751Y0032667D01*
X-0063664Y0030597D02*
Y0029597D01*
Y0030097D01*
X-0062998D01*
Y0030597D01*
Y0029597D01*
X-0061998Y0030430D02*
X-0062165Y0030597D01*
X-0062498D01*
X-0062665Y0030430D01*
Y0029764D01*
X-0062498Y0029597D01*
X-0062165D01*
X-0061998Y0029764D01*
Y0030097D01*
X-0062332D01*
X-0060999Y0029597D02*
X-0061665D01*
X-0060999Y0030263D01*
Y0030430D01*
X-0061165Y0030597D01*
X-0061498D01*
X-0061665Y0030430D01*
X-0063664Y0018582D02*
Y0017583D01*
Y0018083D01*
X-0062998D01*
Y0018582D01*
Y0017583D01*
X-0061998Y0018416D02*
X-0062165Y0018582D01*
X-0062498D01*
X-0062665Y0018416D01*
Y0017749D01*
X-0062498Y0017583D01*
X-0062165D01*
X-0061998Y0017749D01*
Y0018083D01*
X-0062332D01*
X-0061665Y0017583D02*
X-0061332D01*
X-0061498D01*
Y0018582D01*
X-0061665Y0018416D01*
X-0055500Y0004900D02*
X-0054500D01*
X-0055000D01*
X-0055166Y0005067D01*
Y0005400D01*
X-0055000Y0005566D01*
X-0054500D01*
X-0055333Y0006066D02*
X-0055166D01*
Y0005900D01*
Y0006233D01*
Y0006066D01*
X-0054667D01*
X-0054500Y0006233D01*
X-0055333Y0006899D02*
X-0055166D01*
Y0006733D01*
Y0007066D01*
Y0006899D01*
X-0054667D01*
X-0054500Y0007066D01*
X-0054167Y0007566D02*
X-0055166D01*
Y0008066D01*
X-0055000Y0008232D01*
X-0054667D01*
X-0054500Y0008066D01*
Y0007566D01*
Y0008565D02*
Y0009065D01*
X-0054667Y0009232D01*
X-0054833Y0009065D01*
Y0008732D01*
X-0055000Y0008565D01*
X-0055166Y0008732D01*
Y0009232D01*
Y0009565D02*
Y0009732D01*
X-0055000D01*
Y0009565D01*
X-0055166D01*
X-0054667D02*
Y0009732D01*
X-0054500D01*
Y0009565D01*
X-0054667D01*
X-0054500Y0010398D02*
X-0055166Y0011065D01*
X-0054500Y0011398D02*
X-0055166Y0012064D01*
X-0054167Y0012731D02*
Y0012897D01*
X-0054333Y0013064D01*
X-0055166D01*
Y0012564D01*
X-0055000Y0012398D01*
X-0054667D01*
X-0054500Y0012564D01*
Y0013064D01*
Y0013397D02*
Y0013730D01*
Y0013564D01*
X-0055166D01*
Y0013397D01*
X-0055333Y0014397D02*
X-0055166D01*
Y0014230D01*
Y0014564D01*
Y0014397D01*
X-0054667D01*
X-0054500Y0014564D01*
X-0055500Y0015063D02*
X-0054500D01*
X-0055000D01*
X-0055166Y0015230D01*
Y0015563D01*
X-0055000Y0015730D01*
X-0054500D01*
X-0055166Y0016063D02*
X-0054667D01*
X-0054500Y0016230D01*
Y0016730D01*
X-0055166D01*
X-0055500Y0017063D02*
X-0054500D01*
Y0017563D01*
X-0054667Y0017729D01*
X-0054833D01*
X-0055000D01*
X-0055166Y0017563D01*
Y0017063D01*
X-0054500Y0018062D02*
X-0054667D01*
Y0018229D01*
X-0054500D01*
Y0018062D01*
X-0055166Y0019562D02*
Y0019062D01*
X-0055000Y0018895D01*
X-0054667D01*
X-0054500Y0019062D01*
Y0019562D01*
Y0020062D02*
Y0020395D01*
X-0054667Y0020562D01*
X-0055000D01*
X-0055166Y0020395D01*
Y0020062D01*
X-0055000Y0019895D01*
X-0054667D01*
X-0054500Y0020062D01*
Y0020895D02*
X-0055166D01*
Y0021061D01*
X-0055000Y0021228D01*
X-0054500D01*
X-0055000D01*
X-0055166Y0021395D01*
X-0055000Y0021561D01*
X-0054500D01*
Y0021895D02*
X-0055166Y0022561D01*
X-0054500Y0022894D02*
X-0055166D01*
X-0055500Y0023227D01*
X-0055166Y0023561D01*
X-0054500D01*
X-0055000D01*
Y0022894D01*
X-0054500Y0023894D02*
X-0055166D01*
Y0024394D01*
X-0055000Y0024560D01*
X-0054500D01*
X-0055333Y0025060D02*
X-0055166D01*
Y0024894D01*
Y0025227D01*
Y0025060D01*
X-0054667D01*
X-0054500Y0025227D01*
X-0055166Y0025893D02*
Y0026226D01*
X-0055000Y0026393D01*
X-0054500D01*
Y0025893D01*
X-0054667Y0025727D01*
X-0054833Y0025893D01*
Y0026393D01*
X-0055166Y0026726D02*
X-0054500D01*
X-0054833D01*
X-0055000Y0026893D01*
X-0055166Y0027060D01*
Y0027226D01*
X-0054500Y0028226D02*
Y0027893D01*
X-0054667Y0027726D01*
X-0055000D01*
X-0055166Y0027893D01*
Y0028226D01*
X-0055000Y0028392D01*
X-0054833D01*
Y0027726D01*
X-0054500Y0028726D02*
Y0029225D01*
X-0054667Y0029392D01*
X-0054833Y0029225D01*
Y0028892D01*
X-0055000Y0028726D01*
X-0055166Y0028892D01*
Y0029392D01*
X-0055500Y0029725D02*
X-0054500D01*
Y0030392D01*
X-0055166Y0030892D02*
Y0031225D01*
X-0055000Y0031391D01*
X-0054500D01*
Y0030892D01*
X-0054667Y0030725D01*
X-0054833Y0030892D01*
Y0031391D01*
X-0055500Y0031725D02*
X-0054500D01*
Y0032225D01*
X-0054667Y0032391D01*
X-0054833D01*
X-0055000D01*
X-0055166Y0032225D01*
Y0031725D01*
X-0054500Y0032724D02*
X-0055166Y0033391D01*
X-0054500Y0033724D02*
X-0055500D01*
X-0054500Y0034390D01*
X-0055500D01*
X-0054500Y0034724D02*
Y0035057D01*
Y0034890D01*
X-0055166D01*
Y0034724D01*
Y0035557D02*
X-0054500Y0036223D01*
X-0054833Y0035890D01*
X-0055166Y0036223D01*
X-0054500Y0035557D01*
Y0036556D02*
Y0036890D01*
Y0036723D01*
X-0055166D01*
Y0036556D01*
X-0054500Y0037889D02*
Y0037556D01*
X-0054667Y0037390D01*
X-0055000D01*
X-0055166Y0037556D01*
Y0037889D01*
X-0055000Y0038056D01*
X-0054833D01*
Y0037390D01*
X-0054333Y0038389D02*
Y0039056D01*
X-0055166Y0040055D02*
Y0039556D01*
X-0055000Y0039389D01*
X-0054667D01*
X-0054500Y0039556D01*
Y0040055D01*
Y0040389D02*
Y0040722D01*
Y0040555D01*
X-0055500D01*
Y0040389D01*
X-0054500Y0041388D02*
Y0041721D01*
X-0054667Y0041888D01*
X-0055000D01*
X-0055166Y0041721D01*
Y0041388D01*
X-0055000Y0041222D01*
X-0054667D01*
X-0054500Y0041388D01*
X-0055166Y0042888D02*
Y0042388D01*
X-0055000Y0042221D01*
X-0054667D01*
X-0054500Y0042388D01*
Y0042888D01*
Y0043221D02*
X-0055500D01*
X-0054833D02*
X-0055166Y0043721D01*
X-0054833Y0043221D02*
X-0054500Y0043721D01*
Y0044221D02*
Y0044721D01*
X-0054667Y0044887D01*
X-0054833Y0044721D01*
Y0044387D01*
X-0055000Y0044221D01*
X-0055166Y0044387D01*
Y0044887D01*
X-0012500Y0006250D02*
X-0013166D01*
X-0013500Y0006583D01*
X-0013166Y0006916D01*
X-0012500D01*
X-0013000D01*
Y0006250D01*
X-0013500Y0007250D02*
Y0007916D01*
Y0007583D01*
X-0012500D01*
X-0013500Y0008249D02*
Y0008916D01*
Y0008583D01*
X-0012500D01*
X-0013500Y0009915D02*
Y0009249D01*
X-0012500D01*
Y0009915D01*
X-0013000Y0009249D02*
Y0009582D01*
X-0012500Y0010249D02*
X-0013500D01*
X-0012500Y0010915D01*
X-0013500D01*
Y0011248D02*
Y0011915D01*
Y0011582D01*
X-0012500D01*
X-0013500Y0012248D02*
Y0012581D01*
Y0012415D01*
X-0012500D01*
Y0012248D01*
Y0012581D01*
X-0013500Y0013581D02*
Y0013248D01*
X-0013333Y0013081D01*
X-0012667D01*
X-0012500Y0013248D01*
Y0013581D01*
X-0012667Y0013748D01*
X-0013333D01*
X-0013500Y0013581D01*
X-0012500Y0014081D02*
X-0013500D01*
X-0012500Y0014747D01*
X-0013500D01*
X-0012833Y0015080D02*
X-0013666D01*
X-0012667D02*
X-0012500D01*
X-0013500Y0016413D02*
X-0012500D01*
X-0013000D01*
Y0017080D01*
X-0013500D01*
X-0012500D01*
X-0013500Y0017413D02*
Y0017746D01*
Y0017580D01*
X-0012500D01*
Y0017413D01*
Y0017746D01*
X-0013333Y0018913D02*
X-0013500Y0018746D01*
Y0018413D01*
X-0013333Y0018246D01*
X-0012667D01*
X-0012500Y0018413D01*
Y0018746D01*
X-0012667Y0018913D01*
X-0013000D01*
Y0018579D01*
X-0013500Y0019246D02*
X-0012500D01*
X-0013000D01*
Y0019912D01*
X-0013500D01*
X-0012500D01*
X-0013500Y0021245D02*
X-0012833D01*
X-0012500Y0021578D01*
X-0012833Y0021912D01*
X-0013500D01*
Y0022745D02*
Y0022411D01*
X-0013333Y0022245D01*
X-0012667D01*
X-0012500Y0022411D01*
Y0022745D01*
X-0012667Y0022911D01*
X-0013333D01*
X-0013500Y0022745D01*
Y0023245D02*
X-0012500D01*
Y0023911D01*
X-0013500Y0024244D02*
Y0024911D01*
Y0024577D01*
X-0012500D01*
Y0025244D02*
X-0013166D01*
X-0013500Y0025577D01*
X-0013166Y0025910D01*
X-0012500D01*
X-0013000D01*
Y0025244D01*
X-0013333Y0026910D02*
X-0013500Y0026743D01*
Y0026410D01*
X-0013333Y0026244D01*
X-0012667D01*
X-0012500Y0026410D01*
Y0026743D01*
X-0012667Y0026910D01*
X-0013000D01*
Y0026577D01*
X-0013500Y0027910D02*
Y0027243D01*
X-0012500D01*
Y0027910D01*
X-0013000Y0027243D02*
Y0027576D01*
X-0012500Y0029409D02*
Y0029742D01*
X-0012667Y0029909D01*
X-0013000D01*
X-0013166Y0029742D01*
Y0029409D01*
X-0013000Y0029243D01*
X-0012667D01*
X-0012500Y0029409D01*
X-0013166Y0030242D02*
X-0012500Y0030575D01*
X-0013166Y0030909D01*
X-0012500Y0031742D02*
Y0031409D01*
X-0012667Y0031242D01*
X-0013000D01*
X-0013166Y0031409D01*
Y0031742D01*
X-0013000Y0031908D01*
X-0012833D01*
Y0031242D01*
X-0013166Y0032242D02*
X-0012500D01*
X-0012833D01*
X-0013000Y0032408D01*
X-0013166Y0032575D01*
Y0032741D01*
Y0034408D02*
Y0034741D01*
X-0013000Y0034907D01*
X-0012500D01*
Y0034408D01*
X-0012667Y0034241D01*
X-0012833Y0034408D01*
Y0034907D01*
X-0012500Y0035241D02*
Y0035574D01*
Y0035407D01*
X-0013500D01*
Y0035241D01*
X-0012500Y0036074D02*
Y0036407D01*
Y0036240D01*
X-0013500D01*
Y0036074D01*
Y0037906D02*
X-0012500D01*
Y0038406D01*
X-0012667Y0038573D01*
X-0012833D01*
X-0013000D01*
X-0013166Y0038406D01*
Y0037906D01*
X-0012500Y0039073D02*
Y0039406D01*
X-0012667Y0039573D01*
X-0013000D01*
X-0013166Y0039406D01*
Y0039073D01*
X-0013000Y0038906D01*
X-0012667D01*
X-0012500Y0039073D01*
X-0013166Y0040072D02*
Y0040406D01*
X-0013000Y0040572D01*
X-0012500D01*
Y0040072D01*
X-0012667Y0039906D01*
X-0012833Y0040072D01*
Y0040572D01*
X-0013166Y0040905D02*
X-0012500D01*
X-0012833D01*
X-0013000Y0041072D01*
X-0013166Y0041239D01*
Y0041405D01*
X-0013500Y0042572D02*
X-0012500D01*
Y0042072D01*
X-0012667Y0041905D01*
X-0013000D01*
X-0013166Y0042072D01*
Y0042572D01*
X-0012833Y0042905D02*
X-0013666D01*
X-0012667D02*
X-0012500D01*
D21*
X-0056250Y0025000D02*
G03*
X-0056250Y0025000I-0003750J0000000D01*
G01*
Y0013000D02*
G03*
X-0056250Y0013000I-0003750J0000000D01*
G01*
X-0043750Y0030000D02*
G03*
X-0043750Y0030000I-0003750J0000000D01*
G01*
X-0033750D02*
G03*
X-0033750Y0030000I-0003750J0000000D01*
G01*
X-0023750D02*
G03*
X-0023750Y0030000I-0003750J0000000D01*
G01*
X-0031250Y0014274D02*
X-0030742D01*
X-0030996D01*
Y0012750D01*
X-0031250D01*
X-0030742D01*
X-0029980D02*
Y0014274D01*
X-0028965Y0012750D01*
Y0014274D01*
X-0028457Y0013512D02*
X-0027441D01*
X-0026933Y0012750D02*
X-0026426D01*
X-0026679D01*
Y0014274D01*
X-0026933Y0014020D01*
X-0025664Y0014274D02*
X-0024648D01*
Y0014020D01*
X-0025664Y0013004D01*
Y0012750D01*
X-0046250Y0014274D02*
X-0045742D01*
X-0045996D01*
Y0012750D01*
X-0046250D01*
X-0045742D01*
X-0044980D02*
Y0014274D01*
X-0043965Y0012750D01*
Y0014274D01*
X-0043457Y0013512D02*
X-0042441D01*
X-0041933Y0012750D02*
X-0041426D01*
X-0041679D01*
Y0014274D01*
X-0041933Y0014020D01*
X-0040664Y0014274D02*
X-0039648D01*
Y0014020D01*
X-0040664Y0013004D01*
Y0012750D01*
X-0050250Y0046250D02*
Y0047774D01*
X-0049742Y0047266D01*
X-0049234Y0047774D01*
Y0046250D01*
X-0047711Y0047774D02*
X-0048726D01*
Y0046250D01*
X-0047711D01*
X-0048726Y0047012D02*
X-0048219D01*
X-0047203Y0046250D02*
Y0047774D01*
X-0046187Y0046250D01*
Y0047774D01*
X-0045679D02*
Y0046504D01*
X-0045426Y0046250D01*
X-0044918D01*
X-0044664Y0046504D01*
Y0047774D01*
X-0038484Y0047520D02*
X-0038738Y0047774D01*
X-0039246D01*
X-0039500Y0047520D01*
Y0047266D01*
X-0039246Y0047012D01*
X-0038738D01*
X-0038484Y0046758D01*
Y0046504D01*
X-0038738Y0046250D01*
X-0039246D01*
X-0039500Y0046504D01*
X-0036961Y0047774D02*
X-0037976D01*
Y0046250D01*
X-0036961D01*
X-0037976Y0047012D02*
X-0037469D01*
X-0036453Y0047774D02*
X-0035437D01*
X-0035945D01*
Y0046250D01*
X-0048484Y0035520D02*
X-0048738Y0035774D01*
X-0049246D01*
X-0049500Y0035520D01*
Y0034504D01*
X-0049246Y0034250D01*
X-0048738D01*
X-0048484Y0034504D01*
Y0035012D01*
X-0048992D01*
X-0047976Y0034250D02*
Y0035774D01*
X-0047215D01*
X-0046961Y0035520D01*
Y0035012D01*
X-0047215Y0034758D01*
X-0047976D01*
X-0045437Y0035520D02*
X-0045691Y0035774D01*
X-0046199D01*
X-0046453Y0035520D01*
Y0035266D01*
X-0046199Y0035012D01*
X-0045691D01*
X-0045437Y0034758D01*
Y0034504D01*
X-0045691Y0034250D01*
X-0046199D01*
X-0046453Y0034504D01*
X-0041000Y0034250D02*
Y0035266D01*
X-0040492Y0035774D01*
X-0039984Y0035266D01*
Y0034250D01*
Y0035012D01*
X-0041000D01*
X-0039476Y0035774D02*
Y0034250D01*
X-0038461D01*
X-0037953D02*
Y0035266D01*
X-0037445Y0035774D01*
X-0036937Y0035266D01*
Y0034250D01*
Y0035012D01*
X-0037953D01*
X-0036429Y0034250D02*
Y0035774D01*
X-0035668D01*
X-0035414Y0035520D01*
Y0035012D01*
X-0035668Y0034758D01*
X-0036429D01*
X-0035922D02*
X-0035414Y0034250D01*
X-0034906D02*
Y0035774D01*
X-0034398Y0035266D01*
X-0033890Y0035774D01*
Y0034250D01*
X-0031000Y0035774D02*
X-0029984D01*
X-0030492D01*
Y0034250D01*
X-0029476Y0035774D02*
X-0028969D01*
X-0029223D01*
Y0034250D01*
X-0029476D01*
X-0028969D01*
X-0028207D02*
Y0035774D01*
X-0027699Y0035266D01*
X-0027191Y0035774D01*
Y0034250D01*
X-0025668Y0035774D02*
X-0026683D01*
Y0034250D01*
X-0025668D01*
X-0026683Y0035012D02*
X-0026176D01*
X-0025160Y0034250D02*
Y0035774D01*
X-0024398D01*
X-0024144Y0035520D01*
Y0035012D01*
X-0024398Y0034758D01*
X-0025160D01*
X-0024652D02*
X-0024144Y0034250D01*
X-0022000Y0004500D02*
X-0023524D01*
X-0022000Y0005516D01*
X-0023524D01*
X-0022000Y0006024D02*
Y0006531D01*
Y0006277D01*
X-0023016D01*
Y0006024D01*
Y0007293D02*
X-0022000Y0008309D01*
X-0022508Y0007801D01*
X-0023016Y0008309D01*
X-0022000Y0007293D01*
Y0008817D02*
Y0009324D01*
Y0009071D01*
X-0023016D01*
Y0008817D01*
X-0022000Y0010848D02*
Y0010340D01*
X-0022254Y0010086D01*
X-0022762D01*
X-0023016Y0010340D01*
Y0010848D01*
X-0022762Y0011102D01*
X-0022508D01*
Y0010086D01*
X-0023016Y0014149D02*
Y0013387D01*
X-0022762Y0013133D01*
X-0022254D01*
X-0022000Y0013387D01*
Y0014149D01*
Y0014657D02*
Y0015165D01*
Y0014911D01*
X-0023524D01*
Y0014657D01*
X-0022000Y0016180D02*
Y0016688D01*
X-0022254Y0016942D01*
X-0022762D01*
X-0023016Y0016688D01*
Y0016180D01*
X-0022762Y0015926D01*
X-0022254D01*
X-0022000Y0016180D01*
X-0023016Y0018465D02*
Y0017704D01*
X-0022762Y0017450D01*
X-0022254D01*
X-0022000Y0017704D01*
Y0018465D01*
Y0018973D02*
X-0023524D01*
X-0022508D02*
X-0023016Y0019735D01*
X-0022508Y0018973D02*
X-0022000Y0019735D01*
Y0020497D02*
Y0021259D01*
X-0022254Y0021513D01*
X-0022508Y0021259D01*
Y0020751D01*
X-0022762Y0020497D01*
X-0023016Y0020751D01*
Y0021513D01*
X-0022000Y0022020D02*
X-0022254D01*
Y0022274D01*
X-0022000D01*
Y0022020D01*
X-0023270Y0025829D02*
X-0023524Y0025575D01*
Y0025067D01*
X-0023270Y0024813D01*
X-0022254D01*
X-0022000Y0025067D01*
Y0025575D01*
X-0022254Y0025829D01*
X-0022000Y0026591D02*
Y0027099D01*
X-0022254Y0027353D01*
X-0022762D01*
X-0023016Y0027099D01*
Y0026591D01*
X-0022762Y0026337D01*
X-0022254D01*
X-0022000Y0026591D01*
Y0027860D02*
X-0023016D01*
Y0028622D01*
X-0022762Y0028876D01*
X-0022000D01*
X-0023270Y0029638D02*
X-0023016D01*
Y0029384D01*
Y0029892D01*
Y0029638D01*
X-0022254D01*
X-0022000Y0029892D01*
X-0023016Y0030654D02*
X-0022000D01*
X-0022508D01*
X-0022762Y0030907D01*
X-0023016Y0031161D01*
Y0031415D01*
X-0022000Y0032431D02*
Y0032939D01*
X-0022254Y0033193D01*
X-0022762D01*
X-0023016Y0032939D01*
Y0032431D01*
X-0022762Y0032177D01*
X-0022254D01*
X-0022000Y0032431D01*
Y0033701D02*
Y0034208D01*
Y0033954D01*
X-0023524D01*
Y0033701D01*
X-0022000Y0034970D02*
Y0035732D01*
X-0022254Y0035986D01*
X-0022508Y0035732D01*
Y0035224D01*
X-0022762Y0034970D01*
X-0023016Y0035224D01*
Y0035986D01*
X-0023524Y0038017D02*
X-0022000D01*
Y0038779D01*
X-0022254Y0039033D01*
X-0022508D01*
X-0022762D01*
X-0023016Y0038779D01*
Y0038017D01*
X-0022000Y0039795D02*
Y0040302D01*
X-0022254Y0040556D01*
X-0022762D01*
X-0023016Y0040302D01*
Y0039795D01*
X-0022762Y0039541D01*
X-0022254D01*
X-0022000Y0039795D01*
X-0023016Y0041318D02*
Y0041826D01*
X-0022762Y0042080D01*
X-0022000D01*
Y0041318D01*
X-0022254Y0041064D01*
X-0022508Y0041318D01*
Y0042080D01*
X-0023016Y0042588D02*
X-0022000D01*
X-0022508D01*
X-0022762Y0042842D01*
X-0023016Y0043096D01*
Y0043349D01*
X-0023524Y0045127D02*
X-0022000D01*
Y0044365D01*
X-0022254Y0044111D01*
X-0022762D01*
X-0023016Y0044365D01*
Y0045127D01*
M02*
