M48
;Layer_Color=9474304
;FILE_FORMAT=4:3
METRIC
;TYPE=PLATED
T1F00S00C0.800
T2F00S00C1.000
T3F00S00C1.200
T4F00S00C3.500
%
T01
X-0031300Y0008750
X-0028700
X-0027250Y0010600
Y0015800
Y0018400
X-0028700Y0020250
X-0031300
X-0027500Y0027500
Y0032500
X-0037500
Y0027500
X-0047500
Y0032500
X-0046300Y0020250
X-0043700
X-0042250Y0018400
Y0015800
Y0010600
X-0043700Y0008750
X-0046300
X-0047750Y0010600
Y0013200
Y0015800
Y0018400
X-0032750
Y0015800
Y0013200
Y0010600
X-0057500Y0013000
X-0062500
Y0025000
X-0057500
X-0029150Y0041250
X-0025850
T02
X-0018290Y0016220
Y0018760
Y0021300
X-0015750
Y0023840
Y0026380
Y0028920
X-0018290Y0028920
Y0031460
X-0015750
Y0034000
X-0018290
Y0026380
Y0023840
X-0015750Y0018760
Y0016220
X-0006290Y0016130
Y0018670
X-0003750
Y0021210
X-0006290
Y0023750
X-0003750
Y0016130
Y0013590
Y0011050
X-0006290
Y0013590
Y0008510
X-0003750
Y0005970
X-0006290
Y0034840
Y0037380
X-0003750
Y0034840
X-0035250Y0038000
X-0039750
X-0045250
X-0049750
Y0044500
X-0045250
X-0039750
X-0035250
X-0006290Y0045000
Y0042460
Y0039920
X-0003750Y0039920
Y0042460
Y0045000
T03
X-0062580Y0038250
X-0060040
X-0057500
T04
X-0017500Y0005000
X-0060000
Y0045000
X-0017500
M30
