G04 Layer_Color=8388736*
%FSAX43Y43*%
%MOMM*%
G71*
G01*
G75*
%ADD22O,2.203X1.703*%
%ADD23R,2.203X1.703*%
%ADD24O,2.003X2.703*%
%ADD25C,1.703*%
%ADD26R,1.703X1.703*%
%ADD27C,2.203*%
%ADD28R,1.703X1.703*%
%ADD29C,1.727*%
%ADD30C,7.203*%
D22*
X-0006290Y0039920D02*
D03*
X-0003750Y0039920D02*
D03*
X-0006290Y0042460D02*
D03*
X-0003750D02*
D03*
X-0006290Y0045000D02*
D03*
X-0003750Y0037380D02*
D03*
X-0006290D02*
D03*
X-0003750Y0034840D02*
D03*
X-0006290D02*
D03*
Y0018670D02*
D03*
X-0003750D02*
D03*
X-0006290Y0021210D02*
D03*
X-0003750D02*
D03*
X-0006290Y0023750D02*
D03*
X-0003750Y0016130D02*
D03*
X-0006290D02*
D03*
X-0003750Y0011050D02*
D03*
X-0006290D02*
D03*
X-0003750Y0013590D02*
D03*
X-0006290D02*
D03*
X-0003750Y0008510D02*
D03*
X-0006290D02*
D03*
Y0005970D02*
D03*
X-0003750D02*
D03*
X-0018290Y0028920D02*
D03*
X-0015750Y0028920D02*
D03*
X-0018290Y0031460D02*
D03*
X-0015750D02*
D03*
X-0018290Y0034000D02*
D03*
X-0015750Y0026380D02*
D03*
X-0018290D02*
D03*
X-0015750Y0021300D02*
D03*
X-0018290D02*
D03*
X-0015750Y0023840D02*
D03*
X-0018290D02*
D03*
X-0015750Y0018760D02*
D03*
X-0018290D02*
D03*
Y0016220D02*
D03*
X-0015750Y0016220D02*
D03*
D23*
X-0003750Y0045000D02*
D03*
Y0023750D02*
D03*
X-0015750Y0034000D02*
D03*
D24*
X-0060040Y0038250D02*
D03*
X-0062580D02*
D03*
X-0057500D02*
D03*
D25*
X-0027500Y0032500D02*
D03*
X-0037500D02*
D03*
X-0047500D02*
D03*
X-0057500Y0013000D02*
D03*
Y0025000D02*
D03*
X-0047750Y0015800D02*
D03*
Y0018400D02*
D03*
X-0046300Y0020250D02*
D03*
X-0043700Y0008750D02*
D03*
X-0042250Y0010600D02*
D03*
X-0047750Y0013200D02*
D03*
Y0010600D02*
D03*
X-0046300Y0008750D02*
D03*
X-0043700Y0020250D02*
D03*
X-0042250Y0018400D02*
D03*
Y0015800D02*
D03*
X-0032750D02*
D03*
Y0018400D02*
D03*
X-0031300Y0020250D02*
D03*
X-0028700Y0008750D02*
D03*
X-0027250Y0010600D02*
D03*
X-0032750Y0013200D02*
D03*
Y0010600D02*
D03*
X-0031300Y0008750D02*
D03*
X-0028700Y0020250D02*
D03*
X-0027250Y0018400D02*
D03*
Y0015800D02*
D03*
X-0029150Y0041250D02*
D03*
X-0025850D02*
D03*
D26*
X-0027500Y0027500D02*
D03*
X-0037500D02*
D03*
X-0047500D02*
D03*
D27*
X-0035250Y0044500D02*
D03*
Y0038000D02*
D03*
X-0039750D02*
D03*
Y0044500D02*
D03*
X-0049750Y0038000D02*
D03*
Y0044500D02*
D03*
X-0045250D02*
D03*
Y0038000D02*
D03*
D28*
X-0062500Y0013000D02*
D03*
Y0025000D02*
D03*
D29*
X-0045000Y0010750D02*
D03*
Y0018250D02*
D03*
X-0030000Y0010750D02*
D03*
Y0018250D02*
D03*
D30*
X-0017500Y0005000D02*
D03*
Y0045000D02*
D03*
X-0060000Y0005000D02*
D03*
Y0045000D02*
D03*
M02*
