G04*
G04 #@! TF.GenerationSoftware,Altium Limited,Altium Designer,18.0.12 (696)*
G04*
G04 Layer_Color=65535*
%FSAX43Y43*%
%MOMM*%
G71*
G01*
G75*
%ADD10C,0.254*%
%ADD11C,0.200*%
G36*
X-0005250Y0032750D02*
X-0005500D01*
Y0033000D01*
X-0005750D01*
Y0033250D01*
X-0005250D01*
Y0032750D01*
D02*
G37*
G36*
X-0004750Y0032500D02*
X-0005000D01*
Y0032750D01*
X-0004750D01*
Y0032500D01*
D02*
G37*
G36*
X-0005750D02*
X-0005500D01*
Y0032250D01*
X-0005750D01*
Y0032500D01*
X-0006000D01*
Y0033000D01*
X-0005750D01*
Y0032500D01*
D02*
G37*
G36*
X-0004750Y0032000D02*
X-0005250D01*
Y0032250D01*
X-0004750D01*
Y0032000D01*
D02*
G37*
G36*
X-0002750Y0031500D02*
X-0004500D01*
Y0033000D01*
Y0033250D01*
X-0002750D01*
Y0031500D01*
D02*
G37*
G36*
X-0007750Y0032250D02*
X-0007250D01*
Y0031500D01*
X-0007500D01*
Y0031750D01*
X-0007750D01*
Y0032250D01*
X-0008000D01*
Y0033000D01*
X-0007750D01*
Y0032250D01*
D02*
G37*
G36*
X-0008250Y0031500D02*
X-0010000D01*
Y0033000D01*
Y0033250D01*
X-0008250D01*
Y0031500D01*
D02*
G37*
G36*
X-0008250Y0031000D02*
X-0008500D01*
Y0031250D01*
X-0008250D01*
Y0031000D01*
D02*
G37*
G36*
X-0003000Y0030750D02*
X-0003500D01*
Y0031000D01*
X-0003750D01*
Y0031250D01*
X-0003000D01*
Y0030750D01*
D02*
G37*
G36*
X-0008000Y0030500D02*
X-0008750D01*
Y0031000D01*
X-0008500D01*
Y0030750D01*
X-0008250D01*
Y0031000D01*
X-0008000D01*
Y0030500D01*
D02*
G37*
G36*
X-0009000Y0030750D02*
X-0009250D01*
Y0031000D01*
X-0009000D01*
Y0030750D01*
D02*
G37*
G36*
X-0009750Y0031000D02*
X-0009500D01*
Y0030750D01*
X-0009250D01*
Y0030500D01*
X-0009500D01*
Y0030750D01*
X-0010000D01*
Y0031250D01*
X-0009750D01*
Y0031000D01*
D02*
G37*
G36*
X-0006250Y0033000D02*
X-0006500D01*
Y0032750D01*
X-0006250D01*
Y0032500D01*
X-0006000D01*
Y0032250D01*
X-0005750D01*
Y0032000D01*
X-0005250D01*
Y0031500D01*
X-0005000D01*
Y0031750D01*
X-0004750D01*
Y0031250D01*
X-0004250D01*
Y0031000D01*
X-0003750D01*
Y0030500D01*
X-0003500D01*
Y0030250D01*
X-0003750D01*
Y0030500D01*
X-0004000D01*
Y0030750D01*
X-0004250D01*
Y0031000D01*
X-0004500D01*
Y0030750D01*
X-0004750D01*
Y0031250D01*
X-0005000D01*
Y0030750D01*
X-0004750D01*
Y0030500D01*
X-0005000D01*
Y0030750D01*
X-0005500D01*
Y0031000D01*
X-0005750D01*
Y0031250D01*
X-0006000D01*
X-0006000Y0032000D01*
X-0006250D01*
Y0032500D01*
X-0006500D01*
Y0032750D01*
X-0006750D01*
Y0032500D01*
X-0006500D01*
Y0032000D01*
X-0006250D01*
Y0031500D01*
X-0006500D01*
Y0032000D01*
X-0006750D01*
Y0032500D01*
X-0007250D01*
Y0032750D01*
X-0007500D01*
Y0033250D01*
X-0006250D01*
Y0033000D01*
D02*
G37*
G36*
X-0006750Y0031250D02*
X-0006000D01*
Y0030750D01*
X-0005750D01*
Y0030500D01*
X-0006250D01*
Y0030250D01*
X-0006500D01*
Y0030500D01*
X-0006750D01*
Y0031000D01*
X-0007000D01*
Y0032000D01*
X-0006750D01*
Y0031250D01*
D02*
G37*
G36*
X-0008250Y0030000D02*
X-0008750D01*
Y0030250D01*
X-0008250D01*
Y0030000D01*
D02*
G37*
G36*
X-0009500Y0030250D02*
X-0009250D01*
Y0030000D01*
X-0009500D01*
Y0030250D01*
X-0009750D01*
Y0030500D01*
X-0009500D01*
Y0030250D01*
D02*
G37*
G36*
X-0009750Y0030000D02*
X-0010000D01*
Y0030250D01*
X-0009750D01*
Y0030000D01*
D02*
G37*
G36*
X-0002750Y0029750D02*
X-0003250D01*
Y0030000D01*
X-0003000D01*
Y0030250D01*
X-0002750D01*
Y0029750D01*
D02*
G37*
G36*
X-0004500Y0030250D02*
X-0004000D01*
Y0030000D01*
X-0003750D01*
Y0029750D01*
X-0003250D01*
Y0029000D01*
X-0002750D01*
Y0028500D01*
X-0003000D01*
Y0028750D01*
X-0003500D01*
Y0029000D01*
X-0003750D01*
Y0029250D01*
X-0004000D01*
Y0029000D01*
X-0003750D01*
Y0028750D01*
X-0003500D01*
Y0028500D01*
X-0004000D01*
Y0028750D01*
X-0004500D01*
Y0029000D01*
X-0004750D01*
Y0029250D01*
X-0004500D01*
Y0029000D01*
X-0004250D01*
Y0029500D01*
X-0004000D01*
Y0029750D01*
X-0004500D01*
Y0029500D01*
X-0005000D01*
Y0030000D01*
X-0005250D01*
Y0030250D01*
X-0004750D01*
Y0029750D01*
X-0004500D01*
X-0004500Y0030250D01*
X-0004750D01*
Y0030500D01*
X-0004500D01*
Y0030250D01*
D02*
G37*
G36*
X-0002750Y0029250D02*
X-0003000D01*
Y0029500D01*
X-0002750D01*
Y0029250D01*
D02*
G37*
G36*
X-0007750Y0031500D02*
X-0007500D01*
Y0031250D01*
X-0007250D01*
Y0031000D01*
X-0007000D01*
Y0030250D01*
X-0006750D01*
Y0029750D01*
X-0006500D01*
Y0029500D01*
X-0006750D01*
Y0029250D01*
X-0006250D01*
Y0029000D01*
X-0006000D01*
Y0029500D01*
X-0006250D01*
Y0030000D01*
X-0006000D01*
Y0030250D01*
X-0005750D01*
Y0029750D01*
X-0005250D01*
Y0029500D01*
X-0005000D01*
Y0028500D01*
X-0004750D01*
Y0028250D01*
X-0004500D01*
Y0028500D01*
X-0004250D01*
Y0028250D01*
X-0003750D01*
Y0028000D01*
X-0003500D01*
Y0027750D01*
X-0003250D01*
Y0027500D01*
X-0003750D01*
Y0027250D01*
X-0003500D01*
Y0027000D01*
X-0003250D01*
Y0026750D01*
X-0003000D01*
Y0026500D01*
X-0002750D01*
Y0026250D01*
X-0003000D01*
Y0026500D01*
X-0003250D01*
Y0026000D01*
X-0003500D01*
Y0026250D01*
X-0003750D01*
Y0026500D01*
X-0004000D01*
Y0026250D01*
X-0003750D01*
Y0026000D01*
X-0004500D01*
Y0026500D01*
X-0005250D01*
Y0026250D01*
X-0005000D01*
Y0026000D01*
X-0005750D01*
Y0026250D01*
X-0005500D01*
Y0026500D01*
X-0006000D01*
Y0026250D01*
X-0006250D01*
Y0026000D01*
X-0007250D01*
Y0026250D01*
X-0007750D01*
Y0026750D01*
X-0007500D01*
Y0026500D01*
X-0007250D01*
Y0026750D01*
X-0007500D01*
Y0027000D01*
X-0007750D01*
Y0027250D01*
X-0007500D01*
Y0027000D01*
X-0007250D01*
Y0027250D01*
X-0007000D01*
Y0026750D01*
X-0006750D01*
Y0026500D01*
X-0006500D01*
Y0026750D01*
X-0006000D01*
Y0027250D01*
X-0006250D01*
Y0027000D01*
X-0006750D01*
Y0027250D01*
X-0006500D01*
Y0027500D01*
X-0007750D01*
Y0027750D01*
X-0008000D01*
Y0028000D01*
X-0007750D01*
Y0027750D01*
X-0007250D01*
Y0028000D01*
X-0007500D01*
Y0028250D01*
X-0008250D01*
Y0028000D01*
X-0009750D01*
Y0028500D01*
X-0009250D01*
Y0028750D01*
X-0009500D01*
Y0029000D01*
X-0009750D01*
Y0029500D01*
X-0010000D01*
Y0029750D01*
X-0008000D01*
Y0029500D01*
X-0008500D01*
Y0029250D01*
X-0008000D01*
Y0029000D01*
X-0009000D01*
Y0029250D01*
X-0009250D01*
Y0029500D01*
X-0009500D01*
Y0029000D01*
X-0009250D01*
Y0028750D01*
X-0009000D01*
Y0028250D01*
X-0008750D01*
Y0028500D01*
X-0008500D01*
Y0028250D01*
X-0008250D01*
X-0008250Y0028500D01*
X-0008500D01*
Y0028750D01*
X-0008250D01*
Y0028500D01*
X-0008000D01*
Y0028750D01*
X-0007750D01*
Y0028500D01*
X-0007250D01*
Y0028000D01*
X-0007000D01*
Y0028500D01*
X-0006750D01*
Y0028250D01*
X-0006500D01*
Y0028750D01*
X-0006750D01*
Y0029250D01*
X-0007000D01*
Y0028750D01*
X-0007750D01*
Y0029000D01*
X-0007250D01*
Y0029250D01*
X-0007750D01*
Y0029500D01*
X-0007250D01*
Y0029750D01*
X-0008000D01*
Y0030000D01*
X-0007750D01*
Y0030750D01*
X-0007500D01*
Y0031250D01*
X-0007750D01*
Y0031000D01*
X-0008000D01*
Y0031750D01*
X-0007750D01*
Y0031500D01*
D02*
G37*
G36*
X-0002750Y0028000D02*
X-0003500D01*
Y0028250D01*
X-0002750D01*
Y0028000D01*
D02*
G37*
G36*
Y0027250D02*
X-0003000D01*
Y0027500D01*
X-0002750D01*
Y0027250D01*
D02*
G37*
G36*
X-0003000Y0027000D02*
X-0003250D01*
Y0027250D01*
X-0003000D01*
Y0027000D01*
D02*
G37*
G36*
X-0002750Y0026750D02*
X-0003000D01*
Y0027000D01*
X-0002750D01*
Y0026750D01*
D02*
G37*
G36*
X-0007750Y0026000D02*
X-0008000D01*
Y0026250D01*
X-0007750D01*
Y0026000D01*
D02*
G37*
G36*
X-0008250Y0026000D02*
X-0010000D01*
Y0027500D01*
Y0027750D01*
X-0008250D01*
Y0026000D01*
D02*
G37*
G36*
X-0026000Y0005000D02*
Y0000750D01*
X-0049000D01*
Y0005000D01*
X-0026000D01*
D02*
G37*
G36*
X-0062379Y0029460D02*
X-0062370Y0029459D01*
X-0062349Y0029456D01*
X-0062324Y0029450D01*
X-0062298Y0029442D01*
X-0062271Y0029430D01*
X-0062245Y0029414D01*
X-0062244D01*
X-0062242Y0029412D01*
X-0062234Y0029406D01*
X-0062221Y0029395D01*
X-0062206Y0029381D01*
X-0062189Y0029363D01*
X-0062173Y0029341D01*
X-0062156Y0029314D01*
X-0062142Y0029285D01*
Y0029284D01*
X-0062141Y0029281D01*
X-0062140Y0029277D01*
X-0062137Y0029271D01*
X-0062134Y0029263D01*
X-0062131Y0029253D01*
X-0062124Y0029231D01*
X-0062117Y0029204D01*
X-0062112Y0029173D01*
X-0062108Y0029138D01*
X-0062106Y0029102D01*
Y0029101D01*
Y0029098D01*
Y0029093D01*
Y0029084D01*
X-0062108Y0029075D01*
Y0029063D01*
X-0062110Y0029038D01*
X-0062116Y0029008D01*
X-0062123Y0028976D01*
X-0062133Y0028943D01*
X-0062145Y0028909D01*
Y0028908D01*
X-0062146Y0028905D01*
X-0062149Y0028901D01*
X-0062152Y0028896D01*
X-0062162Y0028880D01*
X-0062174Y0028861D01*
X-0062189Y0028840D01*
X-0062209Y0028819D01*
X-0062231Y0028799D01*
X-0062257Y0028779D01*
X-0062259D01*
X-0062260Y0028778D01*
X-0062264Y0028775D01*
X-0062270Y0028772D01*
X-0062284Y0028765D01*
X-0062303Y0028757D01*
X-0062327Y0028749D01*
X-0062352Y0028742D01*
X-0062381Y0028736D01*
X-0062410Y0028735D01*
X-0062420D01*
X-0062431Y0028736D01*
X-0062445Y0028738D01*
X-0062461Y0028740D01*
X-0062479Y0028744D01*
X-0062497Y0028750D01*
X-0062515Y0028758D01*
X-0062517Y0028760D01*
X-0062524Y0028762D01*
X-0062532Y0028768D01*
X-0062543Y0028776D01*
X-0062554Y0028785D01*
X-0062568Y0028796D01*
X-0062581Y0028808D01*
X-0062592Y0028822D01*
Y0028484D01*
X-0062616D01*
Y0028198D01*
X-0062615Y0028200D01*
X-0062612Y0028203D01*
X-0062607Y0028208D01*
X-0062599Y0028215D01*
X-0062591Y0028223D01*
X-0062580Y0028233D01*
X-0062566Y0028242D01*
X-0062552Y0028253D01*
X-0062536Y0028263D01*
X-0062519Y0028272D01*
X-0062478Y0028289D01*
X-0062456Y0028297D01*
X-0062432Y0028302D01*
X-0062407Y0028305D01*
X-0062382Y0028307D01*
X-0062368D01*
X-0062351Y0028305D01*
X-0062330Y0028302D01*
X-0062307Y0028299D01*
X-0062281Y0028292D01*
X-0062256Y0028283D01*
X-0062231Y0028272D01*
X-0062228Y0028270D01*
X-0062220Y0028266D01*
X-0062209Y0028258D01*
X-0062195Y0028247D01*
X-0062181Y0028233D01*
X-0062165Y0028217D01*
X-0062151Y0028198D01*
X-0062138Y0028176D01*
X-0062137Y0028173D01*
X-0062134Y0028165D01*
X-0062129Y0028151D01*
X-0062124Y0028130D01*
X-0062120Y0028105D01*
X-0062115Y0028075D01*
X-0062112Y0028039D01*
X-0062110Y0027998D01*
Y0027500D01*
X-0062244D01*
Y0028000D01*
Y0028002D01*
Y0028005D01*
Y0028009D01*
Y0028016D01*
X-0062245Y0028033D01*
X-0062248Y0028055D01*
X-0062255Y0028079D01*
X-0062263Y0028102D01*
X-0062274Y0028126D01*
X-0062288Y0028145D01*
X-0062289Y0028146D01*
X-0062296Y0028152D01*
X-0062305Y0028160D01*
X-0062319Y0028168D01*
X-0062336Y0028178D01*
X-0062357Y0028184D01*
X-0062382Y0028190D01*
X-0062410Y0028192D01*
X-0062420D01*
X-0062431Y0028190D01*
X-0062447Y0028189D01*
X-0062462Y0028184D01*
X-0062481Y0028179D01*
X-0062500Y0028171D01*
X-0062520Y0028160D01*
X-0062522Y0028159D01*
X-0062528Y0028154D01*
X-0062538Y0028148D01*
X-0062549Y0028138D01*
X-0062561Y0028126D01*
X-0062574Y0028112D01*
X-0062585Y0028094D01*
X-0062594Y0028075D01*
X-0062596Y0028072D01*
X-0062597Y0028066D01*
X-0062601Y0028053D01*
X-0062605Y0028038D01*
X-0062610Y0028017D01*
X-0062613Y0027992D01*
X-0062615Y0027964D01*
X-0062616Y0027931D01*
Y0027500D01*
X-0062750D01*
Y0028588D01*
X-0062709D01*
Y0029446D01*
X-0062603D01*
Y0029355D01*
X-0062601Y0029357D01*
X-0062596Y0029363D01*
X-0062589Y0029373D01*
X-0062578Y0029384D01*
X-0062565Y0029398D01*
X-0062551Y0029410D01*
X-0062535Y0029423D01*
X-0062518Y0029434D01*
X-0062515Y0029435D01*
X-0062510Y0029438D01*
X-0062499Y0029442D01*
X-0062485Y0029448D01*
X-0062468Y0029453D01*
X-0062449Y0029457D01*
X-0062427Y0029460D01*
X-0062402Y0029461D01*
X-0062386D01*
X-0062379Y0029460D01*
D02*
G37*
G36*
X-0060869D02*
X-0060854Y0029459D01*
X-0060836Y0029456D01*
X-0060816Y0029452D01*
X-0060796Y0029446D01*
X-0060776Y0029438D01*
X-0060773Y0029436D01*
X-0060768Y0029434D01*
X-0060758Y0029430D01*
X-0060747Y0029423D01*
X-0060733Y0029414D01*
X-0060721Y0029403D01*
X-0060708Y0029392D01*
X-0060697Y0029378D01*
X-0060696Y0029377D01*
X-0060693Y0029371D01*
X-0060689Y0029364D01*
X-0060682Y0029355D01*
X-0060676Y0029341D01*
X-0060671Y0029327D01*
X-0060664Y0029310D01*
X-0060660Y0029292D01*
Y0029291D01*
X-0060658Y0029285D01*
X-0060657Y0029277D01*
X-0060656Y0029266D01*
Y0029249D01*
X-0060654Y0029230D01*
X-0060653Y0029206D01*
Y0029177D01*
Y0028750D01*
X-0060771D01*
Y0029172D01*
Y0029173D01*
Y0029174D01*
Y0029184D01*
Y0029197D01*
X-0060772Y0029212D01*
X-0060773Y0029230D01*
X-0060776Y0029248D01*
X-0060780Y0029265D01*
X-0060785Y0029280D01*
Y0029281D01*
X-0060787Y0029285D01*
X-0060792Y0029292D01*
X-0060796Y0029301D01*
X-0060803Y0029309D01*
X-0060811Y0029319D01*
X-0060822Y0029328D01*
X-0060834Y0029337D01*
X-0060836Y0029338D01*
X-0060840Y0029341D01*
X-0060848Y0029344D01*
X-0060858Y0029348D01*
X-0060869Y0029352D01*
X-0060883Y0029356D01*
X-0060900Y0029357D01*
X-0060916Y0029359D01*
X-0060923D01*
X-0060929Y0029357D01*
X-0060943Y0029356D01*
X-0060961Y0029353D01*
X-0060980Y0029346D01*
X-0061002Y0029338D01*
X-0061024Y0029327D01*
X-0061045Y0029310D01*
X-0061048Y0029308D01*
X-0061054Y0029301D01*
X-0061058Y0029295D01*
X-0061062Y0029288D01*
X-0061067Y0029280D01*
X-0061072Y0029270D01*
X-0061077Y0029259D01*
X-0061083Y0029245D01*
X-0061087Y0029230D01*
X-0061091Y0029213D01*
X-0061094Y0029195D01*
X-0061097Y0029176D01*
X-0061099Y0029152D01*
Y0029129D01*
Y0028750D01*
X-0061217D01*
Y0029446D01*
X-0061112D01*
Y0029346D01*
X-0061110Y0029348D01*
X-0061108Y0029352D01*
X-0061104Y0029357D01*
X-0061098Y0029364D01*
X-0061090Y0029373D01*
X-0061080Y0029382D01*
X-0061069Y0029393D01*
X-0061055Y0029405D01*
X-0061041Y0029414D01*
X-0061024Y0029425D01*
X-0061006Y0029435D01*
X-0060987Y0029443D01*
X-0060965Y0029450D01*
X-0060943Y0029456D01*
X-0060918Y0029460D01*
X-0060891Y0029461D01*
X-0060880D01*
X-0060869Y0029460D01*
D02*
G37*
G36*
X-0057657D02*
X-0057642Y0029457D01*
X-0057624Y0029452D01*
X-0057605Y0029445D01*
X-0057582Y0029435D01*
X-0057559Y0029423D01*
X-0057602Y0029314D01*
X-0057603Y0029316D01*
X-0057609Y0029319D01*
X-0057617Y0029323D01*
X-0057628Y0029327D01*
X-0057641Y0029331D01*
X-0057656Y0029335D01*
X-0057671Y0029338D01*
X-0057686Y0029339D01*
X-0057693D01*
X-0057700Y0029338D01*
X-0057710Y0029337D01*
X-0057720Y0029334D01*
X-0057732Y0029330D01*
X-0057745Y0029324D01*
X-0057756Y0029316D01*
X-0057757Y0029314D01*
X-0057761Y0029312D01*
X-0057765Y0029306D01*
X-0057772Y0029299D01*
X-0057779Y0029289D01*
X-0057786Y0029278D01*
X-0057793Y0029266D01*
X-0057799Y0029251D01*
X-0057800Y0029248D01*
X-0057801Y0029240D01*
X-0057804Y0029227D01*
X-0057808Y0029210D01*
X-0057813Y0029190D01*
X-0057815Y0029166D01*
X-0057817Y0029141D01*
X-0057818Y0029113D01*
Y0028750D01*
X-0057936D01*
Y0029446D01*
X-0057829D01*
Y0029341D01*
X-0057828Y0029342D01*
X-0057822Y0029352D01*
X-0057815Y0029364D01*
X-0057804Y0029380D01*
X-0057793Y0029395D01*
X-0057781Y0029412D01*
X-0057768Y0029425D01*
X-0057756Y0029436D01*
X-0057754Y0029438D01*
X-0057750Y0029441D01*
X-0057742Y0029445D01*
X-0057734Y0029449D01*
X-0057722Y0029453D01*
X-0057709Y0029457D01*
X-0057695Y0029460D01*
X-0057679Y0029461D01*
X-0057670D01*
X-0057657Y0029460D01*
D02*
G37*
G36*
X-0059842D02*
X-0059821Y0029459D01*
X-0059799Y0029456D01*
X-0059775Y0029450D01*
X-0059750Y0029445D01*
X-0059726Y0029436D01*
X-0059725D01*
X-0059724Y0029435D01*
X-0059717Y0029432D01*
X-0059706Y0029427D01*
X-0059692Y0029420D01*
X-0059676Y0029410D01*
X-0059661Y0029399D01*
X-0059647Y0029387D01*
X-0059635Y0029373D01*
X-0059633Y0029371D01*
X-0059631Y0029366D01*
X-0059625Y0029356D01*
X-0059618Y0029345D01*
X-0059611Y0029328D01*
X-0059604Y0029310D01*
X-0059599Y0029289D01*
X-0059593Y0029266D01*
X-0059708Y0029251D01*
Y0029253D01*
X-0059710Y0029259D01*
X-0059713Y0029269D01*
X-0059717Y0029281D01*
X-0059724Y0029294D01*
X-0059732Y0029308D01*
X-0059742Y0029321D01*
X-0059756Y0029334D01*
X-0059757Y0029335D01*
X-0059762Y0029338D01*
X-0059771Y0029344D01*
X-0059783Y0029349D01*
X-0059797Y0029355D01*
X-0059815Y0029360D01*
X-0059837Y0029363D01*
X-0059861Y0029364D01*
X-0059875D01*
X-0059889Y0029363D01*
X-0059907Y0029362D01*
X-0059925Y0029357D01*
X-0059944Y0029353D01*
X-0059962Y0029346D01*
X-0059977Y0029337D01*
X-0059979Y0029335D01*
X-0059983Y0029332D01*
X-0059989Y0029327D01*
X-0059994Y0029319D01*
X-0060001Y0029310D01*
X-0060007Y0029299D01*
X-0060011Y0029287D01*
X-0060012Y0029274D01*
Y0029273D01*
Y0029270D01*
X-0060011Y0029266D01*
Y0029260D01*
X-0060007Y0029246D01*
X-0059998Y0029233D01*
X-0059997Y0029231D01*
X-0059995Y0029230D01*
X-0059993Y0029226D01*
X-0059987Y0029222D01*
X-0059982Y0029217D01*
X-0059973Y0029212D01*
X-0059964Y0029208D01*
X-0059952Y0029202D01*
X-0059951D01*
X-0059948Y0029201D01*
X-0059943Y0029199D01*
X-0059933Y0029195D01*
X-0059919Y0029191D01*
X-0059901Y0029187D01*
X-0059890Y0029183D01*
X-0059878Y0029180D01*
X-0059864Y0029176D01*
X-0059848Y0029172D01*
X-0059847D01*
X-0059843Y0029170D01*
X-0059836Y0029169D01*
X-0059828Y0029166D01*
X-0059818Y0029163D01*
X-0059805Y0029161D01*
X-0059779Y0029152D01*
X-0059750Y0029144D01*
X-0059721Y0029134D01*
X-0059695Y0029124D01*
X-0059683Y0029120D01*
X-0059674Y0029116D01*
X-0059671Y0029115D01*
X-0059665Y0029112D01*
X-0059657Y0029108D01*
X-0059645Y0029101D01*
X-0059632Y0029093D01*
X-0059620Y0029081D01*
X-0059607Y0029069D01*
X-0059596Y0029055D01*
X-0059595Y0029054D01*
X-0059592Y0029048D01*
X-0059586Y0029040D01*
X-0059581Y0029027D01*
X-0059577Y0029012D01*
X-0059571Y0028995D01*
X-0059568Y0028976D01*
X-0059567Y0028954D01*
Y0028951D01*
Y0028944D01*
X-0059568Y0028933D01*
X-0059571Y0028918D01*
X-0059575Y0028901D01*
X-0059582Y0028883D01*
X-0059590Y0028862D01*
X-0059602Y0028843D01*
X-0059603Y0028840D01*
X-0059609Y0028835D01*
X-0059615Y0028825D01*
X-0059627Y0028814D01*
X-0059642Y0028801D01*
X-0059658Y0028787D01*
X-0059678Y0028775D01*
X-0059701Y0028762D01*
X-0059703D01*
X-0059704Y0028761D01*
X-0059713Y0028758D01*
X-0059726Y0028754D01*
X-0059744Y0028749D01*
X-0059767Y0028743D01*
X-0059792Y0028739D01*
X-0059818Y0028736D01*
X-0059848Y0028735D01*
X-0059861D01*
X-0059871Y0028736D01*
X-0059882D01*
X-0059896Y0028738D01*
X-0059909Y0028739D01*
X-0059925Y0028742D01*
X-0059958Y0028749D01*
X-0059993Y0028758D01*
X-0060026Y0028772D01*
X-0060041Y0028781D01*
X-0060055Y0028790D01*
X-0060056Y0028792D01*
X-0060058Y0028793D01*
X-0060066Y0028801D01*
X-0060079Y0028814D01*
X-0060093Y0028833D01*
X-0060108Y0028857D01*
X-0060123Y0028885D01*
X-0060136Y0028919D01*
X-0060145Y0028958D01*
X-0060029Y0028976D01*
Y0028975D01*
Y0028973D01*
X-0060026Y0028965D01*
X-0060023Y0028951D01*
X-0060018Y0028936D01*
X-0060011Y0028919D01*
X-0060002Y0028901D01*
X-0059990Y0028883D01*
X-0059975Y0028868D01*
X-0059972Y0028867D01*
X-0059966Y0028862D01*
X-0059955Y0028857D01*
X-0059941Y0028850D01*
X-0059923Y0028843D01*
X-0059903Y0028837D01*
X-0059878Y0028833D01*
X-0059848Y0028832D01*
X-0059835D01*
X-0059821Y0028833D01*
X-0059803Y0028836D01*
X-0059783Y0028840D01*
X-0059762Y0028846D01*
X-0059744Y0028853D01*
X-0059728Y0028864D01*
X-0059726Y0028865D01*
X-0059721Y0028869D01*
X-0059715Y0028876D01*
X-0059707Y0028886D01*
X-0059700Y0028897D01*
X-0059693Y0028911D01*
X-0059689Y0028925D01*
X-0059688Y0028941D01*
Y0028943D01*
Y0028948D01*
X-0059689Y0028955D01*
X-0059692Y0028965D01*
X-0059696Y0028975D01*
X-0059703Y0028984D01*
X-0059711Y0028995D01*
X-0059724Y0029004D01*
X-0059725Y0029005D01*
X-0059729Y0029007D01*
X-0059736Y0029011D01*
X-0059747Y0029015D01*
X-0059764Y0029020D01*
X-0059774Y0029025D01*
X-0059785Y0029027D01*
X-0059797Y0029032D01*
X-0059811Y0029036D01*
X-0059826Y0029040D01*
X-0059844Y0029044D01*
X-0059846D01*
X-0059850Y0029045D01*
X-0059857Y0029047D01*
X-0059865Y0029050D01*
X-0059876Y0029052D01*
X-0059889Y0029056D01*
X-0059915Y0029063D01*
X-0059946Y0029073D01*
X-0059975Y0029081D01*
X-0060002Y0029091D01*
X-0060015Y0029097D01*
X-0060025Y0029101D01*
X-0060027Y0029102D01*
X-0060033Y0029105D01*
X-0060041Y0029111D01*
X-0060052Y0029118D01*
X-0060065Y0029127D01*
X-0060077Y0029138D01*
X-0060090Y0029151D01*
X-0060101Y0029166D01*
X-0060102Y0029167D01*
X-0060105Y0029173D01*
X-0060109Y0029183D01*
X-0060113Y0029194D01*
X-0060118Y0029208D01*
X-0060122Y0029224D01*
X-0060124Y0029241D01*
X-0060126Y0029260D01*
Y0029263D01*
Y0029269D01*
X-0060124Y0029277D01*
X-0060123Y0029289D01*
X-0060120Y0029302D01*
X-0060118Y0029317D01*
X-0060112Y0029331D01*
X-0060105Y0029346D01*
X-0060104Y0029348D01*
X-0060101Y0029353D01*
X-0060097Y0029360D01*
X-0060090Y0029370D01*
X-0060081Y0029380D01*
X-0060072Y0029392D01*
X-0060061Y0029403D01*
X-0060047Y0029413D01*
X-0060045Y0029414D01*
X-0060041Y0029416D01*
X-0060036Y0029420D01*
X-0060027Y0029424D01*
X-0060016Y0029430D01*
X-0060004Y0029435D01*
X-0059989Y0029441D01*
X-0059972Y0029446D01*
X-0059969Y0029448D01*
X-0059964Y0029449D01*
X-0059954Y0029452D01*
X-0059941Y0029455D01*
X-0059926Y0029457D01*
X-0059909Y0029459D01*
X-0059890Y0029461D01*
X-0059857D01*
X-0059842Y0029460D01*
D02*
G37*
G36*
X-0057187D02*
X-0057179D01*
X-0057168Y0029459D01*
X-0057141Y0029455D01*
X-0057112Y0029448D01*
X-0057082Y0029436D01*
X-0057051Y0029423D01*
X-0057022Y0029403D01*
X-0057021D01*
X-0057019Y0029400D01*
X-0057011Y0029392D01*
X-0056998Y0029380D01*
X-0056983Y0029362D01*
X-0056968Y0029339D01*
X-0056953Y0029312D01*
X-0056939Y0029280D01*
X-0056929Y0029242D01*
X-0057044Y0029224D01*
Y0029226D01*
X-0057046Y0029227D01*
X-0057047Y0029235D01*
X-0057051Y0029248D01*
X-0057058Y0029263D01*
X-0057065Y0029280D01*
X-0057076Y0029298D01*
X-0057089Y0029314D01*
X-0057103Y0029328D01*
X-0057104Y0029330D01*
X-0057109Y0029334D01*
X-0057119Y0029339D01*
X-0057130Y0029346D01*
X-0057146Y0029353D01*
X-0057162Y0029359D01*
X-0057182Y0029363D01*
X-0057202Y0029364D01*
X-0057211D01*
X-0057218Y0029363D01*
X-0057233Y0029362D01*
X-0057254Y0029356D01*
X-0057276Y0029349D01*
X-0057301Y0029338D01*
X-0057324Y0029321D01*
X-0057335Y0029312D01*
X-0057347Y0029301D01*
Y0029299D01*
X-0057349Y0029298D01*
X-0057352Y0029294D01*
X-0057355Y0029288D01*
X-0057359Y0029281D01*
X-0057365Y0029273D01*
X-0057369Y0029263D01*
X-0057374Y0029252D01*
X-0057380Y0029238D01*
X-0057384Y0029223D01*
X-0057390Y0029206D01*
X-0057394Y0029188D01*
X-0057397Y0029169D01*
X-0057399Y0029147D01*
X-0057402Y0029123D01*
Y0029098D01*
Y0029097D01*
Y0029093D01*
Y0029084D01*
X-0057401Y0029076D01*
Y0029063D01*
X-0057399Y0029051D01*
X-0057395Y0029020D01*
X-0057390Y0028987D01*
X-0057380Y0028952D01*
X-0057367Y0028922D01*
X-0057359Y0028907D01*
X-0057349Y0028894D01*
X-0057347Y0028891D01*
X-0057340Y0028885D01*
X-0057327Y0028875D01*
X-0057312Y0028864D01*
X-0057291Y0028851D01*
X-0057268Y0028842D01*
X-0057240Y0028835D01*
X-0057225Y0028833D01*
X-0057209Y0028832D01*
X-0057207D01*
X-0057198Y0028833D01*
X-0057184Y0028835D01*
X-0057169Y0028837D01*
X-0057151Y0028842D01*
X-0057132Y0028850D01*
X-0057112Y0028860D01*
X-0057094Y0028873D01*
X-0057091Y0028875D01*
X-0057087Y0028882D01*
X-0057079Y0028891D01*
X-0057069Y0028907D01*
X-0057060Y0028925D01*
X-0057048Y0028947D01*
X-0057040Y0028975D01*
X-0057035Y0029005D01*
X-0056918Y0028990D01*
Y0028989D01*
X-0056919Y0028984D01*
X-0056921Y0028979D01*
X-0056922Y0028971D01*
X-0056925Y0028959D01*
X-0056928Y0028948D01*
X-0056937Y0028921D01*
X-0056950Y0028891D01*
X-0056968Y0028860D01*
X-0056990Y0028829D01*
X-0057003Y0028815D01*
X-0057017Y0028801D01*
X-0057018Y0028800D01*
X-0057021Y0028799D01*
X-0057025Y0028796D01*
X-0057030Y0028792D01*
X-0057037Y0028786D01*
X-0057047Y0028781D01*
X-0057058Y0028775D01*
X-0057069Y0028768D01*
X-0057097Y0028756D01*
X-0057130Y0028746D01*
X-0057166Y0028738D01*
X-0057187Y0028736D01*
X-0057208Y0028735D01*
X-0057222D01*
X-0057231Y0028736D01*
X-0057244Y0028738D01*
X-0057258Y0028740D01*
X-0057273Y0028743D01*
X-0057290Y0028746D01*
X-0057327Y0028757D01*
X-0057345Y0028765D01*
X-0057365Y0028774D01*
X-0057384Y0028785D01*
X-0057402Y0028797D01*
X-0057420Y0028811D01*
X-0057437Y0028828D01*
X-0057438Y0028829D01*
X-0057441Y0028832D01*
X-0057445Y0028837D01*
X-0057451Y0028844D01*
X-0057456Y0028854D01*
X-0057464Y0028867D01*
X-0057471Y0028880D01*
X-0057480Y0028896D01*
X-0057488Y0028914D01*
X-0057495Y0028934D01*
X-0057503Y0028955D01*
X-0057509Y0028980D01*
X-0057514Y0029005D01*
X-0057519Y0029034D01*
X-0057521Y0029063D01*
X-0057523Y0029095D01*
Y0029097D01*
Y0029101D01*
Y0029106D01*
Y0029115D01*
X-0057521Y0029124D01*
Y0029136D01*
X-0057520Y0029148D01*
X-0057519Y0029162D01*
X-0057514Y0029192D01*
X-0057507Y0029226D01*
X-0057499Y0029259D01*
X-0057487Y0029292D01*
Y0029294D01*
X-0057485Y0029296D01*
X-0057482Y0029301D01*
X-0057480Y0029306D01*
X-0057471Y0029321D01*
X-0057459Y0029339D01*
X-0057442Y0029360D01*
X-0057423Y0029381D01*
X-0057399Y0029402D01*
X-0057373Y0029418D01*
X-0057372D01*
X-0057369Y0029420D01*
X-0057365Y0029423D01*
X-0057359Y0029425D01*
X-0057352Y0029428D01*
X-0057344Y0029432D01*
X-0057323Y0029441D01*
X-0057299Y0029448D01*
X-0057270Y0029455D01*
X-0057240Y0029460D01*
X-0057207Y0029461D01*
X-0057195D01*
X-0057187Y0029460D01*
D02*
G37*
G36*
X-0058119Y0028750D02*
X-0058224D01*
Y0028851D01*
X-0058226Y0028850D01*
X-0058229Y0028846D01*
X-0058233Y0028840D01*
X-0058240Y0028833D01*
X-0058248Y0028825D01*
X-0058258Y0028814D01*
X-0058269Y0028804D01*
X-0058283Y0028793D01*
X-0058298Y0028782D01*
X-0058315Y0028772D01*
X-0058333Y0028762D01*
X-0058352Y0028753D01*
X-0058374Y0028746D01*
X-0058396Y0028740D01*
X-0058421Y0028736D01*
X-0058446Y0028735D01*
X-0058456D01*
X-0058469Y0028736D01*
X-0058484Y0028738D01*
X-0058502Y0028740D01*
X-0058521Y0028744D01*
X-0058541Y0028750D01*
X-0058561Y0028758D01*
X-0058564Y0028760D01*
X-0058570Y0028762D01*
X-0058579Y0028768D01*
X-0058591Y0028775D01*
X-0058604Y0028783D01*
X-0058617Y0028793D01*
X-0058629Y0028804D01*
X-0058641Y0028817D01*
X-0058642Y0028818D01*
X-0058645Y0028823D01*
X-0058649Y0028830D01*
X-0058654Y0028842D01*
X-0058661Y0028854D01*
X-0058667Y0028869D01*
X-0058672Y0028886D01*
X-0058677Y0028904D01*
Y0028905D01*
X-0058678Y0028911D01*
X-0058679Y0028919D01*
Y0028930D01*
X-0058681Y0028947D01*
X-0058682Y0028965D01*
X-0058683Y0028989D01*
Y0029015D01*
Y0029446D01*
X-0058566D01*
Y0029059D01*
Y0029058D01*
Y0029055D01*
Y0029051D01*
Y0029044D01*
Y0029029D01*
X-0058564Y0029009D01*
Y0028989D01*
X-0058563Y0028968D01*
X-0058561Y0028950D01*
X-0058559Y0028934D01*
Y0028933D01*
X-0058556Y0028928D01*
X-0058553Y0028919D01*
X-0058549Y0028908D01*
X-0058542Y0028897D01*
X-0058534Y0028885D01*
X-0058524Y0028873D01*
X-0058512Y0028862D01*
X-0058510Y0028861D01*
X-0058505Y0028858D01*
X-0058498Y0028854D01*
X-0058487Y0028850D01*
X-0058474Y0028844D01*
X-0058459Y0028840D01*
X-0058442Y0028837D01*
X-0058423Y0028836D01*
X-0058413D01*
X-0058403Y0028837D01*
X-0058391Y0028839D01*
X-0058376Y0028843D01*
X-0058359Y0028847D01*
X-0058341Y0028854D01*
X-0058323Y0028862D01*
X-0058320Y0028864D01*
X-0058315Y0028868D01*
X-0058306Y0028873D01*
X-0058297Y0028882D01*
X-0058285Y0028893D01*
X-0058274Y0028905D01*
X-0058265Y0028919D01*
X-0058256Y0028936D01*
X-0058255Y0028939D01*
X-0058254Y0028944D01*
X-0058251Y0028955D01*
X-0058247Y0028971D01*
X-0058242Y0028990D01*
X-0058240Y0029014D01*
X-0058238Y0029041D01*
X-0058237Y0029073D01*
Y0029446D01*
X-0058119D01*
Y0028750D01*
D02*
G37*
G36*
X-0056509Y0029460D02*
X-0056498Y0029459D01*
X-0056484Y0029456D01*
X-0056469Y0029453D01*
X-0056451Y0029449D01*
X-0056434Y0029445D01*
X-0056415Y0029438D01*
X-0056397Y0029431D01*
X-0056377Y0029421D01*
X-0056358Y0029410D01*
X-0056338Y0029398D01*
X-0056320Y0029382D01*
X-0056304Y0029366D01*
X-0056302Y0029364D01*
X-0056300Y0029362D01*
X-0056295Y0029356D01*
X-0056290Y0029348D01*
X-0056283Y0029338D01*
X-0056276Y0029327D01*
X-0056268Y0029313D01*
X-0056259Y0029296D01*
X-0056251Y0029278D01*
X-0056243Y0029259D01*
X-0056236Y0029237D01*
X-0056229Y0029213D01*
X-0056223Y0029187D01*
X-0056219Y0029159D01*
X-0056216Y0029130D01*
X-0056215Y0029098D01*
Y0029097D01*
Y0029091D01*
Y0029081D01*
X-0056216Y0029068D01*
X-0056736Y0029068D01*
Y0029066D01*
Y0029062D01*
X-0056735Y0029056D01*
Y0029048D01*
X-0056734Y0029038D01*
X-0056731Y0029027D01*
X-0056727Y0029002D01*
X-0056718Y0028975D01*
X-0056707Y0028944D01*
X-0056692Y0028916D01*
X-0056673Y0028891D01*
X-0056671D01*
X-0056670Y0028889D01*
X-0056661Y0028882D01*
X-0056649Y0028872D01*
X-0056632Y0028862D01*
X-0056610Y0028851D01*
X-0056585Y0028842D01*
X-0056557Y0028835D01*
X-0056542Y0028833D01*
X-0056526Y0028832D01*
X-0056514D01*
X-0056502Y0028833D01*
X-0056487Y0028836D01*
X-0056470Y0028840D01*
X-0056451Y0028846D01*
X-0056433Y0028854D01*
X-0056415Y0028865D01*
X-0056413Y0028867D01*
X-0056406Y0028872D01*
X-0056398Y0028880D01*
X-0056388Y0028891D01*
X-0056377Y0028907D01*
X-0056365Y0028926D01*
X-0056352Y0028948D01*
X-0056341Y0028975D01*
X-0056219Y0028959D01*
Y0028958D01*
X-0056220Y0028955D01*
X-0056222Y0028950D01*
X-0056225Y0028941D01*
X-0056229Y0028933D01*
X-0056233Y0028922D01*
X-0056244Y0028898D01*
X-0056258Y0028872D01*
X-0056277Y0028844D01*
X-0056300Y0028818D01*
X-0056327Y0028793D01*
X-0056329D01*
X-0056331Y0028790D01*
X-0056336Y0028787D01*
X-0056341Y0028783D01*
X-0056349Y0028779D01*
X-0056358Y0028775D01*
X-0056369Y0028769D01*
X-0056381Y0028764D01*
X-0056395Y0028758D01*
X-0056409Y0028753D01*
X-0056444Y0028744D01*
X-0056483Y0028738D01*
X-0056526Y0028735D01*
X-0056541D01*
X-0056551Y0028736D01*
X-0056563Y0028738D01*
X-0056578Y0028740D01*
X-0056595Y0028743D01*
X-0056613Y0028746D01*
X-0056652Y0028757D01*
X-0056673Y0028765D01*
X-0056692Y0028774D01*
X-0056713Y0028785D01*
X-0056732Y0028797D01*
X-0056750Y0028811D01*
X-0056768Y0028828D01*
X-0056770Y0028829D01*
X-0056772Y0028832D01*
X-0056777Y0028837D01*
X-0056782Y0028846D01*
X-0056789Y0028855D01*
X-0056796Y0028867D01*
X-0056804Y0028880D01*
X-0056813Y0028896D01*
X-0056821Y0028914D01*
X-0056829Y0028933D01*
X-0056836Y0028955D01*
X-0056843Y0028979D01*
X-0056849Y0029004D01*
X-0056853Y0029032D01*
X-0056856Y0029061D01*
X-0056857Y0029091D01*
Y0029093D01*
Y0029099D01*
Y0029108D01*
X-0056856Y0029120D01*
X-0056854Y0029136D01*
X-0056853Y0029152D01*
X-0056850Y0029172D01*
X-0056846Y0029191D01*
X-0056835Y0029235D01*
X-0056828Y0029258D01*
X-0056820Y0029281D01*
X-0056808Y0029303D01*
X-0056796Y0029324D01*
X-0056782Y0029345D01*
X-0056767Y0029364D01*
X-0056765Y0029366D01*
X-0056763Y0029369D01*
X-0056757Y0029373D01*
X-0056750Y0029380D01*
X-0056742Y0029387D01*
X-0056731Y0029395D01*
X-0056718Y0029405D01*
X-0056703Y0029413D01*
X-0056688Y0029423D01*
X-0056670Y0029431D01*
X-0056650Y0029439D01*
X-0056630Y0029446D01*
X-0056607Y0029453D01*
X-0056584Y0029457D01*
X-0056559Y0029460D01*
X-0056533Y0029461D01*
X-0056519D01*
X-0056509Y0029460D01*
D02*
G37*
G36*
X-0059122D02*
X-0059109Y0029459D01*
X-0059095Y0029456D01*
X-0059080Y0029453D01*
X-0059062Y0029450D01*
X-0059025Y0029438D01*
X-0059005Y0029431D01*
X-0058986Y0029421D01*
X-0058966Y0029412D01*
X-0058947Y0029398D01*
X-0058929Y0029384D01*
X-0058911Y0029367D01*
X-0058910Y0029366D01*
X-0058907Y0029363D01*
X-0058903Y0029357D01*
X-0058897Y0029351D01*
X-0058890Y0029341D01*
X-0058882Y0029328D01*
X-0058874Y0029314D01*
X-0058865Y0029299D01*
X-0058857Y0029283D01*
X-0058849Y0029262D01*
X-0058840Y0029241D01*
X-0058833Y0029217D01*
X-0058828Y0029192D01*
X-0058824Y0029166D01*
X-0058821Y0029138D01*
X-0058819Y0029108D01*
Y0029106D01*
Y0029102D01*
Y0029095D01*
Y0029086D01*
X-0058821Y0029075D01*
X-0058822Y0029061D01*
Y0029047D01*
X-0058825Y0029032D01*
X-0058829Y0028997D01*
X-0058837Y0028962D01*
X-0058847Y0028928D01*
X-0058861Y0028896D01*
Y0028894D01*
X-0058862Y0028893D01*
X-0058865Y0028889D01*
X-0058868Y0028883D01*
X-0058878Y0028869D01*
X-0058890Y0028853D01*
X-0058907Y0028833D01*
X-0058928Y0028814D01*
X-0058951Y0028794D01*
X-0058979Y0028776D01*
X-0058980D01*
X-0058982Y0028775D01*
X-0058986Y0028772D01*
X-0058993Y0028769D01*
X-0059000Y0028767D01*
X-0059008Y0028764D01*
X-0059029Y0028756D01*
X-0059052Y0028749D01*
X-0059082Y0028742D01*
X-0059112Y0028736D01*
X-0059145Y0028735D01*
X-0059159D01*
X-0059170Y0028736D01*
X-0059183Y0028738D01*
X-0059197Y0028740D01*
X-0059213Y0028743D01*
X-0059230Y0028746D01*
X-0059267Y0028757D01*
X-0059288Y0028765D01*
X-0059308Y0028774D01*
X-0059327Y0028785D01*
X-0059346Y0028797D01*
X-0059364Y0028811D01*
X-0059382Y0028828D01*
X-0059384Y0028829D01*
X-0059387Y0028832D01*
X-0059391Y0028837D01*
X-0059396Y0028846D01*
X-0059403Y0028855D01*
X-0059410Y0028867D01*
X-0059419Y0028880D01*
X-0059427Y0028897D01*
X-0059435Y0028915D01*
X-0059443Y0028936D01*
X-0059450Y0028958D01*
X-0059457Y0028982D01*
X-0059463Y0029008D01*
X-0059467Y0029036D01*
X-0059470Y0029066D01*
X-0059471Y0029098D01*
Y0029101D01*
Y0029106D01*
X-0059470Y0029116D01*
Y0029130D01*
X-0059468Y0029145D01*
X-0059466Y0029165D01*
X-0059463Y0029184D01*
X-0059457Y0029206D01*
X-0059452Y0029228D01*
X-0059445Y0029252D01*
X-0059437Y0029277D01*
X-0059425Y0029301D01*
X-0059414Y0029323D01*
X-0059399Y0029345D01*
X-0059384Y0029366D01*
X-0059364Y0029384D01*
X-0059363Y0029385D01*
X-0059360Y0029387D01*
X-0059355Y0029391D01*
X-0059348Y0029396D01*
X-0059339Y0029402D01*
X-0059328Y0029409D01*
X-0059317Y0029416D01*
X-0059303Y0029423D01*
X-0059288Y0029430D01*
X-0059272Y0029436D01*
X-0059234Y0029449D01*
X-0059191Y0029459D01*
X-0059169Y0029460D01*
X-0059145Y0029461D01*
X-0059131D01*
X-0059122Y0029460D01*
D02*
G37*
G36*
X-0061655D02*
X-0061644Y0029459D01*
X-0061631Y0029456D01*
X-0061615Y0029453D01*
X-0061597Y0029449D01*
X-0061581Y0029445D01*
X-0061561Y0029438D01*
X-0061543Y0029431D01*
X-0061524Y0029421D01*
X-0061504Y0029410D01*
X-0061485Y0029398D01*
X-0061467Y0029382D01*
X-0061450Y0029366D01*
X-0061449Y0029364D01*
X-0061446Y0029362D01*
X-0061442Y0029356D01*
X-0061436Y0029348D01*
X-0061429Y0029338D01*
X-0061423Y0029327D01*
X-0061414Y0029313D01*
X-0061406Y0029296D01*
X-0061398Y0029278D01*
X-0061389Y0029259D01*
X-0061382Y0029237D01*
X-0061375Y0029213D01*
X-0061370Y0029187D01*
X-0061366Y0029159D01*
X-0061363Y0029130D01*
X-0061361Y0029098D01*
Y0029097D01*
Y0029091D01*
Y0029081D01*
X-0061363Y0029068D01*
X-0061883D01*
Y0029066D01*
Y0029062D01*
X-0061882Y0029056D01*
Y0029048D01*
X-0061880Y0029038D01*
X-0061877Y0029027D01*
X-0061873Y0029002D01*
X-0061865Y0028975D01*
X-0061854Y0028944D01*
X-0061839Y0028916D01*
X-0061819Y0028891D01*
X-0061818D01*
X-0061816Y0028889D01*
X-0061808Y0028882D01*
X-0061796Y0028872D01*
X-0061779Y0028862D01*
X-0061757Y0028851D01*
X-0061732Y0028842D01*
X-0061704Y0028835D01*
X-0061689Y0028833D01*
X-0061672Y0028832D01*
X-0061661D01*
X-0061649Y0028833D01*
X-0061633Y0028836D01*
X-0061617Y0028840D01*
X-0061597Y0028846D01*
X-0061579Y0028854D01*
X-0061561Y0028865D01*
X-0061560Y0028867D01*
X-0061553Y0028872D01*
X-0061545Y0028880D01*
X-0061535Y0028891D01*
X-0061524Y0028907D01*
X-0061511Y0028926D01*
X-0061499Y0028948D01*
X-0061488Y0028975D01*
X-0061366Y0028959D01*
Y0028958D01*
X-0061367Y0028955D01*
X-0061368Y0028950D01*
X-0061371Y0028941D01*
X-0061375Y0028933D01*
X-0061380Y0028922D01*
X-0061391Y0028898D01*
X-0061404Y0028872D01*
X-0061424Y0028844D01*
X-0061446Y0028818D01*
X-0061474Y0028793D01*
X-0061475D01*
X-0061478Y0028790D01*
X-0061482Y0028787D01*
X-0061488Y0028783D01*
X-0061496Y0028779D01*
X-0061504Y0028775D01*
X-0061515Y0028769D01*
X-0061528Y0028764D01*
X-0061542Y0028758D01*
X-0061556Y0028753D01*
X-0061590Y0028744D01*
X-0061629Y0028738D01*
X-0061672Y0028735D01*
X-0061687D01*
X-0061697Y0028736D01*
X-0061710Y0028738D01*
X-0061725Y0028740D01*
X-0061741Y0028743D01*
X-0061760Y0028746D01*
X-0061798Y0028757D01*
X-0061819Y0028765D01*
X-0061839Y0028774D01*
X-0061859Y0028785D01*
X-0061879Y0028797D01*
X-0061897Y0028811D01*
X-0061915Y0028828D01*
X-0061916Y0028829D01*
X-0061919Y0028832D01*
X-0061923Y0028837D01*
X-0061929Y0028846D01*
X-0061936Y0028855D01*
X-0061943Y0028867D01*
X-0061951Y0028880D01*
X-0061959Y0028896D01*
X-0061968Y0028914D01*
X-0061976Y0028933D01*
X-0061983Y0028955D01*
X-0061990Y0028979D01*
X-0061995Y0029004D01*
X-0061999Y0029032D01*
X-0062002Y0029061D01*
X-0062004Y0029091D01*
Y0029093D01*
Y0029099D01*
Y0029108D01*
X-0062002Y0029120D01*
X-0062001Y0029136D01*
X-0061999Y0029152D01*
X-0061997Y0029172D01*
X-0061993Y0029191D01*
X-0061981Y0029235D01*
X-0061974Y0029258D01*
X-0061966Y0029281D01*
X-0061955Y0029303D01*
X-0061943Y0029324D01*
X-0061929Y0029345D01*
X-0061913Y0029364D01*
X-0061912Y0029366D01*
X-0061909Y0029369D01*
X-0061904Y0029373D01*
X-0061897Y0029380D01*
X-0061888Y0029387D01*
X-0061877Y0029395D01*
X-0061865Y0029405D01*
X-0061850Y0029413D01*
X-0061834Y0029423D01*
X-0061816Y0029431D01*
X-0061797Y0029439D01*
X-0061776Y0029446D01*
X-0061754Y0029453D01*
X-0061730Y0029457D01*
X-0061705Y0029460D01*
X-0061679Y0029461D01*
X-0061665D01*
X-0061655Y0029460D01*
D02*
G37*
G36*
X-0063151D02*
X-0063138Y0029459D01*
X-0063124Y0029456D01*
X-0063109Y0029453D01*
X-0063091Y0029450D01*
X-0063053Y0029438D01*
X-0063034Y0029431D01*
X-0063015Y0029421D01*
X-0062995Y0029412D01*
X-0062976Y0029398D01*
X-0062958Y0029384D01*
X-0062940Y0029367D01*
X-0062938Y0029366D01*
X-0062936Y0029363D01*
X-0062931Y0029357D01*
X-0062926Y0029351D01*
X-0062919Y0029341D01*
X-0062911Y0029328D01*
X-0062902Y0029314D01*
X-0062894Y0029299D01*
X-0062886Y0029283D01*
X-0062877Y0029262D01*
X-0062869Y0029241D01*
X-0062862Y0029217D01*
X-0062857Y0029192D01*
X-0062852Y0029166D01*
X-0062850Y0029138D01*
X-0062848Y0029108D01*
Y0029106D01*
Y0029102D01*
Y0029095D01*
Y0029086D01*
X-0062850Y0029075D01*
X-0062851Y0029061D01*
Y0029047D01*
X-0062854Y0029032D01*
X-0062858Y0028997D01*
X-0062866Y0028962D01*
X-0062876Y0028928D01*
X-0062890Y0028896D01*
Y0028894D01*
X-0062891Y0028893D01*
X-0062894Y0028889D01*
X-0062897Y0028883D01*
X-0062906Y0028869D01*
X-0062919Y0028853D01*
X-0062936Y0028833D01*
X-0062956Y0028814D01*
X-0062980Y0028794D01*
X-0063008Y0028776D01*
X-0063009D01*
X-0063010Y0028775D01*
X-0063015Y0028772D01*
X-0063022Y0028769D01*
X-0063028Y0028767D01*
X-0063037Y0028764D01*
X-0063058Y0028756D01*
X-0063081Y0028749D01*
X-0063110Y0028742D01*
X-0063141Y0028736D01*
X-0063174Y0028735D01*
X-0063188D01*
X-0063199Y0028736D01*
X-0063212Y0028738D01*
X-0063225Y0028740D01*
X-0063242Y0028743D01*
X-0063259Y0028746D01*
X-0063296Y0028757D01*
X-0063317Y0028765D01*
X-0063336Y0028774D01*
X-0063356Y0028785D01*
X-0063375Y0028797D01*
X-0063393Y0028811D01*
X-0063411Y0028828D01*
X-0063413Y0028829D01*
X-0063415Y0028832D01*
X-0063420Y0028837D01*
X-0063425Y0028846D01*
X-0063432Y0028855D01*
X-0063439Y0028867D01*
X-0063447Y0028880D01*
X-0063456Y0028897D01*
X-0063464Y0028915D01*
X-0063472Y0028936D01*
X-0063479Y0028958D01*
X-0063486Y0028982D01*
X-0063492Y0029008D01*
X-0063496Y0029036D01*
X-0063499Y0029066D01*
X-0063500Y0029098D01*
Y0029101D01*
Y0029106D01*
X-0063499Y0029116D01*
Y0029130D01*
X-0063497Y0029145D01*
X-0063494Y0029165D01*
X-0063492Y0029184D01*
X-0063486Y0029206D01*
X-0063481Y0029228D01*
X-0063474Y0029252D01*
X-0063465Y0029277D01*
X-0063454Y0029301D01*
X-0063443Y0029323D01*
X-0063428Y0029345D01*
X-0063413Y0029366D01*
X-0063393Y0029384D01*
X-0063392Y0029385D01*
X-0063389Y0029387D01*
X-0063384Y0029391D01*
X-0063377Y0029396D01*
X-0063368Y0029402D01*
X-0063357Y0029409D01*
X-0063346Y0029416D01*
X-0063332Y0029423D01*
X-0063317Y0029430D01*
X-0063300Y0029436D01*
X-0063263Y0029449D01*
X-0063220Y0029459D01*
X-0063198Y0029460D01*
X-0063174Y0029461D01*
X-0063160D01*
X-0063151Y0029460D01*
D02*
G37*
G36*
X-0059918Y0027500D02*
X-0060043D01*
Y0027599D01*
X-0060044Y0027597D01*
X-0060046Y0027594D01*
X-0060050Y0027588D01*
X-0060057Y0027580D01*
X-0060065Y0027572D01*
X-0060074Y0027563D01*
X-0060085Y0027552D01*
X-0060099Y0027541D01*
X-0060113Y0027530D01*
X-0060129Y0027519D01*
X-0060148Y0027509D01*
X-0060168Y0027502D01*
X-0060189Y0027494D01*
X-0060212Y0027487D01*
X-0060238Y0027484D01*
X-0060264Y0027483D01*
X-0060274D01*
X-0060280Y0027484D01*
X-0060299Y0027486D01*
X-0060321Y0027489D01*
X-0060348Y0027495D01*
X-0060377Y0027505D01*
X-0060407Y0027517D01*
X-0060437Y0027535D01*
X-0060439D01*
X-0060440Y0027538D01*
X-0060450Y0027544D01*
X-0060464Y0027557D01*
X-0060481Y0027572D01*
X-0060502Y0027593D01*
X-0060522Y0027618D01*
X-0060543Y0027646D01*
X-0060560Y0027679D01*
Y0027681D01*
X-0060561Y0027684D01*
X-0060563Y0027689D01*
X-0060566Y0027695D01*
X-0060569Y0027704D01*
X-0060574Y0027715D01*
X-0060577Y0027726D01*
X-0060580Y0027741D01*
X-0060588Y0027772D01*
X-0060596Y0027808D01*
X-0060601Y0027849D01*
X-0060602Y0027893D01*
Y0027895D01*
Y0027898D01*
Y0027904D01*
Y0027914D01*
X-0060601Y0027923D01*
Y0027936D01*
X-0060598Y0027964D01*
X-0060593Y0027997D01*
X-0060585Y0028033D01*
X-0060576Y0028071D01*
X-0060563Y0028107D01*
Y0028108D01*
X-0060561Y0028112D01*
X-0060558Y0028116D01*
X-0060555Y0028123D01*
X-0060546Y0028140D01*
X-0060533Y0028162D01*
X-0060517Y0028186D01*
X-0060497Y0028209D01*
X-0060473Y0028234D01*
X-0060445Y0028255D01*
X-0060443D01*
X-0060442Y0028256D01*
X-0060437Y0028259D01*
X-0060431Y0028263D01*
X-0060415Y0028270D01*
X-0060393Y0028281D01*
X-0060368Y0028291D01*
X-0060338Y0028299D01*
X-0060305Y0028305D01*
X-0060271Y0028307D01*
X-0060258D01*
X-0060245Y0028305D01*
X-0060228Y0028303D01*
X-0060208Y0028299D01*
X-0060186Y0028294D01*
X-0060164Y0028286D01*
X-0060143Y0028275D01*
X-0060140Y0028274D01*
X-0060134Y0028270D01*
X-0060124Y0028263D01*
X-0060112Y0028255D01*
X-0060096Y0028244D01*
X-0060082Y0028230D01*
X-0060066Y0028215D01*
X-0060052Y0028198D01*
Y0028588D01*
X-0059918D01*
Y0027500D01*
D02*
G37*
G36*
X-0057448Y0028305D02*
X-0057431Y0028302D01*
X-0057411Y0028296D01*
X-0057389Y0028288D01*
X-0057363Y0028277D01*
X-0057337Y0028263D01*
X-0057385Y0028140D01*
X-0057387Y0028141D01*
X-0057393Y0028145D01*
X-0057403Y0028149D01*
X-0057415Y0028154D01*
X-0057429Y0028159D01*
X-0057447Y0028163D01*
X-0057464Y0028167D01*
X-0057481Y0028168D01*
X-0057489D01*
X-0057497Y0028167D01*
X-0057508Y0028165D01*
X-0057519Y0028162D01*
X-0057533Y0028157D01*
X-0057547Y0028151D01*
X-0057560Y0028141D01*
X-0057562Y0028140D01*
X-0057566Y0028137D01*
X-0057571Y0028130D01*
X-0057579Y0028123D01*
X-0057587Y0028112D01*
X-0057595Y0028099D01*
X-0057602Y0028085D01*
X-0057609Y0028068D01*
X-0057610Y0028064D01*
X-0057612Y0028055D01*
X-0057615Y0028041D01*
X-0057620Y0028022D01*
X-0057624Y0027998D01*
X-0057628Y0027972D01*
X-0057629Y0027943D01*
X-0057631Y0027912D01*
Y0027500D01*
X-0057764D01*
Y0028289D01*
X-0057643D01*
Y0028170D01*
X-0057642Y0028171D01*
X-0057635Y0028182D01*
X-0057628Y0028197D01*
X-0057615Y0028214D01*
X-0057602Y0028231D01*
X-0057588Y0028250D01*
X-0057574Y0028266D01*
X-0057560Y0028278D01*
X-0057558Y0028280D01*
X-0057554Y0028283D01*
X-0057544Y0028288D01*
X-0057535Y0028292D01*
X-0057522Y0028297D01*
X-0057507Y0028302D01*
X-0057491Y0028305D01*
X-0057473Y0028307D01*
X-0057462D01*
X-0057448Y0028305D01*
D02*
G37*
G36*
X-0060744D02*
X-0060727Y0028302D01*
X-0060706Y0028296D01*
X-0060684Y0028288D01*
X-0060659Y0028277D01*
X-0060632Y0028263D01*
X-0060681Y0028140D01*
X-0060682Y0028141D01*
X-0060689Y0028145D01*
X-0060698Y0028149D01*
X-0060711Y0028154D01*
X-0060725Y0028159D01*
X-0060742Y0028163D01*
X-0060760Y0028167D01*
X-0060777Y0028168D01*
X-0060785D01*
X-0060793Y0028167D01*
X-0060804Y0028165D01*
X-0060815Y0028162D01*
X-0060829Y0028157D01*
X-0060843Y0028151D01*
X-0060855Y0028141D01*
X-0060857Y0028140D01*
X-0060862Y0028137D01*
X-0060866Y0028130D01*
X-0060874Y0028123D01*
X-0060882Y0028112D01*
X-0060890Y0028099D01*
X-0060898Y0028085D01*
X-0060904Y0028068D01*
X-0060906Y0028064D01*
X-0060907Y0028055D01*
X-0060910Y0028041D01*
X-0060915Y0028022D01*
X-0060920Y0027998D01*
X-0060923Y0027972D01*
X-0060925Y0027943D01*
X-0060926Y0027912D01*
Y0027500D01*
X-0061060D01*
Y0028289D01*
X-0060939D01*
Y0028170D01*
X-0060937Y0028171D01*
X-0060931Y0028182D01*
X-0060923Y0028197D01*
X-0060910Y0028214D01*
X-0060898Y0028231D01*
X-0060884Y0028250D01*
X-0060870Y0028266D01*
X-0060855Y0028278D01*
X-0060854Y0028280D01*
X-0060849Y0028283D01*
X-0060840Y0028288D01*
X-0060830Y0028292D01*
X-0060818Y0028297D01*
X-0060802Y0028302D01*
X-0060786Y0028305D01*
X-0060769Y0028307D01*
X-0060758D01*
X-0060744Y0028305D01*
D02*
G37*
G36*
X-0058970Y0027500D02*
X-0059107D01*
X-0059233Y0027972D01*
X-0059264Y0028107D01*
X-0059423Y0027500D01*
X-0059565D01*
X-0059804Y0028289D01*
X-0059664D01*
X-0059538Y0027833D01*
X-0059494Y0027664D01*
Y0027665D01*
X-0059492Y0027668D01*
X-0059491Y0027676D01*
X-0059489Y0027681D01*
X-0059488Y0027689D01*
X-0059486Y0027698D01*
X-0059483Y0027709D01*
X-0059480Y0027722D01*
X-0059475Y0027737D01*
X-0059470Y0027755D01*
X-0059466Y0027775D01*
X-0059459Y0027799D01*
X-0059453Y0027825D01*
X-0059327Y0028289D01*
X-0059190D01*
X-0059072Y0027830D01*
X-0059033Y0027679D01*
X-0058988Y0027832D01*
X-0058852Y0028289D01*
X-0058722D01*
X-0058970Y0027500D01*
D02*
G37*
G36*
X-0058241Y0028305D02*
X-0058217Y0028303D01*
X-0058190Y0028300D01*
X-0058164Y0028296D01*
X-0058137Y0028289D01*
X-0058112Y0028281D01*
X-0058109Y0028280D01*
X-0058101Y0028277D01*
X-0058090Y0028272D01*
X-0058076Y0028266D01*
X-0058060Y0028256D01*
X-0058044Y0028247D01*
X-0058030Y0028234D01*
X-0058018Y0028222D01*
X-0058016Y0028220D01*
X-0058013Y0028215D01*
X-0058008Y0028208D01*
X-0058002Y0028198D01*
X-0057994Y0028184D01*
X-0057988Y0028170D01*
X-0057981Y0028152D01*
X-0057977Y0028132D01*
Y0028130D01*
X-0057975Y0028126D01*
X-0057973Y0028116D01*
X-0057972Y0028104D01*
Y0028086D01*
X-0057970Y0028066D01*
X-0057969Y0028039D01*
Y0028009D01*
Y0027830D01*
Y0027829D01*
Y0027822D01*
Y0027813D01*
Y0027800D01*
Y0027786D01*
Y0027769D01*
X-0057967Y0027731D01*
Y0027692D01*
X-0057966Y0027653D01*
X-0057964Y0027635D01*
Y0027619D01*
X-0057962Y0027605D01*
X-0057961Y0027594D01*
Y0027593D01*
X-0057959Y0027586D01*
X-0057958Y0027577D01*
X-0057953Y0027564D01*
X-0057950Y0027550D01*
X-0057944Y0027535D01*
X-0057936Y0027517D01*
X-0057928Y0027500D01*
X-0058068D01*
X-0058069Y0027502D01*
X-0058071Y0027508D01*
X-0058074Y0027516D01*
X-0058079Y0027528D01*
X-0058084Y0027542D01*
X-0058087Y0027560D01*
X-0058090Y0027579D01*
X-0058093Y0027599D01*
X-0058095D01*
X-0058096Y0027596D01*
X-0058106Y0027588D01*
X-0058120Y0027577D01*
X-0058139Y0027563D01*
X-0058162Y0027549D01*
X-0058186Y0027533D01*
X-0058211Y0027519D01*
X-0058238Y0027508D01*
X-0058241Y0027506D01*
X-0058250Y0027505D01*
X-0058264Y0027500D01*
X-0058282Y0027495D01*
X-0058304Y0027491D01*
X-0058329Y0027487D01*
X-0058357Y0027484D01*
X-0058385Y0027483D01*
X-0058398D01*
X-0058407Y0027484D01*
X-0058418D01*
X-0058431Y0027486D01*
X-0058459Y0027491D01*
X-0058491Y0027498D01*
X-0058525Y0027509D01*
X-0058557Y0027525D01*
X-0058585Y0027546D01*
X-0058588Y0027549D01*
X-0058596Y0027557D01*
X-0058607Y0027571D01*
X-0058620Y0027590D01*
X-0058632Y0027613D01*
X-0058643Y0027640D01*
X-0058651Y0027673D01*
X-0058653Y0027689D01*
X-0058654Y0027708D01*
Y0027711D01*
Y0027717D01*
X-0058653Y0027728D01*
X-0058651Y0027742D01*
X-0058648Y0027759D01*
X-0058643Y0027777D01*
X-0058637Y0027796D01*
X-0058629Y0027813D01*
X-0058628Y0027814D01*
X-0058624Y0027821D01*
X-0058618Y0027830D01*
X-0058610Y0027841D01*
X-0058601Y0027854D01*
X-0058588Y0027866D01*
X-0058576Y0027879D01*
X-0058560Y0027890D01*
X-0058558Y0027891D01*
X-0058552Y0027895D01*
X-0058544Y0027901D01*
X-0058532Y0027907D01*
X-0058517Y0027914D01*
X-0058500Y0027921D01*
X-0058483Y0027928D01*
X-0058462Y0027934D01*
X-0058461D01*
X-0058455Y0027936D01*
X-0058445Y0027939D01*
X-0058433Y0027940D01*
X-0058417Y0027943D01*
X-0058396Y0027947D01*
X-0058373Y0027951D01*
X-0058345Y0027954D01*
X-0058343D01*
X-0058337Y0027956D01*
X-0058329D01*
X-0058318Y0027958D01*
X-0058305Y0027959D01*
X-0058290Y0027962D01*
X-0058272Y0027964D01*
X-0058253Y0027967D01*
X-0058216Y0027975D01*
X-0058175Y0027983D01*
X-0058139Y0027992D01*
X-0058121Y0027997D01*
X-0058106Y0028002D01*
Y0028003D01*
Y0028006D01*
X-0058104Y0028016D01*
Y0028027D01*
Y0028033D01*
Y0028036D01*
Y0028038D01*
Y0028039D01*
Y0028049D01*
X-0058106Y0028064D01*
X-0058109Y0028082D01*
X-0058113Y0028101D01*
X-0058121Y0028119D01*
X-0058131Y0028137D01*
X-0058143Y0028151D01*
X-0058145Y0028152D01*
X-0058153Y0028159D01*
X-0058165Y0028165D01*
X-0058181Y0028174D01*
X-0058203Y0028182D01*
X-0058228Y0028190D01*
X-0058260Y0028195D01*
X-0058296Y0028197D01*
X-0058312D01*
X-0058327Y0028195D01*
X-0058349Y0028192D01*
X-0058371Y0028189D01*
X-0058395Y0028182D01*
X-0058417Y0028174D01*
X-0058436Y0028163D01*
X-0058437Y0028162D01*
X-0058444Y0028157D01*
X-0058451Y0028149D01*
X-0058461Y0028137D01*
X-0058470Y0028121D01*
X-0058481Y0028101D01*
X-0058491Y0028075D01*
X-0058500Y0028047D01*
X-0058631Y0028064D01*
Y0028066D01*
X-0058629Y0028068D01*
Y0028072D01*
X-0058628Y0028079D01*
X-0058623Y0028093D01*
X-0058617Y0028113D01*
X-0058609Y0028134D01*
X-0058599Y0028156D01*
X-0058587Y0028178D01*
X-0058572Y0028198D01*
X-0058571Y0028200D01*
X-0058565Y0028206D01*
X-0058555Y0028215D01*
X-0058543Y0028228D01*
X-0058525Y0028241D01*
X-0058505Y0028253D01*
X-0058481Y0028267D01*
X-0058455Y0028278D01*
X-0058453D01*
X-0058451Y0028280D01*
X-0058447Y0028281D01*
X-0058440Y0028283D01*
X-0058425Y0028288D01*
X-0058403Y0028292D01*
X-0058378Y0028297D01*
X-0058346Y0028302D01*
X-0058313Y0028305D01*
X-0058275Y0028307D01*
X-0058258D01*
X-0058241Y0028305D01*
D02*
G37*
G36*
X-0061536D02*
X-0061513Y0028303D01*
X-0061486Y0028300D01*
X-0061459Y0028296D01*
X-0061432Y0028289D01*
X-0061407Y0028281D01*
X-0061404Y0028280D01*
X-0061396Y0028277D01*
X-0061385Y0028272D01*
X-0061371Y0028266D01*
X-0061355Y0028256D01*
X-0061340Y0028247D01*
X-0061326Y0028234D01*
X-0061313Y0028222D01*
X-0061311Y0028220D01*
X-0061308Y0028215D01*
X-0061304Y0028208D01*
X-0061297Y0028198D01*
X-0061289Y0028184D01*
X-0061283Y0028170D01*
X-0061277Y0028152D01*
X-0061272Y0028132D01*
Y0028130D01*
X-0061271Y0028126D01*
X-0061269Y0028116D01*
X-0061267Y0028104D01*
Y0028086D01*
X-0061266Y0028066D01*
X-0061264Y0028039D01*
Y0028009D01*
Y0027830D01*
Y0027829D01*
Y0027822D01*
Y0027813D01*
Y0027800D01*
Y0027786D01*
Y0027769D01*
X-0061263Y0027731D01*
Y0027692D01*
X-0061261Y0027653D01*
X-0061259Y0027635D01*
Y0027619D01*
X-0061258Y0027605D01*
X-0061256Y0027594D01*
Y0027593D01*
X-0061255Y0027586D01*
X-0061253Y0027577D01*
X-0061248Y0027564D01*
X-0061245Y0027550D01*
X-0061239Y0027535D01*
X-0061231Y0027517D01*
X-0061223Y0027500D01*
X-0061363D01*
X-0061365Y0027502D01*
X-0061366Y0027508D01*
X-0061370Y0027516D01*
X-0061374Y0027528D01*
X-0061379Y0027542D01*
X-0061382Y0027560D01*
X-0061385Y0027579D01*
X-0061388Y0027599D01*
X-0061390D01*
X-0061392Y0027596D01*
X-0061401Y0027588D01*
X-0061415Y0027577D01*
X-0061434Y0027563D01*
X-0061458Y0027549D01*
X-0061481Y0027533D01*
X-0061506Y0027519D01*
X-0061533Y0027508D01*
X-0061536Y0027506D01*
X-0061546Y0027505D01*
X-0061560Y0027500D01*
X-0061577Y0027495D01*
X-0061599Y0027491D01*
X-0061624Y0027487D01*
X-0061653Y0027484D01*
X-0061681Y0027483D01*
X-0061693D01*
X-0061703Y0027484D01*
X-0061714D01*
X-0061726Y0027486D01*
X-0061755Y0027491D01*
X-0061786Y0027498D01*
X-0061821Y0027509D01*
X-0061852Y0027525D01*
X-0061881Y0027546D01*
X-0061884Y0027549D01*
X-0061892Y0027557D01*
X-0061903Y0027571D01*
X-0061915Y0027590D01*
X-0061928Y0027613D01*
X-0061939Y0027640D01*
X-0061947Y0027673D01*
X-0061948Y0027689D01*
X-0061950Y0027708D01*
Y0027711D01*
Y0027717D01*
X-0061948Y0027728D01*
X-0061947Y0027742D01*
X-0061943Y0027759D01*
X-0061939Y0027777D01*
X-0061932Y0027796D01*
X-0061925Y0027813D01*
X-0061923Y0027814D01*
X-0061920Y0027821D01*
X-0061914Y0027830D01*
X-0061906Y0027841D01*
X-0061896Y0027854D01*
X-0061884Y0027866D01*
X-0061871Y0027879D01*
X-0061855Y0027890D01*
X-0061854Y0027891D01*
X-0061848Y0027895D01*
X-0061840Y0027901D01*
X-0061827Y0027907D01*
X-0061813Y0027914D01*
X-0061796Y0027921D01*
X-0061778Y0027928D01*
X-0061758Y0027934D01*
X-0061756D01*
X-0061750Y0027936D01*
X-0061741Y0027939D01*
X-0061728Y0027940D01*
X-0061712Y0027943D01*
X-0061692Y0027947D01*
X-0061668Y0027951D01*
X-0061640Y0027954D01*
X-0061638D01*
X-0061632Y0027956D01*
X-0061624D01*
X-0061613Y0027958D01*
X-0061601Y0027959D01*
X-0061585Y0027962D01*
X-0061568Y0027964D01*
X-0061549Y0027967D01*
X-0061511Y0027975D01*
X-0061470Y0027983D01*
X-0061434Y0027992D01*
X-0061417Y0027997D01*
X-0061401Y0028002D01*
Y0028003D01*
Y0028006D01*
X-0061399Y0028016D01*
Y0028027D01*
Y0028033D01*
Y0028036D01*
Y0028038D01*
Y0028039D01*
Y0028049D01*
X-0061401Y0028064D01*
X-0061404Y0028082D01*
X-0061409Y0028101D01*
X-0061417Y0028119D01*
X-0061426Y0028137D01*
X-0061439Y0028151D01*
X-0061440Y0028152D01*
X-0061448Y0028159D01*
X-0061461Y0028165D01*
X-0061476Y0028174D01*
X-0061498Y0028182D01*
X-0061524Y0028190D01*
X-0061555Y0028195D01*
X-0061591Y0028197D01*
X-0061607D01*
X-0061623Y0028195D01*
X-0061645Y0028192D01*
X-0061667Y0028189D01*
X-0061690Y0028182D01*
X-0061712Y0028174D01*
X-0061731Y0028163D01*
X-0061733Y0028162D01*
X-0061739Y0028157D01*
X-0061747Y0028149D01*
X-0061756Y0028137D01*
X-0061766Y0028121D01*
X-0061777Y0028101D01*
X-0061786Y0028075D01*
X-0061796Y0028047D01*
X-0061926Y0028064D01*
Y0028066D01*
X-0061925Y0028068D01*
Y0028072D01*
X-0061923Y0028079D01*
X-0061918Y0028093D01*
X-0061912Y0028113D01*
X-0061904Y0028134D01*
X-0061895Y0028156D01*
X-0061882Y0028178D01*
X-0061868Y0028198D01*
X-0061866Y0028200D01*
X-0061860Y0028206D01*
X-0061851Y0028215D01*
X-0061838Y0028228D01*
X-0061821Y0028241D01*
X-0061800Y0028253D01*
X-0061777Y0028267D01*
X-0061750Y0028278D01*
X-0061748D01*
X-0061747Y0028280D01*
X-0061742Y0028281D01*
X-0061736Y0028283D01*
X-0061720Y0028288D01*
X-0061698Y0028292D01*
X-0061673Y0028297D01*
X-0061642Y0028302D01*
X-0061609Y0028305D01*
X-0061571Y0028307D01*
X-0061554D01*
X-0061536Y0028305D01*
D02*
G37*
G36*
X-0056907D02*
X-0056895Y0028303D01*
X-0056879Y0028300D01*
X-0056862Y0028297D01*
X-0056841Y0028292D01*
X-0056823Y0028288D01*
X-0056801Y0028280D01*
X-0056780Y0028272D01*
X-0056758Y0028261D01*
X-0056736Y0028248D01*
X-0056714Y0028234D01*
X-0056694Y0028217D01*
X-0056675Y0028198D01*
X-0056673Y0028197D01*
X-0056670Y0028193D01*
X-0056665Y0028187D01*
X-0056659Y0028178D01*
X-0056651Y0028167D01*
X-0056643Y0028154D01*
X-0056634Y0028138D01*
X-0056624Y0028119D01*
X-0056615Y0028099D01*
X-0056606Y0028077D01*
X-0056598Y0028052D01*
X-0056590Y0028025D01*
X-0056584Y0027995D01*
X-0056579Y0027964D01*
X-0056576Y0027931D01*
X-0056574Y0027895D01*
Y0027893D01*
Y0027887D01*
Y0027876D01*
X-0056576Y0027860D01*
X-0057165D01*
Y0027858D01*
Y0027854D01*
X-0057164Y0027847D01*
Y0027838D01*
X-0057162Y0027827D01*
X-0057159Y0027814D01*
X-0057154Y0027786D01*
X-0057145Y0027755D01*
X-0057132Y0027720D01*
X-0057115Y0027689D01*
X-0057093Y0027660D01*
X-0057091D01*
X-0057090Y0027657D01*
X-0057080Y0027649D01*
X-0057066Y0027638D01*
X-0057047Y0027627D01*
X-0057022Y0027615D01*
X-0056994Y0027604D01*
X-0056963Y0027596D01*
X-0056945Y0027594D01*
X-0056926Y0027593D01*
X-0056914D01*
X-0056900Y0027594D01*
X-0056882Y0027597D01*
X-0056863Y0027602D01*
X-0056841Y0027608D01*
X-0056821Y0027618D01*
X-0056801Y0027631D01*
X-0056799Y0027632D01*
X-0056791Y0027638D01*
X-0056782Y0027648D01*
X-0056771Y0027660D01*
X-0056758Y0027678D01*
X-0056744Y0027700D01*
X-0056730Y0027725D01*
X-0056717Y0027755D01*
X-0056579Y0027737D01*
Y0027736D01*
X-0056580Y0027733D01*
X-0056582Y0027726D01*
X-0056585Y0027717D01*
X-0056590Y0027708D01*
X-0056595Y0027695D01*
X-0056607Y0027668D01*
X-0056623Y0027638D01*
X-0056645Y0027607D01*
X-0056670Y0027577D01*
X-0056702Y0027549D01*
X-0056703D01*
X-0056706Y0027546D01*
X-0056711Y0027542D01*
X-0056717Y0027538D01*
X-0056727Y0027533D01*
X-0056736Y0027528D01*
X-0056749Y0027522D01*
X-0056763Y0027516D01*
X-0056779Y0027509D01*
X-0056794Y0027503D01*
X-0056834Y0027494D01*
X-0056878Y0027486D01*
X-0056926Y0027483D01*
X-0056944D01*
X-0056955Y0027484D01*
X-0056969Y0027486D01*
X-0056986Y0027489D01*
X-0057005Y0027492D01*
X-0057025Y0027495D01*
X-0057069Y0027508D01*
X-0057093Y0027517D01*
X-0057115Y0027527D01*
X-0057139Y0027539D01*
X-0057161Y0027553D01*
X-0057181Y0027569D01*
X-0057201Y0027588D01*
X-0057203Y0027590D01*
X-0057206Y0027593D01*
X-0057211Y0027599D01*
X-0057217Y0027608D01*
X-0057225Y0027619D01*
X-0057233Y0027632D01*
X-0057242Y0027648D01*
X-0057252Y0027665D01*
X-0057261Y0027686D01*
X-0057271Y0027708D01*
X-0057279Y0027733D01*
X-0057286Y0027759D01*
X-0057293Y0027788D01*
X-0057297Y0027819D01*
X-0057301Y0027852D01*
X-0057302Y0027887D01*
Y0027888D01*
Y0027896D01*
Y0027906D01*
X-0057301Y0027920D01*
X-0057299Y0027937D01*
X-0057297Y0027956D01*
X-0057294Y0027978D01*
X-0057290Y0028000D01*
X-0057277Y0028050D01*
X-0057269Y0028075D01*
X-0057260Y0028102D01*
X-0057247Y0028127D01*
X-0057233Y0028151D01*
X-0057217Y0028174D01*
X-0057200Y0028197D01*
X-0057198Y0028198D01*
X-0057195Y0028201D01*
X-0057189Y0028206D01*
X-0057181Y0028214D01*
X-0057172Y0028222D01*
X-0057159Y0028231D01*
X-0057145Y0028242D01*
X-0057128Y0028252D01*
X-0057110Y0028263D01*
X-0057090Y0028272D01*
X-0057068Y0028281D01*
X-0057044Y0028289D01*
X-0057019Y0028297D01*
X-0056992Y0028302D01*
X-0056964Y0028305D01*
X-0056934Y0028307D01*
X-0056918D01*
X-0056907Y0028305D01*
D02*
G37*
%LPC*%
G36*
X-0003000Y0033000D02*
X-0004250D01*
Y0031750D01*
X-0003000D01*
Y0033000D01*
D02*
G37*
%LPD*%
G36*
X-0003250Y0032000D02*
X-0004000D01*
Y0032750D01*
X-0003250D01*
Y0032000D01*
D02*
G37*
%LPC*%
G36*
X-0008500Y0033000D02*
X-0009750D01*
Y0031750D01*
X-0008500D01*
Y0033000D01*
D02*
G37*
%LPD*%
G36*
X-0008750Y0032000D02*
X-0009500D01*
Y0032750D01*
X-0008750D01*
Y0032000D01*
D02*
G37*
%LPC*%
G36*
X-0005500Y0031750D02*
X-0005750D01*
Y0031250D01*
X-0005500D01*
Y0031000D01*
X-0005250D01*
Y0031250D01*
X-0005500D01*
Y0031750D01*
D02*
G37*
G36*
X-0003500Y0029500D02*
X-0003750D01*
Y0029250D01*
X-0003500D01*
Y0029500D01*
D02*
G37*
G36*
X-0008750D02*
X-0009000D01*
Y0029250D01*
X-0008750D01*
Y0029500D01*
D02*
G37*
G36*
X-0005750Y0029750D02*
X-0006000D01*
Y0029500D01*
X-0005750D01*
Y0029000D01*
X-0005250D01*
Y0029500D01*
X-0005750D01*
Y0029750D01*
D02*
G37*
G36*
X-0006250Y0029000D02*
X-0006500D01*
Y0028750D01*
X-0006250D01*
Y0029000D01*
D02*
G37*
G36*
X-0005250Y0028750D02*
X-0005500D01*
Y0028500D01*
X-0005250D01*
Y0028250D01*
X-0005000D01*
Y0028500D01*
X-0005250D01*
Y0028750D01*
D02*
G37*
G36*
X-0005750D02*
X-0006000D01*
Y0028500D01*
X-0006250D01*
Y0028000D01*
X-0006000D01*
Y0027500D01*
X-0005750D01*
Y0026750D01*
X-0005500D01*
Y0027000D01*
X-0005250D01*
Y0027500D01*
X-0005500D01*
Y0028000D01*
X-0005750D01*
Y0028250D01*
X-0005500D01*
Y0028000D01*
X-0005250D01*
Y0027750D01*
X-0005000D01*
Y0028000D01*
X-0005250D01*
Y0028250D01*
X-0005500D01*
Y0028500D01*
X-0005750D01*
Y0028750D01*
D02*
G37*
G36*
X-0006250Y0028000D02*
X-0006750D01*
Y0027750D01*
X-0006500D01*
Y0027500D01*
X-0006250D01*
Y0028000D01*
D02*
G37*
G36*
X-0004000D02*
X-0004750D01*
Y0027250D01*
X-0004500D01*
Y0027000D01*
Y0026750D01*
X-0003750D01*
Y0027000D01*
X-0004500D01*
Y0027250D01*
X-0004000D01*
Y0028000D01*
D02*
G37*
%LPD*%
G36*
X-0004250Y0027500D02*
X-0004500D01*
Y0027750D01*
X-0004250D01*
Y0027500D01*
D02*
G37*
%LPC*%
G36*
X-0008500Y0027500D02*
X-0009750D01*
Y0026250D01*
X-0008500D01*
Y0027500D01*
D02*
G37*
%LPD*%
G36*
X-0008750Y0026500D02*
X-0009500D01*
Y0027250D01*
X-0008750D01*
Y0026500D01*
D02*
G37*
%LPC*%
G36*
X-0042665Y0003981D02*
X-0044488D01*
X-0042748D01*
X-0042808Y0003976D01*
X-0042868Y0003967D01*
X-0042924Y0003958D01*
X-0042970Y0003944D01*
X-0043012Y0003926D01*
X-0043040Y0003916D01*
X-0043058Y0003907D01*
X-0043067Y0003902D01*
X-0043123Y0003870D01*
X-0043178Y0003838D01*
X-0043225Y0003801D01*
X-0043271Y0003764D01*
X-0043308Y0003731D01*
X-0043336Y0003703D01*
X-0043354Y0003685D01*
X-0043359Y0003680D01*
X-0043262Y0003930D01*
X-0044085D01*
X-0044983Y0001278D01*
X-0044173D01*
X-0043567Y0003069D01*
X-0043549Y0003125D01*
X-0043530Y0003171D01*
X-0043516Y0003217D01*
X-0043502Y0003254D01*
X-0043475Y0003319D01*
X-0043456Y0003366D01*
X-0043438Y0003403D01*
X-0043428Y0003426D01*
X-0043419Y0003435D01*
Y0003440D01*
X-0043401Y0003463D01*
X-0043377Y0003481D01*
X-0043359Y0003491D01*
X-0043336Y0003500D01*
X-0043317Y0003504D01*
X-0043303Y0003509D01*
X-0043289D01*
X-0043262Y0003504D01*
X-0043243Y0003500D01*
X-0043229Y0003491D01*
X-0043220Y0003481D01*
X-0043211Y0003458D01*
Y0003453D01*
Y0003449D01*
Y0003435D01*
X-0043215Y0003416D01*
X-0043225Y0003370D01*
X-0043243Y0003315D01*
X-0043257Y0003259D01*
X-0043276Y0003204D01*
X-0043294Y0003157D01*
X-0043299Y0003139D01*
X-0043303Y0003125D01*
X-0043308Y0003116D01*
Y0003111D01*
X-0043928Y0001278D01*
X-0043118D01*
X-0042664Y0002620D01*
X-0042489Y0003139D01*
X-0042466Y0003204D01*
X-0042447Y0003259D01*
X-0042427Y0003333D01*
D01*
X-0042419Y0003361D01*
X-0042396Y0003449D01*
D01*
D01*
Y0003449D01*
X-0042395Y0003453D01*
D01*
X-0042393Y0003463D01*
X-0042388Y0003481D01*
D01*
D01*
X-0042385Y0003491D01*
D01*
X-0042383Y0003500D01*
X-0042381Y0003504D01*
D01*
D01*
X-0042378Y0003518D01*
D01*
X-0042369Y0003569D01*
X-0042364Y0003606D01*
D01*
X-0042359Y0003629D01*
D01*
Y0003634D01*
Y0003685D01*
X-0042363Y0003703D01*
X-0042369Y0003736D01*
X-0042378Y0003777D01*
X-0042384Y0003790D01*
X-0042389Y0003801D01*
D01*
X-0042396Y0003814D01*
X-0042410Y0003842D01*
X-0042429Y0003861D01*
X-0042438Y0003875D01*
X-0042443Y0003879D01*
X-0042484Y0003912D01*
X-0042531Y0003939D01*
X-0042581Y0003958D01*
X-0042632Y0003967D01*
X-0042679Y0003976D01*
X-0042716Y0003981D01*
X-0042665D01*
D01*
D02*
G37*
G36*
X-0037324Y0003981D02*
X-0037389Y0003972D01*
X-0037449Y0003958D01*
X-0037509Y0003935D01*
X-0037569Y0003907D01*
X-0037676Y0003842D01*
X-0037773Y0003773D01*
X-0037815Y0003736D01*
X-0037852Y0003699D01*
X-0037870Y0003683D01*
X-0037889Y0003666D01*
X-0037917Y0003639D01*
X-0037935Y0003615D01*
X-0037954Y0003597D01*
X-0037963Y0003583D01*
X-0037967Y0003578D01*
X-0037824Y0003930D01*
X-0037870D01*
D01*
X-0038629D01*
X-0039527Y0001278D01*
X-0039097D01*
X-0037870D01*
Y0001232D01*
D01*
Y0001278D01*
X-0038717D01*
X-0038365Y0002324D01*
X-0038342Y0002394D01*
X-0038319Y0002454D01*
X-0038296Y0002514D01*
X-0038277Y0002565D01*
X-0038259Y0002607D01*
X-0038245Y0002648D01*
X-0038231Y0002685D01*
X-0038217Y0002713D01*
X-0038199Y0002759D01*
X-0038180Y0002792D01*
X-0038176Y0002810D01*
X-0038171Y0002815D01*
X-0038148Y0002856D01*
X-0038116Y0002889D01*
X-0038088Y0002917D01*
X-0038060Y0002944D01*
X-0038032Y0002963D01*
X-0038009Y0002977D01*
X-0037995Y0002981D01*
X-0037991Y0002986D01*
X-0037940Y0003005D01*
X-0037884Y0003023D01*
X-0037824Y0003032D01*
X-0037768Y0003037D01*
X-0037722Y0003042D01*
X-0037680Y0003046D01*
X-0037643D01*
X-0037324Y0003981D01*
D02*
G37*
G36*
X-0039735D02*
X-0039800D01*
X-0039925Y0003976D01*
X-0040036Y0003963D01*
X-0040143Y0003939D01*
X-0040230Y0003916D01*
X-0040300Y0003893D01*
X-0040332Y0003884D01*
X-0040355Y0003870D01*
X-0040374Y0003865D01*
X-0040388Y0003856D01*
X-0040397Y0003851D01*
X-0040402D01*
X-0040490Y0003801D01*
X-0040568Y0003750D01*
X-0040633Y0003699D01*
X-0040689Y0003657D01*
X-0040730Y0003615D01*
X-0040763Y0003583D01*
X-0040781Y0003565D01*
X-0040786Y0003555D01*
X-0040832Y0003486D01*
X-0040874Y0003412D01*
X-0040915Y0003333D01*
X-0040948Y0003254D01*
X-0040976Y0003185D01*
X-0040999Y0003130D01*
X-0041008Y0003106D01*
X-0041013Y0003093D01*
X-0041017Y0003083D01*
Y0003079D01*
X-0041044Y0003000D01*
X-0041077Y0002903D01*
X-0040888D01*
X-0040318D01*
X-0040226Y0003180D01*
X-0040198Y0003254D01*
X-0040175Y0003319D01*
X-0040156Y0003366D01*
X-0040138Y0003403D01*
X-0040124Y0003426D01*
X-0040115Y0003444D01*
X-0040110Y0003449D01*
Y0003453D01*
X-0040096Y0003472D01*
X-0040078Y0003486D01*
X-0040036Y0003504D01*
X-0040018D01*
X-0040004Y0003509D01*
X-0039990D01*
X-0039967Y0003504D01*
X-0039948Y0003500D01*
X-0039925Y0003477D01*
X-0039916Y0003453D01*
X-0039911Y0003449D01*
Y0003444D01*
Y0003412D01*
X-0039916Y0003375D01*
X-0039925Y0003329D01*
X-0039939Y0003282D01*
X-0039948Y0003241D01*
X-0039962Y0003204D01*
X-0039967Y0003180D01*
X-0039971Y0003176D01*
Y0003171D01*
X-0039990Y0003116D01*
X-0040008Y0003065D01*
X-0040027Y0003028D01*
X-0040041Y0003000D01*
X-0040055Y0002977D01*
X-0040064Y0002958D01*
X-0040073Y0002954D01*
Y0002949D01*
X-0040087Y0002940D01*
X-0040105Y0002926D01*
X-0040138Y0002912D01*
X-0040170Y0002894D01*
X-0040254Y0002861D01*
X-0040342Y0002824D01*
X-0040425Y0002792D01*
X-0040466Y0002778D01*
X-0040499Y0002769D01*
X-0040531Y0002755D01*
X-0040554Y0002750D01*
X-0040568Y0002741D01*
X-0040573D01*
X-0040647Y0002713D01*
X-0040716Y0002690D01*
X-0040781Y0002667D01*
X-0040837Y0002644D01*
X-0040888Y0002620D01*
X-0040934Y0002597D01*
X-0040971Y0002579D01*
X-0041008Y0002560D01*
X-0041036Y0002546D01*
X-0041059Y0002533D01*
X-0041096Y0002509D01*
X-0041119Y0002496D01*
X-0041124Y0002491D01*
X-0041170Y0002445D01*
X-0041216Y0002384D01*
X-0041253Y0002315D01*
X-0041286Y0002250D01*
X-0041318Y0002185D01*
X-0041337Y0002135D01*
X-0041346Y0002116D01*
X-0041350Y0002102D01*
X-0041355Y0002093D01*
Y0002088D01*
X-0041429Y0001871D01*
X-0041452Y0001797D01*
X-0041466Y0001732D01*
X-0041480Y0001672D01*
X-0041485Y0001621D01*
X-0041489Y0001570D01*
D01*
Y0001528D01*
X-0041485Y0001491D01*
X-0041480Y0001459D01*
X-0041471Y0001431D01*
X-0041466Y0001408D01*
X-0041448Y0001371D01*
X-0041434Y0001352D01*
X-0041429Y0001348D01*
X-0041374Y0001311D01*
X-0041318Y0001283D01*
X-0041306Y0001278D01*
D01*
X-0041258Y0001260D01*
X-0041202Y0001246D01*
X-0041156Y0001237D01*
X-0041114Y0001232D01*
X-0041082D01*
X-0041022Y0001237D01*
X-0040962Y0001241D01*
X-0040911Y0001255D01*
X-0040864Y0001269D01*
X-0040827Y0001278D01*
X-0040800Y0001292D01*
X-0040781Y0001297D01*
X-0040777Y0001302D01*
X-0040726Y0001329D01*
X-0040675Y0001366D01*
X-0040628Y0001399D01*
X-0040591Y0001436D01*
X-0040559Y0001464D01*
X-0040536Y0001491D01*
X-0040517Y0001510D01*
X-0040513Y0001514D01*
X-0040591Y0001278D01*
X-0039805D01*
X-0039522Y0002116D01*
X-0039356Y0002607D01*
X-0039314Y0002727D01*
X-0039282Y0002833D01*
X-0039249Y0002931D01*
X-0039222Y0003023D01*
X-0039194Y0003102D01*
X-0039175Y0003171D01*
X-0039157Y0003236D01*
X-0039143Y0003292D01*
X-0039134Y0003338D01*
X-0039120Y0003375D01*
X-0039118Y0003389D01*
D01*
X-0039116Y0003403D01*
X-0039115Y0003407D01*
D01*
X-0039111Y0003435D01*
X-0039106Y0003453D01*
X-0039101Y0003467D01*
Y0003472D01*
Y0003477D01*
X-0039097Y0003555D01*
X-0039106Y0003620D01*
X-0039129Y0003685D01*
X-0039152Y0003736D01*
X-0039180Y0003777D01*
X-0039208Y0003805D01*
X-0039222Y0003828D01*
X-0039231Y0003833D01*
X-0039263Y0003861D01*
X-0039300Y0003884D01*
X-0039388Y0003921D01*
X-0039481Y0003944D01*
X-0039527Y0003953D01*
X-0039573Y0003963D01*
X-0039661Y0003972D01*
X-0039698Y0003976D01*
X-0039735Y0003981D01*
D02*
G37*
G36*
X-0030623D02*
X-0030688D01*
X-0030813Y0003976D01*
X-0030924Y0003963D01*
X-0031030Y0003939D01*
X-0031118Y0003916D01*
X-0031188Y0003893D01*
X-0031220Y0003884D01*
X-0031243Y0003870D01*
X-0031262Y0003865D01*
X-0031275Y0003856D01*
X-0031285Y0003851D01*
X-0031289D01*
X-0031377Y0003801D01*
X-0031456Y0003750D01*
X-0031521Y0003699D01*
X-0031576Y0003657D01*
X-0031618Y0003615D01*
X-0031650Y0003583D01*
X-0031669Y0003565D01*
X-0031674Y0003555D01*
X-0031720Y0003486D01*
X-0031761Y0003412D01*
X-0031803Y0003333D01*
X-0031835Y0003254D01*
X-0031863Y0003185D01*
X-0031886Y0003130D01*
X-0031896Y0003106D01*
X-0031900Y0003093D01*
X-0031905Y0003083D01*
Y0003079D01*
X-0031965Y0002903D01*
X-0031206D01*
X-0031114Y0003180D01*
X-0031086Y0003254D01*
X-0031063Y0003319D01*
X-0031044Y0003366D01*
X-0031026Y0003403D01*
X-0031012Y0003426D01*
X-0031002Y0003444D01*
X-0030998Y0003449D01*
Y0003453D01*
X-0030984Y0003472D01*
X-0030965Y0003486D01*
X-0030924Y0003504D01*
X-0030905D01*
X-0030891Y0003509D01*
X-0030878D01*
X-0030854Y0003504D01*
X-0030836Y0003500D01*
X-0030813Y0003477D01*
X-0030803Y0003453D01*
X-0030799Y0003449D01*
Y0003444D01*
Y0003412D01*
X-0030803Y0003375D01*
X-0030813Y0003329D01*
X-0030827Y0003282D01*
X-0030836Y0003241D01*
X-0030850Y0003204D01*
X-0030854Y0003180D01*
X-0030859Y0003176D01*
Y0003171D01*
X-0030878Y0003116D01*
X-0030896Y0003065D01*
X-0030915Y0003028D01*
X-0030928Y0003000D01*
X-0030942Y0002977D01*
X-0030952Y0002958D01*
X-0030961Y0002954D01*
Y0002949D01*
X-0030975Y0002940D01*
X-0030993Y0002926D01*
X-0031026Y0002912D01*
X-0031058Y0002894D01*
X-0031141Y0002861D01*
X-0031229Y0002824D01*
X-0031313Y0002792D01*
X-0031354Y0002778D01*
X-0031387Y0002769D01*
X-0031419Y0002755D01*
X-0031442Y0002750D01*
X-0031456Y0002741D01*
X-0031461D01*
X-0031535Y0002713D01*
X-0031604Y0002690D01*
X-0031669Y0002667D01*
X-0031724Y0002644D01*
X-0031775Y0002620D01*
X-0031822Y0002597D01*
X-0031859Y0002579D01*
X-0031896Y0002560D01*
X-0031923Y0002546D01*
X-0031947Y0002533D01*
X-0031984Y0002509D01*
X-0032007Y0002496D01*
X-0032011Y0002491D01*
X-0032058Y0002445D01*
X-0032076Y0002421D01*
X-0032100Y0002389D01*
X-0032104Y0002384D01*
X-0032141Y0002315D01*
X-0032173Y0002250D01*
X-0032206Y0002185D01*
X-0032224Y0002135D01*
X-0032233Y0002116D01*
X-0032238Y0002102D01*
X-0032243Y0002093D01*
Y0002088D01*
X-0032317Y0001871D01*
X-0032340Y0001797D01*
X-0032354Y0001732D01*
X-0032368Y0001672D01*
X-0032372Y0001621D01*
X-0032377Y0001570D01*
D01*
Y0001528D01*
X-0032372Y0001491D01*
X-0032368Y0001459D01*
X-0032358Y0001431D01*
X-0032354Y0001408D01*
X-0032335Y0001371D01*
X-0032321Y0001352D01*
X-0032317Y0001348D01*
X-0032261Y0001311D01*
X-0032206Y0001283D01*
X-0032146Y0001260D01*
X-0032090Y0001246D01*
X-0032044Y0001237D01*
X-0032002Y0001232D01*
X-0032377D01*
Y0001278D01*
Y0001232D01*
X-0030415D01*
D01*
X-0031970D01*
X-0031910Y0001237D01*
X-0031849Y0001241D01*
X-0031798Y0001255D01*
X-0031752Y0001269D01*
X-0031715Y0001278D01*
X-0031687Y0001292D01*
X-0031669Y0001297D01*
X-0031664Y0001302D01*
X-0031613Y0001329D01*
X-0031562Y0001366D01*
X-0031516Y0001399D01*
X-0031479Y0001436D01*
X-0031447Y0001464D01*
X-0031424Y0001491D01*
X-0031405Y0001510D01*
X-0031400Y0001514D01*
X-0031479Y0001278D01*
X-0030692D01*
X-0030243Y0002607D01*
X-0030223Y0002667D01*
D01*
X-0030215Y0002690D01*
X-0030202Y0002727D01*
D01*
X-0030198Y0002741D01*
D01*
X-0030195Y0002750D01*
X-0030193Y0002755D01*
D01*
X-0030186Y0002778D01*
X-0030169Y0002833D01*
D01*
X-0030137Y0002931D01*
X-0030109Y0003023D01*
X-0030108Y0003028D01*
D01*
X-0030095Y0003065D01*
X-0030088Y0003083D01*
D01*
X-0030085Y0003093D01*
X-0030082Y0003102D01*
D01*
X-0030080Y0003106D01*
D01*
X-0030074Y0003130D01*
X-0030063Y0003171D01*
D01*
X-0030044Y0003236D01*
X-0030031Y0003292D01*
X-0030022Y0003333D01*
D01*
X-0030021Y0003338D01*
X-0030007Y0003375D01*
X-0030003Y0003407D01*
D01*
X-0029998Y0003435D01*
X-0029996Y0003444D01*
D01*
D01*
X-0029994Y0003453D01*
D01*
D01*
D01*
D01*
X-0029990Y0003463D01*
X-0029989Y0003467D01*
D01*
Y0003472D01*
D01*
Y0003477D01*
D01*
X-0029988Y0003486D01*
D01*
D01*
X-0029984Y0003555D01*
D01*
X-0029986Y0003565D01*
D01*
X-0029988Y0003583D01*
X-0029990Y0003597D01*
D01*
X-0029993Y0003615D01*
X-0029994Y0003620D01*
D01*
X-0030017Y0003685D01*
X-0030040Y0003736D01*
X-0030046Y0003745D01*
D01*
D01*
X-0030049Y0003750D01*
X-0030058Y0003764D01*
D01*
D01*
X-0030065Y0003773D01*
D01*
X-0030068Y0003777D01*
X-0030095Y0003805D01*
X-0030109Y0003828D01*
X-0030119Y0003833D01*
X-0030151Y0003861D01*
X-0030188Y0003884D01*
X-0030276Y0003921D01*
X-0030368Y0003944D01*
X-0030415Y0003953D01*
D01*
X-0030461Y0003963D01*
X-0030549Y0003972D01*
X-0030586Y0003976D01*
X-0030623Y0003981D01*
D02*
G37*
G36*
X-0032076Y0004518D02*
X-0034015D01*
Y0003981D01*
X-0035471D01*
X-0034274D01*
X-0034372Y0003976D01*
X-0034464Y0003967D01*
X-0034552Y0003953D01*
X-0034626Y0003939D01*
X-0034686Y0003926D01*
X-0034733Y0003912D01*
X-0034751Y0003907D01*
X-0034765Y0003902D01*
X-0034770Y0003898D01*
X-0034774D01*
X-0034853Y0003865D01*
X-0034927Y0003824D01*
X-0034987Y0003787D01*
X-0035038Y0003750D01*
X-0035080Y0003713D01*
X-0035112Y0003685D01*
X-0035131Y0003666D01*
X-0035135Y0003662D01*
X-0035186Y0003602D01*
X-0035228Y0003528D01*
X-0035269Y0003449D01*
X-0035306Y0003375D01*
X-0035339Y0003305D01*
X-0035362Y0003245D01*
X-0035371Y0003227D01*
X-0035376Y0003208D01*
X-0035380Y0003199D01*
Y0003194D01*
X-0035404Y0003116D01*
X-0035417Y0003042D01*
X-0035427Y0002977D01*
X-0035431Y0002921D01*
X-0035436Y0002875D01*
X-0035431Y0002838D01*
Y0002819D01*
Y0002810D01*
X-0035422Y0002778D01*
X-0035413Y0002750D01*
X-0035371Y0002685D01*
X-0035325Y0002625D01*
X-0035269Y0002565D01*
X-0035214Y0002519D01*
X-0035168Y0002477D01*
X-0035149Y0002463D01*
X-0035135Y0002454D01*
X-0035126Y0002449D01*
X-0035121Y0002445D01*
X-0035061Y0002403D01*
X-0035006Y0002366D01*
X-0034959Y0002334D01*
X-0034918Y0002301D01*
X-0034881Y0002278D01*
X-0034848Y0002255D01*
X-0034825Y0002232D01*
X-0034802Y0002218D01*
X-0034774Y0002190D01*
X-0034756Y0002176D01*
X-0034746Y0002167D01*
Y0002162D01*
X-0034742Y0002139D01*
Y0002107D01*
X-0034746Y0002070D01*
X-0034756Y0002028D01*
X-0034765Y0001991D01*
X-0034774Y0001959D01*
X-0034779Y0001936D01*
X-0034783Y0001926D01*
X-0034802Y0001880D01*
X-0034816Y0001838D01*
X-0034834Y0001811D01*
X-0034848Y0001783D01*
X-0034862Y0001764D01*
X-0034871Y0001755D01*
X-0034876Y0001746D01*
X-0034881D01*
X-0034922Y0001723D01*
X-0034964Y0001709D01*
X-0034982D01*
X-0034996Y0001704D01*
X-0035010D01*
X-0035038Y0001709D01*
X-0035061Y0001713D01*
X-0035075Y0001723D01*
X-0035084Y0001737D01*
X-0035098Y0001755D01*
Y0001760D01*
Y0001764D01*
Y0001797D01*
X-0035089Y0001834D01*
X-0035080Y0001880D01*
X-0035066Y0001926D01*
X-0035052Y0001973D01*
X-0035038Y0002010D01*
X-0035033Y0002033D01*
X-0035029Y0002042D01*
X-0034973Y0002213D01*
X-0035690D01*
X-0035732Y0002084D01*
X-0035769Y0001968D01*
X-0035792Y0001866D01*
X-0035811Y0001778D01*
X-0035820Y0001709D01*
X-0035825Y0001653D01*
Y0001616D01*
X-0035820Y0001593D01*
Y0001584D01*
X-0035802Y0001528D01*
X-0035774Y0001477D01*
X-0035741Y0001431D01*
X-0035704Y0001394D01*
X-0035667Y0001366D01*
X-0035635Y0001343D01*
X-0035616Y0001329D01*
X-0035607Y0001325D01*
X-0035566Y0001306D01*
D01*
X-0035533Y0001292D01*
X-0035450Y0001269D01*
X-0035371Y0001255D01*
X-0035288Y0001246D01*
X-0035218Y0001237D01*
X-0035191D01*
X-0035163Y0001232D01*
X-0035112D01*
X-0035010Y0001237D01*
X-0034918Y0001246D01*
X-0034830Y0001260D01*
X-0034756Y0001278D01*
X-0034696Y0001292D01*
X-0034649Y0001306D01*
X-0034631Y0001311D01*
X-0034617Y0001315D01*
X-0034612Y0001320D01*
X-0034608D01*
X-0034529Y0001357D01*
X-0034455Y0001394D01*
X-0034390Y0001436D01*
X-0034339Y0001477D01*
X-0034298Y0001514D01*
X-0034265Y0001542D01*
X-0034247Y0001561D01*
X-0034242Y0001570D01*
X-0034191Y0001639D01*
X-0034145Y0001718D01*
X-0034103Y0001797D01*
X-0034066Y0001880D01*
X-0034034Y0001949D01*
X-0034020Y0001982D01*
X-0034015Y0001996D01*
D01*
X-0034011Y0002010D01*
X-0034001Y0002028D01*
X-0033997Y0002047D01*
X-0033992Y0002056D01*
Y0002060D01*
X-0033964Y0002162D01*
X-0033946Y0002250D01*
X-0033937Y0002329D01*
Y0002389D01*
D01*
Y0002440D01*
D01*
X-0033941Y0002472D01*
D01*
X-0033946Y0002496D01*
X-0033950Y0002500D01*
X-0033964Y0002528D01*
X-0033983Y0002560D01*
X-0034015Y0002599D01*
X-0034029Y0002616D01*
X-0034089Y0002671D01*
X-0034149Y0002718D01*
X-0034205Y0002764D01*
X-0034256Y0002796D01*
X-0034274Y0002806D01*
X-0034288Y0002815D01*
X-0034298Y0002824D01*
X-0034302D01*
X-0034376Y0002870D01*
X-0034441Y0002912D01*
X-0034492Y0002944D01*
X-0034529Y0002972D01*
X-0034557Y0002995D01*
X-0034575Y0003009D01*
X-0034584Y0003018D01*
X-0034589Y0003023D01*
X-0034608Y0003046D01*
X-0034621Y0003074D01*
X-0034640Y0003111D01*
X-0034649Y0003139D01*
Y0003143D01*
Y0003148D01*
X-0034645Y0003171D01*
X-0034640Y0003199D01*
X-0034626Y0003259D01*
X-0034617Y0003287D01*
X-0034608Y0003310D01*
X-0034603Y0003324D01*
Y0003329D01*
X-0034575Y0003389D01*
X-0034552Y0003430D01*
X-0034534Y0003453D01*
X-0034524Y0003463D01*
X-0034483Y0003491D01*
X-0034446Y0003504D01*
X-0034413Y0003509D01*
X-0034376D01*
X-0034353Y0003500D01*
X-0034339Y0003495D01*
X-0034330Y0003486D01*
X-0034316Y0003467D01*
Y0003463D01*
Y0003458D01*
Y0003435D01*
X-0034321Y0003403D01*
X-0034330Y0003361D01*
X-0034344Y0003324D01*
X-0034353Y0003287D01*
X-0034362Y0003254D01*
X-0034367Y0003236D01*
X-0034372Y0003227D01*
X-0034422Y0003083D01*
X-0034015D01*
X-0033705D01*
X-0033654Y0003236D01*
X-0033631Y0003305D01*
X-0033613Y0003366D01*
X-0033599Y0003416D01*
X-0033589Y0003458D01*
X-0033588Y0003463D01*
D01*
D01*
X-0033586Y0003467D01*
D01*
X-0033583Y0003477D01*
X-0033580Y0003486D01*
D01*
D01*
Y0003509D01*
D01*
X-0033576Y0003523D01*
Y0003528D01*
Y0003565D01*
Y0003602D01*
X-0033594Y0003666D01*
X-0033608Y0003694D01*
X-0033617Y0003713D01*
X-0033622Y0003727D01*
X-0033626Y0003731D01*
X-0033654Y0003773D01*
X-0033687Y0003805D01*
X-0033724Y0003838D01*
X-0033730Y0003842D01*
X-0033736Y0003847D01*
D01*
X-0033742Y0003851D01*
X-0033761Y0003865D01*
D01*
X-0033793Y0003884D01*
X-0033821Y0003898D01*
X-0033839Y0003907D01*
X-0033849Y0003912D01*
X-0033913Y0003935D01*
X-0033983Y0003953D01*
X-0034052Y0003963D01*
X-0034122Y0003972D01*
X-0034182Y0003976D01*
X-0034233Y0003981D01*
X-0034015D01*
Y0004518D01*
X-0032918D01*
X-0033869Y0001709D01*
X-0034015Y0001278D01*
D01*
X-0033576D01*
X-0032659D01*
X-0032442Y0001926D01*
X-0032955D01*
X-0032377Y0003631D01*
X-0032258Y0003981D01*
D01*
X-0032076Y0004518D01*
D01*
D02*
G37*
G36*
X-0044488Y0004518D02*
X-0045701D01*
X-0047228Y0001278D01*
X-0046362D01*
X-0046117Y0001861D01*
X-0045807D01*
X-0045960Y0001278D01*
X-0046328D01*
X-0045104D01*
X-0044983Y0001912D01*
X-0044948Y0002098D01*
D01*
X-0044884Y0002435D01*
D01*
D01*
X-0044879Y0002458D01*
X-0044873Y0002491D01*
D01*
X-0044868Y0002519D01*
X-0044860Y0002562D01*
D01*
X-0044855Y0002588D01*
X-0044849Y0002616D01*
D01*
X-0044842Y0002653D01*
X-0044830Y0002718D01*
D01*
X-0044813Y0002810D01*
X-0044795Y0002903D01*
D01*
X-0044775Y0003009D01*
X-0044753Y0003125D01*
D01*
D01*
X-0044750Y0003139D01*
D01*
D01*
X-0044747Y0003157D01*
D01*
X-0044744Y0003171D01*
X-0044738Y0003204D01*
D01*
D01*
X-0044728Y0003254D01*
D01*
X-0044727Y0003259D01*
X-0044717Y0003315D01*
D01*
X-0044716Y0003319D01*
X-0044706Y0003370D01*
D01*
X-0044704Y0003379D01*
X-0044700Y0003403D01*
D01*
X-0044697Y0003416D01*
X-0044694Y0003435D01*
D01*
X-0044691Y0003449D01*
D01*
D01*
X-0044690Y0003453D01*
X-0044685Y0003481D01*
D01*
D01*
X-0044682Y0003500D01*
D01*
D01*
X-0044681Y0003504D01*
D01*
D01*
D01*
D01*
X-0044680Y0003509D01*
X-0044678Y0003518D01*
D01*
X-0044661Y0003606D01*
X-0044657Y0003629D01*
D01*
X-0044654Y0003643D01*
X-0044647Y0003680D01*
D01*
X-0044646Y0003685D01*
X-0044642Y0003708D01*
D01*
X-0044638Y0003731D01*
X-0044637Y0003736D01*
D01*
X-0044631Y0003764D01*
X-0044626Y0003790D01*
D01*
X-0044626Y0003791D01*
X-0044611Y0003870D01*
D01*
X-0044610Y0003875D01*
X-0044605Y0003902D01*
D01*
X-0044604Y0003907D01*
X-0044602Y0003916D01*
D01*
X-0044601Y0003926D01*
X-0044598Y0003939D01*
D01*
X-0044597Y0003944D01*
X-0044595Y0003958D01*
D01*
D01*
X-0044593Y0003967D01*
D01*
X-0044591Y0003976D01*
X-0044590Y0003981D01*
X-0044488Y0004518D01*
D01*
D02*
G37*
G36*
X-0047228D02*
D01*
Y0001278D01*
Y0004518D01*
D01*
D02*
G37*
G36*
X-0027772Y0004518D02*
X-0030415D01*
Y0003981D01*
Y0004518D01*
X-0029318D01*
X-0030415Y0001278D01*
X-0029984D01*
D01*
X-0029656D01*
X-0029535Y0001477D01*
X-0029512Y0001436D01*
X-0029485Y0001394D01*
X-0029457Y0001366D01*
X-0029434Y0001339D01*
X-0029410Y0001320D01*
X-0029392Y0001302D01*
X-0029378Y0001297D01*
X-0029373Y0001292D01*
X-0029332Y0001274D01*
X-0029295Y0001260D01*
X-0029253Y0001246D01*
X-0029216Y0001241D01*
X-0029184Y0001237D01*
X-0029156Y0001232D01*
X-0029133D01*
X-0029059Y0001237D01*
X-0028989Y0001246D01*
X-0028925Y0001265D01*
X-0028869Y0001283D01*
X-0028823Y0001302D01*
X-0028786Y0001320D01*
X-0028763Y0001329D01*
X-0028753Y0001334D01*
X-0028689Y0001376D01*
X-0028633Y0001417D01*
X-0028587Y0001459D01*
X-0028550Y0001501D01*
X-0028522Y0001533D01*
X-0028503Y0001561D01*
X-0028490Y0001579D01*
X-0028485Y0001584D01*
X-0028452Y0001644D01*
X-0028420Y0001713D01*
X-0028388Y0001783D01*
X-0028360Y0001857D01*
X-0028337Y0001917D01*
X-0028318Y0001973D01*
X-0028309Y0001991D01*
X-0028304Y0002005D01*
X-0028300Y0002014D01*
Y0002019D01*
X-0027893Y0003213D01*
X-0027874Y0003268D01*
X-0027860Y0003315D01*
X-0027832Y0003398D01*
X-0027814Y0003463D01*
X-0027800Y0003518D01*
X-0027786Y0003555D01*
X-0027781Y0003578D01*
X-0027777Y0003592D01*
Y0003597D01*
X-0027772Y0003629D01*
Y0003662D01*
X-0027777Y0003722D01*
X-0027781Y0003745D01*
X-0027786Y0003764D01*
X-0027791Y0003773D01*
Y0003777D01*
X-0027805Y0003810D01*
X-0027828Y0003842D01*
X-0027874Y0003889D01*
X-0027893Y0003902D01*
X-0027911Y0003916D01*
X-0027925Y0003926D01*
X-0027930D01*
X-0027971Y0003944D01*
X-0028013Y0003958D01*
X-0028059Y0003967D01*
X-0028101Y0003976D01*
X-0028138D01*
X-0028170Y0003981D01*
X-0028198D01*
X-0028253Y0003976D01*
X-0028304Y0003972D01*
X-0028351Y0003963D01*
X-0028397Y0003953D01*
X-0028434Y0003939D01*
X-0028462Y0003930D01*
X-0028480Y0003926D01*
X-0028485Y0003921D01*
X-0028536Y0003898D01*
X-0028591Y0003870D01*
X-0028638Y0003842D01*
X-0028679Y0003814D01*
X-0028716Y0003787D01*
X-0028744Y0003764D01*
X-0028763Y0003750D01*
X-0028767Y0003745D01*
X-0028508Y0004518D01*
X-0027772D01*
D01*
D02*
G37*
G36*
X-0035620Y0001232D02*
X-0035761D01*
X-0036027D01*
X-0035620D01*
D02*
G37*
G36*
X-0036218Y0003981D02*
X-0036274D01*
X-0036375Y0003976D01*
X-0036473Y0003963D01*
X-0036561Y0003944D01*
X-0036639Y0003926D01*
X-0036709Y0003907D01*
X-0036760Y0003889D01*
X-0036778Y0003879D01*
X-0036792Y0003875D01*
X-0036797Y0003870D01*
X-0036801D01*
X-0036889Y0003828D01*
X-0036972Y0003777D01*
X-0037042Y0003727D01*
X-0037102Y0003676D01*
X-0037148Y0003629D01*
X-0037185Y0003592D01*
X-0037204Y0003569D01*
X-0037213Y0003565D01*
Y0003560D01*
X-0037273Y0003481D01*
X-0037324Y0003389D01*
X-0037375Y0003301D01*
X-0037417Y0003213D01*
X-0037449Y0003134D01*
X-0037463Y0003102D01*
X-0037472Y0003069D01*
X-0037481Y0003046D01*
X-0037491Y0003028D01*
X-0037495Y0003018D01*
Y0003014D01*
X-0037759Y0002241D01*
X-0037792Y0002135D01*
X-0037819Y0002047D01*
X-0037838Y0001968D01*
X-0037852Y0001903D01*
X-0037861Y0001852D01*
X-0037866Y0001815D01*
X-0037870Y0001797D01*
Y0001787D01*
Y0001732D01*
X-0037866Y0001681D01*
X-0037856Y0001630D01*
X-0037847Y0001588D01*
X-0037833Y0001556D01*
X-0037824Y0001528D01*
X-0037819Y0001510D01*
X-0037815Y0001505D01*
X-0037787Y0001459D01*
X-0037750Y0001417D01*
X-0037713Y0001385D01*
X-0037671Y0001357D01*
X-0037634Y0001334D01*
X-0037606Y0001315D01*
X-0037588Y0001306D01*
X-0037579Y0001302D01*
X-0037509Y0001278D01*
D01*
D01*
X-0037440Y0001260D01*
X-0037370Y0001251D01*
X-0037301Y0001241D01*
X-0037241Y0001237D01*
X-0037195Y0001232D01*
X-0037153D01*
X-0037056Y0001237D01*
X-0036968Y0001246D01*
X-0036889Y0001255D01*
X-0036824Y0001269D01*
X-0036769Y0001283D01*
X-0036727Y0001297D01*
X-0036699Y0001302D01*
X-0036690Y0001306D01*
X-0036616Y0001339D01*
X-0036547Y0001371D01*
X-0036486Y0001408D01*
X-0036431Y0001445D01*
X-0036385Y0001477D01*
X-0036352Y0001505D01*
X-0036334Y0001524D01*
X-0036325Y0001528D01*
X-0036264Y0001584D01*
X-0036218Y0001635D01*
X-0036176Y0001686D01*
X-0036139Y0001727D01*
X-0036116Y0001760D01*
X-0036098Y0001787D01*
X-0036089Y0001806D01*
X-0036084Y0001811D01*
X-0036056Y0001866D01*
X-0036024Y0001926D01*
X-0035996Y0001991D01*
X-0035973Y0002051D01*
X-0035954Y0002107D01*
X-0035936Y0002148D01*
X-0035931Y0002167D01*
X-0035927Y0002181D01*
X-0035922Y0002185D01*
Y0002190D01*
X-0035857Y0002389D01*
X-0036625D01*
X-0036746Y0002037D01*
X-0036769Y0001968D01*
X-0036792Y0001912D01*
X-0036810Y0001866D01*
X-0036829Y0001829D01*
X-0036843Y0001801D01*
X-0036857Y0001783D01*
X-0036861Y0001774D01*
X-0036866Y0001769D01*
X-0036884Y0001746D01*
X-0036908Y0001732D01*
X-0036959Y0001713D01*
X-0036977Y0001709D01*
X-0036996Y0001704D01*
X-0037009D01*
X-0037033Y0001709D01*
X-0037051Y0001713D01*
X-0037074Y0001732D01*
X-0037083Y0001746D01*
X-0037088Y0001755D01*
Y0001778D01*
X-0037083Y0001811D01*
X-0037074Y0001852D01*
X-0037065Y0001889D01*
X-0037051Y0001926D01*
X-0037042Y0001959D01*
X-0037037Y0001977D01*
X-0037033Y0001986D01*
X-0036838Y0002560D01*
X-0035797D01*
X-0035681Y0002912D01*
X-0035640Y0003046D01*
X-0035607Y0003167D01*
X-0035584Y0003268D01*
X-0035575Y0003356D01*
X-0035566Y0003421D01*
Y0003449D01*
Y0003472D01*
Y0003486D01*
Y0003500D01*
Y0003504D01*
Y0003509D01*
X-0035579Y0003583D01*
X-0035603Y0003652D01*
X-0035635Y0003713D01*
X-0035667Y0003759D01*
D01*
X-0035682Y0003777D01*
D01*
X-0035689Y0003787D01*
X-0035700Y0003801D01*
X-0035732Y0003828D01*
X-0035751Y0003847D01*
X-0035760Y0003851D01*
X-0035785Y0003865D01*
X-0035834Y0003893D01*
X-0035913Y0003926D01*
X-0036001Y0003949D01*
X-0036084Y0003967D01*
X-0036158Y0003976D01*
X-0036190D01*
X-0036218Y0003981D01*
D02*
G37*
G36*
X-0040966Y0004287D02*
X-0041776Y0004286D01*
X-0041915Y0003870D01*
X-0042091D01*
X-0042234Y0003449D01*
X-0042058D01*
X-0042359Y0002562D01*
D01*
X-0042517Y0002098D01*
X-0042540Y0002028D01*
X-0042563Y0001963D01*
X-0042581Y0001903D01*
X-0042595Y0001852D01*
X-0042609Y0001806D01*
X-0042623Y0001764D01*
X-0042632Y0001727D01*
X-0042642Y0001700D01*
X-0042651Y0001649D01*
X-0042660Y0001616D01*
X-0042665Y0001598D01*
D01*
Y0001593D01*
Y0001556D01*
Y0001519D01*
X-0042655Y0001487D01*
X-0042646Y0001459D01*
X-0042637Y0001436D01*
X-0042628Y0001417D01*
X-0042623Y0001408D01*
X-0042618Y0001403D01*
X-0042595Y0001376D01*
X-0042568Y0001352D01*
X-0042540Y0001334D01*
X-0042512Y0001320D01*
X-0042484Y0001311D01*
X-0042466Y0001302D01*
X-0042452Y0001297D01*
X-0042447D01*
X-0042401Y0001292D01*
X-0042341Y0001288D01*
X-0042276Y0001283D01*
X-0042211D01*
X-0042156Y0001278D01*
X-0042359D01*
X-0041489Y0001278D01*
Y0001232D01*
D01*
Y0001278D01*
X-0041735D01*
X-0041591Y0001704D01*
X-0041656D01*
X-0041707Y0001709D01*
X-0041748Y0001713D01*
X-0041776Y0001718D01*
X-0041790Y0001723D01*
X-0041804Y0001727D01*
X-0041809Y0001732D01*
Y0001741D01*
Y0001750D01*
X-0041804Y0001787D01*
X-0041790Y0001838D01*
X-0041776Y0001889D01*
X-0041762Y0001940D01*
X-0041748Y0001982D01*
X-0041744Y0002000D01*
X-0041739Y0002014D01*
X-0041735Y0002019D01*
Y0002023D01*
X-0041249Y0003449D01*
X-0041031D01*
X-0040888Y0003870D01*
X-0041105D01*
X-0040966Y0004287D01*
D02*
G37*
%LPD*%
G36*
X-0040374Y0001996D02*
X-0040397Y0001926D01*
X-0040416Y0001875D01*
X-0040434Y0001829D01*
X-0040453Y0001797D01*
X-0040462Y0001774D01*
X-0040471Y0001760D01*
X-0040480Y0001755D01*
Y0001750D01*
X-0040513Y0001723D01*
X-0040550Y0001709D01*
X-0040578Y0001704D01*
X-0040591D01*
X-0040619Y0001709D01*
X-0040642Y0001713D01*
X-0040656Y0001723D01*
X-0040665Y0001732D01*
X-0040679Y0001750D01*
Y0001760D01*
Y0001787D01*
X-0040670Y0001824D01*
X-0040661Y0001871D01*
X-0040647Y0001912D01*
X-0040638Y0001954D01*
X-0040624Y0001991D01*
X-0040619Y0002014D01*
X-0040615Y0002023D01*
X-0040591Y0002088D01*
X-0040568Y0002144D01*
X-0040550Y0002190D01*
X-0040531Y0002227D01*
X-0040517Y0002260D01*
X-0040504Y0002278D01*
X-0040499Y0002292D01*
X-0040494Y0002297D01*
X-0040462Y0002334D01*
X-0040420Y0002375D01*
X-0040369Y0002417D01*
X-0040318Y0002454D01*
X-0040267Y0002486D01*
X-0040226Y0002514D01*
X-0040198Y0002533D01*
X-0040193Y0002537D01*
X-0040189D01*
X-0040374Y0001996D01*
D02*
G37*
G36*
X-0031262D02*
X-0031285Y0001926D01*
X-0031303Y0001875D01*
X-0031322Y0001829D01*
X-0031340Y0001797D01*
X-0031350Y0001774D01*
X-0031359Y0001760D01*
X-0031368Y0001755D01*
Y0001750D01*
X-0031400Y0001723D01*
X-0031437Y0001709D01*
X-0031465Y0001704D01*
X-0031479D01*
X-0031507Y0001709D01*
X-0031530Y0001713D01*
X-0031544Y0001723D01*
X-0031553Y0001732D01*
X-0031567Y0001750D01*
Y0001760D01*
Y0001787D01*
X-0031558Y0001824D01*
X-0031549Y0001871D01*
X-0031535Y0001912D01*
X-0031525Y0001954D01*
X-0031512Y0001991D01*
X-0031507Y0002014D01*
X-0031502Y0002023D01*
X-0031479Y0002088D01*
X-0031456Y0002144D01*
X-0031437Y0002190D01*
X-0031419Y0002227D01*
X-0031405Y0002260D01*
X-0031391Y0002278D01*
X-0031387Y0002292D01*
X-0031382Y0002297D01*
X-0031350Y0002334D01*
X-0031308Y0002375D01*
X-0031257Y0002417D01*
X-0031206Y0002454D01*
X-0031155Y0002486D01*
X-0031114Y0002514D01*
X-0031086Y0002533D01*
X-0031081Y0002537D01*
X-0031076D01*
X-0031262Y0001996D01*
D02*
G37*
G36*
X-0045303Y0003791D02*
X-0045304Y0003790D01*
X-0045340Y0003648D01*
X-0045377Y0003504D01*
X-0045409Y0003370D01*
X-0045441Y0003241D01*
X-0045474Y0003120D01*
X-0045502Y0003009D01*
X-0045525Y0002903D01*
X-0045548Y0002810D01*
X-0045571Y0002727D01*
X-0045590Y0002653D01*
X-0045603Y0002588D01*
X-0045617Y0002533D01*
X-0045627Y0002491D01*
X-0045636Y0002458D01*
X-0045640Y0002440D01*
Y0002435D01*
X-0045927D01*
X-0045890Y0002519D01*
X-0045849Y0002616D01*
X-0045802Y0002718D01*
X-0045752Y0002829D01*
X-0045650Y0003051D01*
X-0045599Y0003167D01*
X-0045548Y0003278D01*
X-0045497Y0003379D01*
X-0045451Y0003477D01*
X-0045409Y0003565D01*
X-0045377Y0003643D01*
X-0045344Y0003708D01*
X-0045321Y0003754D01*
X-0045312Y0003773D01*
X-0045307Y0003787D01*
X-0045304Y0003790D01*
X-0045303Y0003796D01*
Y0003791D01*
D02*
G37*
G36*
X-0028707Y0003504D02*
X-0028689Y0003500D01*
X-0028675Y0003491D01*
X-0028661Y0003477D01*
X-0028651Y0003453D01*
Y0003449D01*
Y0003444D01*
Y0003416D01*
X-0028661Y0003375D01*
X-0028670Y0003333D01*
X-0028684Y0003287D01*
X-0028693Y0003245D01*
X-0028707Y0003208D01*
X-0028712Y0003185D01*
X-0028716Y0003180D01*
Y0003176D01*
X-0029096Y0002060D01*
X-0029124Y0001982D01*
X-0029147Y0001917D01*
X-0029170Y0001862D01*
X-0029188Y0001824D01*
X-0029202Y0001797D01*
X-0029211Y0001778D01*
X-0029221Y0001769D01*
Y0001764D01*
X-0029239Y0001746D01*
X-0029258Y0001732D01*
X-0029295Y0001713D01*
X-0029313Y0001709D01*
X-0029327Y0001704D01*
X-0029341D01*
X-0029364Y0001709D01*
X-0029383Y0001713D01*
X-0029397Y0001723D01*
X-0029406Y0001732D01*
X-0029415Y0001750D01*
Y0001760D01*
Y0001787D01*
X-0029406Y0001829D01*
X-0029397Y0001871D01*
X-0029383Y0001917D01*
X-0029373Y0001963D01*
X-0029360Y0002000D01*
X-0029355Y0002023D01*
X-0029350Y0002033D01*
X-0028962Y0003176D01*
X-0028934Y0003250D01*
X-0028911Y0003315D01*
X-0028892Y0003361D01*
X-0028874Y0003398D01*
X-0028864Y0003426D01*
X-0028855Y0003440D01*
X-0028846Y0003449D01*
Y0003453D01*
X-0028827Y0003472D01*
X-0028809Y0003486D01*
X-0028772Y0003504D01*
X-0028744Y0003509D01*
X-0028730D01*
X-0028707Y0003504D01*
D02*
G37*
G36*
X-0036371D02*
X-0036357Y0003500D01*
X-0036338Y0003481D01*
X-0036329Y0003458D01*
Y0003453D01*
Y0003449D01*
Y0003421D01*
X-0036338Y0003379D01*
X-0036348Y0003338D01*
X-0036362Y0003292D01*
X-0036375Y0003250D01*
X-0036385Y0003213D01*
X-0036394Y0003190D01*
X-0036399Y0003185D01*
Y0003180D01*
X-0036463Y0002991D01*
X-0036695D01*
X-0036630Y0003180D01*
X-0036602Y0003259D01*
X-0036579Y0003319D01*
X-0036561Y0003370D01*
X-0036542Y0003403D01*
X-0036528Y0003430D01*
X-0036519Y0003449D01*
X-0036514Y0003453D01*
Y0003458D01*
X-0036500Y0003477D01*
X-0036482Y0003486D01*
X-0036440Y0003504D01*
X-0036422D01*
X-0036408Y0003509D01*
X-0036394D01*
X-0036371Y0003504D01*
D02*
G37*
%LPC*%
G36*
X-0062413Y0029369D02*
X-0062420D01*
X-0062425Y0029367D01*
X-0062439Y0029364D01*
X-0062457Y0029360D01*
X-0062478Y0029352D01*
X-0062500Y0029339D01*
X-0062513Y0029331D01*
X-0062524Y0029321D01*
X-0062535Y0029310D01*
X-0062546Y0029298D01*
Y0029296D01*
X-0062549Y0029295D01*
X-0062551Y0029291D01*
X-0062554Y0029285D01*
X-0062558Y0029277D01*
X-0062564Y0029269D01*
X-0062569Y0029258D01*
X-0062574Y0029246D01*
X-0062579Y0029233D01*
X-0062585Y0029217D01*
X-0062589Y0029201D01*
X-0062594Y0029183D01*
X-0062597Y0029162D01*
X-0062600Y0029141D01*
X-0062603Y0029119D01*
Y0029094D01*
Y0029093D01*
Y0029088D01*
Y0029081D01*
X-0062601Y0029072D01*
Y0029061D01*
X-0062600Y0029048D01*
X-0062596Y0029019D01*
X-0062589Y0028986D01*
X-0062581Y0028954D01*
X-0062567Y0028922D01*
X-0062558Y0028908D01*
X-0062549Y0028896D01*
X-0062546Y0028893D01*
X-0062539Y0028886D01*
X-0062528Y0028875D01*
X-0062513Y0028864D01*
X-0062493Y0028853D01*
X-0062471Y0028842D01*
X-0062446Y0028835D01*
X-0062432Y0028833D01*
X-0062418Y0028832D01*
X-0062410D01*
X-0062404Y0028833D01*
X-0062391Y0028836D01*
X-0062371Y0028840D01*
X-0062350Y0028848D01*
X-0062328Y0028860D01*
X-0062306Y0028876D01*
X-0062295Y0028886D01*
X-0062284Y0028897D01*
Y0028898D01*
X-0062281Y0028900D01*
X-0062278Y0028904D01*
X-0062275Y0028909D01*
X-0062270Y0028916D01*
X-0062266Y0028926D01*
X-0062260Y0028936D01*
X-0062255Y0028948D01*
X-0062250Y0028961D01*
X-0062245Y0028977D01*
X-0062239Y0028994D01*
X-0062235Y0029012D01*
X-0062232Y0029033D01*
X-0062230Y0029055D01*
X-0062227Y0029079D01*
Y0029104D01*
Y0029105D01*
Y0029109D01*
Y0029116D01*
X-0062228Y0029126D01*
Y0029137D01*
X-0062230Y0029149D01*
X-0062234Y0029179D01*
X-0062241Y0029210D01*
X-0062250Y0029242D01*
X-0062264Y0029274D01*
X-0062273Y0029289D01*
X-0062282Y0029302D01*
Y0029303D01*
X-0062285Y0029305D01*
X-0062292Y0029313D01*
X-0062303Y0029323D01*
X-0062318Y0029335D01*
X-0062338Y0029348D01*
X-0062360Y0029359D01*
X-0062385Y0029366D01*
X-0062399Y0029367D01*
X-0062413Y0029369D01*
D02*
G37*
G36*
X-0056531Y0029364D02*
X-0056539D01*
X-0056545Y0029363D01*
X-0056560Y0029362D01*
X-0056578Y0029357D01*
X-0056600Y0029351D01*
X-0056624Y0029341D01*
X-0056646Y0029327D01*
X-0056668Y0029309D01*
X-0056671Y0029306D01*
X-0056677Y0029299D01*
X-0056686Y0029287D01*
X-0056696Y0029270D01*
X-0056707Y0029251D01*
X-0056717Y0029226D01*
X-0056725Y0029197D01*
X-0056729Y0029165D01*
X-0056340D01*
Y0029166D01*
Y0029169D01*
X-0056341Y0029173D01*
Y0029179D01*
X-0056344Y0029195D01*
X-0056348Y0029213D01*
X-0056355Y0029235D01*
X-0056362Y0029256D01*
X-0056373Y0029277D01*
X-0056386Y0029295D01*
Y0029296D01*
X-0056388Y0029298D01*
X-0056395Y0029306D01*
X-0056408Y0029317D01*
X-0056424Y0029330D01*
X-0056445Y0029342D01*
X-0056470Y0029353D01*
X-0056499Y0029362D01*
X-0056514Y0029363D01*
X-0056531Y0029364D01*
D02*
G37*
G36*
X-0059145D02*
X-0059154D01*
X-0059161Y0029363D01*
X-0059176Y0029362D01*
X-0059197Y0029356D01*
X-0059220Y0029348D01*
X-0059245Y0029337D01*
X-0059269Y0029320D01*
X-0059281Y0029309D01*
X-0059292Y0029298D01*
Y0029296D01*
X-0059295Y0029295D01*
X-0059298Y0029291D01*
X-0059302Y0029285D01*
X-0059306Y0029278D01*
X-0059310Y0029270D01*
X-0059316Y0029259D01*
X-0059321Y0029248D01*
X-0059327Y0029234D01*
X-0059333Y0029220D01*
X-0059337Y0029204D01*
X-0059341Y0029185D01*
X-0059345Y0029166D01*
X-0059348Y0029145D01*
X-0059349Y0029122D01*
X-0059351Y0029098D01*
Y0029097D01*
Y0029093D01*
Y0029086D01*
X-0059349Y0029076D01*
Y0029065D01*
X-0059348Y0029052D01*
X-0059344Y0029023D01*
X-0059337Y0028990D01*
X-0059326Y0028957D01*
X-0059312Y0028925D01*
X-0059302Y0028911D01*
X-0059292Y0028897D01*
X-0059291D01*
X-0059290Y0028894D01*
X-0059281Y0028887D01*
X-0059269Y0028876D01*
X-0059252Y0028865D01*
X-0059231Y0028853D01*
X-0059206Y0028842D01*
X-0059177Y0028835D01*
X-0059162Y0028833D01*
X-0059145Y0028832D01*
X-0059137D01*
X-0059130Y0028833D01*
X-0059115Y0028836D01*
X-0059094Y0028840D01*
X-0059072Y0028848D01*
X-0059047Y0028860D01*
X-0059023Y0028876D01*
X-0059011Y0028887D01*
X-0059000Y0028898D01*
X-0058998Y0028900D01*
X-0058997Y0028901D01*
X-0058994Y0028905D01*
X-0058990Y0028911D01*
X-0058986Y0028918D01*
X-0058980Y0028926D01*
X-0058975Y0028937D01*
X-0058969Y0028948D01*
X-0058964Y0028962D01*
X-0058959Y0028977D01*
X-0058954Y0028994D01*
X-0058950Y0029012D01*
X-0058946Y0029033D01*
X-0058943Y0029054D01*
X-0058940Y0029077D01*
Y0029102D01*
Y0029104D01*
Y0029108D01*
Y0029115D01*
X-0058941Y0029123D01*
Y0029134D01*
X-0058943Y0029147D01*
X-0058947Y0029176D01*
X-0058954Y0029206D01*
X-0058965Y0029240D01*
X-0058980Y0029270D01*
X-0058989Y0029285D01*
X-0059000Y0029298D01*
Y0029299D01*
X-0059002Y0029301D01*
X-0059011Y0029309D01*
X-0059023Y0029319D01*
X-0059040Y0029331D01*
X-0059061Y0029344D01*
X-0059086Y0029355D01*
X-0059113Y0029362D01*
X-0059129Y0029363D01*
X-0059145Y0029364D01*
D02*
G37*
G36*
X-0061678D02*
X-0061686D01*
X-0061692Y0029363D01*
X-0061707Y0029362D01*
X-0061725Y0029357D01*
X-0061747Y0029351D01*
X-0061771Y0029341D01*
X-0061793Y0029327D01*
X-0061815Y0029309D01*
X-0061818Y0029306D01*
X-0061823Y0029299D01*
X-0061833Y0029287D01*
X-0061843Y0029270D01*
X-0061854Y0029251D01*
X-0061864Y0029226D01*
X-0061872Y0029197D01*
X-0061876Y0029165D01*
X-0061486D01*
Y0029166D01*
Y0029169D01*
X-0061488Y0029173D01*
Y0029179D01*
X-0061490Y0029195D01*
X-0061495Y0029213D01*
X-0061502Y0029235D01*
X-0061508Y0029256D01*
X-0061520Y0029277D01*
X-0061532Y0029295D01*
Y0029296D01*
X-0061535Y0029298D01*
X-0061542Y0029306D01*
X-0061554Y0029317D01*
X-0061571Y0029330D01*
X-0061592Y0029342D01*
X-0061617Y0029353D01*
X-0061646Y0029362D01*
X-0061661Y0029363D01*
X-0061678Y0029364D01*
D02*
G37*
G36*
X-0063174D02*
X-0063182D01*
X-0063189Y0029363D01*
X-0063205Y0029362D01*
X-0063225Y0029356D01*
X-0063249Y0029348D01*
X-0063274Y0029337D01*
X-0063298Y0029320D01*
X-0063310Y0029309D01*
X-0063321Y0029298D01*
Y0029296D01*
X-0063324Y0029295D01*
X-0063327Y0029291D01*
X-0063331Y0029285D01*
X-0063335Y0029278D01*
X-0063339Y0029270D01*
X-0063345Y0029259D01*
X-0063350Y0029248D01*
X-0063356Y0029234D01*
X-0063361Y0029220D01*
X-0063365Y0029204D01*
X-0063370Y0029185D01*
X-0063374Y0029166D01*
X-0063377Y0029145D01*
X-0063378Y0029122D01*
X-0063379Y0029098D01*
Y0029097D01*
Y0029093D01*
Y0029086D01*
X-0063378Y0029076D01*
Y0029065D01*
X-0063377Y0029052D01*
X-0063372Y0029023D01*
X-0063365Y0028990D01*
X-0063354Y0028957D01*
X-0063341Y0028925D01*
X-0063331Y0028911D01*
X-0063321Y0028897D01*
X-0063320D01*
X-0063318Y0028894D01*
X-0063310Y0028887D01*
X-0063298Y0028876D01*
X-0063281Y0028865D01*
X-0063260Y0028853D01*
X-0063235Y0028842D01*
X-0063206Y0028835D01*
X-0063191Y0028833D01*
X-0063174Y0028832D01*
X-0063166D01*
X-0063159Y0028833D01*
X-0063144Y0028836D01*
X-0063123Y0028840D01*
X-0063101Y0028848D01*
X-0063076Y0028860D01*
X-0063052Y0028876D01*
X-0063040Y0028887D01*
X-0063028Y0028898D01*
X-0063027Y0028900D01*
X-0063026Y0028901D01*
X-0063023Y0028905D01*
X-0063019Y0028911D01*
X-0063015Y0028918D01*
X-0063009Y0028926D01*
X-0063004Y0028937D01*
X-0062998Y0028948D01*
X-0062992Y0028962D01*
X-0062988Y0028977D01*
X-0062983Y0028994D01*
X-0062979Y0029012D01*
X-0062974Y0029033D01*
X-0062972Y0029054D01*
X-0062969Y0029077D01*
Y0029102D01*
Y0029104D01*
Y0029108D01*
Y0029115D01*
X-0062970Y0029123D01*
Y0029134D01*
X-0062972Y0029147D01*
X-0062976Y0029176D01*
X-0062983Y0029206D01*
X-0062994Y0029240D01*
X-0063009Y0029270D01*
X-0063017Y0029285D01*
X-0063028Y0029298D01*
Y0029299D01*
X-0063031Y0029301D01*
X-0063040Y0029309D01*
X-0063052Y0029319D01*
X-0063069Y0029331D01*
X-0063090Y0029344D01*
X-0063114Y0029355D01*
X-0063142Y0029362D01*
X-0063157Y0029363D01*
X-0063174Y0029364D01*
D02*
G37*
G36*
X-0060256Y0028197D02*
X-0060264D01*
X-0060271Y0028195D01*
X-0060288Y0028193D01*
X-0060308Y0028187D01*
X-0060332Y0028179D01*
X-0060357Y0028165D01*
X-0060382Y0028148D01*
X-0060395Y0028135D01*
X-0060406Y0028123D01*
Y0028121D01*
X-0060409Y0028119D01*
X-0060410Y0028115D01*
X-0060415Y0028108D01*
X-0060420Y0028101D01*
X-0060425Y0028091D01*
X-0060429Y0028080D01*
X-0060436Y0028068D01*
X-0060442Y0028052D01*
X-0060447Y0028035D01*
X-0060451Y0028016D01*
X-0060456Y0027995D01*
X-0060459Y0027973D01*
X-0060462Y0027948D01*
X-0060466Y0027921D01*
Y0027893D01*
Y0027891D01*
Y0027887D01*
Y0027879D01*
X-0060464Y0027868D01*
Y0027855D01*
X-0060462Y0027841D01*
X-0060458Y0027808D01*
X-0060450Y0027772D01*
X-0060439Y0027734D01*
X-0060423Y0027698D01*
X-0060414Y0027682D01*
X-0060403Y0027667D01*
X-0060401D01*
X-0060399Y0027664D01*
X-0060392Y0027656D01*
X-0060377Y0027643D01*
X-0060360Y0027631D01*
X-0060338Y0027616D01*
X-0060311Y0027604D01*
X-0060283Y0027596D01*
X-0060267Y0027594D01*
X-0060252Y0027593D01*
X-0060244D01*
X-0060238Y0027594D01*
X-0060220Y0027596D01*
X-0060200Y0027602D01*
X-0060176Y0027610D01*
X-0060151Y0027623D01*
X-0060126Y0027640D01*
X-0060113Y0027651D01*
X-0060102Y0027664D01*
Y0027665D01*
X-0060099Y0027667D01*
X-0060096Y0027671D01*
X-0060093Y0027678D01*
X-0060088Y0027686D01*
X-0060082Y0027693D01*
X-0060077Y0027706D01*
X-0060071Y0027719D01*
X-0060065Y0027733D01*
X-0060060Y0027748D01*
X-0060054Y0027767D01*
X-0060049Y0027786D01*
X-0060046Y0027808D01*
X-0060043Y0027830D01*
X-0060039Y0027855D01*
Y0027882D01*
Y0027884D01*
Y0027890D01*
Y0027898D01*
X-0060041Y0027909D01*
Y0027921D01*
X-0060043Y0027937D01*
X-0060044Y0027954D01*
X-0060047Y0027973D01*
X-0060055Y0028011D01*
X-0060066Y0028050D01*
X-0060082Y0028088D01*
X-0060091Y0028104D01*
X-0060102Y0028119D01*
Y0028121D01*
X-0060105Y0028123D01*
X-0060113Y0028132D01*
X-0060127Y0028145D01*
X-0060145Y0028159D01*
X-0060167Y0028173D01*
X-0060194Y0028184D01*
X-0060223Y0028193D01*
X-0060239Y0028195D01*
X-0060256Y0028197D01*
D02*
G37*
G36*
X-0058104Y0027896D02*
X-0058106D01*
X-0058107Y0027895D01*
X-0058112Y0027893D01*
X-0058118Y0027891D01*
X-0058126Y0027888D01*
X-0058135Y0027885D01*
X-0058146Y0027882D01*
X-0058159Y0027879D01*
X-0058173Y0027874D01*
X-0058190Y0027871D01*
X-0058208Y0027866D01*
X-0058228Y0027862D01*
X-0058250Y0027857D01*
X-0058272Y0027852D01*
X-0058297Y0027849D01*
X-0058324Y0027844D01*
X-0058327D01*
X-0058337Y0027843D01*
X-0058352Y0027840D01*
X-0058370Y0027836D01*
X-0058389Y0027833D01*
X-0058407Y0027829D01*
X-0058425Y0027824D01*
X-0058440Y0027818D01*
X-0058442D01*
X-0058447Y0027814D01*
X-0058453Y0027811D01*
X-0058459Y0027807D01*
X-0058478Y0027794D01*
X-0058494Y0027775D01*
Y0027774D01*
X-0058497Y0027770D01*
X-0058499Y0027764D01*
X-0058502Y0027756D01*
X-0058505Y0027747D01*
X-0058508Y0027737D01*
X-0058510Y0027725D01*
X-0058511Y0027712D01*
Y0027711D01*
Y0027703D01*
X-0058510Y0027693D01*
X-0058506Y0027681D01*
X-0058502Y0027667D01*
X-0058494Y0027653D01*
X-0058484Y0027637D01*
X-0058472Y0027623D01*
X-0058470Y0027621D01*
X-0058464Y0027618D01*
X-0058455Y0027612D01*
X-0058442Y0027605D01*
X-0058425Y0027599D01*
X-0058404Y0027593D01*
X-0058381Y0027590D01*
X-0058352Y0027588D01*
X-0058340D01*
X-0058324Y0027590D01*
X-0058307Y0027593D01*
X-0058285Y0027596D01*
X-0058263Y0027602D01*
X-0058239Y0027610D01*
X-0058216Y0027621D01*
X-0058212Y0027623D01*
X-0058206Y0027627D01*
X-0058195Y0027635D01*
X-0058183Y0027646D01*
X-0058168Y0027659D01*
X-0058153Y0027675D01*
X-0058140Y0027693D01*
X-0058128Y0027714D01*
X-0058126Y0027715D01*
X-0058124Y0027722D01*
X-0058121Y0027733D01*
X-0058117Y0027747D01*
X-0058112Y0027766D01*
X-0058109Y0027788D01*
X-0058107Y0027814D01*
X-0058106Y0027846D01*
X-0058104Y0027896D01*
D02*
G37*
G36*
X-0061399D02*
X-0061401D01*
X-0061403Y0027895D01*
X-0061407Y0027893D01*
X-0061414Y0027891D01*
X-0061421Y0027888D01*
X-0061431Y0027885D01*
X-0061442Y0027882D01*
X-0061454Y0027879D01*
X-0061469Y0027874D01*
X-0061486Y0027871D01*
X-0061503Y0027866D01*
X-0061524Y0027862D01*
X-0061546Y0027857D01*
X-0061568Y0027852D01*
X-0061593Y0027849D01*
X-0061620Y0027844D01*
X-0061623D01*
X-0061632Y0027843D01*
X-0061648Y0027840D01*
X-0061665Y0027836D01*
X-0061684Y0027833D01*
X-0061703Y0027829D01*
X-0061720Y0027824D01*
X-0061736Y0027818D01*
X-0061737D01*
X-0061742Y0027814D01*
X-0061748Y0027811D01*
X-0061755Y0027807D01*
X-0061774Y0027794D01*
X-0061789Y0027775D01*
Y0027774D01*
X-0061792Y0027770D01*
X-0061794Y0027764D01*
X-0061797Y0027756D01*
X-0061800Y0027747D01*
X-0061804Y0027737D01*
X-0061805Y0027725D01*
X-0061807Y0027712D01*
Y0027711D01*
Y0027703D01*
X-0061805Y0027693D01*
X-0061802Y0027681D01*
X-0061797Y0027667D01*
X-0061789Y0027653D01*
X-0061780Y0027637D01*
X-0061767Y0027623D01*
X-0061766Y0027621D01*
X-0061759Y0027618D01*
X-0061750Y0027612D01*
X-0061737Y0027605D01*
X-0061720Y0027599D01*
X-0061700Y0027593D01*
X-0061676Y0027590D01*
X-0061648Y0027588D01*
X-0061635D01*
X-0061620Y0027590D01*
X-0061602Y0027593D01*
X-0061580Y0027596D01*
X-0061558Y0027602D01*
X-0061535Y0027610D01*
X-0061511Y0027621D01*
X-0061508Y0027623D01*
X-0061502Y0027627D01*
X-0061491Y0027635D01*
X-0061478Y0027646D01*
X-0061464Y0027659D01*
X-0061448Y0027675D01*
X-0061436Y0027693D01*
X-0061423Y0027714D01*
X-0061421Y0027715D01*
X-0061420Y0027722D01*
X-0061417Y0027733D01*
X-0061412Y0027747D01*
X-0061407Y0027766D01*
X-0061404Y0027788D01*
X-0061403Y0027814D01*
X-0061401Y0027846D01*
X-0061399Y0027896D01*
D02*
G37*
G36*
X-0056933Y0028197D02*
X-0056942D01*
X-0056948Y0028195D01*
X-0056966Y0028193D01*
X-0056986Y0028189D01*
X-0057011Y0028181D01*
X-0057038Y0028170D01*
X-0057063Y0028154D01*
X-0057088Y0028134D01*
X-0057091Y0028130D01*
X-0057098Y0028123D01*
X-0057109Y0028108D01*
X-0057120Y0028090D01*
X-0057132Y0028068D01*
X-0057143Y0028039D01*
X-0057153Y0028006D01*
X-0057157Y0027970D01*
X-0056716D01*
Y0027972D01*
Y0027975D01*
X-0056717Y0027980D01*
Y0027986D01*
X-0056720Y0028005D01*
X-0056725Y0028025D01*
X-0056733Y0028050D01*
X-0056741Y0028074D01*
X-0056753Y0028097D01*
X-0056768Y0028118D01*
Y0028119D01*
X-0056771Y0028121D01*
X-0056779Y0028130D01*
X-0056793Y0028143D01*
X-0056812Y0028157D01*
X-0056835Y0028171D01*
X-0056863Y0028184D01*
X-0056896Y0028193D01*
X-0056914Y0028195D01*
X-0056933Y0028197D01*
D02*
G37*
%LPD*%
D10*
X-0063000Y0027250D02*
G03*
X-0057000Y0027250I0003000J-0002250D01*
G01*
X-0023750Y0030000D02*
G03*
X-0023750Y0030000I-0003750J0000000D01*
G01*
X-0033750D02*
G03*
X-0033750Y0030000I-0003750J0000000D01*
G01*
X-0043750D02*
G03*
X-0043750Y0030000I-0003750J0000000D01*
G01*
X-0056250Y0013000D02*
G03*
X-0056250Y0013000I-0003750J0000000D01*
G01*
X-0022000Y0004500D02*
X-0023524D01*
X-0022000Y0005516D01*
X-0023524D01*
X-0022000Y0006024D02*
Y0006531D01*
Y0006277D01*
X-0023016D01*
Y0006024D01*
Y0007293D02*
X-0022000Y0008309D01*
X-0022508Y0007801D01*
X-0023016Y0008309D01*
X-0022000Y0007293D01*
Y0008817D02*
Y0009324D01*
Y0009071D01*
X-0023016D01*
Y0008817D01*
X-0022000Y0010848D02*
Y0010340D01*
X-0022254Y0010086D01*
X-0022762D01*
X-0023016Y0010340D01*
Y0010848D01*
X-0022762Y0011102D01*
X-0022508D01*
Y0010086D01*
X-0023016Y0014149D02*
Y0013387D01*
X-0022762Y0013133D01*
X-0022254D01*
X-0022000Y0013387D01*
Y0014149D01*
Y0014657D02*
Y0015165D01*
Y0014911D01*
X-0023524D01*
Y0014657D01*
X-0022000Y0016180D02*
Y0016688D01*
X-0022254Y0016942D01*
X-0022762D01*
X-0023016Y0016688D01*
Y0016180D01*
X-0022762Y0015926D01*
X-0022254D01*
X-0022000Y0016180D01*
X-0023016Y0018465D02*
Y0017704D01*
X-0022762Y0017450D01*
X-0022254D01*
X-0022000Y0017704D01*
Y0018465D01*
Y0018973D02*
X-0023524D01*
X-0022508D02*
X-0023016Y0019735D01*
X-0022508Y0018973D02*
X-0022000Y0019735D01*
Y0020497D02*
Y0021259D01*
X-0022254Y0021513D01*
X-0022508Y0021259D01*
Y0020751D01*
X-0022762Y0020497D01*
X-0023016Y0020751D01*
Y0021513D01*
X-0022000Y0022020D02*
X-0022254D01*
Y0022274D01*
X-0022000D01*
Y0022020D01*
X-0023270Y0025829D02*
X-0023524Y0025575D01*
Y0025067D01*
X-0023270Y0024813D01*
X-0022254D01*
X-0022000Y0025067D01*
Y0025575D01*
X-0022254Y0025829D01*
X-0022000Y0026591D02*
Y0027099D01*
X-0022254Y0027353D01*
X-0022762D01*
X-0023016Y0027099D01*
Y0026591D01*
X-0022762Y0026337D01*
X-0022254D01*
X-0022000Y0026591D01*
Y0027860D02*
X-0023016D01*
Y0028622D01*
X-0022762Y0028876D01*
X-0022000D01*
X-0023270Y0029638D02*
X-0023016D01*
Y0029384D01*
Y0029892D01*
Y0029638D01*
X-0022254D01*
X-0022000Y0029892D01*
X-0023016Y0030654D02*
X-0022000D01*
X-0022508D01*
X-0022762Y0030907D01*
X-0023016Y0031161D01*
Y0031415D01*
X-0022000Y0032431D02*
Y0032939D01*
X-0022254Y0033193D01*
X-0022762D01*
X-0023016Y0032939D01*
Y0032431D01*
X-0022762Y0032177D01*
X-0022254D01*
X-0022000Y0032431D01*
Y0033701D02*
Y0034208D01*
Y0033954D01*
X-0023524D01*
Y0033701D01*
X-0022000Y0034970D02*
Y0035732D01*
X-0022254Y0035986D01*
X-0022508Y0035732D01*
Y0035224D01*
X-0022762Y0034970D01*
X-0023016Y0035224D01*
Y0035986D01*
X-0023524Y0038017D02*
X-0022000D01*
Y0038779D01*
X-0022254Y0039033D01*
X-0022508D01*
X-0022762D01*
X-0023016Y0038779D01*
Y0038017D01*
X-0022000Y0039795D02*
Y0040302D01*
X-0022254Y0040556D01*
X-0022762D01*
X-0023016Y0040302D01*
Y0039795D01*
X-0022762Y0039541D01*
X-0022254D01*
X-0022000Y0039795D01*
X-0023016Y0041318D02*
Y0041826D01*
X-0022762Y0042080D01*
X-0022000D01*
Y0041318D01*
X-0022254Y0041064D01*
X-0022508Y0041318D01*
Y0042080D01*
X-0023016Y0042588D02*
X-0022000D01*
X-0022508D01*
X-0022762Y0042842D01*
X-0023016Y0043096D01*
Y0043349D01*
X-0023524Y0045127D02*
X-0022000D01*
Y0044365D01*
X-0022254Y0044111D01*
X-0022762D01*
X-0023016Y0044365D01*
Y0045127D01*
X-0031000Y0035774D02*
X-0029984D01*
X-0030492D01*
Y0034250D01*
X-0029476Y0035774D02*
X-0028969D01*
X-0029223D01*
Y0034250D01*
X-0029476D01*
X-0028969D01*
X-0028207D02*
Y0035774D01*
X-0027699Y0035266D01*
X-0027191Y0035774D01*
Y0034250D01*
X-0025668Y0035774D02*
X-0026683D01*
Y0034250D01*
X-0025668D01*
X-0026683Y0035012D02*
X-0026176D01*
X-0025160Y0034250D02*
Y0035774D01*
X-0024398D01*
X-0024144Y0035520D01*
Y0035012D01*
X-0024398Y0034758D01*
X-0025160D01*
X-0024652D02*
X-0024144Y0034250D01*
X-0041000D02*
Y0035266D01*
X-0040492Y0035774D01*
X-0039984Y0035266D01*
Y0034250D01*
Y0035012D01*
X-0041000D01*
X-0039476Y0035774D02*
Y0034250D01*
X-0038461D01*
X-0037953D02*
Y0035266D01*
X-0037445Y0035774D01*
X-0036937Y0035266D01*
Y0034250D01*
Y0035012D01*
X-0037953D01*
X-0036429Y0034250D02*
Y0035774D01*
X-0035668D01*
X-0035414Y0035520D01*
Y0035012D01*
X-0035668Y0034758D01*
X-0036429D01*
X-0035922D02*
X-0035414Y0034250D01*
X-0034906D02*
Y0035774D01*
X-0034398Y0035266D01*
X-0033890Y0035774D01*
Y0034250D01*
X-0048484Y0035520D02*
X-0048738Y0035774D01*
X-0049246D01*
X-0049500Y0035520D01*
Y0034504D01*
X-0049246Y0034250D01*
X-0048738D01*
X-0048484Y0034504D01*
Y0035012D01*
X-0048992D01*
X-0047976Y0034250D02*
Y0035774D01*
X-0047215D01*
X-0046961Y0035520D01*
Y0035012D01*
X-0047215Y0034758D01*
X-0047976D01*
X-0045437Y0035520D02*
X-0045691Y0035774D01*
X-0046199D01*
X-0046453Y0035520D01*
Y0035266D01*
X-0046199Y0035012D01*
X-0045691D01*
X-0045437Y0034758D01*
Y0034504D01*
X-0045691Y0034250D01*
X-0046199D01*
X-0046453Y0034504D01*
X-0038484Y0047520D02*
X-0038738Y0047774D01*
X-0039246D01*
X-0039500Y0047520D01*
Y0047266D01*
X-0039246Y0047012D01*
X-0038738D01*
X-0038484Y0046758D01*
Y0046504D01*
X-0038738Y0046250D01*
X-0039246D01*
X-0039500Y0046504D01*
X-0036961Y0047774D02*
X-0037976D01*
Y0046250D01*
X-0036961D01*
X-0037976Y0047012D02*
X-0037469D01*
X-0036453Y0047774D02*
X-0035437D01*
X-0035945D01*
Y0046250D01*
X-0050250D02*
Y0047774D01*
X-0049742Y0047266D01*
X-0049234Y0047774D01*
Y0046250D01*
X-0047711Y0047774D02*
X-0048726D01*
Y0046250D01*
X-0047711D01*
X-0048726Y0047012D02*
X-0048219D01*
X-0047203Y0046250D02*
Y0047774D01*
X-0046187Y0046250D01*
Y0047774D01*
X-0045679D02*
Y0046504D01*
X-0045426Y0046250D01*
X-0044918D01*
X-0044664Y0046504D01*
Y0047774D01*
X-0046250Y0014274D02*
X-0045742D01*
X-0045996D01*
Y0012750D01*
X-0046250D01*
X-0045742D01*
X-0044980D02*
Y0014274D01*
X-0043965Y0012750D01*
Y0014274D01*
X-0043457Y0013512D02*
X-0042441D01*
X-0041933Y0012750D02*
X-0041426D01*
X-0041679D01*
Y0014274D01*
X-0041933Y0014020D01*
X-0040664Y0014274D02*
X-0039648D01*
Y0014020D01*
X-0040664Y0013004D01*
Y0012750D01*
X-0031250Y0014274D02*
X-0030742D01*
X-0030996D01*
Y0012750D01*
X-0031250D01*
X-0030742D01*
X-0029980D02*
Y0014274D01*
X-0028965Y0012750D01*
Y0014274D01*
X-0028457Y0013512D02*
X-0027441D01*
X-0026933Y0012750D02*
X-0026426D01*
X-0026679D01*
Y0014274D01*
X-0026933Y0014020D01*
X-0025664Y0014274D02*
X-0024648D01*
Y0014020D01*
X-0025664Y0013004D01*
Y0012750D01*
D11*
X-0059503Y0031549D02*
G03*
X-0060497Y0031549I-0000497J0001201D01*
G01*
X-0059478Y0036716D02*
G03*
X-0060522Y0036716I-0000522J-0003966D01*
G01*
X-0056827Y0035185D02*
G03*
X-0057565Y0035923I-0003173J-0002435D01*
G01*
Y0029577D02*
G03*
X-0056827Y0030315I-0002435J0003173D01*
G01*
X-0063966Y0033272D02*
G03*
X-0063966Y0032228I0003966J-0000522D01*
G01*
X-0056034D02*
G03*
X-0056034Y0033272I-0003966J0000522D01*
G01*
X-0062435Y0035923D02*
G03*
X-0063173Y0035185I0002435J-0003173D01*
G01*
X-0062598Y0034250D02*
G03*
X-0062898Y0033526I0002598J-0001500D01*
G01*
Y0031974D02*
G03*
X-0062598Y0031250I0002898J0000776D01*
G01*
X-0063173Y0030315D02*
G03*
X-0062435Y0029577I0003173J0002435D01*
G01*
X-0060776Y0035648D02*
G03*
X-0061500Y0035348I0000776J-0002898D01*
G01*
Y0030152D02*
G03*
X-0061148Y0029978I0001500J0002598D01*
G01*
X-0058500Y0035348D02*
G03*
X-0059224Y0035648I-0001500J-0002598D01*
G01*
X-0058852Y0029978D02*
G03*
X-0058500Y0030152I-0001148J0002772D01*
G01*
X-0057102Y0033526D02*
G03*
X-0057402Y0034250I-0002898J-0000776D01*
G01*
Y0031250D02*
G03*
X-0057102Y0031974I-0002598J0001500D01*
G01*
X-0036250Y0041250D02*
G03*
X-0036250Y0041250I-0001250J0000000D01*
G01*
X-0046250D02*
G03*
X-0046250Y0041250I-0001250J0000000D01*
G01*
X-0048000Y0023500D02*
G03*
X-0051000Y0020500I0000000J-0003000D01*
G01*
X-0039000D02*
G03*
X-0042000Y0023500I-0003000J0000000D01*
G01*
X-0051000Y0008500D02*
G03*
X-0048000Y0005500I0003000J0000000D01*
G01*
X-0042000D02*
G03*
X-0039000Y0008500I0000000J0003000D01*
G01*
X-0033000Y0023500D02*
G03*
X-0036000Y0020500I0000000J-0003000D01*
G01*
X-0024000D02*
G03*
X-0027000Y0023500I-0003000J0000000D01*
G01*
X-0036000Y0008500D02*
G03*
X-0033000Y0005500I0003000J0000000D01*
G01*
X-0027000D02*
G03*
X-0024000Y0008500I0000000J0003000D01*
G01*
X-0028982Y0043325D02*
G03*
X-0029854Y0042231I0001482J-0002075D01*
G01*
X-0026018Y0039175D02*
G03*
X-0025146Y0040269I-0001482J0002075D01*
G01*
X-0029854D02*
G03*
X-0028982Y0039175I0002354J0000981D01*
G01*
X-0025146Y0042231D02*
G03*
X-0026018Y0043325I-0002354J-0000981D01*
G01*
X-0018250Y0011250D02*
X-0016750Y0013750D01*
X-0018250Y0011250D02*
X-0015250D01*
X-0016750Y0013750D02*
X-0015250Y0011250D01*
X-0017207Y0012150D02*
X-0016607Y0012850D01*
X-0017207Y0012150D02*
X-0016507Y0012350D01*
X-0017007Y0011650D02*
X-0016507Y0012350D01*
X-0017007Y0011650D02*
Y0011850D01*
Y0011650D02*
X-0016807Y0011750D01*
X-0018250Y0037500D02*
X-0016750Y0040000D01*
X-0018250Y0037500D02*
X-0015250D01*
X-0016750Y0040000D02*
X-0015250Y0037500D01*
X-0017207Y0038400D02*
X-0016607Y0039100D01*
X-0017207Y0038400D02*
X-0016507Y0038600D01*
X-0017007Y0037900D02*
X-0016507Y0038600D01*
X-0017007Y0037900D02*
Y0038100D01*
Y0037900D02*
X-0016807Y0038000D01*
X-0062435Y0035923D02*
X-0061500Y0035348D01*
X-0063966Y0033272D02*
X-0062898Y0033526D01*
X-0063966Y0032228D02*
X-0062898Y0031974D01*
X-0062435Y0029577D02*
X-0061500Y0030152D01*
X-0058500Y0035348D02*
X-0057565Y0035923D01*
X-0058500Y0030152D02*
X-0057565Y0029577D01*
X-0063173Y0030315D02*
X-0062598Y0031250D01*
X-0063173Y0035185D02*
X-0062598Y0034250D01*
X-0061148Y0029978D02*
X-0060497Y0031549D01*
X-0059500Y0031500D02*
X-0058852Y0029978D01*
X-0057402Y0034250D02*
X-0056827Y0035185D01*
X-0057402Y0031250D02*
X-0056827Y0030315D01*
X-0060776Y0035648D02*
X-0060522Y0036716D01*
X-0059478D02*
X-0059224Y0035648D01*
X-0057102Y0033526D02*
X-0056034Y0033272D01*
X-0057102Y0031974D02*
X-0056034Y0032228D01*
X-0010077Y0036500D02*
X-0009877Y0036600D01*
X-0010077Y0036500D02*
Y0036700D01*
Y0036500D02*
X-0009577Y0037200D01*
X-0010277Y0037000D02*
X-0009577Y0037200D01*
X-0010277Y0037000D02*
X-0009677Y0037700D01*
X-0009820Y0038600D02*
X-0008320Y0036100D01*
X-0011320D02*
X-0008320D01*
X-0011320D02*
X-0009820Y0038600D01*
X-0010077Y0022000D02*
X-0009877Y0022100D01*
X-0010077Y0022000D02*
Y0022200D01*
Y0022000D02*
X-0009577Y0022700D01*
X-0010277Y0022500D02*
X-0009577Y0022700D01*
X-0010277Y0022500D02*
X-0009677Y0023200D01*
X-0009820Y0024100D02*
X-0008320Y0021600D01*
X-0011320D02*
X-0008320D01*
X-0011320D02*
X-0009820Y0024100D01*
X-0058077Y0018400D02*
X-0057877Y0018500D01*
X-0058077Y0018400D02*
Y0018600D01*
Y0018400D02*
X-0057577Y0019100D01*
X-0058277Y0018900D02*
X-0057577Y0019100D01*
X-0058277Y0018900D02*
X-0057677Y0019600D01*
X-0057820Y0020500D02*
X-0056320Y0018000D01*
X-0059320D02*
X-0056320D01*
X-0059320D02*
X-0057820Y0020500D01*
X-0037577Y0023500D02*
X-0037377Y0023600D01*
X-0037577Y0023500D02*
Y0023700D01*
Y0023500D02*
X-0037077Y0024200D01*
X-0037777Y0024000D02*
X-0037077Y0024200D01*
X-0037777Y0024000D02*
X-0037177Y0024700D01*
X-0037320Y0025600D02*
X-0035820Y0023100D01*
X-0038820D02*
X-0035820D01*
X-0038820D02*
X-0037320Y0025600D01*
X-0034500Y0039500D02*
Y0043000D01*
X-0038250Y0045000D02*
X-0036750D01*
X-0038250Y0037250D02*
X-0036750D01*
X-0040500Y0039500D02*
Y0043000D01*
X-0050500Y0039500D02*
Y0043000D01*
X-0048250Y0037500D02*
X-0046750D01*
X-0048250Y0045250D02*
X-0046750D01*
X-0044500Y0039500D02*
Y0043000D01*
X-0048000Y0023500D02*
X-0042000D01*
X-0051000Y0008500D02*
Y0020500D01*
X-0048000Y0005500D02*
X-0042000D01*
X-0039000Y0008500D02*
Y0020500D01*
X-0033000Y0023500D02*
X-0027000D01*
X-0036000Y0008500D02*
Y0020500D01*
X-0033000Y0005500D02*
X-0027000D01*
X-0024000Y0008500D02*
Y0020500D01*
X-0028982Y0043350D02*
X-0026018D01*
X-0028982Y0039150D02*
X-0026018D01*
X-0063750Y0021000D02*
Y0020000D01*
Y0020500D01*
X-0063084D01*
Y0021000D01*
Y0020000D01*
X-0062084Y0020833D02*
X-0062250Y0021000D01*
X-0062584D01*
X-0062750Y0020833D01*
Y0020167D01*
X-0062584Y0020000D01*
X-0062250D01*
X-0062084Y0020167D01*
Y0020500D01*
X-0062417D01*
X-0061084Y0020000D02*
X-0061751D01*
X-0061084Y0020666D01*
Y0020833D01*
X-0061251Y0021000D01*
X-0061584D01*
X-0061751Y0020833D01*
X-0031834Y0046250D02*
X-0032500D01*
X-0031834Y0046916D01*
Y0047083D01*
X-0032000Y0047250D01*
X-0032333D01*
X-0032500Y0047083D01*
X-0031500D02*
X-0031334Y0047250D01*
X-0031000D01*
X-0030834Y0047083D01*
Y0046916D01*
X-0031000Y0046750D01*
X-0030834Y0046583D01*
Y0046417D01*
X-0031000Y0046250D01*
X-0031334D01*
X-0031500Y0046417D01*
Y0046583D01*
X-0031334Y0046750D01*
X-0031500Y0046916D01*
Y0047083D01*
X-0031334Y0046750D02*
X-0031000D01*
X-0030501Y0046250D02*
Y0046417D01*
X-0030334D01*
Y0046250D01*
X-0030501D01*
X-0029668Y0047083D02*
X-0029501Y0047250D01*
X-0029168D01*
X-0029001Y0047083D01*
Y0046417D01*
X-0029168Y0046250D01*
X-0029501D01*
X-0029668Y0046417D01*
Y0047083D01*
X-0028001Y0046250D02*
X-0028668D01*
X-0028001Y0046916D01*
Y0047083D01*
X-0028168Y0047250D01*
X-0028501D01*
X-0028668Y0047083D01*
X-0027668Y0046250D02*
Y0046417D01*
X-0027502D01*
Y0046250D01*
X-0027668D01*
X-0026169D02*
X-0026835D01*
X-0026169Y0046916D01*
Y0047083D01*
X-0026335Y0047250D01*
X-0026669D01*
X-0026835Y0047083D01*
X-0025835D02*
X-0025669Y0047250D01*
X-0025336D01*
X-0025169Y0047083D01*
Y0046417D01*
X-0025336Y0046250D01*
X-0025669D01*
X-0025835Y0046417D01*
Y0047083D01*
X-0024836Y0046250D02*
X-0024503D01*
X-0024669D01*
Y0047250D01*
X-0024836Y0047083D01*
X-0024003D02*
X-0023836Y0047250D01*
X-0023503D01*
X-0023336Y0047083D01*
Y0046916D01*
X-0023503Y0046750D01*
X-0023336Y0046583D01*
Y0046417D01*
X-0023503Y0046250D01*
X-0023836D01*
X-0024003Y0046417D01*
Y0046583D01*
X-0023836Y0046750D01*
X-0024003Y0046916D01*
Y0047083D01*
X-0023836Y0046750D02*
X-0023503D01*
X-0012500Y0006250D02*
X-0013166D01*
X-0013500Y0006583D01*
X-0013166Y0006916D01*
X-0012500D01*
X-0013000D01*
Y0006250D01*
X-0013500Y0007250D02*
Y0007916D01*
Y0007583D01*
X-0012500D01*
X-0013500Y0008249D02*
Y0008916D01*
Y0008583D01*
X-0012500D01*
X-0013500Y0009915D02*
Y0009249D01*
X-0012500D01*
Y0009915D01*
X-0013000Y0009249D02*
Y0009582D01*
X-0012500Y0010249D02*
X-0013500D01*
X-0012500Y0010915D01*
X-0013500D01*
Y0011248D02*
Y0011915D01*
Y0011582D01*
X-0012500D01*
X-0013500Y0012248D02*
Y0012581D01*
Y0012415D01*
X-0012500D01*
Y0012248D01*
Y0012581D01*
X-0013500Y0013581D02*
Y0013248D01*
X-0013333Y0013081D01*
X-0012667D01*
X-0012500Y0013248D01*
Y0013581D01*
X-0012667Y0013748D01*
X-0013333D01*
X-0013500Y0013581D01*
X-0012500Y0014081D02*
X-0013500D01*
X-0012500Y0014747D01*
X-0013500D01*
X-0012833Y0015080D02*
X-0013666D01*
X-0012667D02*
X-0012500D01*
X-0013500Y0016413D02*
X-0012500D01*
X-0013000D01*
Y0017080D01*
X-0013500D01*
X-0012500D01*
X-0013500Y0017413D02*
Y0017746D01*
Y0017580D01*
X-0012500D01*
Y0017413D01*
Y0017746D01*
X-0013333Y0018913D02*
X-0013500Y0018746D01*
Y0018413D01*
X-0013333Y0018246D01*
X-0012667D01*
X-0012500Y0018413D01*
Y0018746D01*
X-0012667Y0018913D01*
X-0013000D01*
Y0018579D01*
X-0013500Y0019246D02*
X-0012500D01*
X-0013000D01*
Y0019912D01*
X-0013500D01*
X-0012500D01*
X-0013500Y0021245D02*
X-0012833D01*
X-0012500Y0021578D01*
X-0012833Y0021912D01*
X-0013500D01*
Y0022745D02*
Y0022411D01*
X-0013333Y0022245D01*
X-0012667D01*
X-0012500Y0022411D01*
Y0022745D01*
X-0012667Y0022911D01*
X-0013333D01*
X-0013500Y0022745D01*
Y0023245D02*
X-0012500D01*
Y0023911D01*
X-0013500Y0024244D02*
Y0024911D01*
Y0024577D01*
X-0012500D01*
Y0025244D02*
X-0013166D01*
X-0013500Y0025577D01*
X-0013166Y0025910D01*
X-0012500D01*
X-0013000D01*
Y0025244D01*
X-0013333Y0026910D02*
X-0013500Y0026743D01*
Y0026410D01*
X-0013333Y0026244D01*
X-0012667D01*
X-0012500Y0026410D01*
Y0026743D01*
X-0012667Y0026910D01*
X-0013000D01*
Y0026577D01*
X-0013500Y0027910D02*
Y0027243D01*
X-0012500D01*
Y0027910D01*
X-0013000Y0027243D02*
Y0027576D01*
X-0012500Y0029409D02*
Y0029742D01*
X-0012667Y0029909D01*
X-0013000D01*
X-0013166Y0029742D01*
Y0029409D01*
X-0013000Y0029243D01*
X-0012667D01*
X-0012500Y0029409D01*
X-0013166Y0030242D02*
X-0012500Y0030575D01*
X-0013166Y0030909D01*
X-0012500Y0031742D02*
Y0031409D01*
X-0012667Y0031242D01*
X-0013000D01*
X-0013166Y0031409D01*
Y0031742D01*
X-0013000Y0031908D01*
X-0012833D01*
Y0031242D01*
X-0013166Y0032242D02*
X-0012500D01*
X-0012833D01*
X-0013000Y0032408D01*
X-0013166Y0032575D01*
Y0032741D01*
Y0034408D02*
Y0034741D01*
X-0013000Y0034907D01*
X-0012500D01*
Y0034408D01*
X-0012667Y0034241D01*
X-0012833Y0034408D01*
Y0034907D01*
X-0012500Y0035241D02*
Y0035574D01*
Y0035407D01*
X-0013500D01*
Y0035241D01*
X-0012500Y0036074D02*
Y0036407D01*
Y0036240D01*
X-0013500D01*
Y0036074D01*
Y0037906D02*
X-0012500D01*
Y0038406D01*
X-0012667Y0038573D01*
X-0012833D01*
X-0013000D01*
X-0013166Y0038406D01*
Y0037906D01*
X-0012500Y0039073D02*
Y0039406D01*
X-0012667Y0039573D01*
X-0013000D01*
X-0013166Y0039406D01*
Y0039073D01*
X-0013000Y0038906D01*
X-0012667D01*
X-0012500Y0039073D01*
X-0013166Y0040072D02*
Y0040406D01*
X-0013000Y0040572D01*
X-0012500D01*
Y0040072D01*
X-0012667Y0039906D01*
X-0012833Y0040072D01*
Y0040572D01*
X-0013166Y0040905D02*
X-0012500D01*
X-0012833D01*
X-0013000Y0041072D01*
X-0013166Y0041239D01*
Y0041405D01*
X-0013500Y0042572D02*
X-0012500D01*
Y0042072D01*
X-0012667Y0041905D01*
X-0013000D01*
X-0013166Y0042072D01*
Y0042572D01*
X-0012833Y0042905D02*
X-0013666D01*
X-0012667D02*
X-0012500D01*
X-0055500Y0004900D02*
X-0054500D01*
X-0055000D01*
X-0055166Y0005067D01*
Y0005400D01*
X-0055000Y0005566D01*
X-0054500D01*
X-0055333Y0006066D02*
X-0055166D01*
Y0005900D01*
Y0006233D01*
Y0006066D01*
X-0054667D01*
X-0054500Y0006233D01*
X-0055333Y0006899D02*
X-0055166D01*
Y0006733D01*
Y0007066D01*
Y0006899D01*
X-0054667D01*
X-0054500Y0007066D01*
X-0054167Y0007566D02*
X-0055166D01*
Y0008066D01*
X-0055000Y0008232D01*
X-0054667D01*
X-0054500Y0008066D01*
Y0007566D01*
Y0008565D02*
Y0009065D01*
X-0054667Y0009232D01*
X-0054833Y0009065D01*
Y0008732D01*
X-0055000Y0008565D01*
X-0055166Y0008732D01*
Y0009232D01*
Y0009565D02*
Y0009732D01*
X-0055000D01*
Y0009565D01*
X-0055166D01*
X-0054667D02*
Y0009732D01*
X-0054500D01*
Y0009565D01*
X-0054667D01*
X-0054500Y0010398D02*
X-0055166Y0011065D01*
X-0054500Y0011398D02*
X-0055166Y0012064D01*
X-0054167Y0012731D02*
Y0012897D01*
X-0054333Y0013064D01*
X-0055166D01*
Y0012564D01*
X-0055000Y0012398D01*
X-0054667D01*
X-0054500Y0012564D01*
Y0013064D01*
Y0013397D02*
Y0013730D01*
Y0013564D01*
X-0055166D01*
Y0013397D01*
X-0055333Y0014397D02*
X-0055166D01*
Y0014230D01*
Y0014564D01*
Y0014397D01*
X-0054667D01*
X-0054500Y0014564D01*
X-0055500Y0015063D02*
X-0054500D01*
X-0055000D01*
X-0055166Y0015230D01*
Y0015563D01*
X-0055000Y0015730D01*
X-0054500D01*
X-0055166Y0016063D02*
X-0054667D01*
X-0054500Y0016230D01*
Y0016730D01*
X-0055166D01*
X-0055500Y0017063D02*
X-0054500D01*
Y0017563D01*
X-0054667Y0017729D01*
X-0054833D01*
X-0055000D01*
X-0055166Y0017563D01*
Y0017063D01*
X-0054500Y0018062D02*
X-0054667D01*
Y0018229D01*
X-0054500D01*
Y0018062D01*
X-0055166Y0019562D02*
Y0019062D01*
X-0055000Y0018895D01*
X-0054667D01*
X-0054500Y0019062D01*
Y0019562D01*
Y0020062D02*
Y0020395D01*
X-0054667Y0020562D01*
X-0055000D01*
X-0055166Y0020395D01*
Y0020062D01*
X-0055000Y0019895D01*
X-0054667D01*
X-0054500Y0020062D01*
Y0020895D02*
X-0055166D01*
Y0021061D01*
X-0055000Y0021228D01*
X-0054500D01*
X-0055000D01*
X-0055166Y0021395D01*
X-0055000Y0021561D01*
X-0054500D01*
Y0021895D02*
X-0055166Y0022561D01*
X-0054500Y0022894D02*
X-0055166D01*
X-0055500Y0023227D01*
X-0055166Y0023561D01*
X-0054500D01*
X-0055000D01*
Y0022894D01*
X-0054500Y0023894D02*
X-0055166D01*
Y0024394D01*
X-0055000Y0024560D01*
X-0054500D01*
X-0055333Y0025060D02*
X-0055166D01*
Y0024894D01*
Y0025227D01*
Y0025060D01*
X-0054667D01*
X-0054500Y0025227D01*
X-0055166Y0025893D02*
Y0026226D01*
X-0055000Y0026393D01*
X-0054500D01*
Y0025893D01*
X-0054667Y0025727D01*
X-0054833Y0025893D01*
Y0026393D01*
X-0055166Y0026726D02*
X-0054500D01*
X-0054833D01*
X-0055000Y0026893D01*
X-0055166Y0027060D01*
Y0027226D01*
X-0054500Y0028226D02*
Y0027893D01*
X-0054667Y0027726D01*
X-0055000D01*
X-0055166Y0027893D01*
Y0028226D01*
X-0055000Y0028392D01*
X-0054833D01*
Y0027726D01*
X-0054500Y0028726D02*
Y0029225D01*
X-0054667Y0029392D01*
X-0054833Y0029225D01*
Y0028892D01*
X-0055000Y0028726D01*
X-0055166Y0028892D01*
Y0029392D01*
X-0055500Y0029725D02*
X-0054500D01*
Y0030392D01*
X-0055166Y0030892D02*
Y0031225D01*
X-0055000Y0031391D01*
X-0054500D01*
Y0030892D01*
X-0054667Y0030725D01*
X-0054833Y0030892D01*
Y0031391D01*
X-0055500Y0031725D02*
X-0054500D01*
Y0032225D01*
X-0054667Y0032391D01*
X-0054833D01*
X-0055000D01*
X-0055166Y0032225D01*
Y0031725D01*
X-0054500Y0032724D02*
X-0055166Y0033391D01*
X-0054500Y0033724D02*
X-0055500D01*
X-0054500Y0034390D01*
X-0055500D01*
X-0054500Y0034724D02*
Y0035057D01*
Y0034890D01*
X-0055166D01*
Y0034724D01*
Y0035557D02*
X-0054500Y0036223D01*
X-0054833Y0035890D01*
X-0055166Y0036223D01*
X-0054500Y0035557D01*
Y0036556D02*
Y0036890D01*
Y0036723D01*
X-0055166D01*
Y0036556D01*
X-0054500Y0037889D02*
Y0037556D01*
X-0054667Y0037390D01*
X-0055000D01*
X-0055166Y0037556D01*
Y0037889D01*
X-0055000Y0038056D01*
X-0054833D01*
Y0037390D01*
X-0054333Y0038389D02*
Y0039056D01*
X-0055166Y0040055D02*
Y0039556D01*
X-0055000Y0039389D01*
X-0054667D01*
X-0054500Y0039556D01*
Y0040055D01*
Y0040389D02*
Y0040722D01*
Y0040555D01*
X-0055500D01*
Y0040389D01*
X-0054500Y0041388D02*
Y0041721D01*
X-0054667Y0041888D01*
X-0055000D01*
X-0055166Y0041721D01*
Y0041388D01*
X-0055000Y0041222D01*
X-0054667D01*
X-0054500Y0041388D01*
X-0055166Y0042888D02*
Y0042388D01*
X-0055000Y0042221D01*
X-0054667D01*
X-0054500Y0042388D01*
Y0042888D01*
Y0043221D02*
X-0055500D01*
X-0054833D02*
X-0055166Y0043721D01*
X-0054833Y0043221D02*
X-0054500Y0043721D01*
Y0044221D02*
Y0044721D01*
X-0054667Y0044887D01*
X-0054833Y0044721D01*
Y0044387D01*
X-0055000Y0044221D01*
X-0055166Y0044387D01*
Y0044887D01*
X-0063664Y0018582D02*
Y0017583D01*
Y0018083D01*
X-0062998D01*
Y0018582D01*
Y0017583D01*
X-0061998Y0018416D02*
X-0062165Y0018582D01*
X-0062498D01*
X-0062665Y0018416D01*
Y0017749D01*
X-0062498Y0017583D01*
X-0062165D01*
X-0061998Y0017749D01*
Y0018083D01*
X-0062332D01*
X-0061665Y0017583D02*
X-0061332D01*
X-0061498D01*
Y0018582D01*
X-0061665Y0018416D01*
X-0053750Y0033500D02*
Y0032500D01*
Y0033000D01*
X-0053084D01*
Y0033500D01*
Y0032500D01*
X-0052084Y0033333D02*
X-0052250Y0033500D01*
X-0052584D01*
X-0052750Y0033333D01*
Y0032667D01*
X-0052584Y0032500D01*
X-0052250D01*
X-0052084Y0032667D01*
Y0033000D01*
X-0052417D01*
X-0051751Y0033333D02*
X-0051584Y0033500D01*
X-0051251D01*
X-0051084Y0033333D01*
Y0033166D01*
X-0051251Y0033000D01*
X-0051417D01*
X-0051251D01*
X-0051084Y0032833D01*
Y0032667D01*
X-0051251Y0032500D01*
X-0051584D01*
X-0051751Y0032667D01*
X-0043750Y0033500D02*
Y0032500D01*
Y0033000D01*
X-0043084D01*
Y0033500D01*
Y0032500D01*
X-0042084Y0033333D02*
X-0042250Y0033500D01*
X-0042584D01*
X-0042750Y0033333D01*
Y0032667D01*
X-0042584Y0032500D01*
X-0042250D01*
X-0042084Y0032667D01*
Y0033000D01*
X-0042417D01*
X-0041251Y0032500D02*
Y0033500D01*
X-0041751Y0033000D01*
X-0041084D01*
X-0033750Y0033500D02*
Y0032500D01*
Y0033000D01*
X-0033084D01*
Y0033500D01*
Y0032500D01*
X-0032084Y0033333D02*
X-0032250Y0033500D01*
X-0032584D01*
X-0032750Y0033333D01*
Y0032667D01*
X-0032584Y0032500D01*
X-0032250D01*
X-0032084Y0032667D01*
Y0033000D01*
X-0032417D01*
X-0031084Y0033500D02*
X-0031751D01*
Y0033000D01*
X-0031417Y0033166D01*
X-0031251D01*
X-0031084Y0033000D01*
Y0032667D01*
X-0031251Y0032500D01*
X-0031584D01*
X-0031751Y0032667D01*
X-0050888Y0025313D02*
Y0024314D01*
Y0024814D01*
X-0050222D01*
Y0025313D01*
Y0024314D01*
X-0049222Y0025147D02*
X-0049389Y0025313D01*
X-0049722D01*
X-0049889Y0025147D01*
Y0024480D01*
X-0049722Y0024314D01*
X-0049389D01*
X-0049222Y0024480D01*
Y0024814D01*
X-0049555D01*
X-0048222Y0025313D02*
X-0048556Y0025147D01*
X-0048889Y0024814D01*
Y0024480D01*
X-0048722Y0024314D01*
X-0048389D01*
X-0048222Y0024480D01*
Y0024647D01*
X-0048389Y0024814D01*
X-0048889D01*
X-0035902Y0025313D02*
Y0024314D01*
Y0024814D01*
X-0035236D01*
Y0025313D01*
Y0024314D01*
X-0034236Y0025147D02*
X-0034403Y0025313D01*
X-0034736D01*
X-0034903Y0025147D01*
Y0024480D01*
X-0034736Y0024314D01*
X-0034403D01*
X-0034236Y0024480D01*
Y0024814D01*
X-0034569D01*
X-0033903Y0025313D02*
X-0033236D01*
Y0025147D01*
X-0033903Y0024480D01*
Y0024314D01*
X-0029806Y0044151D02*
Y0045151D01*
X-0029306D01*
X-0029140Y0044984D01*
Y0044651D01*
X-0029306Y0044484D01*
X-0029806D01*
X-0029473D02*
X-0029140Y0044151D01*
X-0028807D02*
X-0028473D01*
X-0028640D01*
Y0045151D01*
X-0028807Y0044984D01*
X-0052834Y0043333D02*
X-0053000Y0043500D01*
X-0053333D01*
X-0053500Y0043333D01*
Y0043166D01*
X-0053333Y0043000D01*
X-0053000D01*
X-0052834Y0042833D01*
Y0042667D01*
X-0053000Y0042500D01*
X-0053333D01*
X-0053500Y0042667D01*
X-0052500Y0043500D02*
Y0042500D01*
X-0052000D01*
X-0051834Y0042667D01*
Y0042833D01*
X-0052000Y0043000D01*
X-0052500D01*
X-0052000D01*
X-0051834Y0043166D01*
Y0043333D01*
X-0052000Y0043500D01*
X-0052500D01*
X-0051501Y0042500D02*
X-0051167D01*
X-0051334D01*
Y0043500D01*
X-0051501Y0043333D01*
X-0033334D02*
X-0033500Y0043500D01*
X-0033833D01*
X-0034000Y0043333D01*
Y0043166D01*
X-0033833Y0043000D01*
X-0033500D01*
X-0033334Y0042833D01*
Y0042667D01*
X-0033500Y0042500D01*
X-0033833D01*
X-0034000Y0042667D01*
X-0033000Y0043500D02*
Y0042500D01*
X-0032500D01*
X-0032334Y0042667D01*
Y0042833D01*
X-0032500Y0043000D01*
X-0033000D01*
X-0032500D01*
X-0032334Y0043166D01*
Y0043333D01*
X-0032500Y0043500D01*
X-0033000D01*
X-0031334Y0042500D02*
X-0032001D01*
X-0031334Y0043166D01*
Y0043333D01*
X-0031501Y0043500D01*
X-0031834D01*
X-0032001Y0043333D01*
M02*
