G04 Layer_Color=32896*
%FSAX43Y43*%
%MOMM*%
G71*
G01*
G75*
%ADD21C,0.200*%
%ADD31C,0.100*%
G36*
X-0035073Y0017710D02*
X-0035051Y0017707D01*
X-0035032Y0017703D01*
X-0035015Y0017698D01*
X-0035001Y0017692D01*
X-0034990Y0017688D01*
X-0034985Y0017685D01*
X-0034982Y0017684D01*
X-0034965Y0017673D01*
X-0034949Y0017660D01*
X-0034935Y0017648D01*
X-0034922Y0017634D01*
X-0034911Y0017623D01*
X-0034904Y0017613D01*
X-0034899Y0017607D01*
X-0034897Y0017605D01*
Y0017696D01*
X-0034791D01*
Y0016838D01*
X-0034750D01*
Y0015750D01*
X-0034884D01*
Y0016181D01*
X-0034885Y0016214D01*
X-0034887Y0016242D01*
X-0034890Y0016267D01*
X-0034895Y0016288D01*
X-0034899Y0016303D01*
X-0034903Y0016316D01*
X-0034904Y0016322D01*
X-0034906Y0016325D01*
X-0034915Y0016344D01*
X-0034926Y0016362D01*
X-0034939Y0016376D01*
X-0034951Y0016388D01*
X-0034962Y0016398D01*
X-0034972Y0016404D01*
X-0034978Y0016409D01*
X-0034980Y0016410D01*
X-0035000Y0016421D01*
X-0035019Y0016429D01*
X-0035038Y0016434D01*
X-0035053Y0016439D01*
X-0035069Y0016440D01*
X-0035080Y0016442D01*
X-0035090D01*
X-0035118Y0016440D01*
X-0035143Y0016434D01*
X-0035164Y0016428D01*
X-0035181Y0016418D01*
X-0035195Y0016410D01*
X-0035204Y0016402D01*
X-0035211Y0016396D01*
X-0035212Y0016395D01*
X-0035226Y0016376D01*
X-0035237Y0016352D01*
X-0035245Y0016329D01*
X-0035252Y0016305D01*
X-0035255Y0016283D01*
X-0035256Y0016266D01*
Y0016259D01*
Y0016255D01*
Y0016252D01*
Y0016250D01*
Y0015750D01*
X-0035390D01*
Y0016248D01*
X-0035388Y0016289D01*
X-0035385Y0016325D01*
X-0035380Y0016355D01*
X-0035376Y0016380D01*
X-0035371Y0016401D01*
X-0035366Y0016415D01*
X-0035363Y0016423D01*
X-0035362Y0016426D01*
X-0035349Y0016448D01*
X-0035335Y0016467D01*
X-0035319Y0016483D01*
X-0035305Y0016497D01*
X-0035291Y0016508D01*
X-0035280Y0016516D01*
X-0035272Y0016520D01*
X-0035269Y0016522D01*
X-0035244Y0016533D01*
X-0035219Y0016542D01*
X-0035193Y0016549D01*
X-0035170Y0016552D01*
X-0035149Y0016555D01*
X-0035132Y0016557D01*
X-0035118D01*
X-0035093Y0016555D01*
X-0035068Y0016552D01*
X-0035044Y0016547D01*
X-0035022Y0016539D01*
X-0034981Y0016522D01*
X-0034964Y0016513D01*
X-0034948Y0016503D01*
X-0034934Y0016492D01*
X-0034920Y0016483D01*
X-0034909Y0016473D01*
X-0034901Y0016465D01*
X-0034893Y0016458D01*
X-0034888Y0016453D01*
X-0034885Y0016450D01*
X-0034884Y0016448D01*
Y0016734D01*
X-0034908D01*
Y0017072D01*
X-0034919Y0017058D01*
X-0034932Y0017046D01*
X-0034946Y0017035D01*
X-0034957Y0017026D01*
X-0034968Y0017018D01*
X-0034976Y0017012D01*
X-0034983Y0017010D01*
X-0034985Y0017008D01*
X-0035003Y0017000D01*
X-0035021Y0016994D01*
X-0035039Y0016990D01*
X-0035055Y0016988D01*
X-0035069Y0016986D01*
X-0035080Y0016985D01*
X-0035090D01*
X-0035119Y0016986D01*
X-0035148Y0016992D01*
X-0035173Y0016999D01*
X-0035197Y0017007D01*
X-0035216Y0017015D01*
X-0035230Y0017022D01*
X-0035236Y0017025D01*
X-0035240Y0017028D01*
X-0035241Y0017029D01*
X-0035243D01*
X-0035269Y0017049D01*
X-0035291Y0017069D01*
X-0035311Y0017090D01*
X-0035326Y0017111D01*
X-0035338Y0017130D01*
X-0035348Y0017146D01*
X-0035351Y0017151D01*
X-0035354Y0017155D01*
X-0035355Y0017158D01*
Y0017159D01*
X-0035367Y0017193D01*
X-0035377Y0017226D01*
X-0035384Y0017258D01*
X-0035390Y0017288D01*
X-0035392Y0017313D01*
Y0017325D01*
X-0035394Y0017334D01*
Y0017343D01*
Y0017348D01*
Y0017351D01*
Y0017352D01*
X-0035392Y0017388D01*
X-0035388Y0017423D01*
X-0035383Y0017454D01*
X-0035376Y0017481D01*
X-0035369Y0017503D01*
X-0035366Y0017513D01*
X-0035363Y0017521D01*
X-0035360Y0017527D01*
X-0035359Y0017531D01*
X-0035358Y0017534D01*
Y0017535D01*
X-0035344Y0017564D01*
X-0035327Y0017591D01*
X-0035311Y0017613D01*
X-0035294Y0017631D01*
X-0035279Y0017645D01*
X-0035266Y0017656D01*
X-0035258Y0017662D01*
X-0035256Y0017664D01*
X-0035255D01*
X-0035229Y0017680D01*
X-0035202Y0017692D01*
X-0035176Y0017700D01*
X-0035151Y0017706D01*
X-0035130Y0017709D01*
X-0035121Y0017710D01*
X-0035114Y0017711D01*
X-0035098D01*
X-0035073Y0017710D01*
D02*
G37*
G36*
X-0035891Y0016555D02*
X-0035858Y0016552D01*
X-0035827Y0016547D01*
X-0035802Y0016542D01*
X-0035780Y0016538D01*
X-0035764Y0016533D01*
X-0035758Y0016531D01*
X-0035753Y0016530D01*
X-0035752Y0016528D01*
X-0035750D01*
X-0035723Y0016517D01*
X-0035700Y0016503D01*
X-0035679Y0016491D01*
X-0035662Y0016478D01*
X-0035649Y0016465D01*
X-0035640Y0016456D01*
X-0035634Y0016450D01*
X-0035632Y0016448D01*
X-0035618Y0016428D01*
X-0035605Y0016406D01*
X-0035596Y0016384D01*
X-0035588Y0016363D01*
X-0035582Y0016343D01*
X-0035577Y0016329D01*
X-0035575Y0016322D01*
Y0016318D01*
X-0035574Y0016316D01*
Y0016314D01*
X-0035704Y0016297D01*
X-0035714Y0016325D01*
X-0035723Y0016351D01*
X-0035734Y0016371D01*
X-0035744Y0016387D01*
X-0035753Y0016399D01*
X-0035761Y0016407D01*
X-0035767Y0016412D01*
X-0035769Y0016413D01*
X-0035788Y0016424D01*
X-0035810Y0016432D01*
X-0035833Y0016439D01*
X-0035855Y0016442D01*
X-0035877Y0016445D01*
X-0035893Y0016447D01*
X-0035909D01*
X-0035945Y0016445D01*
X-0035976Y0016440D01*
X-0036002Y0016432D01*
X-0036024Y0016424D01*
X-0036039Y0016415D01*
X-0036052Y0016409D01*
X-0036060Y0016402D01*
X-0036061Y0016401D01*
X-0036074Y0016387D01*
X-0036083Y0016369D01*
X-0036091Y0016351D01*
X-0036096Y0016332D01*
X-0036099Y0016314D01*
X-0036101Y0016299D01*
Y0016289D01*
Y0016288D01*
Y0016286D01*
Y0016283D01*
Y0016277D01*
Y0016266D01*
X-0036099Y0016256D01*
Y0016253D01*
Y0016252D01*
X-0036083Y0016247D01*
X-0036066Y0016242D01*
X-0036030Y0016233D01*
X-0035989Y0016225D01*
X-0035951Y0016217D01*
X-0035932Y0016214D01*
X-0035915Y0016212D01*
X-0035899Y0016209D01*
X-0035887Y0016208D01*
X-0035876Y0016206D01*
X-0035868D01*
X-0035862Y0016204D01*
X-0035860D01*
X-0035832Y0016201D01*
X-0035808Y0016197D01*
X-0035788Y0016193D01*
X-0035772Y0016190D01*
X-0035759Y0016189D01*
X-0035750Y0016186D01*
X-0035744Y0016184D01*
X-0035742D01*
X-0035722Y0016178D01*
X-0035704Y0016171D01*
X-0035687Y0016163D01*
X-0035673Y0016157D01*
X-0035660Y0016151D01*
X-0035652Y0016145D01*
X-0035646Y0016141D01*
X-0035645Y0016140D01*
X-0035629Y0016129D01*
X-0035616Y0016116D01*
X-0035604Y0016104D01*
X-0035594Y0016091D01*
X-0035586Y0016080D01*
X-0035580Y0016071D01*
X-0035577Y0016064D01*
X-0035575Y0016063D01*
X-0035568Y0016046D01*
X-0035561Y0016027D01*
X-0035557Y0016009D01*
X-0035553Y0015992D01*
X-0035552Y0015978D01*
X-0035550Y0015967D01*
Y0015961D01*
Y0015958D01*
X-0035552Y0015939D01*
X-0035553Y0015923D01*
X-0035561Y0015890D01*
X-0035572Y0015863D01*
X-0035585Y0015840D01*
X-0035597Y0015821D01*
X-0035608Y0015807D01*
X-0035616Y0015799D01*
X-0035619Y0015796D01*
X-0035648Y0015775D01*
X-0035679Y0015759D01*
X-0035714Y0015748D01*
X-0035745Y0015741D01*
X-0035774Y0015736D01*
X-0035786Y0015734D01*
X-0035797D01*
X-0035807Y0015733D01*
X-0035819D01*
X-0035847Y0015734D01*
X-0035876Y0015737D01*
X-0035901Y0015741D01*
X-0035923Y0015745D01*
X-0035940Y0015750D01*
X-0035954Y0015755D01*
X-0035964Y0015756D01*
X-0035967Y0015758D01*
X-0035994Y0015769D01*
X-0036019Y0015783D01*
X-0036042Y0015799D01*
X-0036066Y0015813D01*
X-0036085Y0015827D01*
X-0036099Y0015838D01*
X-0036108Y0015846D01*
X-0036110Y0015849D01*
X-0036112D01*
X-0036115Y0015829D01*
X-0036118Y0015810D01*
X-0036121Y0015792D01*
X-0036126Y0015778D01*
X-0036130Y0015766D01*
X-0036134Y0015758D01*
X-0036135Y0015752D01*
X-0036137Y0015750D01*
X-0036277D01*
X-0036269Y0015767D01*
X-0036261Y0015785D01*
X-0036255Y0015800D01*
X-0036252Y0015814D01*
X-0036247Y0015827D01*
X-0036245Y0015836D01*
X-0036244Y0015843D01*
Y0015844D01*
X-0036242Y0015855D01*
X-0036241Y0015869D01*
Y0015885D01*
X-0036239Y0015903D01*
X-0036237Y0015942D01*
Y0015981D01*
X-0036236Y0016019D01*
Y0016036D01*
Y0016050D01*
Y0016063D01*
Y0016072D01*
Y0016079D01*
Y0016080D01*
Y0016259D01*
Y0016289D01*
X-0036234Y0016316D01*
X-0036233Y0016336D01*
Y0016354D01*
X-0036231Y0016366D01*
X-0036229Y0016376D01*
X-0036228Y0016380D01*
Y0016382D01*
X-0036223Y0016402D01*
X-0036217Y0016420D01*
X-0036211Y0016434D01*
X-0036203Y0016448D01*
X-0036196Y0016458D01*
X-0036192Y0016465D01*
X-0036189Y0016470D01*
X-0036187Y0016472D01*
X-0036174Y0016484D01*
X-0036160Y0016497D01*
X-0036145Y0016506D01*
X-0036129Y0016516D01*
X-0036115Y0016522D01*
X-0036104Y0016527D01*
X-0036096Y0016530D01*
X-0036093Y0016531D01*
X-0036068Y0016539D01*
X-0036041Y0016546D01*
X-0036014Y0016550D01*
X-0035987Y0016553D01*
X-0035964Y0016555D01*
X-0035946Y0016557D01*
X-0035929D01*
X-0035891Y0016555D01*
D02*
G37*
G36*
X-0038331Y0017710D02*
X-0038309Y0017709D01*
X-0038266Y0017699D01*
X-0038228Y0017686D01*
X-0038212Y0017680D01*
X-0038197Y0017673D01*
X-0038183Y0017666D01*
X-0038172Y0017659D01*
X-0038161Y0017652D01*
X-0038152Y0017646D01*
X-0038145Y0017641D01*
X-0038140Y0017637D01*
X-0038137Y0017635D01*
X-0038136Y0017634D01*
X-0038116Y0017616D01*
X-0038101Y0017595D01*
X-0038086Y0017573D01*
X-0038075Y0017551D01*
X-0038063Y0017527D01*
X-0038055Y0017502D01*
X-0038048Y0017478D01*
X-0038043Y0017456D01*
X-0038037Y0017434D01*
X-0038034Y0017415D01*
X-0038032Y0017395D01*
X-0038030Y0017380D01*
Y0017366D01*
X-0038029Y0017356D01*
Y0017351D01*
Y0017348D01*
X-0038030Y0017316D01*
X-0038033Y0017286D01*
X-0038037Y0017258D01*
X-0038043Y0017232D01*
X-0038050Y0017208D01*
X-0038057Y0017186D01*
X-0038065Y0017165D01*
X-0038073Y0017147D01*
X-0038081Y0017130D01*
X-0038090Y0017116D01*
X-0038097Y0017105D01*
X-0038104Y0017096D01*
X-0038109Y0017087D01*
X-0038113Y0017082D01*
X-0038116Y0017079D01*
X-0038118Y0017078D01*
X-0038136Y0017061D01*
X-0038154Y0017047D01*
X-0038173Y0017035D01*
X-0038192Y0017024D01*
X-0038212Y0017015D01*
X-0038233Y0017007D01*
X-0038270Y0016996D01*
X-0038287Y0016993D01*
X-0038303Y0016990D01*
X-0038317Y0016988D01*
X-0038330Y0016986D01*
X-0038341Y0016985D01*
X-0038355D01*
X-0038388Y0016986D01*
X-0038418Y0016992D01*
X-0038448Y0016999D01*
X-0038471Y0017006D01*
X-0038492Y0017014D01*
X-0038500Y0017017D01*
X-0038507Y0017019D01*
X-0038514Y0017022D01*
X-0038518Y0017025D01*
X-0038520Y0017026D01*
X-0038521D01*
X-0038549Y0017044D01*
X-0038572Y0017064D01*
X-0038593Y0017083D01*
X-0038610Y0017103D01*
X-0038622Y0017119D01*
X-0038632Y0017133D01*
X-0038635Y0017139D01*
X-0038638Y0017143D01*
X-0038639Y0017144D01*
Y0017146D01*
X-0038653Y0017178D01*
X-0038663Y0017212D01*
X-0038671Y0017247D01*
X-0038675Y0017282D01*
X-0038678Y0017297D01*
Y0017311D01*
X-0038679Y0017325D01*
X-0038681Y0017336D01*
Y0017345D01*
Y0017352D01*
Y0017356D01*
Y0017358D01*
X-0038679Y0017388D01*
X-0038676Y0017416D01*
X-0038672Y0017442D01*
X-0038667Y0017467D01*
X-0038660Y0017491D01*
X-0038651Y0017512D01*
X-0038643Y0017533D01*
X-0038635Y0017549D01*
X-0038626Y0017564D01*
X-0038618Y0017578D01*
X-0038610Y0017591D01*
X-0038603Y0017601D01*
X-0038597Y0017607D01*
X-0038593Y0017613D01*
X-0038590Y0017616D01*
X-0038589Y0017617D01*
X-0038571Y0017634D01*
X-0038553Y0017648D01*
X-0038534Y0017662D01*
X-0038514Y0017671D01*
X-0038495Y0017681D01*
X-0038475Y0017688D01*
X-0038438Y0017700D01*
X-0038420Y0017703D01*
X-0038405Y0017706D01*
X-0038391Y0017709D01*
X-0038378Y0017710D01*
X-0038369Y0017711D01*
X-0038355D01*
X-0038331Y0017710D01*
D02*
G37*
G36*
X-0034302D02*
X-0034280Y0017709D01*
X-0034237Y0017699D01*
X-0034200Y0017686D01*
X-0034183Y0017680D01*
X-0034168Y0017673D01*
X-0034154Y0017666D01*
X-0034143Y0017659D01*
X-0034132Y0017652D01*
X-0034123Y0017646D01*
X-0034117Y0017641D01*
X-0034111Y0017637D01*
X-0034108Y0017635D01*
X-0034107Y0017634D01*
X-0034087Y0017616D01*
X-0034072Y0017595D01*
X-0034057Y0017573D01*
X-0034046Y0017551D01*
X-0034035Y0017527D01*
X-0034026Y0017502D01*
X-0034019Y0017478D01*
X-0034014Y0017456D01*
X-0034008Y0017434D01*
X-0034006Y0017415D01*
X-0034003Y0017395D01*
X-0034001Y0017380D01*
Y0017366D01*
X-0034000Y0017356D01*
Y0017351D01*
Y0017348D01*
X-0034001Y0017316D01*
X-0034004Y0017286D01*
X-0034008Y0017258D01*
X-0034014Y0017232D01*
X-0034021Y0017208D01*
X-0034028Y0017186D01*
X-0034036Y0017165D01*
X-0034044Y0017147D01*
X-0034053Y0017130D01*
X-0034061Y0017116D01*
X-0034068Y0017105D01*
X-0034075Y0017096D01*
X-0034080Y0017087D01*
X-0034085Y0017082D01*
X-0034087Y0017079D01*
X-0034089Y0017078D01*
X-0034107Y0017061D01*
X-0034125Y0017047D01*
X-0034144Y0017035D01*
X-0034164Y0017024D01*
X-0034183Y0017015D01*
X-0034204Y0017007D01*
X-0034241Y0016996D01*
X-0034258Y0016993D01*
X-0034275Y0016990D01*
X-0034288Y0016988D01*
X-0034301Y0016986D01*
X-0034312Y0016985D01*
X-0034326D01*
X-0034359Y0016986D01*
X-0034390Y0016992D01*
X-0034419Y0016999D01*
X-0034442Y0017006D01*
X-0034463Y0017014D01*
X-0034472Y0017017D01*
X-0034478Y0017019D01*
X-0034485Y0017022D01*
X-0034490Y0017025D01*
X-0034491Y0017026D01*
X-0034492D01*
X-0034520Y0017044D01*
X-0034544Y0017064D01*
X-0034564Y0017083D01*
X-0034581Y0017103D01*
X-0034594Y0017119D01*
X-0034603Y0017133D01*
X-0034606Y0017139D01*
X-0034609Y0017143D01*
X-0034610Y0017144D01*
Y0017146D01*
X-0034624Y0017178D01*
X-0034634Y0017212D01*
X-0034642Y0017247D01*
X-0034646Y0017282D01*
X-0034649Y0017297D01*
Y0017311D01*
X-0034650Y0017325D01*
X-0034652Y0017336D01*
Y0017345D01*
Y0017352D01*
Y0017356D01*
Y0017358D01*
X-0034650Y0017388D01*
X-0034648Y0017416D01*
X-0034643Y0017442D01*
X-0034638Y0017467D01*
X-0034631Y0017491D01*
X-0034623Y0017512D01*
X-0034614Y0017533D01*
X-0034606Y0017549D01*
X-0034598Y0017564D01*
X-0034589Y0017578D01*
X-0034581Y0017591D01*
X-0034574Y0017601D01*
X-0034569Y0017607D01*
X-0034564Y0017613D01*
X-0034562Y0017616D01*
X-0034560Y0017617D01*
X-0034542Y0017634D01*
X-0034524Y0017648D01*
X-0034505Y0017662D01*
X-0034485Y0017671D01*
X-0034466Y0017681D01*
X-0034447Y0017688D01*
X-0034409Y0017700D01*
X-0034391Y0017703D01*
X-0034376Y0017706D01*
X-0034362Y0017709D01*
X-0034349Y0017710D01*
X-0034340Y0017711D01*
X-0034326D01*
X-0034302Y0017710D01*
D02*
G37*
G36*
X-0037591Y0017709D02*
X-0037574Y0017707D01*
X-0037559Y0017705D01*
X-0037546Y0017702D01*
X-0037536Y0017699D01*
X-0037531Y0017698D01*
X-0037528Y0017696D01*
X-0037511Y0017691D01*
X-0037496Y0017685D01*
X-0037484Y0017680D01*
X-0037473Y0017674D01*
X-0037464Y0017670D01*
X-0037459Y0017666D01*
X-0037455Y0017664D01*
X-0037453Y0017663D01*
X-0037439Y0017653D01*
X-0037428Y0017642D01*
X-0037419Y0017630D01*
X-0037410Y0017620D01*
X-0037403Y0017610D01*
X-0037399Y0017603D01*
X-0037396Y0017598D01*
X-0037395Y0017596D01*
X-0037388Y0017581D01*
X-0037382Y0017567D01*
X-0037380Y0017552D01*
X-0037377Y0017539D01*
X-0037376Y0017527D01*
X-0037374Y0017519D01*
Y0017513D01*
Y0017510D01*
X-0037376Y0017491D01*
X-0037378Y0017474D01*
X-0037382Y0017458D01*
X-0037387Y0017444D01*
X-0037391Y0017433D01*
X-0037395Y0017423D01*
X-0037398Y0017417D01*
X-0037399Y0017416D01*
X-0037410Y0017401D01*
X-0037423Y0017388D01*
X-0037435Y0017377D01*
X-0037448Y0017368D01*
X-0037459Y0017361D01*
X-0037467Y0017355D01*
X-0037473Y0017352D01*
X-0037475Y0017351D01*
X-0037485Y0017347D01*
X-0037498Y0017341D01*
X-0037525Y0017331D01*
X-0037554Y0017323D01*
X-0037585Y0017313D01*
X-0037611Y0017306D01*
X-0037624Y0017302D01*
X-0037635Y0017300D01*
X-0037643Y0017297D01*
X-0037650Y0017295D01*
X-0037654Y0017294D01*
X-0037656D01*
X-0037674Y0017290D01*
X-0037689Y0017286D01*
X-0037703Y0017282D01*
X-0037715Y0017277D01*
X-0037726Y0017275D01*
X-0037736Y0017270D01*
X-0037753Y0017265D01*
X-0037764Y0017261D01*
X-0037771Y0017257D01*
X-0037775Y0017255D01*
X-0037776Y0017254D01*
X-0037789Y0017245D01*
X-0037797Y0017234D01*
X-0037804Y0017225D01*
X-0037808Y0017215D01*
X-0037811Y0017205D01*
X-0037812Y0017198D01*
Y0017193D01*
Y0017191D01*
X-0037811Y0017175D01*
X-0037807Y0017161D01*
X-0037800Y0017147D01*
X-0037793Y0017136D01*
X-0037785Y0017126D01*
X-0037779Y0017119D01*
X-0037774Y0017115D01*
X-0037772Y0017114D01*
X-0037756Y0017103D01*
X-0037738Y0017096D01*
X-0037717Y0017090D01*
X-0037697Y0017086D01*
X-0037679Y0017083D01*
X-0037665Y0017082D01*
X-0037652D01*
X-0037622Y0017083D01*
X-0037597Y0017087D01*
X-0037577Y0017093D01*
X-0037559Y0017100D01*
X-0037545Y0017107D01*
X-0037534Y0017112D01*
X-0037528Y0017116D01*
X-0037525Y0017118D01*
X-0037510Y0017133D01*
X-0037498Y0017151D01*
X-0037489Y0017169D01*
X-0037482Y0017186D01*
X-0037477Y0017201D01*
X-0037474Y0017215D01*
X-0037471Y0017223D01*
Y0017225D01*
Y0017226D01*
X-0037355Y0017208D01*
X-0037364Y0017169D01*
X-0037377Y0017135D01*
X-0037392Y0017107D01*
X-0037407Y0017083D01*
X-0037421Y0017064D01*
X-0037434Y0017051D01*
X-0037442Y0017043D01*
X-0037444Y0017042D01*
X-0037445Y0017040D01*
X-0037459Y0017031D01*
X-0037474Y0017022D01*
X-0037507Y0017008D01*
X-0037542Y0016999D01*
X-0037575Y0016992D01*
X-0037591Y0016989D01*
X-0037604Y0016988D01*
X-0037618Y0016986D01*
X-0037629D01*
X-0037639Y0016985D01*
X-0037652D01*
X-0037682Y0016986D01*
X-0037708Y0016989D01*
X-0037733Y0016993D01*
X-0037756Y0016999D01*
X-0037774Y0017004D01*
X-0037787Y0017008D01*
X-0037796Y0017011D01*
X-0037797Y0017012D01*
X-0037799D01*
X-0037822Y0017025D01*
X-0037842Y0017037D01*
X-0037858Y0017051D01*
X-0037873Y0017064D01*
X-0037885Y0017075D01*
X-0037891Y0017085D01*
X-0037897Y0017090D01*
X-0037898Y0017093D01*
X-0037910Y0017112D01*
X-0037918Y0017133D01*
X-0037925Y0017151D01*
X-0037929Y0017168D01*
X-0037932Y0017183D01*
X-0037933Y0017194D01*
Y0017201D01*
Y0017204D01*
X-0037932Y0017226D01*
X-0037929Y0017245D01*
X-0037923Y0017262D01*
X-0037919Y0017277D01*
X-0037914Y0017290D01*
X-0037908Y0017298D01*
X-0037905Y0017304D01*
X-0037904Y0017305D01*
X-0037893Y0017319D01*
X-0037880Y0017331D01*
X-0037868Y0017343D01*
X-0037855Y0017351D01*
X-0037843Y0017358D01*
X-0037835Y0017362D01*
X-0037829Y0017365D01*
X-0037826Y0017366D01*
X-0037817Y0017370D01*
X-0037805Y0017374D01*
X-0037779Y0017384D01*
X-0037750Y0017394D01*
X-0037721Y0017402D01*
X-0037695Y0017410D01*
X-0037682Y0017413D01*
X-0037672Y0017416D01*
X-0037664Y0017419D01*
X-0037657Y0017420D01*
X-0037653Y0017422D01*
X-0037652D01*
X-0037636Y0017426D01*
X-0037622Y0017430D01*
X-0037610Y0017433D01*
X-0037599Y0017437D01*
X-0037581Y0017441D01*
X-0037567Y0017445D01*
X-0037557Y0017449D01*
X-0037552Y0017451D01*
X-0037549Y0017452D01*
X-0037548D01*
X-0037536Y0017458D01*
X-0037527Y0017462D01*
X-0037518Y0017467D01*
X-0037513Y0017472D01*
X-0037507Y0017476D01*
X-0037505Y0017480D01*
X-0037503Y0017481D01*
X-0037502Y0017483D01*
X-0037493Y0017496D01*
X-0037489Y0017510D01*
Y0017516D01*
X-0037488Y0017520D01*
Y0017523D01*
Y0017524D01*
X-0037489Y0017537D01*
X-0037493Y0017549D01*
X-0037499Y0017560D01*
X-0037506Y0017569D01*
X-0037511Y0017577D01*
X-0037517Y0017582D01*
X-0037521Y0017585D01*
X-0037523Y0017587D01*
X-0037538Y0017596D01*
X-0037556Y0017603D01*
X-0037575Y0017607D01*
X-0037593Y0017612D01*
X-0037611Y0017613D01*
X-0037625Y0017614D01*
X-0037639D01*
X-0037663Y0017613D01*
X-0037685Y0017610D01*
X-0037703Y0017605D01*
X-0037717Y0017599D01*
X-0037729Y0017594D01*
X-0037738Y0017588D01*
X-0037743Y0017585D01*
X-0037744Y0017584D01*
X-0037758Y0017571D01*
X-0037768Y0017558D01*
X-0037776Y0017544D01*
X-0037783Y0017531D01*
X-0037787Y0017519D01*
X-0037790Y0017509D01*
X-0037792Y0017503D01*
Y0017501D01*
X-0037907Y0017516D01*
X-0037901Y0017539D01*
X-0037896Y0017560D01*
X-0037889Y0017578D01*
X-0037882Y0017595D01*
X-0037875Y0017606D01*
X-0037869Y0017616D01*
X-0037867Y0017621D01*
X-0037865Y0017623D01*
X-0037853Y0017637D01*
X-0037839Y0017649D01*
X-0037824Y0017660D01*
X-0037808Y0017670D01*
X-0037794Y0017677D01*
X-0037783Y0017682D01*
X-0037776Y0017685D01*
X-0037775Y0017686D01*
X-0037774D01*
X-0037750Y0017695D01*
X-0037725Y0017700D01*
X-0037701Y0017706D01*
X-0037679Y0017709D01*
X-0037658Y0017710D01*
X-0037643Y0017711D01*
X-0037610D01*
X-0037591Y0017709D01*
D02*
G37*
G36*
X-0039187Y0016555D02*
X-0039154Y0016552D01*
X-0039122Y0016547D01*
X-0039097Y0016542D01*
X-0039075Y0016538D01*
X-0039060Y0016533D01*
X-0039053Y0016531D01*
X-0039049Y0016530D01*
X-0039047Y0016528D01*
X-0039045D01*
X-0039019Y0016517D01*
X-0038995Y0016503D01*
X-0038975Y0016491D01*
X-0038957Y0016478D01*
X-0038945Y0016465D01*
X-0038935Y0016456D01*
X-0038929Y0016450D01*
X-0038927Y0016448D01*
X-0038913Y0016428D01*
X-0038901Y0016406D01*
X-0038891Y0016384D01*
X-0038883Y0016363D01*
X-0038877Y0016343D01*
X-0038872Y0016329D01*
X-0038871Y0016322D01*
Y0016318D01*
X-0038869Y0016316D01*
Y0016314D01*
X-0039000Y0016297D01*
X-0039009Y0016325D01*
X-0039019Y0016351D01*
X-0039030Y0016371D01*
X-0039039Y0016387D01*
X-0039049Y0016399D01*
X-0039056Y0016407D01*
X-0039063Y0016412D01*
X-0039064Y0016413D01*
X-0039083Y0016424D01*
X-0039105Y0016432D01*
X-0039129Y0016439D01*
X-0039151Y0016442D01*
X-0039173Y0016445D01*
X-0039188Y0016447D01*
X-0039204D01*
X-0039240Y0016445D01*
X-0039272Y0016440D01*
X-0039297Y0016432D01*
X-0039319Y0016424D01*
X-0039335Y0016415D01*
X-0039347Y0016409D01*
X-0039355Y0016402D01*
X-0039357Y0016401D01*
X-0039369Y0016387D01*
X-0039379Y0016369D01*
X-0039387Y0016351D01*
X-0039391Y0016332D01*
X-0039394Y0016314D01*
X-0039396Y0016299D01*
Y0016289D01*
Y0016288D01*
Y0016286D01*
Y0016283D01*
Y0016277D01*
Y0016266D01*
X-0039394Y0016256D01*
Y0016253D01*
Y0016252D01*
X-0039379Y0016247D01*
X-0039361Y0016242D01*
X-0039325Y0016233D01*
X-0039284Y0016225D01*
X-0039247Y0016217D01*
X-0039228Y0016214D01*
X-0039210Y0016212D01*
X-0039195Y0016209D01*
X-0039182Y0016208D01*
X-0039171Y0016206D01*
X-0039163D01*
X-0039157Y0016204D01*
X-0039155D01*
X-0039127Y0016201D01*
X-0039104Y0016197D01*
X-0039083Y0016193D01*
X-0039067Y0016190D01*
X-0039055Y0016189D01*
X-0039045Y0016186D01*
X-0039039Y0016184D01*
X-0039038D01*
X-0039017Y0016178D01*
X-0039000Y0016171D01*
X-0038983Y0016163D01*
X-0038968Y0016157D01*
X-0038956Y0016151D01*
X-0038948Y0016145D01*
X-0038942Y0016141D01*
X-0038940Y0016140D01*
X-0038924Y0016129D01*
X-0038912Y0016116D01*
X-0038899Y0016104D01*
X-0038890Y0016091D01*
X-0038882Y0016080D01*
X-0038876Y0016071D01*
X-0038872Y0016064D01*
X-0038871Y0016063D01*
X-0038863Y0016046D01*
X-0038857Y0016027D01*
X-0038852Y0016009D01*
X-0038849Y0015992D01*
X-0038847Y0015978D01*
X-0038846Y0015967D01*
Y0015961D01*
Y0015958D01*
X-0038847Y0015939D01*
X-0038849Y0015923D01*
X-0038857Y0015890D01*
X-0038868Y0015863D01*
X-0038880Y0015840D01*
X-0038893Y0015821D01*
X-0038904Y0015807D01*
X-0038912Y0015799D01*
X-0038915Y0015796D01*
X-0038943Y0015775D01*
X-0038975Y0015759D01*
X-0039009Y0015748D01*
X-0039041Y0015741D01*
X-0039069Y0015736D01*
X-0039082Y0015734D01*
X-0039093D01*
X-0039102Y0015733D01*
X-0039115D01*
X-0039143Y0015734D01*
X-0039171Y0015737D01*
X-0039196Y0015741D01*
X-0039218Y0015745D01*
X-0039236Y0015750D01*
X-0039250Y0015755D01*
X-0039259Y0015756D01*
X-0039262Y0015758D01*
X-0039289Y0015769D01*
X-0039314Y0015783D01*
X-0039338Y0015799D01*
X-0039361Y0015813D01*
X-0039380Y0015827D01*
X-0039394Y0015838D01*
X-0039404Y0015846D01*
X-0039405Y0015849D01*
X-0039407D01*
X-0039410Y0015829D01*
X-0039413Y0015810D01*
X-0039416Y0015792D01*
X-0039421Y0015778D01*
X-0039426Y0015766D01*
X-0039429Y0015758D01*
X-0039431Y0015752D01*
X-0039432Y0015750D01*
X-0039572D01*
X-0039564Y0015767D01*
X-0039556Y0015785D01*
X-0039550Y0015800D01*
X-0039547Y0015814D01*
X-0039542Y0015827D01*
X-0039541Y0015836D01*
X-0039539Y0015843D01*
Y0015844D01*
X-0039538Y0015855D01*
X-0039536Y0015869D01*
Y0015885D01*
X-0039534Y0015903D01*
X-0039533Y0015942D01*
Y0015981D01*
X-0039531Y0016019D01*
Y0016036D01*
Y0016050D01*
Y0016063D01*
Y0016072D01*
Y0016079D01*
Y0016080D01*
Y0016259D01*
Y0016289D01*
X-0039530Y0016316D01*
X-0039528Y0016336D01*
Y0016354D01*
X-0039527Y0016366D01*
X-0039525Y0016376D01*
X-0039523Y0016380D01*
Y0016382D01*
X-0039519Y0016402D01*
X-0039512Y0016420D01*
X-0039506Y0016434D01*
X-0039498Y0016448D01*
X-0039492Y0016458D01*
X-0039487Y0016465D01*
X-0039484Y0016470D01*
X-0039482Y0016472D01*
X-0039470Y0016484D01*
X-0039456Y0016497D01*
X-0039440Y0016506D01*
X-0039424Y0016516D01*
X-0039410Y0016522D01*
X-0039399Y0016527D01*
X-0039391Y0016530D01*
X-0039388Y0016531D01*
X-0039363Y0016539D01*
X-0039336Y0016546D01*
X-0039310Y0016550D01*
X-0039283Y0016553D01*
X-0039259Y0016555D01*
X-0039242Y0016557D01*
X-0039225D01*
X-0039187Y0016555D01*
D02*
G37*
G36*
X-0040009D02*
X-0039993Y0016552D01*
X-0039978Y0016547D01*
X-0039965Y0016542D01*
X-0039956Y0016538D01*
X-0039946Y0016533D01*
X-0039942Y0016530D01*
X-0039940Y0016528D01*
X-0039926Y0016516D01*
X-0039912Y0016500D01*
X-0039898Y0016481D01*
X-0039885Y0016464D01*
X-0039872Y0016447D01*
X-0039865Y0016432D01*
X-0039858Y0016421D01*
X-0039857Y0016420D01*
Y0016539D01*
X-0039736D01*
Y0015750D01*
X-0039869D01*
Y0016162D01*
X-0039871Y0016193D01*
X-0039872Y0016222D01*
X-0039876Y0016248D01*
X-0039880Y0016272D01*
X-0039885Y0016291D01*
X-0039888Y0016305D01*
X-0039890Y0016314D01*
X-0039891Y0016318D01*
X-0039898Y0016335D01*
X-0039905Y0016349D01*
X-0039913Y0016362D01*
X-0039921Y0016373D01*
X-0039929Y0016380D01*
X-0039934Y0016387D01*
X-0039938Y0016390D01*
X-0039940Y0016391D01*
X-0039953Y0016401D01*
X-0039967Y0016407D01*
X-0039981Y0016412D01*
X-0039992Y0016415D01*
X-0040003Y0016417D01*
X-0040011Y0016418D01*
X-0040019D01*
X-0040036Y0016417D01*
X-0040053Y0016413D01*
X-0040071Y0016409D01*
X-0040085Y0016404D01*
X-0040097Y0016399D01*
X-0040107Y0016395D01*
X-0040113Y0016391D01*
X-0040115Y0016390D01*
X-0040163Y0016513D01*
X-0040137Y0016527D01*
X-0040111Y0016538D01*
X-0040089Y0016546D01*
X-0040069Y0016552D01*
X-0040052Y0016555D01*
X-0040038Y0016557D01*
X-0040027D01*
X-0040009Y0016555D01*
D02*
G37*
G36*
X-0037448Y0016448D02*
X-0037434Y0016465D01*
X-0037418Y0016480D01*
X-0037404Y0016494D01*
X-0037388Y0016505D01*
X-0037376Y0016513D01*
X-0037366Y0016520D01*
X-0037360Y0016524D01*
X-0037357Y0016525D01*
X-0037336Y0016536D01*
X-0037314Y0016544D01*
X-0037292Y0016549D01*
X-0037272Y0016553D01*
X-0037255Y0016555D01*
X-0037242Y0016557D01*
X-0037229D01*
X-0037195Y0016555D01*
X-0037162Y0016549D01*
X-0037132Y0016541D01*
X-0037107Y0016531D01*
X-0037085Y0016520D01*
X-0037069Y0016513D01*
X-0037063Y0016509D01*
X-0037058Y0016506D01*
X-0037056Y0016505D01*
X-0037055D01*
X-0037027Y0016484D01*
X-0037003Y0016459D01*
X-0036983Y0016435D01*
X-0036967Y0016412D01*
X-0036954Y0016390D01*
X-0036945Y0016373D01*
X-0036942Y0016366D01*
X-0036939Y0016362D01*
X-0036937Y0016358D01*
Y0016357D01*
X-0036924Y0016321D01*
X-0036915Y0016283D01*
X-0036907Y0016247D01*
X-0036902Y0016214D01*
X-0036899Y0016186D01*
Y0016173D01*
X-0036898Y0016163D01*
Y0016154D01*
Y0016148D01*
Y0016145D01*
Y0016143D01*
X-0036899Y0016099D01*
X-0036904Y0016058D01*
X-0036912Y0016022D01*
X-0036920Y0015991D01*
X-0036923Y0015976D01*
X-0036926Y0015965D01*
X-0036931Y0015954D01*
X-0036934Y0015945D01*
X-0036937Y0015939D01*
X-0036939Y0015934D01*
X-0036940Y0015931D01*
Y0015929D01*
X-0036957Y0015896D01*
X-0036978Y0015868D01*
X-0036998Y0015843D01*
X-0037019Y0015822D01*
X-0037036Y0015807D01*
X-0037050Y0015794D01*
X-0037060Y0015788D01*
X-0037061Y0015785D01*
X-0037063D01*
X-0037093Y0015767D01*
X-0037123Y0015755D01*
X-0037152Y0015745D01*
X-0037179Y0015739D01*
X-0037201Y0015736D01*
X-0037220Y0015734D01*
X-0037226Y0015733D01*
X-0037236D01*
X-0037262Y0015734D01*
X-0037288Y0015737D01*
X-0037311Y0015744D01*
X-0037332Y0015752D01*
X-0037352Y0015759D01*
X-0037371Y0015769D01*
X-0037387Y0015780D01*
X-0037401Y0015791D01*
X-0037415Y0015802D01*
X-0037426Y0015813D01*
X-0037435Y0015822D01*
X-0037443Y0015830D01*
X-0037450Y0015838D01*
X-0037454Y0015844D01*
X-0037456Y0015847D01*
X-0037457Y0015849D01*
Y0015750D01*
X-0037582D01*
Y0016838D01*
X-0037448D01*
Y0016448D01*
D02*
G37*
G36*
X-0036714Y0016555D02*
X-0036698Y0016552D01*
X-0036682Y0016547D01*
X-0036670Y0016542D01*
X-0036660Y0016538D01*
X-0036651Y0016533D01*
X-0036646Y0016530D01*
X-0036645Y0016528D01*
X-0036630Y0016516D01*
X-0036616Y0016500D01*
X-0036602Y0016481D01*
X-0036590Y0016464D01*
X-0036577Y0016447D01*
X-0036569Y0016432D01*
X-0036563Y0016421D01*
X-0036561Y0016420D01*
Y0016539D01*
X-0036440D01*
Y0015750D01*
X-0036574D01*
Y0016162D01*
X-0036575Y0016193D01*
X-0036577Y0016222D01*
X-0036580Y0016248D01*
X-0036585Y0016272D01*
X-0036590Y0016291D01*
X-0036593Y0016305D01*
X-0036594Y0016314D01*
X-0036596Y0016318D01*
X-0036602Y0016335D01*
X-0036610Y0016349D01*
X-0036618Y0016362D01*
X-0036626Y0016373D01*
X-0036634Y0016380D01*
X-0036638Y0016387D01*
X-0036643Y0016390D01*
X-0036645Y0016391D01*
X-0036657Y0016401D01*
X-0036671Y0016407D01*
X-0036685Y0016412D01*
X-0036696Y0016415D01*
X-0036707Y0016417D01*
X-0036715Y0016418D01*
X-0036723D01*
X-0036740Y0016417D01*
X-0036758Y0016413D01*
X-0036775Y0016409D01*
X-0036789Y0016404D01*
X-0036802Y0016399D01*
X-0036811Y0016395D01*
X-0036818Y0016391D01*
X-0036819Y0016390D01*
X-0036868Y0016513D01*
X-0036841Y0016527D01*
X-0036816Y0016538D01*
X-0036794Y0016546D01*
X-0036773Y0016552D01*
X-0036756Y0016555D01*
X-0036742Y0016557D01*
X-0036731D01*
X-0036714Y0016555D01*
D02*
G37*
G36*
X-0037935Y0015750D02*
X-0038077D01*
X-0038236Y0016357D01*
X-0038267Y0016222D01*
X-0038393Y0015750D01*
X-0038530D01*
X-0038778Y0016539D01*
X-0038648D01*
X-0038512Y0016082D01*
X-0038467Y0015929D01*
X-0038428Y0016080D01*
X-0038310Y0016539D01*
X-0038173D01*
X-0038047Y0016075D01*
X-0038041Y0016049D01*
X-0038034Y0016025D01*
X-0038030Y0016005D01*
X-0038025Y0015987D01*
X-0038020Y0015972D01*
X-0038017Y0015959D01*
X-0038014Y0015948D01*
X-0038012Y0015939D01*
X-0038011Y0015931D01*
X-0038009Y0015926D01*
X-0038008Y0015918D01*
X-0038006Y0015915D01*
Y0015914D01*
X-0037962Y0016083D01*
X-0037836Y0016539D01*
X-0037696D01*
X-0037935Y0015750D01*
D02*
G37*
G36*
X-0040536Y0016555D02*
X-0040508Y0016552D01*
X-0040481Y0016547D01*
X-0040456Y0016539D01*
X-0040432Y0016531D01*
X-0040410Y0016522D01*
X-0040390Y0016513D01*
X-0040372Y0016502D01*
X-0040355Y0016492D01*
X-0040341Y0016481D01*
X-0040328Y0016472D01*
X-0040319Y0016464D01*
X-0040311Y0016456D01*
X-0040305Y0016451D01*
X-0040302Y0016448D01*
X-0040300Y0016447D01*
X-0040283Y0016424D01*
X-0040267Y0016401D01*
X-0040253Y0016377D01*
X-0040240Y0016352D01*
X-0040231Y0016325D01*
X-0040223Y0016300D01*
X-0040210Y0016250D01*
X-0040206Y0016228D01*
X-0040203Y0016206D01*
X-0040201Y0016187D01*
X-0040199Y0016170D01*
X-0040198Y0016156D01*
Y0016146D01*
Y0016138D01*
Y0016137D01*
X-0040199Y0016102D01*
X-0040203Y0016069D01*
X-0040207Y0016038D01*
X-0040214Y0016009D01*
X-0040221Y0015983D01*
X-0040229Y0015958D01*
X-0040239Y0015936D01*
X-0040248Y0015915D01*
X-0040258Y0015898D01*
X-0040267Y0015882D01*
X-0040275Y0015869D01*
X-0040283Y0015858D01*
X-0040289Y0015849D01*
X-0040294Y0015843D01*
X-0040297Y0015840D01*
X-0040299Y0015838D01*
X-0040319Y0015819D01*
X-0040339Y0015803D01*
X-0040361Y0015789D01*
X-0040385Y0015777D01*
X-0040407Y0015767D01*
X-0040431Y0015758D01*
X-0040475Y0015745D01*
X-0040495Y0015742D01*
X-0040514Y0015739D01*
X-0040531Y0015736D01*
X-0040545Y0015734D01*
X-0040556Y0015733D01*
X-0040574D01*
X-0040622Y0015736D01*
X-0040666Y0015744D01*
X-0040706Y0015753D01*
X-0040721Y0015759D01*
X-0040737Y0015766D01*
X-0040751Y0015772D01*
X-0040764Y0015778D01*
X-0040773Y0015783D01*
X-0040783Y0015788D01*
X-0040789Y0015792D01*
X-0040794Y0015796D01*
X-0040797Y0015799D01*
X-0040798D01*
X-0040830Y0015827D01*
X-0040855Y0015857D01*
X-0040877Y0015888D01*
X-0040893Y0015918D01*
X-0040905Y0015945D01*
X-0040910Y0015958D01*
X-0040915Y0015967D01*
X-0040918Y0015976D01*
X-0040920Y0015983D01*
X-0040921Y0015986D01*
Y0015987D01*
X-0040783Y0016005D01*
X-0040770Y0015975D01*
X-0040756Y0015950D01*
X-0040742Y0015928D01*
X-0040729Y0015910D01*
X-0040718Y0015898D01*
X-0040709Y0015888D01*
X-0040701Y0015882D01*
X-0040699Y0015880D01*
X-0040679Y0015868D01*
X-0040659Y0015858D01*
X-0040637Y0015852D01*
X-0040618Y0015847D01*
X-0040600Y0015844D01*
X-0040586Y0015843D01*
X-0040574D01*
X-0040555Y0015844D01*
X-0040537Y0015846D01*
X-0040506Y0015854D01*
X-0040478Y0015865D01*
X-0040453Y0015877D01*
X-0040434Y0015888D01*
X-0040420Y0015899D01*
X-0040410Y0015907D01*
X-0040409Y0015910D01*
X-0040407D01*
X-0040385Y0015939D01*
X-0040368Y0015970D01*
X-0040355Y0016005D01*
X-0040346Y0016036D01*
X-0040341Y0016064D01*
X-0040338Y0016077D01*
X-0040336Y0016088D01*
Y0016097D01*
X-0040335Y0016104D01*
Y0016108D01*
Y0016110D01*
X-0040924D01*
X-0040926Y0016126D01*
Y0016137D01*
Y0016143D01*
Y0016145D01*
X-0040924Y0016181D01*
X-0040921Y0016214D01*
X-0040916Y0016245D01*
X-0040910Y0016275D01*
X-0040902Y0016302D01*
X-0040894Y0016327D01*
X-0040885Y0016349D01*
X-0040876Y0016369D01*
X-0040866Y0016388D01*
X-0040857Y0016404D01*
X-0040849Y0016417D01*
X-0040841Y0016428D01*
X-0040835Y0016437D01*
X-0040830Y0016443D01*
X-0040827Y0016447D01*
X-0040825Y0016448D01*
X-0040806Y0016467D01*
X-0040786Y0016484D01*
X-0040764Y0016498D01*
X-0040742Y0016511D01*
X-0040720Y0016522D01*
X-0040699Y0016530D01*
X-0040677Y0016538D01*
X-0040659Y0016542D01*
X-0040638Y0016547D01*
X-0040621Y0016550D01*
X-0040605Y0016553D01*
X-0040593Y0016555D01*
X-0040582Y0016557D01*
X-0040566D01*
X-0040536Y0016555D01*
D02*
G37*
G36*
X-0040260Y0017710D02*
X-0040230Y0017705D01*
X-0040201Y0017698D01*
X-0040177Y0017691D01*
X-0040156Y0017682D01*
X-0040148Y0017678D01*
X-0040141Y0017675D01*
X-0040135Y0017673D01*
X-0040131Y0017670D01*
X-0040128Y0017668D01*
X-0040127D01*
X-0040101Y0017652D01*
X-0040077Y0017631D01*
X-0040058Y0017610D01*
X-0040041Y0017589D01*
X-0040029Y0017571D01*
X-0040020Y0017556D01*
X-0040018Y0017551D01*
X-0040015Y0017546D01*
X-0040013Y0017544D01*
Y0017542D01*
X-0040001Y0017509D01*
X-0039993Y0017476D01*
X-0039986Y0017442D01*
X-0039981Y0017412D01*
X-0039980Y0017398D01*
X-0039979Y0017386D01*
Y0017374D01*
X-0039977Y0017365D01*
Y0017356D01*
Y0017351D01*
Y0017347D01*
Y0017345D01*
X-0039979Y0017313D01*
X-0039981Y0017284D01*
X-0039986Y0017255D01*
X-0039991Y0017230D01*
X-0039997Y0017205D01*
X-0040005Y0017184D01*
X-0040012Y0017164D01*
X-0040020Y0017146D01*
X-0040029Y0017130D01*
X-0040036Y0017116D01*
X-0040044Y0017104D01*
X-0040049Y0017094D01*
X-0040055Y0017087D01*
X-0040059Y0017082D01*
X-0040062Y0017079D01*
X-0040063Y0017078D01*
X-0040080Y0017061D01*
X-0040098Y0017047D01*
X-0040116Y0017035D01*
X-0040135Y0017024D01*
X-0040155Y0017015D01*
X-0040173Y0017007D01*
X-0040210Y0016996D01*
X-0040227Y0016993D01*
X-0040242Y0016990D01*
X-0040256Y0016988D01*
X-0040269Y0016986D01*
X-0040278Y0016985D01*
X-0040292D01*
X-0040313Y0016986D01*
X-0040334Y0016988D01*
X-0040370Y0016996D01*
X-0040403Y0017006D01*
X-0040431Y0017018D01*
X-0040442Y0017025D01*
X-0040453Y0017031D01*
X-0040463Y0017036D01*
X-0040470Y0017042D01*
X-0040475Y0017046D01*
X-0040479Y0017049D01*
X-0040482Y0017050D01*
X-0040483Y0017051D01*
X-0040497Y0017065D01*
X-0040510Y0017079D01*
X-0040532Y0017110D01*
X-0040550Y0017141D01*
X-0040563Y0017171D01*
X-0040572Y0017198D01*
X-0040575Y0017209D01*
X-0040578Y0017221D01*
X-0040579Y0017229D01*
X-0040581Y0017234D01*
X-0040582Y0017239D01*
Y0017240D01*
X-0040465Y0017255D01*
X-0040460Y0017225D01*
X-0040452Y0017197D01*
X-0040440Y0017175D01*
X-0040431Y0017157D01*
X-0040421Y0017141D01*
X-0040413Y0017132D01*
X-0040409Y0017125D01*
X-0040406Y0017123D01*
X-0040388Y0017110D01*
X-0040368Y0017100D01*
X-0040349Y0017092D01*
X-0040331Y0017087D01*
X-0040316Y0017085D01*
X-0040302Y0017083D01*
X-0040293Y0017082D01*
X-0040291D01*
X-0040275Y0017083D01*
X-0040260Y0017085D01*
X-0040232Y0017092D01*
X-0040209Y0017101D01*
X-0040188Y0017114D01*
X-0040173Y0017125D01*
X-0040160Y0017135D01*
X-0040153Y0017141D01*
X-0040151Y0017144D01*
X-0040141Y0017157D01*
X-0040133Y0017172D01*
X-0040120Y0017202D01*
X-0040110Y0017237D01*
X-0040105Y0017270D01*
X-0040101Y0017301D01*
X-0040099Y0017313D01*
Y0017326D01*
X-0040098Y0017334D01*
Y0017343D01*
Y0017347D01*
Y0017348D01*
Y0017373D01*
X-0040101Y0017397D01*
X-0040103Y0017419D01*
X-0040106Y0017438D01*
X-0040110Y0017456D01*
X-0040116Y0017473D01*
X-0040120Y0017488D01*
X-0040126Y0017502D01*
X-0040131Y0017513D01*
X-0040135Y0017523D01*
X-0040141Y0017531D01*
X-0040145Y0017538D01*
X-0040148Y0017544D01*
X-0040151Y0017548D01*
X-0040153Y0017549D01*
Y0017551D01*
X-0040165Y0017562D01*
X-0040176Y0017571D01*
X-0040199Y0017588D01*
X-0040224Y0017599D01*
X-0040246Y0017606D01*
X-0040267Y0017612D01*
X-0040282Y0017613D01*
X-0040289Y0017614D01*
X-0040298D01*
X-0040318Y0017613D01*
X-0040338Y0017609D01*
X-0040354Y0017603D01*
X-0040370Y0017596D01*
X-0040381Y0017589D01*
X-0040391Y0017584D01*
X-0040396Y0017580D01*
X-0040397Y0017578D01*
X-0040411Y0017564D01*
X-0040424Y0017548D01*
X-0040435Y0017530D01*
X-0040442Y0017513D01*
X-0040449Y0017498D01*
X-0040453Y0017485D01*
X-0040454Y0017477D01*
X-0040456Y0017476D01*
Y0017474D01*
X-0040571Y0017492D01*
X-0040561Y0017530D01*
X-0040547Y0017562D01*
X-0040532Y0017589D01*
X-0040517Y0017612D01*
X-0040502Y0017630D01*
X-0040489Y0017642D01*
X-0040481Y0017650D01*
X-0040479Y0017653D01*
X-0040478D01*
X-0040449Y0017673D01*
X-0040418Y0017686D01*
X-0040388Y0017698D01*
X-0040359Y0017705D01*
X-0040332Y0017709D01*
X-0040321Y0017710D01*
X-0040313D01*
X-0040305Y0017711D01*
X-0040293D01*
X-0040260Y0017710D01*
D02*
G37*
G36*
X-0035795D02*
X-0035770Y0017707D01*
X-0035746Y0017703D01*
X-0035724Y0017696D01*
X-0035703Y0017689D01*
X-0035684Y0017681D01*
X-0035666Y0017673D01*
X-0035650Y0017663D01*
X-0035635Y0017655D01*
X-0035623Y0017645D01*
X-0035612Y0017637D01*
X-0035603Y0017630D01*
X-0035596Y0017623D01*
X-0035591Y0017619D01*
X-0035588Y0017616D01*
X-0035587Y0017614D01*
X-0035571Y0017595D01*
X-0035557Y0017574D01*
X-0035545Y0017553D01*
X-0035534Y0017531D01*
X-0035526Y0017508D01*
X-0035519Y0017485D01*
X-0035507Y0017441D01*
X-0035503Y0017422D01*
X-0035501Y0017402D01*
X-0035499Y0017386D01*
X-0035498Y0017370D01*
X-0035496Y0017358D01*
Y0017349D01*
Y0017343D01*
Y0017341D01*
X-0035498Y0017311D01*
X-0035501Y0017282D01*
X-0035505Y0017254D01*
X-0035510Y0017229D01*
X-0035517Y0017205D01*
X-0035524Y0017183D01*
X-0035532Y0017164D01*
X-0035541Y0017146D01*
X-0035549Y0017130D01*
X-0035557Y0017116D01*
X-0035564Y0017105D01*
X-0035571Y0017096D01*
X-0035577Y0017087D01*
X-0035581Y0017082D01*
X-0035584Y0017079D01*
X-0035585Y0017078D01*
X-0035603Y0017061D01*
X-0035621Y0017047D01*
X-0035641Y0017035D01*
X-0035661Y0017024D01*
X-0035681Y0017015D01*
X-0035702Y0017007D01*
X-0035740Y0016996D01*
X-0035759Y0016993D01*
X-0035775Y0016990D01*
X-0035790Y0016988D01*
X-0035803Y0016986D01*
X-0035813Y0016985D01*
X-0035828D01*
X-0035871Y0016988D01*
X-0035910Y0016994D01*
X-0035944Y0017003D01*
X-0035958Y0017008D01*
X-0035972Y0017014D01*
X-0035985Y0017019D01*
X-0035996Y0017025D01*
X-0036004Y0017029D01*
X-0036012Y0017033D01*
X-0036018Y0017037D01*
X-0036022Y0017040D01*
X-0036025Y0017043D01*
X-0036026D01*
X-0036054Y0017068D01*
X-0036076Y0017094D01*
X-0036096Y0017122D01*
X-0036109Y0017148D01*
X-0036120Y0017172D01*
X-0036125Y0017183D01*
X-0036129Y0017191D01*
X-0036132Y0017200D01*
X-0036133Y0017205D01*
X-0036134Y0017208D01*
Y0017209D01*
X-0036012Y0017225D01*
X-0036001Y0017198D01*
X-0035989Y0017176D01*
X-0035976Y0017157D01*
X-0035965Y0017141D01*
X-0035955Y0017130D01*
X-0035947Y0017122D01*
X-0035940Y0017116D01*
X-0035939Y0017115D01*
X-0035921Y0017104D01*
X-0035903Y0017096D01*
X-0035883Y0017090D01*
X-0035867Y0017086D01*
X-0035851Y0017083D01*
X-0035839Y0017082D01*
X-0035828D01*
X-0035811Y0017083D01*
X-0035796Y0017085D01*
X-0035768Y0017092D01*
X-0035743Y0017101D01*
X-0035721Y0017112D01*
X-0035704Y0017122D01*
X-0035692Y0017132D01*
X-0035684Y0017139D01*
X-0035682Y0017141D01*
X-0035681D01*
X-0035661Y0017166D01*
X-0035646Y0017194D01*
X-0035635Y0017225D01*
X-0035627Y0017252D01*
X-0035623Y0017277D01*
X-0035620Y0017288D01*
X-0035618Y0017298D01*
Y0017306D01*
X-0035617Y0017312D01*
Y0017316D01*
Y0017318D01*
X-0036137D01*
X-0036139Y0017331D01*
Y0017341D01*
Y0017347D01*
Y0017348D01*
X-0036137Y0017380D01*
X-0036134Y0017409D01*
X-0036130Y0017437D01*
X-0036125Y0017463D01*
X-0036118Y0017487D01*
X-0036111Y0017509D01*
X-0036102Y0017528D01*
X-0036094Y0017546D01*
X-0036086Y0017563D01*
X-0036077Y0017577D01*
X-0036071Y0017588D01*
X-0036064Y0017598D01*
X-0036058Y0017606D01*
X-0036054Y0017612D01*
X-0036051Y0017614D01*
X-0036050Y0017616D01*
X-0036033Y0017632D01*
X-0036015Y0017648D01*
X-0035996Y0017660D01*
X-0035976Y0017671D01*
X-0035957Y0017681D01*
X-0035939Y0017688D01*
X-0035919Y0017695D01*
X-0035903Y0017699D01*
X-0035885Y0017703D01*
X-0035869Y0017706D01*
X-0035856Y0017709D01*
X-0035845Y0017710D01*
X-0035835Y0017711D01*
X-0035821D01*
X-0035795Y0017710D01*
D02*
G37*
G36*
X-0038817Y0017265D02*
Y0017239D01*
X-0038818Y0017215D01*
X-0038819Y0017197D01*
X-0038821Y0017180D01*
Y0017169D01*
X-0038822Y0017161D01*
X-0038823Y0017155D01*
Y0017154D01*
X-0038828Y0017136D01*
X-0038833Y0017119D01*
X-0038839Y0017104D01*
X-0038846Y0017092D01*
X-0038851Y0017080D01*
X-0038855Y0017073D01*
X-0038858Y0017068D01*
X-0038859Y0017067D01*
X-0038871Y0017054D01*
X-0038883Y0017043D01*
X-0038896Y0017033D01*
X-0038909Y0017025D01*
X-0038921Y0017018D01*
X-0038930Y0017012D01*
X-0038936Y0017010D01*
X-0038939Y0017008D01*
X-0038959Y0017000D01*
X-0038979Y0016994D01*
X-0038998Y0016990D01*
X-0039016Y0016988D01*
X-0039031Y0016986D01*
X-0039044Y0016985D01*
X-0039054D01*
X-0039079Y0016986D01*
X-0039104Y0016990D01*
X-0039126Y0016996D01*
X-0039148Y0017003D01*
X-0039167Y0017012D01*
X-0039185Y0017022D01*
X-0039202Y0017032D01*
X-0039217Y0017043D01*
X-0039231Y0017054D01*
X-0039242Y0017064D01*
X-0039252Y0017075D01*
X-0039260Y0017083D01*
X-0039267Y0017090D01*
X-0039271Y0017096D01*
X-0039274Y0017100D01*
X-0039276Y0017101D01*
Y0017000D01*
X-0039381D01*
Y0017696D01*
X-0039263D01*
Y0017323D01*
X-0039262Y0017291D01*
X-0039260Y0017264D01*
X-0039258Y0017240D01*
X-0039253Y0017221D01*
X-0039249Y0017205D01*
X-0039246Y0017194D01*
X-0039245Y0017189D01*
X-0039244Y0017186D01*
X-0039235Y0017169D01*
X-0039226Y0017155D01*
X-0039215Y0017143D01*
X-0039203Y0017132D01*
X-0039194Y0017123D01*
X-0039185Y0017118D01*
X-0039180Y0017114D01*
X-0039177Y0017112D01*
X-0039159Y0017104D01*
X-0039141Y0017097D01*
X-0039124Y0017093D01*
X-0039109Y0017089D01*
X-0039097Y0017087D01*
X-0039087Y0017086D01*
X-0039077D01*
X-0039058Y0017087D01*
X-0039041Y0017090D01*
X-0039026Y0017094D01*
X-0039013Y0017100D01*
X-0039002Y0017104D01*
X-0038995Y0017108D01*
X-0038990Y0017111D01*
X-0038988Y0017112D01*
X-0038976Y0017123D01*
X-0038966Y0017135D01*
X-0038958Y0017147D01*
X-0038951Y0017158D01*
X-0038947Y0017169D01*
X-0038944Y0017178D01*
X-0038941Y0017183D01*
Y0017184D01*
X-0038939Y0017200D01*
X-0038937Y0017218D01*
X-0038936Y0017239D01*
Y0017259D01*
X-0038934Y0017279D01*
Y0017294D01*
Y0017301D01*
Y0017305D01*
Y0017308D01*
Y0017309D01*
Y0017696D01*
X-0038817D01*
Y0017265D01*
D02*
G37*
G36*
X-0036582Y0017710D02*
X-0036557Y0017706D01*
X-0036535Y0017700D01*
X-0036513Y0017693D01*
X-0036494Y0017685D01*
X-0036476Y0017675D01*
X-0036459Y0017664D01*
X-0036445Y0017655D01*
X-0036431Y0017643D01*
X-0036420Y0017632D01*
X-0036410Y0017623D01*
X-0036402Y0017614D01*
X-0036396Y0017607D01*
X-0036392Y0017602D01*
X-0036390Y0017598D01*
X-0036388Y0017596D01*
Y0017696D01*
X-0036283D01*
Y0017000D01*
X-0036401D01*
Y0017379D01*
Y0017402D01*
X-0036403Y0017426D01*
X-0036406Y0017445D01*
X-0036409Y0017463D01*
X-0036413Y0017480D01*
X-0036417Y0017495D01*
X-0036423Y0017509D01*
X-0036428Y0017520D01*
X-0036433Y0017530D01*
X-0036438Y0017538D01*
X-0036442Y0017545D01*
X-0036446Y0017551D01*
X-0036452Y0017558D01*
X-0036455Y0017560D01*
X-0036476Y0017577D01*
X-0036498Y0017588D01*
X-0036520Y0017596D01*
X-0036539Y0017603D01*
X-0036557Y0017606D01*
X-0036571Y0017607D01*
X-0036577Y0017609D01*
X-0036584D01*
X-0036600Y0017607D01*
X-0036617Y0017606D01*
X-0036631Y0017602D01*
X-0036642Y0017598D01*
X-0036652Y0017594D01*
X-0036660Y0017591D01*
X-0036664Y0017588D01*
X-0036666Y0017587D01*
X-0036678Y0017578D01*
X-0036689Y0017569D01*
X-0036697Y0017559D01*
X-0036704Y0017551D01*
X-0036708Y0017542D01*
X-0036713Y0017535D01*
X-0036715Y0017531D01*
Y0017530D01*
X-0036720Y0017515D01*
X-0036724Y0017498D01*
X-0036727Y0017480D01*
X-0036728Y0017462D01*
X-0036729Y0017447D01*
Y0017434D01*
Y0017424D01*
Y0017423D01*
Y0017422D01*
Y0017000D01*
X-0036847D01*
Y0017427D01*
Y0017456D01*
X-0036846Y0017480D01*
X-0036844Y0017499D01*
Y0017516D01*
X-0036843Y0017527D01*
X-0036842Y0017535D01*
X-0036840Y0017541D01*
Y0017542D01*
X-0036836Y0017560D01*
X-0036829Y0017577D01*
X-0036824Y0017591D01*
X-0036818Y0017605D01*
X-0036811Y0017614D01*
X-0036807Y0017621D01*
X-0036804Y0017627D01*
X-0036803Y0017628D01*
X-0036792Y0017642D01*
X-0036779Y0017653D01*
X-0036767Y0017664D01*
X-0036753Y0017673D01*
X-0036742Y0017680D01*
X-0036732Y0017684D01*
X-0036727Y0017686D01*
X-0036724Y0017688D01*
X-0036704Y0017696D01*
X-0036684Y0017702D01*
X-0036664Y0017706D01*
X-0036646Y0017709D01*
X-0036631Y0017710D01*
X-0036620Y0017711D01*
X-0036609D01*
X-0036582Y0017710D01*
D02*
G37*
G36*
X-0039805D02*
X-0039791Y0017707D01*
X-0039778Y0017703D01*
X-0039766Y0017699D01*
X-0039758Y0017695D01*
X-0039750Y0017691D01*
X-0039746Y0017688D01*
X-0039744Y0017686D01*
X-0039732Y0017675D01*
X-0039719Y0017662D01*
X-0039707Y0017645D01*
X-0039696Y0017630D01*
X-0039685Y0017614D01*
X-0039678Y0017602D01*
X-0039672Y0017592D01*
X-0039671Y0017591D01*
Y0017696D01*
X-0039564D01*
Y0017000D01*
X-0039682D01*
Y0017363D01*
X-0039683Y0017391D01*
X-0039685Y0017416D01*
X-0039687Y0017440D01*
X-0039692Y0017460D01*
X-0039696Y0017477D01*
X-0039699Y0017490D01*
X-0039700Y0017498D01*
X-0039701Y0017501D01*
X-0039707Y0017516D01*
X-0039714Y0017528D01*
X-0039721Y0017539D01*
X-0039728Y0017549D01*
X-0039735Y0017556D01*
X-0039739Y0017562D01*
X-0039743Y0017564D01*
X-0039744Y0017566D01*
X-0039755Y0017574D01*
X-0039768Y0017580D01*
X-0039780Y0017584D01*
X-0039790Y0017587D01*
X-0039800Y0017588D01*
X-0039807Y0017589D01*
X-0039814D01*
X-0039829Y0017588D01*
X-0039844Y0017585D01*
X-0039859Y0017581D01*
X-0039872Y0017577D01*
X-0039883Y0017573D01*
X-0039891Y0017569D01*
X-0039897Y0017566D01*
X-0039898Y0017564D01*
X-0039941Y0017673D01*
X-0039918Y0017685D01*
X-0039895Y0017695D01*
X-0039876Y0017702D01*
X-0039858Y0017707D01*
X-0039843Y0017710D01*
X-0039830Y0017711D01*
X-0039821D01*
X-0039805Y0017710D01*
D02*
G37*
G36*
X-0040941D02*
X-0040916Y0017707D01*
X-0040893Y0017703D01*
X-0040870Y0017696D01*
X-0040850Y0017689D01*
X-0040830Y0017681D01*
X-0040812Y0017673D01*
X-0040797Y0017663D01*
X-0040782Y0017655D01*
X-0040769Y0017645D01*
X-0040758Y0017637D01*
X-0040750Y0017630D01*
X-0040743Y0017623D01*
X-0040737Y0017619D01*
X-0040735Y0017616D01*
X-0040733Y0017614D01*
X-0040718Y0017595D01*
X-0040704Y0017574D01*
X-0040692Y0017553D01*
X-0040680Y0017531D01*
X-0040672Y0017508D01*
X-0040665Y0017485D01*
X-0040654Y0017441D01*
X-0040650Y0017422D01*
X-0040647Y0017402D01*
X-0040646Y0017386D01*
X-0040644Y0017370D01*
X-0040643Y0017358D01*
Y0017349D01*
Y0017343D01*
Y0017341D01*
X-0040644Y0017311D01*
X-0040647Y0017282D01*
X-0040651Y0017254D01*
X-0040657Y0017229D01*
X-0040664Y0017205D01*
X-0040671Y0017183D01*
X-0040679Y0017164D01*
X-0040687Y0017146D01*
X-0040696Y0017130D01*
X-0040704Y0017116D01*
X-0040711Y0017105D01*
X-0040718Y0017096D01*
X-0040723Y0017087D01*
X-0040728Y0017082D01*
X-0040730Y0017079D01*
X-0040732Y0017078D01*
X-0040750Y0017061D01*
X-0040768Y0017047D01*
X-0040787Y0017035D01*
X-0040808Y0017024D01*
X-0040827Y0017015D01*
X-0040848Y0017007D01*
X-0040887Y0016996D01*
X-0040905Y0016993D01*
X-0040922Y0016990D01*
X-0040937Y0016988D01*
X-0040949Y0016986D01*
X-0040959Y0016985D01*
X-0040974D01*
X-0041017Y0016988D01*
X-0041056Y0016994D01*
X-0041091Y0017003D01*
X-0041105Y0017008D01*
X-0041119Y0017014D01*
X-0041131Y0017019D01*
X-0041142Y0017025D01*
X-0041151Y0017029D01*
X-0041159Y0017033D01*
X-0041164Y0017037D01*
X-0041169Y0017040D01*
X-0041171Y0017043D01*
X-0041173D01*
X-0041200Y0017068D01*
X-0041223Y0017094D01*
X-0041242Y0017122D01*
X-0041256Y0017148D01*
X-0041267Y0017172D01*
X-0041271Y0017183D01*
X-0041275Y0017191D01*
X-0041278Y0017200D01*
X-0041280Y0017205D01*
X-0041281Y0017208D01*
Y0017209D01*
X-0041159Y0017225D01*
X-0041148Y0017198D01*
X-0041135Y0017176D01*
X-0041123Y0017157D01*
X-0041112Y0017141D01*
X-0041102Y0017130D01*
X-0041094Y0017122D01*
X-0041087Y0017116D01*
X-0041085Y0017115D01*
X-0041067Y0017104D01*
X-0041049Y0017096D01*
X-0041030Y0017090D01*
X-0041013Y0017086D01*
X-0040998Y0017083D01*
X-0040986Y0017082D01*
X-0040974D01*
X-0040958Y0017083D01*
X-0040943Y0017085D01*
X-0040915Y0017092D01*
X-0040890Y0017101D01*
X-0040868Y0017112D01*
X-0040851Y0017122D01*
X-0040839Y0017132D01*
X-0040830Y0017139D01*
X-0040829Y0017141D01*
X-0040827D01*
X-0040808Y0017166D01*
X-0040793Y0017194D01*
X-0040782Y0017225D01*
X-0040773Y0017252D01*
X-0040769Y0017277D01*
X-0040766Y0017288D01*
X-0040765Y0017298D01*
Y0017306D01*
X-0040764Y0017312D01*
Y0017316D01*
Y0017318D01*
X-0041284D01*
X-0041285Y0017331D01*
Y0017341D01*
Y0017347D01*
Y0017348D01*
X-0041284Y0017380D01*
X-0041281Y0017409D01*
X-0041277Y0017437D01*
X-0041271Y0017463D01*
X-0041264Y0017487D01*
X-0041257Y0017509D01*
X-0041249Y0017528D01*
X-0041241Y0017546D01*
X-0041232Y0017563D01*
X-0041224Y0017577D01*
X-0041217Y0017588D01*
X-0041210Y0017598D01*
X-0041205Y0017606D01*
X-0041200Y0017612D01*
X-0041198Y0017614D01*
X-0041196Y0017616D01*
X-0041180Y0017632D01*
X-0041162Y0017648D01*
X-0041142Y0017660D01*
X-0041123Y0017671D01*
X-0041103Y0017681D01*
X-0041085Y0017688D01*
X-0041066Y0017695D01*
X-0041049Y0017699D01*
X-0041031Y0017703D01*
X-0041016Y0017706D01*
X-0041002Y0017709D01*
X-0040991Y0017710D01*
X-0040981Y0017711D01*
X-0040967D01*
X-0040941Y0017710D01*
D02*
G37*
%LPC*%
G36*
X-0035080Y0017619D02*
X-0035087D01*
X-0035101Y0017617D01*
X-0035115Y0017616D01*
X-0035140Y0017609D01*
X-0035162Y0017598D01*
X-0035182Y0017585D01*
X-0035197Y0017573D01*
X-0035208Y0017563D01*
X-0035215Y0017555D01*
X-0035218Y0017553D01*
Y0017552D01*
X-0035227Y0017539D01*
X-0035236Y0017524D01*
X-0035250Y0017492D01*
X-0035259Y0017460D01*
X-0035266Y0017429D01*
X-0035270Y0017399D01*
X-0035272Y0017387D01*
Y0017376D01*
X-0035273Y0017366D01*
Y0017359D01*
Y0017355D01*
Y0017354D01*
Y0017329D01*
X-0035270Y0017305D01*
X-0035268Y0017283D01*
X-0035265Y0017262D01*
X-0035261Y0017244D01*
X-0035255Y0017227D01*
X-0035250Y0017211D01*
X-0035245Y0017198D01*
X-0035240Y0017186D01*
X-0035234Y0017176D01*
X-0035230Y0017166D01*
X-0035225Y0017159D01*
X-0035222Y0017154D01*
X-0035219Y0017150D01*
X-0035216Y0017148D01*
Y0017147D01*
X-0035205Y0017136D01*
X-0035194Y0017126D01*
X-0035172Y0017110D01*
X-0035150Y0017098D01*
X-0035129Y0017090D01*
X-0035109Y0017086D01*
X-0035096Y0017083D01*
X-0035090Y0017082D01*
X-0035082D01*
X-0035068Y0017083D01*
X-0035054Y0017085D01*
X-0035029Y0017092D01*
X-0035007Y0017103D01*
X-0034987Y0017114D01*
X-0034972Y0017125D01*
X-0034961Y0017136D01*
X-0034954Y0017143D01*
X-0034951Y0017146D01*
X-0034942Y0017158D01*
X-0034933Y0017172D01*
X-0034919Y0017204D01*
X-0034911Y0017236D01*
X-0034904Y0017269D01*
X-0034900Y0017298D01*
X-0034899Y0017311D01*
Y0017322D01*
X-0034897Y0017331D01*
Y0017338D01*
Y0017343D01*
Y0017344D01*
Y0017369D01*
X-0034900Y0017391D01*
X-0034903Y0017412D01*
X-0034906Y0017433D01*
X-0034911Y0017451D01*
X-0034915Y0017467D01*
X-0034921Y0017483D01*
X-0034926Y0017496D01*
X-0034931Y0017508D01*
X-0034936Y0017519D01*
X-0034942Y0017527D01*
X-0034946Y0017535D01*
X-0034949Y0017541D01*
X-0034951Y0017545D01*
X-0034954Y0017546D01*
Y0017548D01*
X-0034965Y0017560D01*
X-0034976Y0017571D01*
X-0034987Y0017581D01*
X-0035000Y0017589D01*
X-0035022Y0017602D01*
X-0035043Y0017610D01*
X-0035061Y0017614D01*
X-0035075Y0017617D01*
X-0035080Y0017619D01*
D02*
G37*
G36*
X-0036099Y0016146D02*
X-0036101D01*
X-0036099Y0016096D01*
X-0036097Y0016064D01*
X-0036096Y0016038D01*
X-0036093Y0016016D01*
X-0036088Y0015997D01*
X-0036083Y0015983D01*
X-0036080Y0015972D01*
X-0036079Y0015965D01*
X-0036077Y0015964D01*
X-0036064Y0015943D01*
X-0036052Y0015925D01*
X-0036036Y0015909D01*
X-0036022Y0015896D01*
X-0036009Y0015885D01*
X-0035998Y0015877D01*
X-0035992Y0015873D01*
X-0035989Y0015871D01*
X-0035965Y0015860D01*
X-0035942Y0015852D01*
X-0035920Y0015846D01*
X-0035898Y0015843D01*
X-0035880Y0015840D01*
X-0035865Y0015838D01*
X-0035852D01*
X-0035824Y0015840D01*
X-0035800Y0015843D01*
X-0035780Y0015849D01*
X-0035763Y0015855D01*
X-0035750Y0015862D01*
X-0035741Y0015868D01*
X-0035734Y0015871D01*
X-0035733Y0015873D01*
X-0035720Y0015887D01*
X-0035711Y0015903D01*
X-0035703Y0015917D01*
X-0035698Y0015931D01*
X-0035695Y0015943D01*
X-0035693Y0015953D01*
Y0015961D01*
Y0015962D01*
X-0035695Y0015975D01*
X-0035696Y0015987D01*
X-0035700Y0015997D01*
X-0035703Y0016006D01*
X-0035706Y0016014D01*
X-0035708Y0016020D01*
X-0035711Y0016024D01*
Y0016025D01*
X-0035726Y0016044D01*
X-0035745Y0016057D01*
X-0035752Y0016061D01*
X-0035758Y0016064D01*
X-0035763Y0016068D01*
X-0035764D01*
X-0035780Y0016074D01*
X-0035797Y0016079D01*
X-0035816Y0016083D01*
X-0035835Y0016086D01*
X-0035852Y0016090D01*
X-0035868Y0016093D01*
X-0035877Y0016094D01*
X-0035880D01*
X-0035907Y0016099D01*
X-0035932Y0016102D01*
X-0035954Y0016107D01*
X-0035976Y0016112D01*
X-0035997Y0016116D01*
X-0036014Y0016121D01*
X-0036031Y0016124D01*
X-0036046Y0016129D01*
X-0036058Y0016132D01*
X-0036069Y0016135D01*
X-0036079Y0016138D01*
X-0036086Y0016141D01*
X-0036093Y0016143D01*
X-0036097Y0016145D01*
X-0036099Y0016146D01*
D02*
G37*
G36*
X-0038346Y0017614D02*
X-0038355D01*
X-0038371Y0017613D01*
X-0038387Y0017612D01*
X-0038414Y0017605D01*
X-0038439Y0017594D01*
X-0038460Y0017581D01*
X-0038477Y0017569D01*
X-0038489Y0017559D01*
X-0038498Y0017551D01*
X-0038500Y0017549D01*
Y0017548D01*
X-0038511Y0017535D01*
X-0038520Y0017520D01*
X-0038535Y0017490D01*
X-0038546Y0017456D01*
X-0038553Y0017426D01*
X-0038557Y0017397D01*
X-0038559Y0017384D01*
Y0017373D01*
X-0038560Y0017365D01*
Y0017358D01*
Y0017354D01*
Y0017352D01*
Y0017327D01*
X-0038557Y0017304D01*
X-0038554Y0017283D01*
X-0038550Y0017262D01*
X-0038546Y0017244D01*
X-0038541Y0017227D01*
X-0038536Y0017212D01*
X-0038531Y0017198D01*
X-0038525Y0017187D01*
X-0038520Y0017176D01*
X-0038514Y0017168D01*
X-0038510Y0017161D01*
X-0038506Y0017155D01*
X-0038503Y0017151D01*
X-0038502Y0017150D01*
X-0038500Y0017148D01*
X-0038489Y0017137D01*
X-0038477Y0017126D01*
X-0038453Y0017110D01*
X-0038428Y0017098D01*
X-0038406Y0017090D01*
X-0038385Y0017086D01*
X-0038370Y0017083D01*
X-0038363Y0017082D01*
X-0038355D01*
X-0038338Y0017083D01*
X-0038323Y0017085D01*
X-0038294Y0017092D01*
X-0038269Y0017103D01*
X-0038248Y0017115D01*
X-0038231Y0017126D01*
X-0038219Y0017137D01*
X-0038210Y0017144D01*
X-0038209Y0017147D01*
X-0038208D01*
X-0038198Y0017161D01*
X-0038188Y0017175D01*
X-0038174Y0017207D01*
X-0038163Y0017240D01*
X-0038156Y0017273D01*
X-0038152Y0017302D01*
X-0038151Y0017315D01*
Y0017326D01*
X-0038149Y0017336D01*
Y0017343D01*
Y0017347D01*
Y0017348D01*
X-0038151Y0017372D01*
X-0038152Y0017395D01*
X-0038155Y0017416D01*
X-0038159Y0017435D01*
X-0038163Y0017454D01*
X-0038167Y0017470D01*
X-0038173Y0017484D01*
X-0038179Y0017498D01*
X-0038184Y0017509D01*
X-0038190Y0017520D01*
X-0038194Y0017528D01*
X-0038198Y0017535D01*
X-0038202Y0017541D01*
X-0038205Y0017545D01*
X-0038208Y0017546D01*
Y0017548D01*
X-0038219Y0017559D01*
X-0038231Y0017570D01*
X-0038255Y0017587D01*
X-0038280Y0017598D01*
X-0038303Y0017606D01*
X-0038324Y0017612D01*
X-0038339Y0017613D01*
X-0038346Y0017614D01*
D02*
G37*
G36*
X-0034318D02*
X-0034326D01*
X-0034343Y0017613D01*
X-0034358Y0017612D01*
X-0034386Y0017605D01*
X-0034411Y0017594D01*
X-0034431Y0017581D01*
X-0034448Y0017569D01*
X-0034460Y0017559D01*
X-0034469Y0017551D01*
X-0034472Y0017549D01*
Y0017548D01*
X-0034483Y0017535D01*
X-0034491Y0017520D01*
X-0034506Y0017490D01*
X-0034517Y0017456D01*
X-0034524Y0017426D01*
X-0034528Y0017397D01*
X-0034530Y0017384D01*
Y0017373D01*
X-0034531Y0017365D01*
Y0017358D01*
Y0017354D01*
Y0017352D01*
Y0017327D01*
X-0034528Y0017304D01*
X-0034526Y0017283D01*
X-0034521Y0017262D01*
X-0034517Y0017244D01*
X-0034512Y0017227D01*
X-0034508Y0017212D01*
X-0034502Y0017198D01*
X-0034496Y0017187D01*
X-0034491Y0017176D01*
X-0034485Y0017168D01*
X-0034481Y0017161D01*
X-0034477Y0017155D01*
X-0034474Y0017151D01*
X-0034473Y0017150D01*
X-0034472Y0017148D01*
X-0034460Y0017137D01*
X-0034448Y0017126D01*
X-0034424Y0017110D01*
X-0034399Y0017098D01*
X-0034377Y0017090D01*
X-0034356Y0017086D01*
X-0034341Y0017083D01*
X-0034334Y0017082D01*
X-0034326D01*
X-0034309Y0017083D01*
X-0034294Y0017085D01*
X-0034265Y0017092D01*
X-0034240Y0017103D01*
X-0034219Y0017115D01*
X-0034202Y0017126D01*
X-0034190Y0017137D01*
X-0034182Y0017144D01*
X-0034180Y0017147D01*
X-0034179D01*
X-0034169Y0017161D01*
X-0034159Y0017175D01*
X-0034146Y0017207D01*
X-0034135Y0017240D01*
X-0034128Y0017273D01*
X-0034123Y0017302D01*
X-0034122Y0017315D01*
Y0017326D01*
X-0034121Y0017336D01*
Y0017343D01*
Y0017347D01*
Y0017348D01*
X-0034122Y0017372D01*
X-0034123Y0017395D01*
X-0034126Y0017416D01*
X-0034130Y0017435D01*
X-0034135Y0017454D01*
X-0034139Y0017470D01*
X-0034144Y0017484D01*
X-0034150Y0017498D01*
X-0034155Y0017509D01*
X-0034161Y0017520D01*
X-0034165Y0017528D01*
X-0034169Y0017535D01*
X-0034173Y0017541D01*
X-0034176Y0017545D01*
X-0034179Y0017546D01*
Y0017548D01*
X-0034190Y0017559D01*
X-0034202Y0017570D01*
X-0034226Y0017587D01*
X-0034251Y0017598D01*
X-0034275Y0017606D01*
X-0034295Y0017612D01*
X-0034311Y0017613D01*
X-0034318Y0017614D01*
D02*
G37*
G36*
X-0039394Y0016146D02*
X-0039396D01*
X-0039394Y0016096D01*
X-0039393Y0016064D01*
X-0039391Y0016038D01*
X-0039388Y0016016D01*
X-0039383Y0015997D01*
X-0039379Y0015983D01*
X-0039376Y0015972D01*
X-0039374Y0015965D01*
X-0039372Y0015964D01*
X-0039360Y0015943D01*
X-0039347Y0015925D01*
X-0039332Y0015909D01*
X-0039317Y0015896D01*
X-0039305Y0015885D01*
X-0039294Y0015877D01*
X-0039288Y0015873D01*
X-0039284Y0015871D01*
X-0039261Y0015860D01*
X-0039237Y0015852D01*
X-0039215Y0015846D01*
X-0039193Y0015843D01*
X-0039176Y0015840D01*
X-0039160Y0015838D01*
X-0039148D01*
X-0039119Y0015840D01*
X-0039096Y0015843D01*
X-0039075Y0015849D01*
X-0039058Y0015855D01*
X-0039045Y0015862D01*
X-0039036Y0015868D01*
X-0039030Y0015871D01*
X-0039028Y0015873D01*
X-0039016Y0015887D01*
X-0039006Y0015903D01*
X-0038998Y0015917D01*
X-0038994Y0015931D01*
X-0038990Y0015943D01*
X-0038989Y0015953D01*
Y0015961D01*
Y0015962D01*
X-0038990Y0015975D01*
X-0038992Y0015987D01*
X-0038995Y0015997D01*
X-0038998Y0016006D01*
X-0039001Y0016014D01*
X-0039003Y0016020D01*
X-0039006Y0016024D01*
Y0016025D01*
X-0039022Y0016044D01*
X-0039041Y0016057D01*
X-0039047Y0016061D01*
X-0039053Y0016064D01*
X-0039058Y0016068D01*
X-0039060D01*
X-0039075Y0016074D01*
X-0039093Y0016079D01*
X-0039111Y0016083D01*
X-0039130Y0016086D01*
X-0039148Y0016090D01*
X-0039163Y0016093D01*
X-0039173Y0016094D01*
X-0039176D01*
X-0039203Y0016099D01*
X-0039228Y0016102D01*
X-0039250Y0016107D01*
X-0039272Y0016112D01*
X-0039292Y0016116D01*
X-0039310Y0016121D01*
X-0039327Y0016124D01*
X-0039341Y0016129D01*
X-0039354Y0016132D01*
X-0039365Y0016135D01*
X-0039374Y0016138D01*
X-0039382Y0016141D01*
X-0039388Y0016143D01*
X-0039393Y0016145D01*
X-0039394Y0016146D01*
D02*
G37*
G36*
X-0037236Y0016447D02*
X-0037244D01*
X-0037261Y0016445D01*
X-0037277Y0016443D01*
X-0037306Y0016434D01*
X-0037333Y0016423D01*
X-0037355Y0016409D01*
X-0037373Y0016395D01*
X-0037387Y0016382D01*
X-0037395Y0016373D01*
X-0037398Y0016371D01*
Y0016369D01*
X-0037409Y0016354D01*
X-0037418Y0016338D01*
X-0037434Y0016300D01*
X-0037445Y0016261D01*
X-0037453Y0016223D01*
X-0037456Y0016204D01*
X-0037457Y0016187D01*
X-0037459Y0016171D01*
Y0016159D01*
X-0037461Y0016148D01*
Y0016140D01*
Y0016134D01*
Y0016132D01*
Y0016105D01*
X-0037457Y0016080D01*
X-0037454Y0016058D01*
X-0037451Y0016036D01*
X-0037446Y0016017D01*
X-0037440Y0015998D01*
X-0037435Y0015983D01*
X-0037429Y0015969D01*
X-0037423Y0015956D01*
X-0037418Y0015943D01*
X-0037412Y0015936D01*
X-0037407Y0015928D01*
X-0037404Y0015921D01*
X-0037401Y0015917D01*
X-0037398Y0015915D01*
Y0015914D01*
X-0037387Y0015901D01*
X-0037374Y0015890D01*
X-0037349Y0015873D01*
X-0037324Y0015860D01*
X-0037300Y0015852D01*
X-0037280Y0015846D01*
X-0037262Y0015844D01*
X-0037256Y0015843D01*
X-0037248D01*
X-0037233Y0015844D01*
X-0037217Y0015846D01*
X-0037189Y0015854D01*
X-0037162Y0015866D01*
X-0037140Y0015880D01*
X-0037123Y0015893D01*
X-0037108Y0015906D01*
X-0037101Y0015914D01*
X-0037099Y0015917D01*
X-0037097D01*
X-0037086Y0015932D01*
X-0037077Y0015948D01*
X-0037061Y0015984D01*
X-0037050Y0016022D01*
X-0037042Y0016058D01*
X-0037038Y0016091D01*
X-0037036Y0016105D01*
Y0016118D01*
X-0037034Y0016129D01*
Y0016137D01*
Y0016141D01*
Y0016143D01*
Y0016171D01*
X-0037038Y0016198D01*
X-0037041Y0016223D01*
X-0037044Y0016245D01*
X-0037049Y0016266D01*
X-0037053Y0016285D01*
X-0037058Y0016302D01*
X-0037064Y0016318D01*
X-0037071Y0016330D01*
X-0037075Y0016341D01*
X-0037080Y0016351D01*
X-0037085Y0016358D01*
X-0037090Y0016365D01*
X-0037091Y0016369D01*
X-0037094Y0016371D01*
Y0016373D01*
X-0037105Y0016385D01*
X-0037118Y0016398D01*
X-0037143Y0016415D01*
X-0037168Y0016429D01*
X-0037192Y0016437D01*
X-0037212Y0016443D01*
X-0037229Y0016445D01*
X-0037236Y0016447D01*
D02*
G37*
G36*
X-0040558D02*
X-0040567D01*
X-0040586Y0016445D01*
X-0040604Y0016443D01*
X-0040637Y0016434D01*
X-0040665Y0016421D01*
X-0040688Y0016407D01*
X-0040707Y0016393D01*
X-0040721Y0016380D01*
X-0040729Y0016371D01*
X-0040732Y0016369D01*
Y0016368D01*
X-0040747Y0016347D01*
X-0040759Y0016324D01*
X-0040767Y0016300D01*
X-0040775Y0016275D01*
X-0040780Y0016255D01*
X-0040783Y0016236D01*
Y0016230D01*
X-0040784Y0016225D01*
Y0016222D01*
Y0016220D01*
X-0040343D01*
X-0040347Y0016256D01*
X-0040357Y0016289D01*
X-0040368Y0016318D01*
X-0040380Y0016340D01*
X-0040391Y0016358D01*
X-0040402Y0016373D01*
X-0040409Y0016380D01*
X-0040412Y0016384D01*
X-0040437Y0016404D01*
X-0040462Y0016420D01*
X-0040489Y0016431D01*
X-0040514Y0016439D01*
X-0040534Y0016443D01*
X-0040552Y0016445D01*
X-0040558Y0016447D01*
D02*
G37*
G36*
X-0035814Y0017614D02*
X-0035822D01*
X-0035839Y0017613D01*
X-0035854Y0017612D01*
X-0035883Y0017603D01*
X-0035908Y0017592D01*
X-0035929Y0017580D01*
X-0035946Y0017567D01*
X-0035958Y0017556D01*
X-0035965Y0017548D01*
X-0035968Y0017546D01*
Y0017545D01*
X-0035980Y0017527D01*
X-0035992Y0017506D01*
X-0035998Y0017485D01*
X-0036005Y0017463D01*
X-0036010Y0017445D01*
X-0036012Y0017429D01*
Y0017423D01*
X-0036014Y0017419D01*
Y0017416D01*
Y0017415D01*
X-0035624D01*
X-0035628Y0017447D01*
X-0035636Y0017476D01*
X-0035646Y0017501D01*
X-0035657Y0017520D01*
X-0035667Y0017537D01*
X-0035677Y0017549D01*
X-0035682Y0017556D01*
X-0035685Y0017559D01*
X-0035707Y0017577D01*
X-0035729Y0017591D01*
X-0035753Y0017601D01*
X-0035775Y0017607D01*
X-0035793Y0017612D01*
X-0035808Y0017613D01*
X-0035814Y0017614D01*
D02*
G37*
G36*
X-0040961D02*
X-0040969D01*
X-0040986Y0017613D01*
X-0041001Y0017612D01*
X-0041030Y0017603D01*
X-0041055Y0017592D01*
X-0041076Y0017580D01*
X-0041092Y0017567D01*
X-0041105Y0017556D01*
X-0041112Y0017548D01*
X-0041114Y0017546D01*
Y0017545D01*
X-0041127Y0017527D01*
X-0041138Y0017506D01*
X-0041145Y0017485D01*
X-0041152Y0017463D01*
X-0041156Y0017445D01*
X-0041159Y0017429D01*
Y0017423D01*
X-0041160Y0017419D01*
Y0017416D01*
Y0017415D01*
X-0040771D01*
X-0040775Y0017447D01*
X-0040783Y0017476D01*
X-0040793Y0017501D01*
X-0040804Y0017520D01*
X-0040814Y0017537D01*
X-0040823Y0017549D01*
X-0040829Y0017556D01*
X-0040832Y0017559D01*
X-0040854Y0017577D01*
X-0040876Y0017591D01*
X-0040900Y0017601D01*
X-0040922Y0017607D01*
X-0040940Y0017612D01*
X-0040955Y0017613D01*
X-0040961Y0017614D01*
D02*
G37*
%LPD*%
D21*
X-0035065Y0018077D02*
G03*
X-0034327Y0018815I-0002435J0003173D01*
G01*
X-0037003Y0020049D02*
G03*
X-0037997Y0020049I-0000497J0001201D01*
G01*
X-0040673Y0018815D02*
G03*
X-0039935Y0018077I0003173J0002435D01*
G01*
X-0041466Y0021772D02*
G03*
X-0041466Y0020728I0003966J-0000522D01*
G01*
X-0039935Y0024423D02*
G03*
X-0040673Y0023685I0002435J-0003173D01*
G01*
X-0036978Y0025216D02*
G03*
X-0038022Y0025216I-0000522J-0003966D01*
G01*
X-0036352Y0018478D02*
G03*
X-0036000Y0018652I-0001148J0002772D01*
G01*
X-0033534Y0020728D02*
G03*
X-0033534Y0021772I-0003966J0000522D01*
G01*
X-0034327Y0023685D02*
G03*
X-0035065Y0024423I-0003173J-0002435D01*
G01*
X-0039000Y0018652D02*
G03*
X-0038648Y0018478I0001500J0002598D01*
G01*
X-0040398Y0020474D02*
G03*
X-0040098Y0019750I0002898J0000776D01*
G01*
Y0022750D02*
G03*
X-0040398Y0022026I0002598J-0001500D01*
G01*
X-0038276Y0024148D02*
G03*
X-0039000Y0023848I0000776J-0002898D01*
G01*
X-0036000D02*
G03*
X-0036724Y0024148I-0001500J-0002598D01*
G01*
X-0034602Y0022026D02*
G03*
X-0034902Y0022750I-0002898J-0000776D01*
G01*
Y0019750D02*
G03*
X-0034602Y0020474I-0002598J0001500D01*
G01*
X-0038648Y0018478D02*
X-0038000Y0020000D01*
X-0039935Y0018077D02*
X-0039000Y0018652D01*
X-0040673Y0018815D02*
X-0040098Y0019750D01*
X-0041466Y0020728D02*
X-0040398Y0020474D01*
X-0041466Y0021772D02*
X-0040398Y0022026D01*
X-0040673Y0023685D02*
X-0040098Y0022750D01*
X-0039935Y0024423D02*
X-0039000Y0023848D01*
X-0038276Y0024148D02*
X-0038022Y0025216D01*
X-0036978D02*
X-0036724Y0024148D01*
X-0036000Y0023848D02*
X-0035065Y0024423D01*
X-0034902Y0022750D02*
X-0034327Y0023685D01*
X-0034602Y0022026D02*
X-0033534Y0021772D01*
X-0034602Y0020474D02*
X-0033534Y0020728D01*
X-0034902Y0019750D02*
X-0034327Y0018815D01*
X-0036000Y0018652D02*
X-0035065Y0018077D01*
X-0037003Y0020049D02*
X-0036352Y0018478D01*
X-0011123Y0025100D02*
X-0010923Y0025000D01*
Y0025200D01*
X-0011423Y0025700D02*
X-0010923Y0025000D01*
X-0011423Y0025700D02*
X-0010723Y0025500D01*
X-0011323Y0026200D02*
X-0010723Y0025500D01*
X-0012680Y0024600D02*
X-0011180Y0027100D01*
X-0012680Y0024600D02*
X-0009680D01*
X-0011180Y0027100D02*
X-0009680Y0024600D01*
X-0037373Y0009350D02*
X-0037173Y0009250D01*
Y0009450D01*
X-0037673Y0009950D02*
X-0037173Y0009250D01*
X-0037673Y0009950D02*
X-0036973Y0009750D01*
X-0037573Y0010450D02*
X-0036973Y0009750D01*
X-0038930Y0008850D02*
X-0037430Y0011350D01*
X-0038930Y0008850D02*
X-0035930D01*
X-0037430Y0011350D02*
X-0035930Y0008850D01*
X-0060123Y0018100D02*
X-0059923Y0018000D01*
Y0018200D01*
X-0060423Y0018700D02*
X-0059923Y0018000D01*
X-0060423Y0018700D02*
X-0059723Y0018500D01*
X-0060323Y0019200D02*
X-0059723Y0018500D01*
X-0061680Y0017600D02*
X-0060180Y0020100D01*
X-0061680Y0017600D02*
X-0058680D01*
X-0060180Y0020100D02*
X-0058680Y0017600D01*
X-0060123Y0031850D02*
X-0059923Y0031750D01*
Y0031950D01*
X-0060423Y0032450D02*
X-0059923Y0031750D01*
X-0060423Y0032450D02*
X-0059723Y0032250D01*
X-0060323Y0032950D02*
X-0059723Y0032250D01*
X-0061680Y0031350D02*
X-0060180Y0033850D01*
X-0061680Y0031350D02*
X-0058680D01*
X-0060180Y0033850D02*
X-0058680Y0031350D01*
X-0042623Y0029350D02*
X-0042423Y0029250D01*
Y0029450D01*
X-0042923Y0029950D02*
X-0042423Y0029250D01*
X-0042923Y0029950D02*
X-0042223Y0029750D01*
X-0042823Y0030450D02*
X-0042223Y0029750D01*
X-0044180Y0028850D02*
X-0042680Y0031350D01*
X-0044180Y0028850D02*
X-0041180D01*
X-0042680Y0031350D02*
X-0041180Y0028850D01*
X-0032373Y0029350D02*
X-0032173Y0029250D01*
Y0029450D01*
X-0032673Y0029950D02*
X-0032173Y0029250D01*
X-0032673Y0029950D02*
X-0031973Y0029750D01*
X-0032573Y0030450D02*
X-0031973Y0029750D01*
X-0033930Y0028850D02*
X-0032430Y0031350D01*
X-0033930Y0028850D02*
X-0030930D01*
X-0032430Y0031350D02*
X-0030930Y0028850D01*
X-0001750Y0037400D02*
X-0000550D01*
X-0001750D02*
Y0042500D01*
X-0000550D01*
X-0009950Y0029700D02*
Y0049500D01*
Y0029700D02*
X-0000550Y0029700D01*
Y0037400D01*
Y0042500D02*
Y0049500D01*
X-0000650Y0016950D02*
Y0028850D01*
X-0009750D02*
X-0000650D01*
X-0009750Y0000750D02*
Y0028850D01*
Y0000750D02*
X-0000650D01*
Y0012750D01*
X-0012650Y0039100D02*
X-0012650Y0027200D01*
X-0021750Y0039100D02*
X-0012650D01*
X-0021750Y0011000D02*
Y0039100D01*
Y0011000D02*
X-0012650D01*
Y0023000D01*
X-0056250Y0034500D02*
X-0056916Y0033500D01*
Y0034500D02*
X-0056250Y0033500D01*
X-0057250D02*
X-0057583D01*
X-0057416D01*
Y0034500D01*
X-0057250Y0034333D01*
X-0012500Y0040750D02*
X-0013166Y0039750D01*
Y0040750D02*
X-0012500Y0039750D01*
X-0014166D02*
X-0013500D01*
X-0014166Y0040416D01*
Y0040583D01*
X-0014000Y0040750D01*
X-0013666D01*
X-0013500Y0040583D01*
X-0010250Y0028500D02*
X-0010916Y0027500D01*
Y0028500D02*
X-0010250Y0027500D01*
X-0011250Y0028333D02*
X-0011416Y0028500D01*
X-0011750D01*
X-0011916Y0028333D01*
Y0028166D01*
X-0011750Y0028000D01*
X-0011583D01*
X-0011750D01*
X-0011916Y0027833D01*
Y0027667D01*
X-0011750Y0027500D01*
X-0011416D01*
X-0011250Y0027667D01*
D31*
X-0064000Y0040950D02*
X-0056100D01*
X-0064000Y0035050D02*
X-0064000Y0040950D01*
X-0064000Y0035050D02*
X-0056100D01*
Y0040950D01*
X-0057000Y0040250D02*
Y0040950D01*
X-0063000Y0040250D02*
X-0057000D01*
X-0063000D02*
Y0040950D01*
M02*
