G04*
G04 #@! TF.GenerationSoftware,Altium Limited,Altium Designer,18.0.12 (696)*
G04*
G04 Layer_Color=16711935*
%FSAX43Y43*%
%MOMM*%
G71*
G01*
G75*
%ADD35C,7.203*%
%ADD36R,2.203X2.203*%
%ADD37C,2.203*%
%ADD38O,2.203X1.703*%
%ADD39O,2.003X2.703*%
%ADD40O,2.703X2.003*%
%ADD41R,1.703X1.703*%
%ADD42C,1.703*%
%ADD43O,2.203X1.703*%
%ADD44R,2.203X1.703*%
%ADD45O,1.703X2.203*%
%ADD46R,1.703X2.203*%
%ADD47C,1.803*%
%ADD48R,1.703X1.703*%
%ADD49C,2.703*%
%ADD50O,1.703X2.003*%
%ADD51C,2.003*%
D35*
X0045000Y0095000D02*
D03*
X0005000D02*
D03*
Y0005000D02*
D03*
X0045000D02*
D03*
D36*
X0017250Y0087500D02*
D03*
X0007000Y0058750D02*
D03*
X0035000Y0097200D02*
D03*
D37*
X0017250Y0092500D02*
D03*
X0007000Y0053750D02*
D03*
X0005000Y0067500D02*
D03*
X0014000D02*
D03*
X0014000Y0076500D02*
D03*
X0005000Y0076500D02*
D03*
X0010100Y0048750D02*
D03*
X0003750D02*
D03*
Y0045100D02*
D03*
Y0038750D02*
D03*
X0008750Y0037400D02*
D03*
Y0043750D02*
D03*
X0035000Y0089600D02*
D03*
D38*
X0015000Y0049960D02*
D03*
Y0052500D02*
D03*
Y0055040D02*
D03*
D39*
X0004960Y0012500D02*
D03*
X0002420D02*
D03*
X0007500D02*
D03*
X0004960Y0020000D02*
D03*
X0002420D02*
D03*
X0007500D02*
D03*
D40*
X0022500Y0071290D02*
D03*
Y0073830D02*
D03*
Y0068750D02*
D03*
Y0076370D02*
D03*
D41*
X0021250Y0064500D02*
D03*
D42*
Y0061960D02*
D03*
Y0056880D02*
D03*
Y0059420D02*
D03*
X0016330Y0097500D02*
D03*
X0013790D02*
D03*
D43*
X0043710Y0034330D02*
D03*
X0046250Y0034330D02*
D03*
X0043710Y0031790D02*
D03*
X0046250D02*
D03*
X0043710Y0029250D02*
D03*
X0046250Y0036870D02*
D03*
X0043710D02*
D03*
X0046250Y0039410D02*
D03*
X0043710D02*
D03*
D44*
X0046250Y0029250D02*
D03*
D45*
X0035280Y0003750D02*
D03*
X0035280Y0006290D02*
D03*
X0032740D02*
D03*
Y0003750D02*
D03*
X0027660Y0006290D02*
D03*
Y0003750D02*
D03*
X0030200Y0006290D02*
D03*
Y0003750D02*
D03*
X0025120Y0006290D02*
D03*
Y0003750D02*
D03*
X0017500Y0006290D02*
D03*
X0020040Y0003750D02*
D03*
Y0006290D02*
D03*
X0022580Y0003750D02*
D03*
X0022580Y0006290D02*
D03*
X0044750Y0077500D02*
D03*
X0048250Y0082500D02*
D03*
X0044750Y0087500D02*
D03*
D46*
X0017500Y0003750D02*
D03*
D47*
X0003750Y0088750D02*
D03*
X0008750D02*
D03*
X0006250D02*
D03*
D48*
X0011250Y0097500D02*
D03*
D49*
X0022000Y0096250D02*
D03*
X0027250Y0097500D02*
D03*
D50*
X0045000Y0060250D02*
D03*
X0047500D02*
D03*
D51*
X0045000Y0067750D02*
D03*
X0047500D02*
D03*
M02*
