G04 Layer_Color=32896*
%FSAX43Y43*%
%MOMM*%
G71*
G01*
G75*
%ADD50C,0.254*%
%ADD89C,0.400*%
G36*
X0030342Y0034698D02*
Y0034495D01*
Y0034292D01*
X0030952D01*
Y0034089D01*
Y0033886D01*
Y0033682D01*
Y0033479D01*
Y0033276D01*
X0030342D01*
Y0033479D01*
Y0033682D01*
Y0033886D01*
X0029936D01*
Y0034089D01*
Y0034292D01*
Y0034495D01*
Y0034698D01*
Y0034902D01*
X0030342D01*
Y0034698D01*
D02*
G37*
G36*
X0024246Y0033073D02*
Y0032870D01*
X0023840D01*
Y0033073D01*
Y0033276D01*
X0024246D01*
Y0033073D01*
D02*
G37*
G36*
X0027904Y0032666D02*
Y0032463D01*
Y0032260D01*
X0027294D01*
Y0032463D01*
Y0032666D01*
Y0032870D01*
X0027904D01*
Y0032666D01*
D02*
G37*
G36*
Y0035105D02*
Y0034902D01*
X0028920D01*
Y0034698D01*
Y0034495D01*
Y0034292D01*
X0028310D01*
Y0034089D01*
Y0033886D01*
Y0033682D01*
Y0033479D01*
Y0033276D01*
X0028920D01*
Y0033073D01*
Y0032870D01*
Y0032666D01*
Y0032463D01*
Y0032260D01*
X0029936D01*
Y0032463D01*
Y0032666D01*
Y0032870D01*
Y0033073D01*
Y0033276D01*
X0028920D01*
Y0033479D01*
Y0033682D01*
Y0033886D01*
X0029936D01*
Y0033682D01*
Y0033479D01*
Y0033276D01*
X0030342D01*
Y0033073D01*
Y0032870D01*
Y0032666D01*
Y0032463D01*
Y0032260D01*
X0030952D01*
Y0032057D01*
Y0031854D01*
X0031358D01*
Y0031650D01*
Y0031447D01*
Y0031244D01*
Y0031041D01*
Y0030838D01*
X0031968D01*
Y0031041D01*
Y0031244D01*
X0032374D01*
Y0031041D01*
Y0030838D01*
Y0030634D01*
Y0030431D01*
Y0030228D01*
X0032984D01*
Y0030025D01*
Y0029822D01*
X0034000D01*
Y0029618D01*
Y0029415D01*
Y0029212D01*
X0031358D01*
Y0029415D01*
Y0029618D01*
Y0029822D01*
X0031968D01*
Y0030025D01*
Y0030228D01*
X0030952D01*
Y0030431D01*
Y0030634D01*
Y0030838D01*
Y0031041D01*
Y0031244D01*
X0030342D01*
Y0031447D01*
Y0031650D01*
Y0031854D01*
X0029936D01*
Y0031650D01*
Y0031447D01*
Y0031244D01*
X0029326D01*
Y0031447D01*
Y0031650D01*
Y0031854D01*
X0028920D01*
Y0031650D01*
Y0031447D01*
Y0031244D01*
X0029326D01*
Y0031041D01*
Y0030838D01*
X0029936D01*
Y0030634D01*
Y0030431D01*
Y0030228D01*
X0029326D01*
Y0030431D01*
Y0030634D01*
Y0030838D01*
X0028920D01*
Y0031041D01*
Y0031244D01*
X0028310D01*
Y0031447D01*
Y0031650D01*
Y0031854D01*
Y0032057D01*
Y0032260D01*
Y0032463D01*
Y0032666D01*
Y0032870D01*
Y0033073D01*
Y0033276D01*
X0027294D01*
Y0033479D01*
Y0033682D01*
Y0033886D01*
X0026278D01*
Y0033682D01*
Y0033479D01*
Y0033276D01*
X0026888D01*
Y0033073D01*
Y0032870D01*
Y0032666D01*
Y0032463D01*
Y0032260D01*
X0027294D01*
Y0032057D01*
Y0031854D01*
X0026278D01*
Y0031650D01*
Y0031447D01*
Y0031244D01*
X0025262D01*
Y0031447D01*
Y0031650D01*
Y0031854D01*
X0024246D01*
Y0031650D01*
Y0031447D01*
Y0031244D01*
X0023840D01*
Y0031447D01*
Y0031650D01*
Y0031854D01*
Y0032057D01*
Y0032260D01*
X0024856D01*
Y0032463D01*
Y0032666D01*
Y0032870D01*
Y0033073D01*
Y0033276D01*
Y0033479D01*
Y0033682D01*
Y0033886D01*
X0023840D01*
Y0034089D01*
Y0034292D01*
Y0034495D01*
Y0034698D01*
Y0034902D01*
X0024246D01*
Y0034698D01*
Y0034495D01*
Y0034292D01*
X0024856D01*
Y0034089D01*
Y0033886D01*
X0025872D01*
Y0034089D01*
Y0034292D01*
X0026278D01*
Y0034495D01*
Y0034698D01*
Y0034902D01*
X0027294D01*
Y0034698D01*
Y0034495D01*
Y0034292D01*
Y0034089D01*
Y0033886D01*
X0027904D01*
Y0034089D01*
Y0034292D01*
Y0034495D01*
Y0034698D01*
Y0034902D01*
X0027294D01*
Y0035105D01*
Y0035308D01*
X0027904D01*
Y0035105D01*
D02*
G37*
G36*
X0037048Y0036121D02*
Y0035918D01*
X0037454D01*
Y0035714D01*
Y0035511D01*
Y0035308D01*
X0038064D01*
Y0035105D01*
Y0034902D01*
X0038470D01*
Y0034698D01*
Y0034495D01*
Y0034292D01*
X0038064D01*
Y0034495D01*
Y0034698D01*
Y0034902D01*
X0037454D01*
Y0035105D01*
Y0035308D01*
X0037048D01*
Y0035511D01*
Y0035714D01*
Y0035918D01*
X0036438D01*
Y0036121D01*
Y0036324D01*
X0037048D01*
Y0036121D01*
D02*
G37*
G36*
X0037454Y0034698D02*
Y0034495D01*
Y0034292D01*
X0037048D01*
Y0034495D01*
Y0034698D01*
Y0034902D01*
X0037454D01*
Y0034698D01*
D02*
G37*
G36*
X0036032D02*
Y0034495D01*
Y0034292D01*
X0035016D01*
Y0034495D01*
Y0034698D01*
Y0034902D01*
X0036032D01*
Y0034698D01*
D02*
G37*
G36*
X0037454Y0032057D02*
Y0031854D01*
X0037048D01*
Y0032057D01*
Y0032260D01*
X0037454D01*
Y0032057D01*
D02*
G37*
G36*
X0024246Y0026977D02*
Y0026774D01*
X0023840D01*
Y0026977D01*
Y0027180D01*
X0024246D01*
Y0026977D01*
D02*
G37*
G36*
X0038470Y0029618D02*
Y0029415D01*
Y0029212D01*
Y0029009D01*
Y0028806D01*
Y0028602D01*
Y0028399D01*
Y0028196D01*
Y0027993D01*
Y0027790D01*
Y0027586D01*
Y0027383D01*
Y0027180D01*
Y0026977D01*
Y0026774D01*
Y0026570D01*
Y0026367D01*
Y0026164D01*
X0035016D01*
Y0026367D01*
Y0026570D01*
Y0026774D01*
Y0026977D01*
Y0027180D01*
Y0027383D01*
Y0027586D01*
Y0027790D01*
Y0027993D01*
Y0028196D01*
Y0028399D01*
Y0028602D01*
Y0028806D01*
Y0029009D01*
Y0029212D01*
Y0029415D01*
Y0029618D01*
Y0029822D01*
X0038470D01*
Y0029618D01*
D02*
G37*
G36*
X0048500Y0012000D02*
X0009578D01*
Y0019500D01*
X0048500D01*
Y0012000D01*
D02*
G37*
G36*
X0034000Y0028602D02*
Y0028399D01*
Y0028196D01*
X0033390D01*
Y0028399D01*
Y0028602D01*
Y0028806D01*
X0034000D01*
Y0028602D01*
D02*
G37*
G36*
X0031968Y0032666D02*
Y0032463D01*
Y0032260D01*
Y0032057D01*
Y0031854D01*
X0031358D01*
Y0032057D01*
Y0032260D01*
X0030952D01*
Y0032463D01*
Y0032666D01*
Y0032870D01*
X0031968D01*
Y0032666D01*
D02*
G37*
G36*
X0028310Y0031041D02*
Y0030838D01*
X0028920D01*
Y0030634D01*
Y0030431D01*
Y0030228D01*
X0029326D01*
Y0030025D01*
Y0029822D01*
Y0029618D01*
Y0029415D01*
Y0029212D01*
X0028920D01*
Y0029009D01*
Y0028806D01*
Y0028602D01*
Y0028399D01*
Y0028196D01*
X0029326D01*
Y0027993D01*
Y0027790D01*
X0029936D01*
Y0027993D01*
Y0028196D01*
Y0028399D01*
Y0028602D01*
Y0028806D01*
Y0029009D01*
Y0029212D01*
X0030342D01*
Y0029415D01*
Y0029618D01*
Y0029822D01*
Y0030025D01*
Y0030228D01*
X0030952D01*
Y0030025D01*
Y0029822D01*
Y0029618D01*
Y0029415D01*
Y0029212D01*
X0031358D01*
Y0029009D01*
Y0028806D01*
X0031968D01*
Y0028602D01*
Y0028399D01*
Y0028196D01*
X0030952D01*
Y0028399D01*
Y0028602D01*
Y0028806D01*
X0030342D01*
Y0028602D01*
Y0028399D01*
Y0028196D01*
Y0027993D01*
Y0027790D01*
X0031358D01*
Y0027586D01*
Y0027383D01*
Y0027180D01*
X0031968D01*
Y0027383D01*
Y0027586D01*
Y0027790D01*
X0032374D01*
Y0027993D01*
Y0028196D01*
Y0028399D01*
Y0028602D01*
Y0028806D01*
X0032984D01*
Y0028602D01*
Y0028399D01*
Y0028196D01*
X0033390D01*
Y0027993D01*
Y0027790D01*
X0034000D01*
Y0027586D01*
Y0027383D01*
Y0027180D01*
Y0026977D01*
Y0026774D01*
X0034406D01*
Y0026570D01*
Y0026367D01*
Y0026164D01*
X0034000D01*
Y0026367D01*
Y0026570D01*
Y0026774D01*
X0032984D01*
Y0026570D01*
Y0026367D01*
Y0026164D01*
X0030952D01*
Y0026367D01*
Y0026570D01*
Y0026774D01*
X0030342D01*
Y0026977D01*
Y0027180D01*
X0029326D01*
Y0026977D01*
Y0026774D01*
X0029936D01*
Y0026570D01*
Y0026367D01*
Y0026164D01*
X0028310D01*
Y0026367D01*
Y0026570D01*
Y0026774D01*
X0028920D01*
Y0026977D01*
Y0027180D01*
X0027294D01*
Y0026977D01*
Y0026774D01*
Y0026570D01*
Y0026367D01*
Y0026164D01*
X0025872D01*
Y0026367D01*
Y0026570D01*
Y0026774D01*
X0025262D01*
Y0026570D01*
Y0026367D01*
Y0026164D01*
X0024856D01*
Y0026367D01*
Y0026570D01*
Y0026774D01*
Y0026977D01*
Y0027180D01*
X0024246D01*
Y0027383D01*
Y0027586D01*
Y0027790D01*
X0023840D01*
Y0027993D01*
Y0028196D01*
X0024246D01*
Y0027993D01*
Y0027790D01*
X0024856D01*
Y0027993D01*
Y0028196D01*
X0024246D01*
Y0028399D01*
Y0028602D01*
Y0028806D01*
X0023840D01*
Y0029009D01*
Y0029212D01*
X0024246D01*
Y0029009D01*
Y0028806D01*
X0024856D01*
Y0028602D01*
Y0028399D01*
Y0028196D01*
X0025262D01*
Y0028399D01*
Y0028602D01*
Y0028806D01*
X0025872D01*
Y0029009D01*
Y0029212D01*
X0024856D01*
Y0029415D01*
Y0029618D01*
Y0029822D01*
X0025262D01*
Y0030025D01*
Y0030228D01*
X0023840D01*
Y0030431D01*
Y0030634D01*
Y0030838D01*
X0025262D01*
Y0030634D01*
Y0030431D01*
Y0030228D01*
X0025872D01*
Y0030431D01*
Y0030634D01*
Y0030838D01*
X0026888D01*
Y0031041D01*
Y0031244D01*
X0027294D01*
Y0031041D01*
Y0030838D01*
X0027904D01*
Y0031041D01*
Y0031244D01*
X0028310D01*
Y0031041D01*
D02*
G37*
G36*
X0034406Y0030025D02*
Y0029822D01*
X0034000D01*
Y0030025D01*
Y0030228D01*
X0034406D01*
Y0030025D01*
D02*
G37*
G36*
X0025872Y0035105D02*
Y0034902D01*
X0025262D01*
Y0035105D01*
Y0035308D01*
X0025872D01*
Y0035105D01*
D02*
G37*
G36*
X0038470Y0040794D02*
Y0040591D01*
Y0040388D01*
Y0040185D01*
Y0039982D01*
Y0039778D01*
Y0039575D01*
Y0039372D01*
Y0039169D01*
Y0038966D01*
Y0038762D01*
Y0038559D01*
Y0038356D01*
Y0038153D01*
Y0037950D01*
Y0037746D01*
Y0037543D01*
Y0037340D01*
X0035016D01*
Y0037543D01*
Y0037746D01*
Y0037950D01*
Y0038153D01*
Y0038356D01*
Y0038559D01*
Y0038762D01*
Y0038966D01*
Y0039169D01*
Y0039372D01*
Y0039575D01*
Y0039778D01*
Y0039982D01*
Y0040185D01*
Y0040388D01*
Y0040591D01*
Y0040794D01*
Y0040998D01*
X0038470D01*
Y0040794D01*
D02*
G37*
G36*
X0033390D02*
Y0040591D01*
Y0040388D01*
Y0040185D01*
Y0039982D01*
X0032984D01*
Y0039778D01*
Y0039575D01*
Y0039372D01*
X0031968D01*
Y0039575D01*
Y0039778D01*
Y0039982D01*
X0031358D01*
Y0040185D01*
Y0040388D01*
X0030952D01*
Y0040591D01*
Y0040794D01*
Y0040998D01*
X0033390D01*
Y0040794D01*
D02*
G37*
G36*
X0034406Y0040185D02*
Y0039982D01*
Y0039778D01*
Y0039575D01*
Y0039372D01*
Y0039169D01*
Y0038966D01*
X0034000D01*
Y0039169D01*
Y0039372D01*
Y0039575D01*
Y0039778D01*
Y0039982D01*
Y0040185D01*
Y0040388D01*
X0034406D01*
Y0040185D01*
D02*
G37*
G36*
X0029936Y0040794D02*
Y0040591D01*
Y0040388D01*
X0030342D01*
Y0040185D01*
Y0039982D01*
Y0039778D01*
Y0039575D01*
Y0039372D01*
X0030952D01*
Y0039169D01*
Y0038966D01*
Y0038762D01*
Y0038559D01*
Y0038356D01*
X0031358D01*
Y0038153D01*
Y0037950D01*
Y0037746D01*
Y0037543D01*
Y0037340D01*
X0030952D01*
Y0037543D01*
Y0037746D01*
Y0037950D01*
Y0038153D01*
Y0038356D01*
X0030342D01*
Y0038153D01*
Y0037950D01*
Y0037746D01*
Y0037543D01*
Y0037340D01*
Y0037137D01*
Y0036934D01*
X0031968D01*
Y0037137D01*
Y0037340D01*
Y0037543D01*
Y0037746D01*
Y0037950D01*
Y0038153D01*
Y0038356D01*
X0031358D01*
Y0038559D01*
Y0038762D01*
Y0038966D01*
Y0039169D01*
Y0039372D01*
X0030952D01*
Y0039575D01*
Y0039778D01*
Y0039982D01*
X0031358D01*
Y0039778D01*
Y0039575D01*
Y0039372D01*
X0031968D01*
Y0039169D01*
Y0038966D01*
Y0038762D01*
Y0038559D01*
Y0038356D01*
X0032374D01*
Y0038153D01*
Y0037950D01*
Y0037746D01*
Y0037543D01*
Y0037340D01*
Y0037137D01*
Y0036934D01*
Y0036730D01*
Y0036527D01*
Y0036324D01*
X0032984D01*
Y0036527D01*
Y0036730D01*
Y0036934D01*
X0033390D01*
Y0036730D01*
Y0036527D01*
Y0036324D01*
Y0036121D01*
Y0035918D01*
X0034000D01*
Y0035714D01*
Y0035511D01*
Y0035308D01*
Y0035105D01*
Y0034902D01*
Y0034698D01*
Y0034495D01*
Y0034292D01*
X0034406D01*
Y0034089D01*
Y0033886D01*
X0038470D01*
Y0033682D01*
Y0033479D01*
Y0033276D01*
X0038064D01*
Y0033073D01*
Y0032870D01*
Y0032666D01*
Y0032463D01*
Y0032260D01*
X0037454D01*
Y0032463D01*
Y0032666D01*
Y0032870D01*
Y0033073D01*
Y0033276D01*
X0037048D01*
Y0033073D01*
Y0032870D01*
X0036438D01*
Y0033073D01*
Y0033276D01*
X0036032D01*
Y0033073D01*
Y0032870D01*
X0036438D01*
Y0032666D01*
Y0032463D01*
Y0032260D01*
X0034406D01*
Y0032463D01*
Y0032666D01*
Y0032870D01*
X0035422D01*
Y0033073D01*
Y0033276D01*
X0034406D01*
Y0033479D01*
Y0033682D01*
Y0033886D01*
X0032984D01*
Y0033682D01*
Y0033479D01*
Y0033276D01*
X0034000D01*
Y0033073D01*
Y0032870D01*
X0032984D01*
Y0032666D01*
Y0032463D01*
Y0032260D01*
X0034000D01*
Y0032057D01*
Y0031854D01*
X0034406D01*
Y0031650D01*
Y0031447D01*
Y0031244D01*
X0035016D01*
Y0031041D01*
Y0030838D01*
X0035422D01*
Y0031041D01*
Y0031244D01*
X0035016D01*
Y0031447D01*
Y0031650D01*
Y0031854D01*
X0035422D01*
Y0031650D01*
Y0031447D01*
Y0031244D01*
X0036032D01*
Y0031041D01*
Y0030838D01*
X0036438D01*
Y0031041D01*
Y0031244D01*
Y0031447D01*
Y0031650D01*
Y0031854D01*
X0037048D01*
Y0031650D01*
Y0031447D01*
Y0031244D01*
X0038064D01*
Y0031041D01*
Y0030838D01*
Y0030634D01*
Y0030431D01*
Y0030228D01*
X0035016D01*
Y0030431D01*
Y0030634D01*
Y0030838D01*
X0033390D01*
Y0030634D01*
Y0030431D01*
Y0030228D01*
X0032984D01*
Y0030431D01*
Y0030634D01*
Y0030838D01*
Y0031041D01*
Y0031244D01*
X0034000D01*
Y0031447D01*
Y0031650D01*
Y0031854D01*
X0032374D01*
Y0032057D01*
Y0032260D01*
Y0032463D01*
Y0032666D01*
Y0032870D01*
X0031968D01*
Y0033073D01*
Y0033276D01*
X0031358D01*
Y0033479D01*
Y0033682D01*
Y0033886D01*
X0031968D01*
Y0034089D01*
Y0034292D01*
Y0034495D01*
Y0034698D01*
Y0034902D01*
X0032374D01*
Y0035105D01*
Y0035308D01*
Y0035511D01*
Y0035714D01*
Y0035918D01*
Y0036121D01*
Y0036324D01*
X0031968D01*
Y0036121D01*
Y0035918D01*
Y0035714D01*
Y0035511D01*
Y0035308D01*
X0031358D01*
Y0035105D01*
Y0034902D01*
X0030952D01*
Y0035105D01*
Y0035308D01*
X0029936D01*
Y0035511D01*
Y0035714D01*
Y0035918D01*
X0030342D01*
Y0036121D01*
Y0036324D01*
Y0036527D01*
Y0036730D01*
Y0036934D01*
X0029936D01*
Y0037137D01*
Y0037340D01*
Y0037543D01*
Y0037746D01*
Y0037950D01*
X0029326D01*
Y0037746D01*
Y0037543D01*
Y0037340D01*
Y0037137D01*
Y0036934D01*
X0029936D01*
Y0036730D01*
Y0036527D01*
Y0036324D01*
X0029326D01*
Y0036527D01*
Y0036730D01*
Y0036934D01*
X0028920D01*
Y0036730D01*
Y0036527D01*
Y0036324D01*
X0029326D01*
Y0036121D01*
Y0035918D01*
X0028310D01*
Y0036121D01*
Y0036324D01*
Y0036527D01*
Y0036730D01*
Y0036934D01*
X0027904D01*
Y0037137D01*
Y0037340D01*
Y0037543D01*
Y0037746D01*
Y0037950D01*
X0028310D01*
Y0037746D01*
Y0037543D01*
Y0037340D01*
X0028920D01*
Y0037543D01*
Y0037746D01*
Y0037950D01*
Y0038153D01*
Y0038356D01*
X0027904D01*
Y0038559D01*
Y0038762D01*
Y0038966D01*
X0028920D01*
Y0038762D01*
Y0038559D01*
Y0038356D01*
X0029936D01*
Y0038559D01*
Y0038762D01*
Y0038966D01*
X0029326D01*
Y0039169D01*
Y0039372D01*
X0029936D01*
Y0039169D01*
Y0038966D01*
X0030342D01*
Y0039169D01*
Y0039372D01*
X0029936D01*
Y0039575D01*
Y0039778D01*
Y0039982D01*
Y0040185D01*
Y0040388D01*
X0029326D01*
Y0040185D01*
Y0039982D01*
X0028920D01*
Y0040185D01*
Y0040388D01*
Y0040591D01*
Y0040794D01*
Y0040998D01*
X0029936D01*
Y0040794D01*
D02*
G37*
G36*
X0028310Y0039778D02*
Y0039575D01*
Y0039372D01*
X0027904D01*
Y0039575D01*
Y0039778D01*
Y0039982D01*
X0028310D01*
Y0039778D01*
D02*
G37*
G36*
X0034000Y0038762D02*
Y0038559D01*
Y0038356D01*
Y0038153D01*
Y0037950D01*
X0034406D01*
Y0037746D01*
Y0037543D01*
Y0037340D01*
Y0037137D01*
Y0036934D01*
Y0036730D01*
Y0036527D01*
Y0036324D01*
X0035016D01*
Y0036121D01*
Y0035918D01*
X0035422D01*
Y0036121D01*
Y0036324D01*
X0035016D01*
Y0036527D01*
Y0036730D01*
Y0036934D01*
X0035422D01*
Y0036730D01*
Y0036527D01*
Y0036324D01*
X0036032D01*
Y0036121D01*
Y0035918D01*
Y0035714D01*
Y0035511D01*
Y0035308D01*
X0034406D01*
Y0035511D01*
Y0035714D01*
Y0035918D01*
Y0036121D01*
Y0036324D01*
X0034000D01*
Y0036527D01*
Y0036730D01*
Y0036934D01*
X0033390D01*
Y0037137D01*
Y0037340D01*
X0032984D01*
Y0037543D01*
Y0037746D01*
Y0037950D01*
Y0038153D01*
Y0038356D01*
Y0038559D01*
Y0038762D01*
Y0038966D01*
X0034000D01*
Y0038762D01*
D02*
G37*
G36*
X0027904Y0036730D02*
Y0036527D01*
Y0036324D01*
Y0036121D01*
Y0035918D01*
X0028310D01*
Y0035714D01*
Y0035511D01*
Y0035308D01*
X0027904D01*
Y0035511D01*
Y0035714D01*
Y0035918D01*
X0027294D01*
Y0036121D01*
Y0036324D01*
X0026888D01*
Y0036527D01*
Y0036730D01*
Y0036934D01*
X0027904D01*
Y0036730D01*
D02*
G37*
G36*
X0025872D02*
Y0036527D01*
Y0036324D01*
X0026888D01*
Y0036121D01*
Y0035918D01*
X0026278D01*
Y0035714D01*
Y0035511D01*
Y0035308D01*
X0025872D01*
Y0035511D01*
Y0035714D01*
Y0035918D01*
Y0036121D01*
Y0036324D01*
X0025262D01*
Y0036121D01*
Y0035918D01*
X0024246D01*
Y0036121D01*
Y0036324D01*
Y0036527D01*
Y0036730D01*
Y0036934D01*
X0025872D01*
Y0036730D01*
D02*
G37*
G36*
X0027294Y0040794D02*
Y0040591D01*
Y0040388D01*
Y0040185D01*
Y0039982D01*
Y0039778D01*
Y0039575D01*
Y0039372D01*
Y0039169D01*
Y0038966D01*
Y0038762D01*
Y0038559D01*
Y0038356D01*
Y0038153D01*
Y0037950D01*
Y0037746D01*
Y0037543D01*
Y0037340D01*
X0023840D01*
Y0037543D01*
Y0037746D01*
Y0037950D01*
Y0038153D01*
Y0038356D01*
Y0038559D01*
Y0038762D01*
Y0038966D01*
Y0039169D01*
Y0039372D01*
Y0039575D01*
Y0039778D01*
Y0039982D01*
Y0040185D01*
Y0040388D01*
Y0040591D01*
Y0040794D01*
Y0040998D01*
X0027294D01*
Y0040794D01*
D02*
G37*
G36*
X0038470Y0036730D02*
Y0036527D01*
Y0036324D01*
Y0036121D01*
Y0035918D01*
X0037454D01*
Y0036121D01*
Y0036324D01*
X0038064D01*
Y0036527D01*
Y0036730D01*
Y0036934D01*
X0038470D01*
Y0036730D01*
D02*
G37*
%LPC*%
G36*
X0025872Y0032260D02*
X0025262D01*
Y0032057D01*
Y0031854D01*
X0025872D01*
Y0032057D01*
Y0032260D01*
D02*
G37*
G36*
Y0033276D02*
X0025262D01*
Y0033073D01*
Y0032870D01*
X0025872D01*
Y0032666D01*
Y0032463D01*
Y0032260D01*
X0026278D01*
Y0032463D01*
Y0032666D01*
Y0032870D01*
X0025872D01*
Y0033073D01*
Y0033276D01*
D02*
G37*
G36*
X0038064Y0029212D02*
X0035422D01*
Y0029009D01*
Y0028806D01*
Y0028602D01*
Y0028399D01*
Y0028196D01*
Y0027993D01*
Y0027790D01*
Y0027586D01*
Y0027383D01*
Y0027180D01*
Y0026977D01*
Y0026774D01*
X0038064D01*
Y0026977D01*
Y0027180D01*
Y0027383D01*
Y0027586D01*
Y0027790D01*
Y0027993D01*
Y0028196D01*
Y0028399D01*
Y0028602D01*
Y0028806D01*
Y0029009D01*
Y0029212D01*
D02*
G37*
%LPD*%
G36*
X0037454Y0028602D02*
Y0028399D01*
Y0028196D01*
Y0027993D01*
Y0027790D01*
Y0027586D01*
Y0027383D01*
Y0027180D01*
X0036032D01*
Y0027383D01*
Y0027586D01*
Y0027790D01*
Y0027993D01*
Y0028196D01*
Y0028399D01*
Y0028602D01*
Y0028806D01*
X0037454D01*
Y0028602D01*
D02*
G37*
%LPC*%
G36*
X0018136Y0017520D02*
X0018033D01*
X0017974Y0017513D01*
X0017914Y0017505D01*
X0017774Y0017491D01*
X0017625Y0017461D01*
X0017477Y0017424D01*
X0017337Y0017365D01*
X0017277Y0017328D01*
X0017225Y0017283D01*
X0017211Y0017276D01*
X0017188Y0017239D01*
X0017144Y0017194D01*
X0017100Y0017128D01*
X0017063Y0017046D01*
X0017025Y0016942D01*
X0017011Y0016839D01*
X0017018Y0016713D01*
Y0016705D01*
Y0016698D01*
X0017025Y0016676D01*
X0017033Y0016646D01*
X0017040Y0016602D01*
X0017048Y0016550D01*
X0017070Y0016491D01*
X0017085Y0016417D01*
X0017107Y0016328D01*
X0017137Y0016224D01*
X0017166Y0016113D01*
X0017211Y0015987D01*
X0017255Y0015839D01*
X0017307Y0015683D01*
X0017359Y0015513D01*
X0017425Y0015320D01*
X0018144Y0013195D01*
X0019403D01*
X0019277Y0013572D01*
X0019285Y0013565D01*
X0019314Y0013535D01*
X0019351Y0013491D01*
X0019403Y0013447D01*
X0019462Y0013387D01*
X0019536Y0013335D01*
X0019618Y0013276D01*
X0019699Y0013232D01*
X0019707Y0013224D01*
X0019736Y0013217D01*
X0019781Y0013195D01*
X0019840Y0013180D01*
X0019914Y0013158D01*
X0019996Y0013135D01*
X0020092Y0013128D01*
X0020188Y0013121D01*
X0020240D01*
X0020307Y0013128D01*
X0020381Y0013143D01*
X0020470Y0013165D01*
X0020566Y0013202D01*
X0020655Y0013247D01*
X0020744Y0013306D01*
X0020751Y0013313D01*
X0020773Y0013343D01*
X0020803Y0013402D01*
X0020810Y0013439D01*
X0020825Y0013484D01*
X0020833Y0013535D01*
X0020840Y0013595D01*
Y0013661D01*
X0020833Y0013743D01*
X0020825Y0013824D01*
X0020803Y0013921D01*
X0020781Y0014024D01*
X0020744Y0014143D01*
X0020625Y0014491D01*
Y0014498D01*
X0020618Y0014513D01*
X0020610Y0014535D01*
X0020595Y0014565D01*
X0020566Y0014646D01*
X0020514Y0014750D01*
X0020462Y0014854D01*
X0020403Y0014965D01*
X0020329Y0015061D01*
X0020255Y0015135D01*
X0020247Y0015143D01*
X0020210Y0015165D01*
X0020151Y0015202D01*
X0020114Y0015224D01*
X0020070Y0015246D01*
X0020010Y0015276D01*
X0019951Y0015306D01*
X0019877Y0015343D01*
X0019796Y0015380D01*
X0019707Y0015417D01*
X0019603Y0015454D01*
X0019492Y0015491D01*
X0019373Y0015535D01*
X0019366D01*
X0019344Y0015550D01*
X0019307Y0015557D01*
X0019255Y0015580D01*
X0019203Y0015594D01*
X0019136Y0015617D01*
X0019003Y0015669D01*
X0018862Y0015728D01*
X0018729Y0015780D01*
X0018677Y0015809D01*
X0018625Y0015831D01*
X0018596Y0015854D01*
X0018573Y0015869D01*
Y0015876D01*
X0018559Y0015883D01*
X0018544Y0015913D01*
X0018522Y0015950D01*
X0018499Y0015994D01*
X0018470Y0016054D01*
X0018440Y0016135D01*
X0018411Y0016224D01*
Y0016231D01*
X0018403Y0016239D01*
X0018396Y0016276D01*
X0018373Y0016335D01*
X0018359Y0016402D01*
X0018336Y0016476D01*
X0018322Y0016550D01*
X0018314Y0016609D01*
Y0016661D01*
Y0016668D01*
X0018322Y0016676D01*
X0018336Y0016713D01*
X0018373Y0016750D01*
X0018403Y0016757D01*
X0018440Y0016765D01*
X0018462D01*
X0018485Y0016757D01*
X0018514D01*
X0018581Y0016728D01*
X0018611Y0016705D01*
X0018633Y0016676D01*
Y0016668D01*
X0018640Y0016661D01*
X0018655Y0016631D01*
X0018677Y0016594D01*
X0018707Y0016535D01*
X0018736Y0016461D01*
X0018773Y0016357D01*
X0018818Y0016239D01*
X0018966Y0015794D01*
X0020181D01*
X0020084Y0016076D01*
Y0016083D01*
X0020077Y0016098D01*
X0020070Y0016120D01*
X0020055Y0016157D01*
X0020018Y0016246D01*
X0019973Y0016357D01*
X0019921Y0016483D01*
X0019855Y0016609D01*
X0019788Y0016728D01*
X0019714Y0016839D01*
X0019707Y0016854D01*
X0019677Y0016883D01*
X0019625Y0016935D01*
X0019559Y0017002D01*
X0019470Y0017068D01*
X0019366Y0017150D01*
X0019240Y0017231D01*
X0019099Y0017313D01*
X0019092D01*
X0019077Y0017320D01*
X0019055Y0017335D01*
X0019025Y0017342D01*
X0018988Y0017365D01*
X0018936Y0017379D01*
X0018825Y0017416D01*
X0018685Y0017454D01*
X0018514Y0017491D01*
X0018336Y0017513D01*
X0018136Y0017520D01*
D02*
G37*
G36*
X0032720D02*
X0032616D01*
X0032557Y0017513D01*
X0032498Y0017505D01*
X0032357Y0017491D01*
X0032209Y0017461D01*
X0032061Y0017424D01*
X0031920Y0017365D01*
X0031861Y0017328D01*
X0031809Y0017283D01*
X0031794Y0017276D01*
X0031772Y0017239D01*
X0031728Y0017194D01*
X0031683Y0017128D01*
X0031646Y0017046D01*
X0031609Y0016942D01*
X0031594Y0016839D01*
X0031602Y0016713D01*
Y0016705D01*
Y0016698D01*
X0031609Y0016676D01*
X0031617Y0016646D01*
X0031624Y0016602D01*
X0031631Y0016550D01*
X0031654Y0016491D01*
X0031668Y0016417D01*
X0031691Y0016328D01*
X0031720Y0016224D01*
X0031750Y0016113D01*
X0031794Y0015987D01*
X0031839Y0015839D01*
X0031891Y0015683D01*
X0031942Y0015513D01*
X0032009Y0015320D01*
X0032728Y0013195D01*
X0033987D01*
X0033861Y0013572D01*
X0033868Y0013565D01*
X0033898Y0013535D01*
X0033935Y0013491D01*
X0033987Y0013447D01*
X0034046Y0013387D01*
X0034120Y0013335D01*
X0034201Y0013276D01*
X0034283Y0013232D01*
X0034290Y0013224D01*
X0034320Y0013217D01*
X0034364Y0013195D01*
X0034424Y0013180D01*
X0034498Y0013158D01*
X0034579Y0013135D01*
X0034676Y0013128D01*
X0034772Y0013121D01*
X0034824D01*
X0034890Y0013128D01*
X0034964Y0013143D01*
X0035053Y0013165D01*
X0035150Y0013202D01*
X0035238Y0013247D01*
X0035327Y0013306D01*
X0035335Y0013313D01*
X0035357Y0013343D01*
X0035387Y0013402D01*
X0035394Y0013439D01*
X0035409Y0013484D01*
X0035416Y0013535D01*
X0035424Y0013595D01*
Y0013661D01*
X0035416Y0013743D01*
X0035409Y0013824D01*
X0035387Y0013921D01*
X0035364Y0014024D01*
X0035327Y0014143D01*
X0035209Y0014491D01*
Y0014498D01*
X0035201Y0014513D01*
X0035194Y0014535D01*
X0035179Y0014565D01*
X0035150Y0014646D01*
X0035098Y0014750D01*
X0035046Y0014854D01*
X0034987Y0014965D01*
X0034913Y0015061D01*
X0034838Y0015135D01*
X0034831Y0015143D01*
X0034794Y0015165D01*
X0034735Y0015202D01*
X0034698Y0015224D01*
X0034653Y0015246D01*
X0034594Y0015276D01*
X0034535Y0015306D01*
X0034461Y0015343D01*
X0034379Y0015380D01*
X0034290Y0015417D01*
X0034187Y0015454D01*
X0034076Y0015491D01*
X0033957Y0015535D01*
X0033950D01*
X0033927Y0015550D01*
X0033890Y0015557D01*
X0033839Y0015580D01*
X0033787Y0015594D01*
X0033720Y0015617D01*
X0033587Y0015669D01*
X0033446Y0015728D01*
X0033313Y0015780D01*
X0033261Y0015809D01*
X0033209Y0015831D01*
X0033179Y0015854D01*
X0033157Y0015869D01*
Y0015876D01*
X0033142Y0015883D01*
X0033128Y0015913D01*
X0033105Y0015950D01*
X0033083Y0015994D01*
X0033053Y0016054D01*
X0033024Y0016135D01*
X0032994Y0016224D01*
Y0016231D01*
X0032987Y0016239D01*
X0032979Y0016276D01*
X0032957Y0016335D01*
X0032942Y0016402D01*
X0032920Y0016476D01*
X0032905Y0016550D01*
X0032898Y0016609D01*
Y0016661D01*
Y0016668D01*
X0032905Y0016676D01*
X0032920Y0016713D01*
X0032957Y0016750D01*
X0032987Y0016757D01*
X0033024Y0016765D01*
X0033046D01*
X0033068Y0016757D01*
X0033098D01*
X0033165Y0016728D01*
X0033194Y0016705D01*
X0033216Y0016676D01*
Y0016668D01*
X0033224Y0016661D01*
X0033239Y0016631D01*
X0033261Y0016594D01*
X0033290Y0016535D01*
X0033320Y0016461D01*
X0033357Y0016357D01*
X0033402Y0016239D01*
X0033550Y0015794D01*
X0034764D01*
X0034668Y0016076D01*
Y0016083D01*
X0034661Y0016098D01*
X0034653Y0016120D01*
X0034638Y0016157D01*
X0034601Y0016246D01*
X0034557Y0016357D01*
X0034505Y0016483D01*
X0034438Y0016609D01*
X0034372Y0016728D01*
X0034298Y0016839D01*
X0034290Y0016854D01*
X0034261Y0016883D01*
X0034209Y0016935D01*
X0034142Y0017002D01*
X0034053Y0017068D01*
X0033950Y0017150D01*
X0033824Y0017231D01*
X0033683Y0017313D01*
X0033676D01*
X0033661Y0017320D01*
X0033639Y0017335D01*
X0033609Y0017342D01*
X0033572Y0017365D01*
X0033520Y0017379D01*
X0033409Y0017416D01*
X0033268Y0017454D01*
X0033098Y0017491D01*
X0032920Y0017513D01*
X0032720Y0017520D01*
D02*
G37*
G36*
X0015944Y0018379D02*
X0014648D01*
X0015063Y0017142D01*
X0015055Y0017150D01*
X0015026Y0017172D01*
X0014981Y0017209D01*
X0014922Y0017254D01*
X0014855Y0017298D01*
X0014781Y0017342D01*
X0014692Y0017387D01*
X0014611Y0017424D01*
X0014604Y0017431D01*
X0014574Y0017439D01*
X0014529Y0017454D01*
X0014470Y0017476D01*
X0014396Y0017491D01*
X0014322Y0017505D01*
X0014241Y0017513D01*
X0014152Y0017520D01*
X0014107D01*
X0014055Y0017513D01*
X0013996D01*
X0013930Y0017498D01*
X0013855Y0017483D01*
X0013789Y0017461D01*
X0013722Y0017431D01*
X0013715D01*
X0013692Y0017416D01*
X0013663Y0017394D01*
X0013633Y0017372D01*
X0013559Y0017298D01*
X0013522Y0017246D01*
X0013500Y0017194D01*
Y0017187D01*
X0013493Y0017172D01*
X0013485Y0017142D01*
X0013478Y0017105D01*
X0013470Y0017009D01*
Y0016957D01*
X0013478Y0016905D01*
Y0016898D01*
X0013485Y0016876D01*
X0013493Y0016839D01*
X0013515Y0016780D01*
X0013537Y0016691D01*
X0013567Y0016587D01*
X0013611Y0016454D01*
X0013633Y0016380D01*
X0013663Y0016291D01*
X0014315Y0014380D01*
Y0014372D01*
X0014322Y0014358D01*
X0014329Y0014335D01*
X0014344Y0014306D01*
X0014374Y0014217D01*
X0014411Y0014121D01*
X0014455Y0014002D01*
X0014507Y0013891D01*
X0014559Y0013780D01*
X0014611Y0013684D01*
X0014618Y0013676D01*
X0014641Y0013647D01*
X0014670Y0013602D01*
X0014715Y0013550D01*
X0014774Y0013484D01*
X0014848Y0013417D01*
X0014937Y0013350D01*
X0015040Y0013284D01*
X0015055Y0013276D01*
X0015092Y0013261D01*
X0015152Y0013232D01*
X0015226Y0013202D01*
X0015315Y0013172D01*
X0015418Y0013143D01*
X0015529Y0013128D01*
X0015648Y0013121D01*
X0015685D01*
X0015729Y0013128D01*
X0015781Y0013135D01*
X0015840Y0013143D01*
X0015907Y0013165D01*
X0015966Y0013187D01*
X0016033Y0013217D01*
X0016040Y0013224D01*
X0016063Y0013232D01*
X0016092Y0013261D01*
X0016129Y0013291D01*
X0016166Y0013335D01*
X0016211Y0013380D01*
X0016255Y0013447D01*
X0016292Y0013513D01*
X0016485Y0013195D01*
X0017699D01*
X0015944Y0018379D01*
D02*
G37*
G36*
X0028758Y0017520D02*
X0029269Y0016024D01*
X0029328D01*
X0029395Y0016017D01*
X0029469Y0016009D01*
X0029558Y0016002D01*
X0029654Y0015987D01*
X0029743Y0015957D01*
X0029824Y0015928D01*
X0029832Y0015920D01*
X0029854Y0015913D01*
X0029891Y0015891D01*
X0029935Y0015861D01*
X0029980Y0015817D01*
X0030024Y0015772D01*
X0030076Y0015720D01*
X0030113Y0015654D01*
X0030120Y0015646D01*
X0030128Y0015617D01*
X0030157Y0015565D01*
X0030187Y0015491D01*
X0030209Y0015446D01*
X0030232Y0015387D01*
X0030254Y0015320D01*
X0030283Y0015254D01*
X0030313Y0015172D01*
X0030350Y0015076D01*
X0030387Y0014980D01*
X0030424Y0014869D01*
X0030987Y0013195D01*
X0032283D01*
X0030846Y0017439D01*
X0029558D01*
X0029787Y0016876D01*
X0029780Y0016883D01*
X0029765Y0016905D01*
X0029735Y0016935D01*
X0029706Y0016972D01*
X0029661Y0017017D01*
X0029602Y0017068D01*
X0029543Y0017128D01*
X0029476Y0017187D01*
X0029321Y0017298D01*
X0029150Y0017402D01*
X0029054Y0017446D01*
X0028958Y0017483D01*
X0028861Y0017505D01*
X0028758Y0017520D01*
D02*
G37*
G36*
X0021706Y0018379D02*
X0020358D01*
X0021766Y0014232D01*
X0020944D01*
X0021292Y0013195D01*
X0023462D01*
X0021706Y0018379D01*
D02*
G37*
G36*
X0023877Y0017520D02*
X0023810D01*
X0023728Y0017513D01*
X0023632Y0017505D01*
X0023521Y0017491D01*
X0023410Y0017476D01*
X0023299Y0017446D01*
X0023195Y0017409D01*
X0023180Y0017402D01*
X0023151Y0017387D01*
X0023106Y0017365D01*
X0023054Y0017335D01*
X0022995Y0017291D01*
X0022936Y0017239D01*
X0022884Y0017187D01*
X0022840Y0017120D01*
X0022832Y0017113D01*
X0022825Y0017091D01*
X0022810Y0017061D01*
X0022788Y0017017D01*
X0022758Y0016913D01*
Y0016854D01*
Y0016794D01*
Y0016787D01*
X0022766Y0016765D01*
Y0016728D01*
X0022780Y0016683D01*
X0022795Y0016617D01*
X0022817Y0016535D01*
X0022847Y0016439D01*
X0022884Y0016328D01*
X0022966Y0016083D01*
X0024114D01*
X0024032Y0016313D01*
X0024025Y0016328D01*
X0024017Y0016357D01*
X0024003Y0016409D01*
X0023988Y0016468D01*
X0023965Y0016528D01*
X0023951Y0016594D01*
X0023943Y0016646D01*
Y0016683D01*
Y0016691D01*
Y0016698D01*
X0023965Y0016728D01*
X0023980Y0016742D01*
X0024003Y0016750D01*
X0024040Y0016765D01*
X0024099D01*
X0024151Y0016757D01*
X0024210Y0016735D01*
X0024277Y0016691D01*
X0024291Y0016676D01*
X0024321Y0016639D01*
X0024358Y0016572D01*
X0024403Y0016476D01*
Y0016468D01*
X0024410Y0016446D01*
X0024425Y0016409D01*
X0024440Y0016365D01*
X0024462Y0016268D01*
X0024469Y0016224D01*
X0024477Y0016187D01*
Y0016180D01*
Y0016172D01*
X0024462Y0016128D01*
X0024432Y0016068D01*
X0024410Y0016024D01*
X0024380Y0015987D01*
X0024373Y0015980D01*
X0024358Y0015965D01*
X0024328Y0015943D01*
X0024284Y0015906D01*
X0024225Y0015861D01*
X0024143Y0015809D01*
X0024040Y0015743D01*
X0023921Y0015669D01*
X0023914D01*
X0023899Y0015654D01*
X0023877Y0015639D01*
X0023847Y0015624D01*
X0023766Y0015572D01*
X0023677Y0015498D01*
X0023580Y0015424D01*
X0023484Y0015335D01*
X0023410Y0015246D01*
X0023380Y0015194D01*
X0023358Y0015150D01*
X0023351Y0015143D01*
X0023343Y0015106D01*
X0023336Y0015054D01*
Y0014972D01*
Y0014876D01*
X0023351Y0014750D01*
X0023380Y0014609D01*
X0023425Y0014446D01*
Y0014439D01*
X0023432Y0014424D01*
X0023440Y0014395D01*
X0023454Y0014365D01*
X0023469Y0014321D01*
X0023491Y0014269D01*
X0023543Y0014158D01*
X0023603Y0014024D01*
X0023669Y0013898D01*
X0023743Y0013772D01*
X0023825Y0013661D01*
X0023832Y0013647D01*
X0023862Y0013617D01*
X0023914Y0013572D01*
X0023980Y0013513D01*
X0024062Y0013447D01*
X0024165Y0013380D01*
X0024284Y0013321D01*
X0024410Y0013261D01*
X0024417D01*
X0024425Y0013254D01*
X0024447Y0013247D01*
X0024477Y0013239D01*
X0024551Y0013217D01*
X0024647Y0013195D01*
X0024765Y0013165D01*
X0024906Y0013143D01*
X0025054Y0013128D01*
X0025217Y0013121D01*
X0025299D01*
X0025343Y0013128D01*
X0025388D01*
X0025499Y0013143D01*
X0025632Y0013158D01*
X0025758Y0013180D01*
X0025891Y0013217D01*
X0026010Y0013269D01*
X0026025Y0013276D01*
X0026054Y0013298D01*
X0026106Y0013335D01*
X0026165Y0013380D01*
X0026225Y0013439D01*
X0026276Y0013513D01*
X0026321Y0013595D01*
X0026350Y0013684D01*
Y0013698D01*
X0026358Y0013735D01*
Y0013795D01*
X0026350Y0013884D01*
X0026336Y0013995D01*
X0026306Y0014135D01*
X0026269Y0014298D01*
X0026210Y0014483D01*
X0026143Y0014691D01*
X0024995D01*
X0025084Y0014417D01*
X0025091Y0014402D01*
X0025099Y0014365D01*
X0025121Y0014306D01*
X0025143Y0014232D01*
X0025165Y0014158D01*
X0025180Y0014083D01*
X0025195Y0014024D01*
Y0013972D01*
Y0013965D01*
Y0013958D01*
X0025173Y0013928D01*
X0025158Y0013906D01*
X0025136Y0013891D01*
X0025099Y0013884D01*
X0025054Y0013876D01*
X0025032D01*
X0025010Y0013884D01*
X0024980D01*
X0024914Y0013906D01*
X0024847Y0013943D01*
X0024839D01*
X0024832Y0013958D01*
X0024817Y0013972D01*
X0024795Y0014002D01*
X0024773Y0014046D01*
X0024743Y0014091D01*
X0024721Y0014158D01*
X0024691Y0014232D01*
X0024684Y0014246D01*
X0024677Y0014283D01*
X0024662Y0014335D01*
X0024647Y0014395D01*
X0024632Y0014461D01*
X0024625Y0014521D01*
Y0014572D01*
X0024632Y0014609D01*
Y0014617D01*
X0024647Y0014632D01*
X0024677Y0014654D01*
X0024721Y0014698D01*
X0024758Y0014720D01*
X0024795Y0014758D01*
X0024847Y0014795D01*
X0024906Y0014832D01*
X0024973Y0014883D01*
X0025047Y0014935D01*
X0025136Y0014995D01*
X0025232Y0015061D01*
X0025239Y0015069D01*
X0025254Y0015076D01*
X0025276Y0015091D01*
X0025306Y0015113D01*
X0025380Y0015180D01*
X0025469Y0015254D01*
X0025558Y0015350D01*
X0025632Y0015446D01*
X0025699Y0015550D01*
X0025713Y0015594D01*
X0025728Y0015646D01*
Y0015661D01*
Y0015691D01*
X0025736Y0015750D01*
X0025728Y0015824D01*
X0025721Y0015913D01*
X0025706Y0016017D01*
X0025684Y0016135D01*
X0025647Y0016261D01*
Y0016268D01*
X0025639Y0016283D01*
X0025632Y0016313D01*
X0025617Y0016343D01*
X0025580Y0016439D01*
X0025528Y0016550D01*
X0025469Y0016668D01*
X0025402Y0016794D01*
X0025336Y0016913D01*
X0025254Y0017009D01*
X0025247Y0017017D01*
X0025217Y0017046D01*
X0025165Y0017091D01*
X0025099Y0017150D01*
X0025017Y0017209D01*
X0024921Y0017268D01*
X0024802Y0017335D01*
X0024677Y0017387D01*
X0024669D01*
X0024662Y0017394D01*
X0024640Y0017402D01*
X0024610Y0017409D01*
X0024536Y0017431D01*
X0024440Y0017454D01*
X0024321Y0017476D01*
X0024180Y0017498D01*
X0024032Y0017513D01*
X0023877Y0017520D01*
D02*
G37*
G36*
X0035883Y0018009D02*
X0034587D01*
X0034809Y0017342D01*
X0034461D01*
X0034690Y0016668D01*
X0035038D01*
X0035816Y0014387D01*
Y0014380D01*
X0035824Y0014372D01*
X0035831Y0014350D01*
X0035838Y0014321D01*
X0035861Y0014254D01*
X0035883Y0014172D01*
X0035905Y0014091D01*
X0035927Y0014009D01*
X0035935Y0013950D01*
Y0013935D01*
Y0013921D01*
X0035927Y0013913D01*
X0035905Y0013906D01*
X0035883Y0013898D01*
X0035838Y0013891D01*
X0035772Y0013884D01*
X0035690Y0013876D01*
X0035587D01*
X0035816Y0013195D01*
X0036490D01*
X0036579Y0013202D01*
X0036683D01*
X0036786Y0013210D01*
X0036883Y0013217D01*
X0036957Y0013224D01*
X0036964D01*
X0036986Y0013232D01*
X0037016Y0013247D01*
X0037060Y0013261D01*
X0037105Y0013284D01*
X0037149Y0013313D01*
X0037194Y0013350D01*
X0037231Y0013395D01*
X0037238Y0013402D01*
X0037246Y0013417D01*
X0037260Y0013447D01*
X0037275Y0013484D01*
X0037290Y0013528D01*
X0037305Y0013580D01*
Y0013639D01*
Y0013698D01*
Y0013706D01*
X0037297Y0013735D01*
X0037283Y0013787D01*
X0037268Y0013869D01*
X0037253Y0013913D01*
X0037238Y0013972D01*
X0037216Y0014039D01*
X0037194Y0014113D01*
X0037172Y0014195D01*
X0037142Y0014291D01*
X0037105Y0014395D01*
X0037068Y0014506D01*
X0036335Y0016668D01*
X0036616D01*
X0036386Y0017342D01*
X0036105D01*
X0035883Y0018009D01*
D02*
G37*
G36*
X0027076Y0017520D02*
X0026987D01*
X0026943Y0017513D01*
X0026891D01*
X0026773Y0017498D01*
X0026639Y0017468D01*
X0026499Y0017431D01*
X0026373Y0017379D01*
X0026254Y0017313D01*
X0026239Y0017305D01*
X0026210Y0017276D01*
X0026158Y0017231D01*
X0026106Y0017165D01*
X0026054Y0017091D01*
X0026002Y0016994D01*
X0025965Y0016883D01*
X0025943Y0016765D01*
Y0016757D01*
Y0016750D01*
Y0016728D01*
Y0016705D01*
Y0016668D01*
Y0016624D01*
X0025958Y0016520D01*
X0025973Y0016380D01*
X0026010Y0016217D01*
X0026062Y0016024D01*
X0026128Y0015809D01*
X0026313Y0015246D01*
X0027980D01*
X0028291Y0014328D01*
X0028298Y0014313D01*
X0028306Y0014283D01*
X0028321Y0014232D01*
X0028343Y0014172D01*
X0028358Y0014113D01*
X0028372Y0014046D01*
X0028380Y0013995D01*
Y0013958D01*
X0028372Y0013943D01*
X0028358Y0013921D01*
X0028321Y0013891D01*
X0028291Y0013884D01*
X0028254Y0013876D01*
X0028232D01*
X0028202Y0013884D01*
X0028172Y0013891D01*
X0028091Y0013921D01*
X0028054Y0013943D01*
X0028024Y0013980D01*
X0028017Y0013987D01*
X0028010Y0014002D01*
X0027987Y0014032D01*
X0027965Y0014076D01*
X0027935Y0014135D01*
X0027906Y0014209D01*
X0027869Y0014298D01*
X0027832Y0014409D01*
X0027639Y0014972D01*
X0026410D01*
X0026513Y0014654D01*
Y0014646D01*
X0026521Y0014639D01*
X0026528Y0014617D01*
X0026536Y0014587D01*
X0026565Y0014521D01*
X0026595Y0014432D01*
X0026632Y0014335D01*
X0026676Y0014232D01*
X0026728Y0014135D01*
X0026773Y0014046D01*
X0026780Y0014039D01*
X0026795Y0014009D01*
X0026824Y0013965D01*
X0026861Y0013913D01*
X0026921Y0013846D01*
X0026987Y0013765D01*
X0027061Y0013684D01*
X0027158Y0013595D01*
X0027173Y0013587D01*
X0027202Y0013558D01*
X0027254Y0013513D01*
X0027328Y0013461D01*
X0027417Y0013402D01*
X0027513Y0013343D01*
X0027624Y0013291D01*
X0027743Y0013239D01*
X0027758Y0013232D01*
X0027802Y0013224D01*
X0027869Y0013202D01*
X0027958Y0013180D01*
X0028061Y0013158D01*
X0028187Y0013143D01*
X0028328Y0013128D01*
X0028484Y0013121D01*
X0028550D01*
X0028624Y0013128D01*
X0028721Y0013135D01*
X0028832Y0013150D01*
X0028943Y0013165D01*
X0029054Y0013195D01*
X0029165Y0013232D01*
X0029180Y0013239D01*
X0029209Y0013254D01*
X0029254Y0013284D01*
X0029313Y0013321D01*
X0029380Y0013365D01*
X0029439Y0013417D01*
X0029498Y0013484D01*
X0029543Y0013558D01*
X0029550Y0013565D01*
X0029558Y0013595D01*
X0029572Y0013639D01*
X0029595Y0013691D01*
X0029609Y0013758D01*
X0029624Y0013839D01*
X0029632Y0013921D01*
Y0014009D01*
Y0014024D01*
X0029624Y0014054D01*
X0029617Y0014113D01*
X0029602Y0014195D01*
X0029580Y0014298D01*
X0029550Y0014424D01*
X0029506Y0014565D01*
X0029454Y0014735D01*
X0029032Y0015972D01*
Y0015980D01*
X0029024Y0015994D01*
X0029009Y0016024D01*
X0028995Y0016061D01*
X0028980Y0016113D01*
X0028958Y0016165D01*
X0028906Y0016291D01*
X0028839Y0016431D01*
X0028758Y0016572D01*
X0028676Y0016720D01*
X0028580Y0016846D01*
Y0016854D01*
X0028565Y0016861D01*
X0028535Y0016898D01*
X0028476Y0016957D01*
X0028402Y0017031D01*
X0028306Y0017113D01*
X0028195Y0017194D01*
X0028061Y0017276D01*
X0027921Y0017342D01*
X0027913D01*
X0027906Y0017350D01*
X0027884Y0017357D01*
X0027854Y0017372D01*
X0027773Y0017402D01*
X0027661Y0017431D01*
X0027536Y0017461D01*
X0027395Y0017491D01*
X0027239Y0017513D01*
X0027076Y0017520D01*
D02*
G37*
G36*
X0042164Y0018379D02*
X0040223D01*
X0041208Y0013195D01*
X0042578D01*
X0042334Y0014128D01*
X0042830D01*
X0043223Y0013195D01*
X0044608D01*
X0042164Y0018379D01*
D02*
G37*
G36*
X0037438Y0017520D02*
X0037386D01*
X0037327Y0017513D01*
X0037253Y0017498D01*
X0037172Y0017483D01*
X0037090Y0017454D01*
X0037016Y0017409D01*
X0036949Y0017357D01*
X0036942Y0017350D01*
X0036927Y0017328D01*
X0036897Y0017298D01*
X0036875Y0017254D01*
X0036846Y0017194D01*
X0036831Y0017128D01*
X0036816Y0017046D01*
Y0016965D01*
Y0016957D01*
X0036823Y0016920D01*
X0036831Y0016861D01*
X0036846Y0016780D01*
X0036875Y0016668D01*
X0036912Y0016528D01*
X0036957Y0016365D01*
X0036986Y0016276D01*
X0037023Y0016172D01*
X0038031Y0013195D01*
X0039327D01*
X0038334Y0016128D01*
Y0016135D01*
X0038327Y0016150D01*
X0038320Y0016172D01*
X0038312Y0016202D01*
X0038283Y0016276D01*
X0038253Y0016365D01*
X0038231Y0016454D01*
X0038201Y0016543D01*
X0038186Y0016617D01*
X0038179Y0016646D01*
Y0016668D01*
Y0016676D01*
Y0016683D01*
X0038194Y0016720D01*
X0038208Y0016735D01*
X0038231Y0016750D01*
X0038260Y0016757D01*
X0038305Y0016765D01*
X0038327D01*
X0038349Y0016757D01*
X0038379Y0016750D01*
X0038416Y0016735D01*
X0038445Y0016720D01*
X0038483Y0016691D01*
X0038512Y0016654D01*
Y0016646D01*
X0038527Y0016631D01*
X0038542Y0016594D01*
X0038571Y0016535D01*
X0038601Y0016461D01*
X0038645Y0016357D01*
X0038668Y0016298D01*
X0038690Y0016224D01*
X0038720Y0016150D01*
X0038749Y0016061D01*
X0039719Y0013195D01*
X0041016D01*
X0039579Y0017439D01*
X0038260D01*
X0038416Y0017039D01*
X0038408Y0017046D01*
X0038379Y0017076D01*
X0038334Y0017120D01*
X0038275Y0017172D01*
X0038201Y0017231D01*
X0038127Y0017291D01*
X0038038Y0017342D01*
X0037949Y0017394D01*
X0037934Y0017402D01*
X0037905Y0017416D01*
X0037860Y0017431D01*
X0037794Y0017461D01*
X0037720Y0017483D01*
X0037631Y0017498D01*
X0037534Y0017513D01*
X0037438Y0017520D01*
D02*
G37*
%LPD*%
G36*
X0018773Y0015202D02*
X0018818Y0015172D01*
X0018885Y0015128D01*
X0018966Y0015076D01*
X0019048Y0015017D01*
X0019129Y0014950D01*
X0019196Y0014883D01*
X0019247Y0014824D01*
X0019255Y0014817D01*
X0019262Y0014795D01*
X0019285Y0014765D01*
X0019307Y0014713D01*
X0019336Y0014654D01*
X0019366Y0014580D01*
X0019403Y0014491D01*
X0019440Y0014387D01*
X0019447Y0014372D01*
X0019455Y0014335D01*
X0019477Y0014276D01*
X0019492Y0014209D01*
X0019514Y0014143D01*
X0019529Y0014069D01*
X0019544Y0014009D01*
Y0013965D01*
Y0013950D01*
X0019522Y0013921D01*
X0019507Y0013906D01*
X0019484Y0013891D01*
X0019447Y0013884D01*
X0019403Y0013876D01*
X0019381D01*
X0019336Y0013884D01*
X0019277Y0013906D01*
X0019225Y0013950D01*
Y0013958D01*
X0019210Y0013965D01*
X0019196Y0013987D01*
X0019181Y0014024D01*
X0019151Y0014076D01*
X0019122Y0014150D01*
X0019092Y0014232D01*
X0019055Y0014343D01*
X0018759Y0015209D01*
X0018766D01*
X0018773Y0015202D01*
D02*
G37*
G36*
X0033357D02*
X0033402Y0015172D01*
X0033468Y0015128D01*
X0033550Y0015076D01*
X0033631Y0015017D01*
X0033713Y0014950D01*
X0033779Y0014883D01*
X0033831Y0014824D01*
X0033839Y0014817D01*
X0033846Y0014795D01*
X0033868Y0014765D01*
X0033890Y0014713D01*
X0033920Y0014654D01*
X0033950Y0014580D01*
X0033987Y0014491D01*
X0034024Y0014387D01*
X0034031Y0014372D01*
X0034039Y0014335D01*
X0034061Y0014276D01*
X0034076Y0014209D01*
X0034098Y0014143D01*
X0034113Y0014069D01*
X0034127Y0014009D01*
Y0013965D01*
Y0013950D01*
X0034105Y0013921D01*
X0034090Y0013906D01*
X0034068Y0013891D01*
X0034031Y0013884D01*
X0033987Y0013876D01*
X0033964D01*
X0033920Y0013884D01*
X0033861Y0013906D01*
X0033809Y0013950D01*
Y0013958D01*
X0033794Y0013965D01*
X0033779Y0013987D01*
X0033764Y0014024D01*
X0033735Y0014076D01*
X0033705Y0014150D01*
X0033676Y0014232D01*
X0033639Y0014343D01*
X0033342Y0015209D01*
X0033350D01*
X0033357Y0015202D01*
D02*
G37*
G36*
X0015070Y0016757D02*
X0015129Y0016728D01*
X0015159Y0016705D01*
X0015189Y0016676D01*
Y0016668D01*
X0015203Y0016654D01*
X0015218Y0016631D01*
X0015233Y0016587D01*
X0015263Y0016528D01*
X0015292Y0016454D01*
X0015329Y0016350D01*
X0015374Y0016231D01*
X0015996Y0014402D01*
X0016003Y0014387D01*
X0016011Y0014350D01*
X0016033Y0014291D01*
X0016048Y0014217D01*
X0016070Y0014143D01*
X0016085Y0014076D01*
X0016100Y0014009D01*
Y0013965D01*
Y0013950D01*
X0016085Y0013921D01*
X0016070Y0013906D01*
X0016048Y0013891D01*
X0016018Y0013884D01*
X0015981Y0013876D01*
X0015959D01*
X0015937Y0013884D01*
X0015907Y0013891D01*
X0015848Y0013921D01*
X0015818Y0013943D01*
X0015789Y0013972D01*
Y0013980D01*
X0015774Y0013995D01*
X0015759Y0014024D01*
X0015737Y0014069D01*
X0015707Y0014128D01*
X0015670Y0014217D01*
X0015633Y0014321D01*
X0015589Y0014446D01*
X0014981Y0016231D01*
Y0016239D01*
X0014974Y0016246D01*
X0014966Y0016283D01*
X0014944Y0016343D01*
X0014929Y0016409D01*
X0014907Y0016483D01*
X0014892Y0016550D01*
X0014878Y0016617D01*
Y0016661D01*
Y0016668D01*
Y0016676D01*
X0014892Y0016713D01*
X0014915Y0016735D01*
X0014937Y0016750D01*
X0014966Y0016757D01*
X0015003Y0016765D01*
X0015026D01*
X0015070Y0016757D01*
D02*
G37*
G36*
X0027313D02*
X0027343D01*
X0027410Y0016728D01*
X0027439Y0016713D01*
X0027461Y0016683D01*
Y0016676D01*
X0027469Y0016668D01*
X0027484Y0016639D01*
X0027506Y0016594D01*
X0027536Y0016543D01*
X0027565Y0016461D01*
X0027602Y0016365D01*
X0027647Y0016239D01*
X0027750Y0015935D01*
X0027380D01*
X0027276Y0016239D01*
Y0016246D01*
X0027269Y0016254D01*
X0027254Y0016291D01*
X0027239Y0016350D01*
X0027217Y0016417D01*
X0027195Y0016491D01*
X0027180Y0016557D01*
X0027165Y0016624D01*
Y0016668D01*
Y0016676D01*
Y0016683D01*
X0027180Y0016720D01*
X0027210Y0016750D01*
X0027232Y0016757D01*
X0027269Y0016765D01*
X0027291D01*
X0027313Y0016757D01*
D02*
G37*
G36*
X0041529Y0017214D02*
X0041534Y0017209D01*
X0041541Y0017187D01*
X0041556Y0017157D01*
X0041593Y0017083D01*
X0041645Y0016979D01*
X0041697Y0016854D01*
X0041764Y0016713D01*
X0041838Y0016557D01*
X0041919Y0016394D01*
X0042001Y0016217D01*
X0042082Y0016031D01*
X0042245Y0015676D01*
X0042327Y0015498D01*
X0042401Y0015335D01*
X0042467Y0015180D01*
X0042527Y0015046D01*
X0042067D01*
Y0015054D01*
X0042060Y0015083D01*
X0042045Y0015135D01*
X0042030Y0015202D01*
X0042008Y0015291D01*
X0041986Y0015394D01*
X0041956Y0015513D01*
X0041919Y0015646D01*
X0041882Y0015794D01*
X0041845Y0015965D01*
X0041801Y0016143D01*
X0041749Y0016335D01*
X0041697Y0016543D01*
X0041645Y0016757D01*
X0041586Y0016987D01*
X0041529Y0017214D01*
X0041527Y0017217D01*
Y0017224D01*
X0041529Y0017214D01*
D02*
G37*
%LPC*%
G36*
X0026278Y0027180D02*
X0025872D01*
Y0026977D01*
Y0026774D01*
X0026278D01*
Y0026977D01*
Y0027180D01*
D02*
G37*
G36*
X0028920Y0030228D02*
X0028310D01*
Y0030025D01*
Y0029822D01*
X0028920D01*
Y0030025D01*
Y0030228D01*
D02*
G37*
G36*
X0027904D02*
X0026278D01*
Y0030025D01*
Y0029822D01*
Y0029618D01*
Y0029415D01*
Y0029212D01*
Y0029009D01*
Y0028806D01*
X0027904D01*
Y0029009D01*
Y0029212D01*
Y0029415D01*
Y0029618D01*
Y0029822D01*
Y0030025D01*
Y0030228D01*
D02*
G37*
G36*
X0027294Y0028196D02*
X0025872D01*
Y0027993D01*
Y0027790D01*
X0027294D01*
Y0027993D01*
Y0028196D01*
D02*
G37*
G36*
X0033390Y0027790D02*
X0032984D01*
Y0027586D01*
Y0027383D01*
Y0027180D01*
X0033390D01*
Y0027383D01*
Y0027586D01*
Y0027790D01*
D02*
G37*
%LPD*%
G36*
X0027294Y0029618D02*
Y0029415D01*
Y0029212D01*
X0026888D01*
Y0029415D01*
Y0029618D01*
Y0029822D01*
X0027294D01*
Y0029618D01*
D02*
G37*
%LPC*%
G36*
X0038064Y0040388D02*
X0035422D01*
Y0040185D01*
Y0039982D01*
Y0039778D01*
Y0039575D01*
Y0039372D01*
Y0039169D01*
Y0038966D01*
Y0038762D01*
Y0038559D01*
Y0038356D01*
Y0038153D01*
Y0037950D01*
X0038064D01*
Y0038153D01*
Y0038356D01*
Y0038559D01*
Y0038762D01*
Y0038966D01*
Y0039169D01*
Y0039372D01*
Y0039575D01*
Y0039778D01*
Y0039982D01*
Y0040185D01*
Y0040388D01*
D02*
G37*
%LPD*%
G36*
X0037454Y0039778D02*
Y0039575D01*
Y0039372D01*
Y0039169D01*
Y0038966D01*
Y0038762D01*
Y0038559D01*
Y0038356D01*
X0036032D01*
Y0038559D01*
Y0038762D01*
Y0038966D01*
Y0039169D01*
Y0039372D01*
Y0039575D01*
Y0039778D01*
Y0039982D01*
X0037454D01*
Y0039778D01*
D02*
G37*
%LPC*%
G36*
X0034000Y0037950D02*
X0033390D01*
Y0037746D01*
Y0037543D01*
Y0037340D01*
X0034000D01*
Y0037543D01*
Y0037746D01*
Y0037950D01*
D02*
G37*
G36*
X0026888Y0040388D02*
X0024246D01*
Y0040185D01*
Y0039982D01*
Y0039778D01*
Y0039575D01*
Y0039372D01*
Y0039169D01*
Y0038966D01*
Y0038762D01*
Y0038559D01*
Y0038356D01*
Y0038153D01*
Y0037950D01*
X0026888D01*
Y0038153D01*
Y0038356D01*
Y0038559D01*
Y0038762D01*
Y0038966D01*
Y0039169D01*
Y0039372D01*
Y0039575D01*
Y0039778D01*
Y0039982D01*
Y0040185D01*
Y0040388D01*
D02*
G37*
%LPD*%
G36*
X0026278Y0039778D02*
Y0039575D01*
Y0039372D01*
Y0039169D01*
Y0038966D01*
Y0038762D01*
Y0038559D01*
Y0038356D01*
X0024856D01*
Y0038559D01*
Y0038762D01*
Y0038966D01*
Y0039169D01*
Y0039372D01*
Y0039575D01*
Y0039778D01*
Y0039982D01*
X0026278D01*
Y0039778D01*
D02*
G37*
D50*
X0043945Y0048977D02*
Y0047454D01*
Y0048215D01*
X0043691Y0048469D01*
X0043183D01*
X0042929Y0048215D01*
Y0047454D01*
X0042168Y0048723D02*
Y0048469D01*
X0042422D01*
X0041914D01*
X0042168D01*
Y0047707D01*
X0041914Y0047454D01*
X0040898Y0048723D02*
Y0048469D01*
X0041152D01*
X0040644D01*
X0040898D01*
Y0047707D01*
X0040644Y0047454D01*
X0039882Y0046946D02*
Y0048469D01*
X0039121D01*
X0038867Y0048215D01*
Y0047707D01*
X0039121Y0047454D01*
X0039882D01*
X0038359D02*
X0037597D01*
X0037343Y0047707D01*
X0037597Y0047961D01*
X0038105D01*
X0038359Y0048215D01*
X0038105Y0048469D01*
X0037343D01*
X0036835D02*
X0036581D01*
Y0048215D01*
X0036835D01*
Y0048469D01*
Y0047707D02*
X0036581D01*
Y0047454D01*
X0036835D01*
Y0047707D01*
X0035566Y0047454D02*
X0034550Y0048469D01*
X0034042Y0047454D02*
X0033027Y0048469D01*
X0032011Y0046946D02*
X0031757D01*
X0031503Y0047200D01*
Y0048469D01*
X0032265D01*
X0032519Y0048215D01*
Y0047707D01*
X0032265Y0047454D01*
X0031503D01*
X0030995D02*
X0030487D01*
X0030741D01*
Y0048469D01*
X0030995D01*
X0029472Y0048723D02*
Y0048469D01*
X0029726D01*
X0029218D01*
X0029472D01*
Y0047707D01*
X0029218Y0047454D01*
X0028456Y0048977D02*
Y0047454D01*
Y0048215D01*
X0028202Y0048469D01*
X0027694D01*
X0027440Y0048215D01*
Y0047454D01*
X0026933Y0048469D02*
Y0047707D01*
X0026679Y0047454D01*
X0025917D01*
Y0048469D01*
X0025409Y0048977D02*
Y0047454D01*
X0024647D01*
X0024393Y0047707D01*
Y0047961D01*
Y0048215D01*
X0024647Y0048469D01*
X0025409D01*
X0023886Y0047454D02*
Y0047707D01*
X0023632D01*
Y0047454D01*
X0023886D01*
X0021600Y0048469D02*
X0022362D01*
X0022616Y0048215D01*
Y0047707D01*
X0022362Y0047454D01*
X0021600D01*
X0020839D02*
X0020331D01*
X0020077Y0047707D01*
Y0048215D01*
X0020331Y0048469D01*
X0020839D01*
X0021092Y0048215D01*
Y0047707D01*
X0020839Y0047454D01*
X0019569D02*
Y0048469D01*
X0019315D01*
X0019061Y0048215D01*
Y0047454D01*
Y0048215D01*
X0018807Y0048469D01*
X0018553Y0048215D01*
Y0047454D01*
X0018045D02*
X0017030Y0048469D01*
X0047246Y0044508D02*
Y0045524D01*
X0046738Y0046031D01*
X0046230Y0045524D01*
Y0044508D01*
Y0045270D01*
X0047246D01*
X0045722Y0044508D02*
Y0045524D01*
X0044961D01*
X0044707Y0045270D01*
Y0044508D01*
X0043945Y0045778D02*
Y0045524D01*
X0044199D01*
X0043691D01*
X0043945D01*
Y0044762D01*
X0043691Y0044508D01*
X0042675Y0045524D02*
X0042168D01*
X0041914Y0045270D01*
Y0044508D01*
X0042675D01*
X0042929Y0044762D01*
X0042675Y0045016D01*
X0041914D01*
X0041406Y0045524D02*
Y0044508D01*
Y0045016D01*
X0041152Y0045270D01*
X0040898Y0045524D01*
X0040644D01*
X0039121Y0044508D02*
X0039628D01*
X0039882Y0044762D01*
Y0045270D01*
X0039628Y0045524D01*
X0039121D01*
X0038867Y0045270D01*
Y0045016D01*
X0039882D01*
X0038359Y0044508D02*
X0037597D01*
X0037343Y0044762D01*
X0037597Y0045016D01*
X0038105D01*
X0038359Y0045270D01*
X0038105Y0045524D01*
X0037343D01*
X0036835Y0046031D02*
Y0044508D01*
X0035820D01*
X0035058Y0045524D02*
X0034550D01*
X0034296Y0045270D01*
Y0044508D01*
X0035058D01*
X0035312Y0044762D01*
X0035058Y0045016D01*
X0034296D01*
X0033788Y0046031D02*
Y0044508D01*
X0033027D01*
X0032773Y0044762D01*
Y0045016D01*
Y0045270D01*
X0033027Y0045524D01*
X0033788D01*
X0032265Y0044508D02*
X0031249Y0045524D01*
X0030741Y0044508D02*
Y0046031D01*
X0029726Y0044508D01*
Y0046031D01*
X0029218Y0044508D02*
X0028710D01*
X0028964D01*
Y0045524D01*
X0029218D01*
X0027948D02*
X0026933Y0044508D01*
X0027440Y0045016D01*
X0026933Y0045524D01*
X0027948Y0044508D01*
X0026425D02*
X0025917D01*
X0026171D01*
Y0045524D01*
X0026425D01*
X0024393Y0044508D02*
X0024901D01*
X0025155Y0044762D01*
Y0045270D01*
X0024901Y0045524D01*
X0024393D01*
X0024139Y0045270D01*
Y0045016D01*
X0025155D01*
X0023632Y0044254D02*
X0022616D01*
X0021092Y0045524D02*
X0021854D01*
X0022108Y0045270D01*
Y0044762D01*
X0021854Y0044508D01*
X0021092D01*
X0020585D02*
X0020077D01*
X0020331D01*
Y0046031D01*
X0020585D01*
X0019061Y0044508D02*
X0018553D01*
X0018299Y0044762D01*
Y0045270D01*
X0018553Y0045524D01*
X0019061D01*
X0019315Y0045270D01*
Y0044762D01*
X0019061Y0044508D01*
X0016776Y0045524D02*
X0017538D01*
X0017792Y0045270D01*
Y0044762D01*
X0017538Y0044508D01*
X0016776D01*
X0016268D02*
Y0046031D01*
Y0045016D02*
X0015506Y0045524D01*
X0016268Y0045016D02*
X0015506Y0044508D01*
X0014745D02*
X0013983D01*
X0013729Y0044762D01*
X0013983Y0045016D01*
X0014491D01*
X0014745Y0045270D01*
X0014491Y0045524D01*
X0013729D01*
X0041400Y0080324D02*
Y0078800D01*
Y0079562D01*
X0040384D01*
Y0080324D01*
Y0078800D01*
X0039876Y0080324D02*
X0039369D01*
X0039623D01*
Y0078800D01*
X0039876D01*
X0039369D01*
X0037591Y0080070D02*
X0037845Y0080324D01*
X0038353D01*
X0038607Y0080070D01*
Y0079054D01*
X0038353Y0078800D01*
X0037845D01*
X0037591Y0079054D01*
Y0079562D01*
X0038099D01*
X0037083Y0080324D02*
Y0078800D01*
Y0079562D01*
X0036068D01*
Y0080324D01*
Y0078800D01*
X0034036Y0080324D02*
Y0079308D01*
X0033529Y0078800D01*
X0033021Y0079308D01*
Y0080324D01*
X0031751D02*
X0032259D01*
X0032513Y0080070D01*
Y0079054D01*
X0032259Y0078800D01*
X0031751D01*
X0031497Y0079054D01*
Y0080070D01*
X0031751Y0080324D01*
X0030989D02*
Y0078800D01*
X0029974D01*
X0029466Y0080324D02*
X0028450D01*
X0028958D01*
Y0078800D01*
X0027942D02*
Y0079816D01*
X0027435Y0080324D01*
X0026927Y0079816D01*
Y0078800D01*
Y0079562D01*
X0027942D01*
X0025403Y0080070D02*
X0025657Y0080324D01*
X0026165D01*
X0026419Y0080070D01*
Y0079054D01*
X0026165Y0078800D01*
X0025657D01*
X0025403Y0079054D01*
Y0079562D01*
X0025911D01*
X0023880Y0080324D02*
X0024895D01*
Y0078800D01*
X0023880D01*
X0024895Y0079562D02*
X0024388D01*
X0021594Y0078800D02*
X0021087D01*
X0020833Y0079054D01*
Y0079562D01*
X0021087Y0079816D01*
X0021594D01*
X0021848Y0079562D01*
Y0079054D01*
X0021594Y0078800D01*
X0020325Y0079816D02*
X0019817Y0078800D01*
X0019309Y0079816D01*
X0018040Y0078800D02*
X0018547D01*
X0018801Y0079054D01*
Y0079562D01*
X0018547Y0079816D01*
X0018040D01*
X0017786Y0079562D01*
Y0079308D01*
X0018801D01*
X0017278Y0079816D02*
Y0078800D01*
Y0079308D01*
X0017024Y0079562D01*
X0016770Y0079816D01*
X0016516D01*
X0013977D02*
X0013469D01*
X0013215Y0079562D01*
Y0078800D01*
X0013977D01*
X0014231Y0079054D01*
X0013977Y0079308D01*
X0013215D01*
X0012707Y0078800D02*
X0012199D01*
X0012453D01*
Y0080324D01*
X0012707D01*
X0011438Y0078800D02*
X0010930D01*
X0011184D01*
Y0080324D01*
X0011438D01*
X0008645D02*
Y0078800D01*
X0007883D01*
X0007629Y0079054D01*
Y0079308D01*
Y0079562D01*
X0007883Y0079816D01*
X0008645D01*
X0006867Y0078800D02*
X0006359D01*
X0006105Y0079054D01*
Y0079562D01*
X0006359Y0079816D01*
X0006867D01*
X0007121Y0079562D01*
Y0079054D01*
X0006867Y0078800D01*
X0005344Y0079816D02*
X0004836D01*
X0004582Y0079562D01*
Y0078800D01*
X0005344D01*
X0005598Y0079054D01*
X0005344Y0079308D01*
X0004582D01*
X0004074Y0079816D02*
Y0078800D01*
Y0079308D01*
X0003820Y0079562D01*
X0003566Y0079816D01*
X0003312D01*
X0001535Y0080324D02*
Y0078800D01*
X0002297D01*
X0002551Y0079054D01*
Y0079562D01*
X0002297Y0079816D01*
X0001535D01*
X0001027Y0079308D02*
Y0080577D01*
Y0079054D02*
Y0078800D01*
X0028500Y0081900D02*
Y0082916D01*
X0027992Y0083424D01*
X0027484Y0082916D01*
Y0081900D01*
Y0082662D01*
X0028500D01*
X0026976Y0083424D02*
X0025961D01*
X0026469D01*
Y0081900D01*
X0025453Y0083424D02*
X0024437D01*
X0024945D01*
Y0081900D01*
X0022914Y0083424D02*
X0023929D01*
Y0081900D01*
X0022914D01*
X0023929Y0082662D02*
X0023422D01*
X0022406Y0081900D02*
Y0083424D01*
X0021390Y0081900D01*
Y0083424D01*
X0020882D02*
X0019867D01*
X0020375D01*
Y0081900D01*
X0019359Y0083424D02*
X0018851D01*
X0019105D01*
Y0081900D01*
X0019359D01*
X0018851D01*
X0017328Y0083424D02*
X0017835D01*
X0018089Y0083170D01*
Y0082154D01*
X0017835Y0081900D01*
X0017328D01*
X0017074Y0082154D01*
Y0083170D01*
X0017328Y0083424D01*
X0016566Y0081900D02*
Y0083424D01*
X0015550Y0081900D01*
Y0083424D01*
X0015042Y0082408D02*
Y0083677D01*
Y0082154D02*
Y0081900D01*
X0037400Y0021900D02*
Y0023424D01*
X0036384Y0021900D01*
Y0023424D01*
X0035876Y0021900D02*
X0035369D01*
X0035623D01*
Y0022916D01*
X0035876D01*
X0034607D02*
X0033591Y0021900D01*
X0034099Y0022408D01*
X0033591Y0022916D01*
X0034607Y0021900D01*
X0033083D02*
X0032576D01*
X0032829D01*
Y0022916D01*
X0033083D01*
X0031052Y0021900D02*
X0031560D01*
X0031814Y0022154D01*
Y0022662D01*
X0031560Y0022916D01*
X0031052D01*
X0030798Y0022662D01*
Y0022408D01*
X0031814D01*
X0027751Y0022916D02*
X0028513D01*
X0028767Y0022662D01*
Y0022154D01*
X0028513Y0021900D01*
X0027751D01*
X0027243D02*
X0026735D01*
X0026989D01*
Y0023424D01*
X0027243D01*
X0025720Y0021900D02*
X0025212D01*
X0024958Y0022154D01*
Y0022662D01*
X0025212Y0022916D01*
X0025720D01*
X0025974Y0022662D01*
Y0022154D01*
X0025720Y0021900D01*
X0023435Y0022916D02*
X0024196D01*
X0024450Y0022662D01*
Y0022154D01*
X0024196Y0021900D01*
X0023435D01*
X0022927D02*
Y0023424D01*
Y0022408D02*
X0022165Y0022916D01*
X0022927Y0022408D02*
X0022165Y0021900D01*
X0021403D02*
X0020641D01*
X0020388Y0022154D01*
X0020641Y0022408D01*
X0021149D01*
X0021403Y0022662D01*
X0021149Y0022916D01*
X0020388D01*
D89*
X0008167Y0070000D02*
X0008767Y0070600D01*
X0008167Y0070000D02*
X0008467Y0070700D01*
X0008167Y0070000D02*
X0010167Y0073000D01*
X0008167Y0072000D02*
X0010167Y0073000D01*
X0008167Y0072000D02*
X0010167Y0075000D01*
X0009500Y0077500D02*
X0015500Y0069000D01*
X0003500D02*
X0015500D01*
X0003500D02*
X0009500Y0077500D01*
M02*
