G04 Layer_Color=16711935*
%FSAX43Y43*%
%MOMM*%
G71*
G01*
G75*
%ADD72O,1.703X2.203*%
%ADD73C,2.003*%
%ADD74O,1.703X2.003*%
%ADD75R,2.203X2.203*%
%ADD76C,2.203*%
%ADD77C,2.703*%
%ADD78R,1.703X1.703*%
%ADD79C,1.703*%
%ADD80C,1.803*%
%ADD81R,1.703X2.203*%
%ADD82O,2.203X1.703*%
%ADD83R,2.203X1.703*%
%ADD84R,1.703X1.703*%
%ADD85O,2.703X2.003*%
%ADD86O,2.003X2.703*%
%ADD87O,2.203X1.703*%
%ADD88C,7.203*%
D72*
X0044750Y0087500D02*
D03*
X0048250Y0082500D02*
D03*
X0044750Y0077500D02*
D03*
X0022580Y0006290D02*
D03*
X0022580Y0003750D02*
D03*
X0020040Y0006290D02*
D03*
Y0003750D02*
D03*
X0017500Y0006290D02*
D03*
X0025120Y0003750D02*
D03*
Y0006290D02*
D03*
X0030200Y0003750D02*
D03*
Y0006290D02*
D03*
X0027660Y0003750D02*
D03*
Y0006290D02*
D03*
X0032740Y0003750D02*
D03*
Y0006290D02*
D03*
X0035280D02*
D03*
X0035280Y0003750D02*
D03*
D73*
X0047500Y0067750D02*
D03*
X0045000D02*
D03*
D74*
X0047500Y0060250D02*
D03*
X0045000D02*
D03*
D75*
X0035000Y0097200D02*
D03*
X0007000Y0058750D02*
D03*
X0017250Y0087500D02*
D03*
D76*
X0035000Y0089600D02*
D03*
X0008750Y0043750D02*
D03*
Y0037400D02*
D03*
X0003750Y0038750D02*
D03*
Y0045100D02*
D03*
Y0048750D02*
D03*
X0010100D02*
D03*
X0005000Y0076500D02*
D03*
X0014000Y0076500D02*
D03*
X0014000Y0067500D02*
D03*
X0005000D02*
D03*
X0007000Y0053750D02*
D03*
X0017250Y0092500D02*
D03*
D77*
X0027250Y0097500D02*
D03*
X0022000Y0096250D02*
D03*
D78*
X0011250Y0097500D02*
D03*
D79*
X0013790D02*
D03*
X0016330D02*
D03*
X0021250Y0059420D02*
D03*
Y0056880D02*
D03*
Y0061960D02*
D03*
D80*
X0006250Y0088750D02*
D03*
X0008750D02*
D03*
X0003750D02*
D03*
D81*
X0017500Y0003750D02*
D03*
D82*
X0043710Y0039410D02*
D03*
X0046250D02*
D03*
X0043710Y0036870D02*
D03*
X0046250D02*
D03*
X0043710Y0029250D02*
D03*
X0046250Y0031790D02*
D03*
X0043710D02*
D03*
X0046250Y0034330D02*
D03*
X0043710Y0034330D02*
D03*
D83*
X0046250Y0029250D02*
D03*
D84*
X0021250Y0064500D02*
D03*
D85*
X0022500Y0076370D02*
D03*
Y0068750D02*
D03*
Y0073830D02*
D03*
Y0071290D02*
D03*
D86*
X0007500Y0020000D02*
D03*
X0002420D02*
D03*
X0004960D02*
D03*
X0007500Y0012500D02*
D03*
X0002420D02*
D03*
X0004960D02*
D03*
D87*
X0015000Y0055040D02*
D03*
Y0052500D02*
D03*
Y0049960D02*
D03*
D88*
X0045000Y0005000D02*
D03*
X0005000D02*
D03*
Y0095000D02*
D03*
X0045000D02*
D03*
M02*
