G04 Layer_Color=8388736*
%FSAX43Y43*%
%MOMM*%
G71*
G01*
G75*
%ADD55R,1.503X1.103*%
%ADD56R,1.303X0.803*%
%ADD57R,1.103X1.503*%
%ADD58R,0.803X1.303*%
%ADD59R,2.203X5.703*%
%ADD60R,1.303X1.903*%
G04:AMPARAMS|DCode=61|XSize=2.303mm|YSize=1.753mm|CornerRadius=0.489mm|HoleSize=0mm|Usage=FLASHONLY|Rotation=90.000|XOffset=0mm|YOffset=0mm|HoleType=Round|Shape=RoundedRectangle|*
%AMROUNDEDRECTD61*
21,1,2.303,0.775,0,0,90.0*
21,1,1.325,1.753,0,0,90.0*
1,1,0.978,0.388,0.662*
1,1,0.978,0.388,-0.662*
1,1,0.978,-0.388,-0.662*
1,1,0.978,-0.388,0.662*
%
%ADD61ROUNDEDRECTD61*%
%ADD62R,1.753X2.303*%
%ADD63R,1.903X1.303*%
%ADD64R,2.203X1.883*%
%ADD65R,1.453X2.203*%
%ADD66R,2.203X1.453*%
%ADD67R,1.300X0.400*%
%ADD68O,1.300X0.400*%
%ADD69O,0.400X1.300*%
%ADD70O,1.723X0.803*%
%ADD71R,1.723X0.803*%
%ADD72O,1.703X2.203*%
%ADD73C,2.003*%
%ADD74O,1.703X2.003*%
%ADD75R,2.203X2.203*%
%ADD76C,2.203*%
%ADD77C,2.703*%
%ADD78R,1.703X1.703*%
%ADD79C,1.703*%
%ADD80C,1.803*%
%ADD81R,1.703X2.203*%
%ADD82O,2.203X1.703*%
%ADD83R,2.203X1.703*%
%ADD84R,1.703X1.703*%
%ADD85O,2.703X2.003*%
%ADD86O,2.003X2.703*%
%ADD87O,2.203X1.703*%
%ADD88C,7.203*%
D55*
X0030750Y0086500D02*
D03*
Y0084500D02*
D03*
X0037250Y0070750D02*
D03*
Y0068750D02*
D03*
X0036000Y0048000D02*
D03*
Y0050000D02*
D03*
X0038250Y0048000D02*
D03*
Y0050000D02*
D03*
X0029000Y0072000D02*
D03*
Y0070000D02*
D03*
X0032750Y0070500D02*
D03*
Y0072500D02*
D03*
X0035000Y0068750D02*
D03*
Y0070750D02*
D03*
X0025000Y0056000D02*
D03*
Y0058000D02*
D03*
X0047500Y0047750D02*
D03*
Y0045750D02*
D03*
X0045250Y0047750D02*
D03*
Y0045750D02*
D03*
X0043000Y0047750D02*
D03*
Y0045750D02*
D03*
X0047500Y0050250D02*
D03*
Y0052250D02*
D03*
X0045250Y0050250D02*
D03*
Y0052250D02*
D03*
X0043000Y0050250D02*
D03*
Y0052250D02*
D03*
X0048000Y0056750D02*
D03*
Y0054750D02*
D03*
X0045750Y0056750D02*
D03*
Y0054750D02*
D03*
X0043500Y0056750D02*
D03*
Y0054750D02*
D03*
X0041250Y0056750D02*
D03*
Y0054750D02*
D03*
X0039000Y0056750D02*
D03*
Y0054750D02*
D03*
X0041750Y0091000D02*
D03*
Y0089000D02*
D03*
X0019000Y0098500D02*
D03*
Y0096500D02*
D03*
X0036000Y0024000D02*
D03*
Y0026000D02*
D03*
X0033000Y0078500D02*
D03*
Y0076500D02*
D03*
X0030750Y0078500D02*
D03*
Y0076500D02*
D03*
X0033000Y0082500D02*
D03*
Y0080500D02*
D03*
X0030750Y0082500D02*
D03*
Y0080500D02*
D03*
X0033000Y0086500D02*
D03*
Y0084500D02*
D03*
X0024250Y0052000D02*
D03*
Y0054000D02*
D03*
X0026500Y0052000D02*
D03*
Y0054000D02*
D03*
X0024250Y0026000D02*
D03*
Y0024000D02*
D03*
Y0030000D02*
D03*
Y0028000D02*
D03*
Y0048000D02*
D03*
Y0050000D02*
D03*
X0038250Y0024000D02*
D03*
Y0026000D02*
D03*
X0036000Y0028000D02*
D03*
Y0030000D02*
D03*
X0038250Y0028000D02*
D03*
Y0030000D02*
D03*
X0027000Y0072000D02*
D03*
Y0070000D02*
D03*
X0024250Y0034000D02*
D03*
Y0032000D02*
D03*
Y0038000D02*
D03*
Y0036000D02*
D03*
X0036000Y0032000D02*
D03*
Y0034000D02*
D03*
X0038250Y0032000D02*
D03*
Y0034000D02*
D03*
X0036000Y0036000D02*
D03*
Y0038000D02*
D03*
X0038250Y0036000D02*
D03*
Y0038000D02*
D03*
X0024250Y0042000D02*
D03*
Y0040000D02*
D03*
Y0046000D02*
D03*
Y0044000D02*
D03*
X0008750Y0085000D02*
D03*
Y0083000D02*
D03*
X0036000Y0040000D02*
D03*
Y0042000D02*
D03*
X0038250Y0040000D02*
D03*
Y0042000D02*
D03*
X0036000Y0044000D02*
D03*
Y0046000D02*
D03*
X0038250Y0044000D02*
D03*
Y0046000D02*
D03*
X0027250Y0066250D02*
D03*
Y0068250D02*
D03*
X0027000Y0073500D02*
D03*
Y0075500D02*
D03*
D56*
X0037450Y0077550D02*
D03*
X0035150Y0076600D02*
D03*
Y0078500D02*
D03*
X0019900Y0024950D02*
D03*
X0022200Y0025900D02*
D03*
Y0024000D02*
D03*
X0019900Y0028950D02*
D03*
X0022200Y0029900D02*
D03*
Y0028000D02*
D03*
X0019800Y0032950D02*
D03*
X0022100Y0033900D02*
D03*
Y0032000D02*
D03*
X0019800Y0036950D02*
D03*
X0022100Y0037900D02*
D03*
Y0036000D02*
D03*
X0019800Y0040950D02*
D03*
X0022100Y0041900D02*
D03*
Y0040000D02*
D03*
X0019800Y0044950D02*
D03*
X0022100Y0045900D02*
D03*
Y0044000D02*
D03*
X0019800Y0048950D02*
D03*
X0022100Y0049900D02*
D03*
Y0048000D02*
D03*
X0031550Y0048950D02*
D03*
X0033850Y0049900D02*
D03*
Y0048000D02*
D03*
X0031550Y0040950D02*
D03*
X0033850Y0041900D02*
D03*
Y0040000D02*
D03*
X0031550Y0036950D02*
D03*
X0033850Y0037900D02*
D03*
Y0036000D02*
D03*
X0031550Y0032950D02*
D03*
X0033850Y0033900D02*
D03*
Y0032000D02*
D03*
X0031550Y0028950D02*
D03*
X0033850Y0029900D02*
D03*
Y0028000D02*
D03*
X0031550Y0024950D02*
D03*
X0033850Y0025900D02*
D03*
Y0024000D02*
D03*
X0031550Y0044950D02*
D03*
X0033850Y0045900D02*
D03*
Y0044000D02*
D03*
X0037450Y0081550D02*
D03*
X0035150Y0080600D02*
D03*
Y0082500D02*
D03*
X0037450Y0085550D02*
D03*
X0035150Y0084600D02*
D03*
Y0086500D02*
D03*
X0019800Y0052950D02*
D03*
X0022100Y0053900D02*
D03*
Y0052000D02*
D03*
X0017950Y0062300D02*
D03*
X0015650Y0061350D02*
D03*
Y0063250D02*
D03*
D57*
X0035250Y0074750D02*
D03*
X0037250D02*
D03*
Y0072750D02*
D03*
X0035250D02*
D03*
X0028750Y0079750D02*
D03*
X0026750D02*
D03*
X0028750Y0077500D02*
D03*
X0026750D02*
D03*
X0033000Y0068500D02*
D03*
X0031000D02*
D03*
X0045500Y0074750D02*
D03*
X0047500D02*
D03*
X0045500Y0072500D02*
D03*
X0047500D02*
D03*
X0043500Y0090200D02*
D03*
X0045500D02*
D03*
X0043750Y0017250D02*
D03*
X0041750D02*
D03*
X0043750Y0019500D02*
D03*
X0041750D02*
D03*
X0047500Y0017250D02*
D03*
X0045500D02*
D03*
X0047500Y0019500D02*
D03*
X0045500D02*
D03*
X0036250Y0017250D02*
D03*
X0034250D02*
D03*
X0036250Y0019500D02*
D03*
X0034250D02*
D03*
X0040000Y0017250D02*
D03*
X0038000D02*
D03*
X0040000Y0019500D02*
D03*
X0038000D02*
D03*
X0028750Y0017250D02*
D03*
X0026750D02*
D03*
X0028750Y0019500D02*
D03*
X0026750D02*
D03*
X0032500Y0017250D02*
D03*
X0030500D02*
D03*
X0032500Y0019500D02*
D03*
X0030500D02*
D03*
X0021250Y0017250D02*
D03*
X0019250D02*
D03*
X0021250Y0019500D02*
D03*
X0019250D02*
D03*
X0025000Y0017250D02*
D03*
X0023000D02*
D03*
X0025000Y0019500D02*
D03*
X0023000D02*
D03*
X0013750Y0017250D02*
D03*
X0011750D02*
D03*
X0013750Y0019500D02*
D03*
X0011750D02*
D03*
X0017500Y0017250D02*
D03*
X0015500D02*
D03*
X0017500Y0019500D02*
D03*
X0015500D02*
D03*
X0017000Y0065250D02*
D03*
X0019000D02*
D03*
X0021750Y0083500D02*
D03*
X0023750D02*
D03*
X0021750Y0085750D02*
D03*
X0023750D02*
D03*
D58*
X0026750Y0083150D02*
D03*
X0028650D02*
D03*
X0027700Y0085450D02*
D03*
X0042800Y0012800D02*
D03*
X0041850Y0015100D02*
D03*
X0043750D02*
D03*
X0046550Y0012800D02*
D03*
X0045600Y0015100D02*
D03*
X0047500D02*
D03*
X0035300Y0012800D02*
D03*
X0034350Y0015100D02*
D03*
X0036250D02*
D03*
X0039050Y0012800D02*
D03*
X0038100Y0015100D02*
D03*
X0040000D02*
D03*
X0027800Y0012800D02*
D03*
X0026850Y0015100D02*
D03*
X0028750D02*
D03*
X0031550Y0012800D02*
D03*
X0030600Y0015100D02*
D03*
X0032500D02*
D03*
X0020300Y0012800D02*
D03*
X0019350Y0015100D02*
D03*
X0021250D02*
D03*
X0024050Y0012800D02*
D03*
X0023100Y0015100D02*
D03*
X0025000D02*
D03*
X0012800Y0012800D02*
D03*
X0011850Y0015100D02*
D03*
X0013750D02*
D03*
X0016550Y0012800D02*
D03*
X0015600Y0015100D02*
D03*
X0017500D02*
D03*
D59*
X0041250Y0072000D02*
D03*
Y0062500D02*
D03*
D60*
X0042500Y0085500D02*
D03*
X0039500D02*
D03*
X0042500Y0081500D02*
D03*
X0039500D02*
D03*
X0042500Y0077500D02*
D03*
X0039500D02*
D03*
X0029500Y0045000D02*
D03*
X0026500D02*
D03*
X0029500Y0041000D02*
D03*
X0026500D02*
D03*
X0029500Y0037000D02*
D03*
X0026500D02*
D03*
X0029500Y0033000D02*
D03*
X0026500D02*
D03*
X0029500Y0029000D02*
D03*
X0026500D02*
D03*
X0046250Y0022750D02*
D03*
X0043250D02*
D03*
X0029500Y0049000D02*
D03*
X0026500D02*
D03*
X0029750Y0025000D02*
D03*
X0026750D02*
D03*
X0021750Y0081250D02*
D03*
X0024750D02*
D03*
X0003500Y0083000D02*
D03*
X0006500D02*
D03*
X0008500Y0080000D02*
D03*
X0011500D02*
D03*
X0006500D02*
D03*
X0003500D02*
D03*
D61*
X0027290Y0094750D02*
D03*
X0024750D02*
D03*
X0027290Y0088250D02*
D03*
D62*
X0024750D02*
D03*
D63*
X0005000Y0031500D02*
D03*
Y0034500D02*
D03*
X0002250Y0031500D02*
D03*
Y0034500D02*
D03*
Y0028000D02*
D03*
Y0025000D02*
D03*
X0010750Y0003750D02*
D03*
Y0006750D02*
D03*
X0005000Y0028000D02*
D03*
Y0025000D02*
D03*
X0007750Y0028000D02*
D03*
Y0025000D02*
D03*
Y0030750D02*
D03*
Y0033750D02*
D03*
D64*
X0012800Y0025000D02*
D03*
X0017200D02*
D03*
X0012800Y0029000D02*
D03*
X0017200D02*
D03*
X0003550Y0063500D02*
D03*
X0007950D02*
D03*
X0012800Y0033000D02*
D03*
X0017200D02*
D03*
X0012800Y0037000D02*
D03*
X0017200D02*
D03*
X0012800Y0041000D02*
D03*
X0017200D02*
D03*
X0012800Y0045000D02*
D03*
X0017200D02*
D03*
D65*
X0018875Y0058750D02*
D03*
X0015125D02*
D03*
D66*
X0012750Y0063875D02*
D03*
Y0060125D02*
D03*
D67*
X0036250Y0057500D02*
D03*
D68*
Y0058000D02*
D03*
Y0058500D02*
D03*
Y0059000D02*
D03*
Y0059500D02*
D03*
Y0060000D02*
D03*
Y0060500D02*
D03*
Y0061000D02*
D03*
Y0061500D02*
D03*
Y0062000D02*
D03*
Y0062500D02*
D03*
Y0063000D02*
D03*
X0027750D02*
D03*
Y0062500D02*
D03*
Y0062000D02*
D03*
Y0061500D02*
D03*
Y0061000D02*
D03*
Y0060500D02*
D03*
Y0060000D02*
D03*
Y0059500D02*
D03*
Y0059000D02*
D03*
Y0058500D02*
D03*
Y0058000D02*
D03*
Y0057500D02*
D03*
D69*
X0034750Y0064500D02*
D03*
X0034250D02*
D03*
X0033750D02*
D03*
X0033250D02*
D03*
X0032750D02*
D03*
X0032250D02*
D03*
X0031750D02*
D03*
X0031250D02*
D03*
X0030750D02*
D03*
X0030250D02*
D03*
X0029750D02*
D03*
X0029250D02*
D03*
Y0056000D02*
D03*
X0029750D02*
D03*
X0030250D02*
D03*
X0030750D02*
D03*
X0031250D02*
D03*
X0031750D02*
D03*
X0032250D02*
D03*
X0032750D02*
D03*
X0033250D02*
D03*
X0033750D02*
D03*
X0034250D02*
D03*
X0034750D02*
D03*
D70*
X0013750Y0083810D02*
D03*
Y0082540D02*
D03*
Y0081270D02*
D03*
Y0080000D02*
D03*
X0019250Y0083810D02*
D03*
Y0082540D02*
D03*
Y0081270D02*
D03*
D71*
Y0080000D02*
D03*
D72*
X0044750Y0087500D02*
D03*
X0048250Y0082500D02*
D03*
X0044750Y0077500D02*
D03*
X0022580Y0006290D02*
D03*
X0022580Y0003750D02*
D03*
X0020040Y0006290D02*
D03*
Y0003750D02*
D03*
X0017500Y0006290D02*
D03*
X0025120Y0003750D02*
D03*
Y0006290D02*
D03*
X0030200Y0003750D02*
D03*
Y0006290D02*
D03*
X0027660Y0003750D02*
D03*
Y0006290D02*
D03*
X0032740Y0003750D02*
D03*
Y0006290D02*
D03*
X0035280D02*
D03*
X0035280Y0003750D02*
D03*
D73*
X0047500Y0067750D02*
D03*
X0045000D02*
D03*
D74*
X0047500Y0060250D02*
D03*
X0045000D02*
D03*
D75*
X0035000Y0097200D02*
D03*
X0007000Y0058750D02*
D03*
X0017250Y0087500D02*
D03*
D76*
X0035000Y0089600D02*
D03*
X0008750Y0043750D02*
D03*
Y0037400D02*
D03*
X0003750Y0038750D02*
D03*
Y0045100D02*
D03*
Y0048750D02*
D03*
X0010100D02*
D03*
X0005000Y0076500D02*
D03*
X0014000Y0076500D02*
D03*
X0014000Y0067500D02*
D03*
X0005000D02*
D03*
X0007000Y0053750D02*
D03*
X0017250Y0092500D02*
D03*
D77*
X0027250Y0097500D02*
D03*
X0022000Y0096250D02*
D03*
D78*
X0011250Y0097500D02*
D03*
D79*
X0013790D02*
D03*
X0016330D02*
D03*
X0021250Y0059420D02*
D03*
Y0056880D02*
D03*
Y0061960D02*
D03*
D80*
X0006250Y0088750D02*
D03*
X0008750D02*
D03*
X0003750D02*
D03*
D81*
X0017500Y0003750D02*
D03*
D82*
X0043710Y0039410D02*
D03*
X0046250D02*
D03*
X0043710Y0036870D02*
D03*
X0046250D02*
D03*
X0043710Y0029250D02*
D03*
X0046250Y0031790D02*
D03*
X0043710D02*
D03*
X0046250Y0034330D02*
D03*
X0043710Y0034330D02*
D03*
D83*
X0046250Y0029250D02*
D03*
D84*
X0021250Y0064500D02*
D03*
D85*
X0022500Y0076370D02*
D03*
Y0068750D02*
D03*
Y0073830D02*
D03*
Y0071290D02*
D03*
D86*
X0007500Y0020000D02*
D03*
X0002420D02*
D03*
X0004960D02*
D03*
X0007500Y0012500D02*
D03*
X0002420D02*
D03*
X0004960D02*
D03*
D87*
X0015000Y0055040D02*
D03*
Y0052500D02*
D03*
Y0049960D02*
D03*
D88*
X0045000Y0005000D02*
D03*
X0005000D02*
D03*
Y0095000D02*
D03*
X0045000D02*
D03*
M02*
