M48
;Layer_Color=9474304
;FILE_FORMAT=4:3
METRIC
;TYPE=PLATED
T1F00S00C0.600
T2F00S00C0.800
T3F00S00C1.000
T4F00S00C1.200
T5F00S00C1.500
T6F00S00C3.500
%
T01
X0010750Y0008000
X0012800Y0023300
Y0027300
Y0031300
Y0035300
X0007750Y0029250
X0021000Y0021000
X0023000
X0025000
X0026750
X0028250
X0030750Y0021500
X0034250Y0021000
X0038000
X0041000Y0022000
X0040000Y0023250
X0042500Y0025000
X0038750Y0003750
X0002250Y0030000
X0005000Y0036000
X0012800Y0039250
Y0043250
X0020250Y0043000
X0019950Y0038950
X0019800Y0047050
X0020000Y0051000
X0019800Y0053950
X0028500Y0054500
X0029250Y0057500
X0029100Y0059334
X0029500Y0061250
Y0062750
X0031000Y0062500
X0034500Y0063000
X0034800Y0061300
X0036250Y0064000
X0036250Y0065250
X0036500Y0066750
X0035250Y0066250
X0033750
X0031250Y0066500
X0028000Y0064900
X0027000Y0064000
X0026000Y0063200
X0026075Y0060834
X0024750Y0061250
X0023500Y0062000
X0025300Y0065200
X0020750Y0067250
X0024500Y0072500
X0030800Y0073500
X0030750Y0075250
X0032500Y0074750
X0032750Y0073500
X0020200Y0076500
X0036250Y0055250
X0037500
X0043000Y0049000
X0007000Y0050750
X0045250Y0049000
X0047500
Y0053500
X0046200Y0086000
X0041750Y0087750
X0041000Y0083750
X0041400Y0080100
X0042500Y0079100
X0029250Y0081500
X0029250Y0084500
X0026300Y0085450
X0017500Y0082500
T02
X0005000Y0067500
Y0076500
X0014000Y0076500
X0014000Y0067500
X0021250Y0064500
Y0061960
Y0059420
Y0056880
X0007000Y0058750
Y0053750
X0045000Y0060250
X0047500
X0047500Y0067750
X0045000
X0035000Y0089600
Y0097200
X0016330Y0097500
X0013790
X0011250
X0017250Y0092500
Y0087500
X0008750Y0088750
X0006250
X0003750
T03
X0046250Y0029250
Y0031790
Y0034330
Y0036870
X0043710
Y0034330
Y0031790
Y0029250
X0035280Y0006290
X0032740
Y0003750
X0035280
X0030200
X0027660
Y0006290
X0030200
X0025120
Y0003750
X0022580
X0020040
X0017500
Y0006290
X0020040
X0022580
X0008750Y0037400
X0003750Y0038750
Y0045100
Y0048750
X0010100
X0015000Y0049960
Y0052500
Y0055040
X0008750Y0043750
X0043710Y0039410
X0044750Y0077500
X0046250Y0039410
X0048250Y0082500
X0044750Y0087500
T04
X0007500Y0012500
Y0020000
X0004960
X0002420
Y0012500
X0004960
X0022500Y0068750
Y0071290
Y0073830
Y0076370
T05
X0022000Y0096250
X0027250Y0097500
T06
X0045000Y0005000
X0005000
X0045000Y0095000
X0005000
M30
