G04 Layer_Physical_Order=2*
G04 Layer_Color=16711680*
%FSAX43Y43*%
%MOMM*%
G71*
G01*
G75*
%ADD27C,0.300*%
%ADD28C,1.000*%
%ADD30C,7.000*%
%ADD31R,2.000X2.000*%
%ADD32C,2.000*%
%ADD33O,2.000X1.500*%
%ADD34O,1.800X2.500*%
%ADD35O,2.500X1.800*%
%ADD36R,1.500X1.500*%
%ADD37C,1.500*%
%ADD38O,2.000X1.500*%
%ADD39R,2.000X1.500*%
%ADD40O,1.500X2.000*%
%ADD41R,1.500X2.000*%
%ADD42C,1.600*%
%ADD43R,1.500X1.500*%
%ADD44C,2.500*%
%ADD45O,1.500X1.800*%
%ADD46C,1.800*%
%ADD47C,1.000*%
G36*
X0013301Y0043190D02*
X0013305Y0043138D01*
X0013313Y0043088D01*
X0013324Y0043040D01*
X0013337Y0042995D01*
X0013355Y0042953D01*
X0013375Y0042913D01*
X0013399Y0042875D01*
X0013425Y0042840D01*
X0013455Y0042807D01*
X0013243Y0042595D01*
X0013210Y0042625D01*
X0013175Y0042651D01*
X0013137Y0042675D01*
X0013097Y0042695D01*
X0013055Y0042713D01*
X0013010Y0042726D01*
X0012962Y0042737D01*
X0012912Y0042745D01*
X0012860Y0042749D01*
X0012805Y0042750D01*
X0013300Y0043245D01*
X0013301Y0043190D01*
D02*
G37*
G36*
X0020605Y0039393D02*
X0020575Y0039360D01*
X0020549Y0039325D01*
X0020525Y0039287D01*
X0020505Y0039247D01*
X0020487Y0039205D01*
X0020474Y0039160D01*
X0020463Y0039112D01*
X0020455Y0039062D01*
X0020451Y0039010D01*
X0020450Y0038955D01*
X0019955Y0039450D01*
X0020010Y0039451D01*
X0020062Y0039455D01*
X0020112Y0039463D01*
X0020160Y0039474D01*
X0020205Y0039487D01*
X0020247Y0039505D01*
X0020287Y0039525D01*
X0020325Y0039549D01*
X0020360Y0039575D01*
X0020393Y0039605D01*
X0020605Y0039393D01*
D02*
G37*
G36*
X0013301Y0039190D02*
X0013305Y0039138D01*
X0013313Y0039088D01*
X0013324Y0039040D01*
X0013337Y0038995D01*
X0013355Y0038953D01*
X0013375Y0038913D01*
X0013399Y0038875D01*
X0013425Y0038840D01*
X0013455Y0038807D01*
X0013243Y0038595D01*
X0013210Y0038625D01*
X0013175Y0038651D01*
X0013137Y0038675D01*
X0013097Y0038695D01*
X0013055Y0038713D01*
X0013010Y0038726D01*
X0012962Y0038737D01*
X0012912Y0038745D01*
X0012860Y0038749D01*
X0012805Y0038750D01*
X0013300Y0039245D01*
X0013301Y0039190D01*
D02*
G37*
G36*
X0019840Y0043625D02*
X0019875Y0043599D01*
X0019913Y0043575D01*
X0019953Y0043555D01*
X0019995Y0043537D01*
X0020040Y0043524D01*
X0020088Y0043513D01*
X0020138Y0043505D01*
X0020190Y0043501D01*
X0020245Y0043500D01*
X0019750Y0043005D01*
X0019749Y0043060D01*
X0019745Y0043112D01*
X0019737Y0043162D01*
X0019726Y0043210D01*
X0019713Y0043255D01*
X0019695Y0043297D01*
X0019675Y0043337D01*
X0019651Y0043375D01*
X0019625Y0043410D01*
X0019595Y0043443D01*
X0019807Y0043655D01*
X0019840Y0043625D01*
D02*
G37*
G36*
X0019795Y0046550D02*
X0019740Y0046549D01*
X0019688Y0046545D01*
X0019638Y0046537D01*
X0019590Y0046526D01*
X0019545Y0046513D01*
X0019503Y0046495D01*
X0019463Y0046475D01*
X0019425Y0046451D01*
X0019390Y0046425D01*
X0019357Y0046395D01*
X0019145Y0046607D01*
X0019175Y0046640D01*
X0019201Y0046675D01*
X0019225Y0046713D01*
X0019245Y0046753D01*
X0019263Y0046795D01*
X0019276Y0046840D01*
X0019287Y0046888D01*
X0019295Y0046938D01*
X0019299Y0046990D01*
X0019300Y0047045D01*
X0019795Y0046550D01*
D02*
G37*
G36*
X0004979Y0046117D02*
X0004934Y0046065D01*
X0004894Y0046001D01*
X0004859Y0045927D01*
X0004829Y0045842D01*
X0004803Y0045747D01*
X0004783Y0045641D01*
X0004767Y0045524D01*
X0004751Y0045259D01*
X0004750Y0045110D01*
X0003760Y0046100D01*
X0003909Y0046101D01*
X0004174Y0046117D01*
X0004291Y0046133D01*
X0004397Y0046153D01*
X0004492Y0046179D01*
X0004577Y0046209D01*
X0004651Y0046244D01*
X0004715Y0046284D01*
X0004767Y0046329D01*
X0004979Y0046117D01*
D02*
G37*
G36*
X0009979Y0044767D02*
X0009934Y0044715D01*
X0009894Y0044651D01*
X0009859Y0044577D01*
X0009829Y0044492D01*
X0009803Y0044397D01*
X0009783Y0044291D01*
X0009767Y0044174D01*
X0009751Y0043909D01*
X0009750Y0043760D01*
X0008760Y0044750D01*
X0008909Y0044751D01*
X0009174Y0044767D01*
X0009291Y0044783D01*
X0009397Y0044803D01*
X0009492Y0044829D01*
X0009577Y0044859D01*
X0009651Y0044894D01*
X0009715Y0044934D01*
X0009767Y0044979D01*
X0009979Y0044767D01*
D02*
G37*
G36*
X0013301Y0035240D02*
X0013305Y0035188D01*
X0013313Y0035138D01*
X0013324Y0035090D01*
X0013337Y0035045D01*
X0013355Y0035003D01*
X0013375Y0034963D01*
X0013399Y0034925D01*
X0013425Y0034890D01*
X0013455Y0034857D01*
X0013243Y0034645D01*
X0013210Y0034675D01*
X0013175Y0034701D01*
X0013137Y0034725D01*
X0013097Y0034745D01*
X0013055Y0034763D01*
X0013010Y0034776D01*
X0012962Y0034787D01*
X0012912Y0034795D01*
X0012860Y0034799D01*
X0012805Y0034800D01*
X0013300Y0035295D01*
X0013301Y0035240D01*
D02*
G37*
G36*
X0042776Y0031491D02*
X0042773Y0031520D01*
X0042762Y0031545D01*
X0042744Y0031567D01*
X0042720Y0031587D01*
X0042688Y0031603D01*
X0042650Y0031616D01*
X0042604Y0031627D01*
X0042551Y0031634D01*
X0042492Y0031639D01*
X0042425Y0031640D01*
Y0031940D01*
X0042492Y0031941D01*
X0042604Y0031953D01*
X0042650Y0031964D01*
X0042688Y0031977D01*
X0042720Y0031993D01*
X0042744Y0032013D01*
X0042762Y0032035D01*
X0042773Y0032060D01*
X0042776Y0032089D01*
Y0031491D01*
D02*
G37*
G36*
X0045931Y0031049D02*
X0045903Y0031061D01*
X0045873Y0031067D01*
X0045840Y0031065D01*
X0045805Y0031057D01*
X0045767Y0031043D01*
X0045727Y0031022D01*
X0045685Y0030994D01*
X0045640Y0030960D01*
X0045593Y0030919D01*
X0045544Y0030871D01*
X0045278Y0031030D01*
X0045324Y0031078D01*
X0045362Y0031123D01*
X0045393Y0031164D01*
X0045416Y0031202D01*
X0045432Y0031237D01*
X0045439Y0031268D01*
X0045439Y0031295D01*
X0045432Y0031319D01*
X0045416Y0031340D01*
X0045393Y0031357D01*
X0045931Y0031049D01*
D02*
G37*
G36*
X0005312Y0035603D02*
X0005278Y0035563D01*
X0005248Y0035523D01*
X0005222Y0035482D01*
X0005200Y0035440D01*
X0005182Y0035398D01*
X0005168Y0035355D01*
X0005158Y0035311D01*
X0005152Y0035268D01*
X0005150Y0035223D01*
X0004850D01*
X0004848Y0035268D01*
X0004842Y0035311D01*
X0004832Y0035355D01*
X0004818Y0035398D01*
X0004800Y0035440D01*
X0004778Y0035482D01*
X0004752Y0035523D01*
X0004722Y0035563D01*
X0004688Y0035603D01*
X0004650Y0035643D01*
X0005350D01*
X0005312Y0035603D01*
D02*
G37*
G36*
X0047222Y0037630D02*
X0047176Y0037582D01*
X0047138Y0037537D01*
X0047107Y0037496D01*
X0047084Y0037458D01*
X0047068Y0037423D01*
X0047061Y0037392D01*
X0047061Y0037365D01*
X0047068Y0037341D01*
X0047084Y0037320D01*
X0047107Y0037303D01*
X0046569Y0037611D01*
X0046597Y0037599D01*
X0046627Y0037593D01*
X0046660Y0037595D01*
X0046695Y0037603D01*
X0046733Y0037617D01*
X0046773Y0037638D01*
X0046815Y0037666D01*
X0046860Y0037700D01*
X0046907Y0037741D01*
X0046956Y0037789D01*
X0047222Y0037630D01*
D02*
G37*
G36*
X0009979Y0038417D02*
X0009934Y0038365D01*
X0009894Y0038301D01*
X0009859Y0038227D01*
X0009829Y0038142D01*
X0009803Y0038047D01*
X0009783Y0037941D01*
X0009767Y0037824D01*
X0009751Y0037559D01*
X0009750Y0037410D01*
X0008760Y0038400D01*
X0008909Y0038401D01*
X0009174Y0038417D01*
X0009291Y0038433D01*
X0009397Y0038453D01*
X0009492Y0038479D01*
X0009577Y0038509D01*
X0009651Y0038544D01*
X0009715Y0038584D01*
X0009767Y0038629D01*
X0009979Y0038417D01*
D02*
G37*
G36*
X0004643Y0035650D02*
X0004603Y0035688D01*
X0004563Y0035722D01*
X0004523Y0035752D01*
X0004482Y0035778D01*
X0004440Y0035800D01*
X0004398Y0035818D01*
X0004355Y0035832D01*
X0004311Y0035842D01*
X0004268Y0035848D01*
X0004223Y0035850D01*
Y0036150D01*
X0004268Y0036152D01*
X0004311Y0036158D01*
X0004355Y0036168D01*
X0004398Y0036182D01*
X0004440Y0036200D01*
X0004482Y0036222D01*
X0004523Y0036248D01*
X0004563Y0036278D01*
X0004603Y0036312D01*
X0004643Y0036350D01*
Y0035650D01*
D02*
G37*
G36*
X0020301Y0046990D02*
X0020305Y0046938D01*
X0020313Y0046888D01*
X0020324Y0046840D01*
X0020337Y0046795D01*
X0020355Y0046753D01*
X0020375Y0046713D01*
X0020399Y0046675D01*
X0020425Y0046640D01*
X0020455Y0046607D01*
X0020243Y0046395D01*
X0020210Y0046425D01*
X0020175Y0046451D01*
X0020137Y0046475D01*
X0020097Y0046495D01*
X0020055Y0046513D01*
X0020010Y0046526D01*
X0019962Y0046537D01*
X0019912Y0046545D01*
X0019860Y0046549D01*
X0019805Y0046550D01*
X0020300Y0047045D01*
X0020301Y0046990D01*
D02*
G37*
G36*
Y0053890D02*
X0020305Y0053838D01*
X0020313Y0053788D01*
X0020324Y0053740D01*
X0020337Y0053695D01*
X0020355Y0053653D01*
X0020375Y0053613D01*
X0020399Y0053575D01*
X0020425Y0053540D01*
X0020455Y0053507D01*
X0020243Y0053295D01*
X0020210Y0053325D01*
X0020175Y0053351D01*
X0020137Y0053375D01*
X0020097Y0053395D01*
X0020055Y0053413D01*
X0020010Y0053426D01*
X0019962Y0053437D01*
X0019912Y0053445D01*
X0019860Y0053449D01*
X0019805Y0053450D01*
X0020300Y0053945D01*
X0020301Y0053890D01*
D02*
G37*
G36*
X0007397Y0051062D02*
X0007437Y0051028D01*
X0007477Y0050998D01*
X0007518Y0050972D01*
X0007560Y0050950D01*
X0007602Y0050932D01*
X0007645Y0050918D01*
X0007689Y0050908D01*
X0007732Y0050902D01*
X0007777Y0050900D01*
Y0050600D01*
X0007732Y0050598D01*
X0007689Y0050592D01*
X0007645Y0050582D01*
X0007602Y0050568D01*
X0007560Y0050550D01*
X0007518Y0050528D01*
X0007477Y0050502D01*
X0007437Y0050472D01*
X0007397Y0050438D01*
X0007357Y0050400D01*
Y0051100D01*
X0007397Y0051062D01*
D02*
G37*
G36*
X0019995Y0050500D02*
X0019940Y0050499D01*
X0019888Y0050495D01*
X0019838Y0050487D01*
X0019790Y0050476D01*
X0019745Y0050463D01*
X0019703Y0050445D01*
X0019663Y0050425D01*
X0019625Y0050401D01*
X0019590Y0050375D01*
X0019557Y0050345D01*
X0019345Y0050557D01*
X0019375Y0050590D01*
X0019401Y0050625D01*
X0019425Y0050663D01*
X0019445Y0050703D01*
X0019463Y0050745D01*
X0019476Y0050790D01*
X0019487Y0050838D01*
X0019495Y0050888D01*
X0019499Y0050940D01*
X0019500Y0050995D01*
X0019995Y0050500D01*
D02*
G37*
G36*
X0047652Y0054232D02*
X0047658Y0054189D01*
X0047668Y0054145D01*
X0047682Y0054102D01*
X0047700Y0054060D01*
X0047722Y0054018D01*
X0047748Y0053977D01*
X0047778Y0053937D01*
X0047812Y0053897D01*
X0047850Y0053857D01*
X0047150D01*
X0047188Y0053897D01*
X0047222Y0053937D01*
X0047252Y0053977D01*
X0047278Y0054018D01*
X0047300Y0054060D01*
X0047318Y0054102D01*
X0047332Y0054145D01*
X0047342Y0054189D01*
X0047348Y0054232D01*
X0047350Y0054277D01*
X0047650D01*
X0047652Y0054232D01*
D02*
G37*
G36*
X0036401Y0055953D02*
X0036406Y0055909D01*
X0036413Y0055867D01*
X0036423Y0055829D01*
X0036435Y0055793D01*
X0036451Y0055760D01*
X0036469Y0055730D01*
X0036491Y0055702D01*
X0036515Y0055678D01*
X0036542Y0055656D01*
X0035958D01*
X0035985Y0055678D01*
X0036009Y0055702D01*
X0036031Y0055730D01*
X0036049Y0055760D01*
X0036065Y0055793D01*
X0036077Y0055829D01*
X0036087Y0055867D01*
X0036094Y0055909D01*
X0036099Y0055953D01*
X0036100Y0056000D01*
X0036400D01*
X0036401Y0055953D01*
D02*
G37*
G36*
X0029155Y0054943D02*
X0029125Y0054910D01*
X0029099Y0054875D01*
X0029075Y0054837D01*
X0029055Y0054797D01*
X0029037Y0054755D01*
X0029024Y0054710D01*
X0029013Y0054662D01*
X0029005Y0054612D01*
X0029001Y0054560D01*
X0029000Y0054505D01*
X0028505Y0055000D01*
X0028560Y0055001D01*
X0028612Y0055005D01*
X0028662Y0055013D01*
X0028710Y0055024D01*
X0028755Y0055037D01*
X0028797Y0055055D01*
X0028837Y0055075D01*
X0028875Y0055099D01*
X0028910Y0055125D01*
X0028943Y0055155D01*
X0029155Y0054943D01*
D02*
G37*
G36*
X0036562Y0054853D02*
X0036528Y0054813D01*
X0036498Y0054773D01*
X0036472Y0054732D01*
X0036450Y0054690D01*
X0036432Y0054648D01*
X0036418Y0054605D01*
X0036408Y0054561D01*
X0036402Y0054518D01*
X0036400Y0054473D01*
X0036100D01*
X0036098Y0054518D01*
X0036092Y0054561D01*
X0036082Y0054605D01*
X0036068Y0054648D01*
X0036050Y0054690D01*
X0036028Y0054732D01*
X0036002Y0054773D01*
X0035972Y0054813D01*
X0035938Y0054853D01*
X0035900Y0054893D01*
X0036600D01*
X0036562Y0054853D01*
D02*
G37*
G36*
X0009386Y0048050D02*
X0009280Y0048154D01*
X0009081Y0048331D01*
X0008987Y0048402D01*
X0008898Y0048463D01*
X0008812Y0048512D01*
X0008731Y0048550D01*
X0008654Y0048578D01*
X0008580Y0048595D01*
X0008511Y0048600D01*
Y0048900D01*
X0008580Y0048905D01*
X0008654Y0048922D01*
X0008731Y0048950D01*
X0008812Y0048988D01*
X0008898Y0049037D01*
X0008987Y0049098D01*
X0009081Y0049169D01*
X0009280Y0049346D01*
X0009386Y0049450D01*
Y0048050D01*
D02*
G37*
G36*
X0011101Y0048591D02*
X0011117Y0048326D01*
X0011133Y0048209D01*
X0011153Y0048103D01*
X0011179Y0048008D01*
X0011209Y0047923D01*
X0011244Y0047849D01*
X0011284Y0047785D01*
X0011329Y0047733D01*
X0011117Y0047521D01*
X0011065Y0047566D01*
X0011001Y0047606D01*
X0010927Y0047641D01*
X0010842Y0047671D01*
X0010747Y0047697D01*
X0010641Y0047717D01*
X0010524Y0047733D01*
X0010259Y0047749D01*
X0010110Y0047750D01*
X0011100Y0048740D01*
X0011101Y0048591D01*
D02*
G37*
G36*
X0003740Y0047750D02*
X0003591Y0047749D01*
X0003326Y0047733D01*
X0003209Y0047717D01*
X0003103Y0047697D01*
X0003008Y0047671D01*
X0002923Y0047641D01*
X0002849Y0047606D01*
X0002785Y0047566D01*
X0002733Y0047521D01*
X0002521Y0047733D01*
X0002566Y0047785D01*
X0002606Y0047849D01*
X0002641Y0047923D01*
X0002671Y0048008D01*
X0002697Y0048103D01*
X0002717Y0048209D01*
X0002733Y0048326D01*
X0002749Y0048591D01*
X0002750Y0048740D01*
X0003740Y0047750D01*
D02*
G37*
G36*
X0042590Y0049625D02*
X0042625Y0049599D01*
X0042663Y0049575D01*
X0042703Y0049555D01*
X0042745Y0049537D01*
X0042790Y0049524D01*
X0042838Y0049513D01*
X0042888Y0049505D01*
X0042940Y0049501D01*
X0042995Y0049500D01*
X0042500Y0049005D01*
X0042499Y0049060D01*
X0042495Y0049112D01*
X0042487Y0049162D01*
X0042476Y0049210D01*
X0042463Y0049255D01*
X0042445Y0049297D01*
X0042425Y0049337D01*
X0042401Y0049375D01*
X0042375Y0049410D01*
X0042345Y0049443D01*
X0042557Y0049655D01*
X0042590Y0049625D01*
D02*
G37*
G36*
X0003905Y0050270D02*
X0003922Y0050196D01*
X0003950Y0050119D01*
X0003988Y0050038D01*
X0004037Y0049952D01*
X0004098Y0049863D01*
X0004169Y0049769D01*
X0004345Y0049570D01*
X0004450Y0049464D01*
X0003050D01*
X0003155Y0049570D01*
X0003330Y0049769D01*
X0003402Y0049863D01*
X0003463Y0049952D01*
X0003512Y0050038D01*
X0003550Y0050119D01*
X0003578Y0050196D01*
X0003595Y0050270D01*
X0003600Y0050339D01*
X0003900D01*
X0003905Y0050270D01*
D02*
G37*
G36*
X0047090Y0049625D02*
X0047125Y0049599D01*
X0047163Y0049575D01*
X0047203Y0049555D01*
X0047245Y0049537D01*
X0047290Y0049524D01*
X0047338Y0049513D01*
X0047388Y0049505D01*
X0047440Y0049501D01*
X0047495Y0049500D01*
X0047000Y0049005D01*
X0046999Y0049060D01*
X0046995Y0049112D01*
X0046987Y0049162D01*
X0046976Y0049210D01*
X0046963Y0049255D01*
X0046945Y0049297D01*
X0046925Y0049337D01*
X0046901Y0049375D01*
X0046875Y0049410D01*
X0046845Y0049443D01*
X0047057Y0049655D01*
X0047090Y0049625D01*
D02*
G37*
G36*
X0044840D02*
X0044875Y0049599D01*
X0044913Y0049575D01*
X0044953Y0049555D01*
X0044995Y0049537D01*
X0045040Y0049524D01*
X0045088Y0049513D01*
X0045138Y0049505D01*
X0045190Y0049501D01*
X0045245Y0049500D01*
X0044750Y0049005D01*
X0044749Y0049060D01*
X0044745Y0049112D01*
X0044737Y0049162D01*
X0044726Y0049210D01*
X0044713Y0049255D01*
X0044695Y0049297D01*
X0044675Y0049337D01*
X0044651Y0049375D01*
X0044625Y0049410D01*
X0044595Y0049443D01*
X0044807Y0049655D01*
X0044840Y0049625D01*
D02*
G37*
G36*
X0002691Y0018803D02*
X0002665Y0018793D01*
X0002643Y0018776D01*
X0002624Y0018752D01*
X0002607Y0018721D01*
X0002594Y0018683D01*
X0002583Y0018638D01*
X0002576Y0018587D01*
X0002571Y0018529D01*
X0002570Y0018463D01*
X0002270D01*
X0002269Y0018529D01*
X0002264Y0018587D01*
X0002257Y0018638D01*
X0002246Y0018683D01*
X0002233Y0018721D01*
X0002216Y0018752D01*
X0002197Y0018776D01*
X0002175Y0018793D01*
X0002149Y0018803D01*
X0002121Y0018807D01*
X0002719D01*
X0002691Y0018803D01*
D02*
G37*
G36*
X0002571Y0013971D02*
X0002576Y0013913D01*
X0002583Y0013862D01*
X0002594Y0013817D01*
X0002607Y0013779D01*
X0002624Y0013748D01*
X0002643Y0013724D01*
X0002665Y0013707D01*
X0002691Y0013697D01*
X0002719Y0013693D01*
X0002121D01*
X0002149Y0013697D01*
X0002175Y0013707D01*
X0002197Y0013724D01*
X0002216Y0013748D01*
X0002233Y0013779D01*
X0002246Y0013817D01*
X0002257Y0013862D01*
X0002264Y0013913D01*
X0002269Y0013971D01*
X0002270Y0014037D01*
X0002570D01*
X0002571Y0013971D01*
D02*
G37*
G36*
X0010340Y0008625D02*
X0010375Y0008599D01*
X0010413Y0008575D01*
X0010453Y0008555D01*
X0010495Y0008537D01*
X0010540Y0008524D01*
X0010588Y0008513D01*
X0010638Y0008505D01*
X0010690Y0008501D01*
X0010745Y0008500D01*
X0010250Y0008005D01*
X0010249Y0008060D01*
X0010245Y0008112D01*
X0010237Y0008162D01*
X0010226Y0008210D01*
X0010213Y0008255D01*
X0010195Y0008297D01*
X0010175Y0008337D01*
X0010151Y0008375D01*
X0010125Y0008410D01*
X0010095Y0008443D01*
X0010307Y0008655D01*
X0010340Y0008625D01*
D02*
G37*
G36*
X0023265Y0020572D02*
X0023241Y0020548D01*
X0023219Y0020520D01*
X0023201Y0020490D01*
X0023185Y0020457D01*
X0023173Y0020421D01*
X0023163Y0020383D01*
X0023156Y0020341D01*
X0023151Y0020297D01*
X0023150Y0020250D01*
X0022850D01*
X0022849Y0020297D01*
X0022844Y0020341D01*
X0022837Y0020383D01*
X0022827Y0020421D01*
X0022815Y0020457D01*
X0022799Y0020490D01*
X0022781Y0020520D01*
X0022759Y0020548D01*
X0022735Y0020572D01*
X0022708Y0020594D01*
X0023292D01*
X0023265Y0020572D01*
D02*
G37*
G36*
X0037995Y0020500D02*
X0037940Y0020499D01*
X0037888Y0020495D01*
X0037838Y0020487D01*
X0037790Y0020476D01*
X0037745Y0020463D01*
X0037703Y0020445D01*
X0037663Y0020425D01*
X0037625Y0020401D01*
X0037590Y0020375D01*
X0037557Y0020345D01*
X0037345Y0020557D01*
X0037375Y0020590D01*
X0037401Y0020625D01*
X0037425Y0020663D01*
X0037445Y0020703D01*
X0037463Y0020745D01*
X0037476Y0020790D01*
X0037487Y0020838D01*
X0037495Y0020888D01*
X0037499Y0020940D01*
X0037500Y0020995D01*
X0037995Y0020500D01*
D02*
G37*
G36*
X0026745D02*
X0026690Y0020499D01*
X0026638Y0020495D01*
X0026588Y0020487D01*
X0026540Y0020476D01*
X0026495Y0020463D01*
X0026453Y0020445D01*
X0026413Y0020425D01*
X0026375Y0020401D01*
X0026340Y0020375D01*
X0026307Y0020345D01*
X0026095Y0020557D01*
X0026125Y0020590D01*
X0026151Y0020625D01*
X0026175Y0020663D01*
X0026195Y0020703D01*
X0026213Y0020745D01*
X0026226Y0020790D01*
X0026237Y0020838D01*
X0026245Y0020888D01*
X0026249Y0020940D01*
X0026250Y0020995D01*
X0026745Y0020500D01*
D02*
G37*
G36*
X0021501Y0020940D02*
X0021505Y0020888D01*
X0021513Y0020838D01*
X0021524Y0020790D01*
X0021537Y0020745D01*
X0021555Y0020703D01*
X0021575Y0020663D01*
X0021599Y0020625D01*
X0021625Y0020590D01*
X0021655Y0020557D01*
X0021443Y0020345D01*
X0021410Y0020375D01*
X0021375Y0020401D01*
X0021337Y0020425D01*
X0021297Y0020445D01*
X0021255Y0020463D01*
X0021210Y0020476D01*
X0021162Y0020487D01*
X0021112Y0020495D01*
X0021060Y0020499D01*
X0021005Y0020500D01*
X0021500Y0020995D01*
X0021501Y0020940D01*
D02*
G37*
G36*
X0016581Y0004881D02*
X0016734Y0004746D01*
X0016745Y0004742D01*
X0016751Y0004742D01*
X0016753Y0004747D01*
X0016756Y0004072D01*
X0016754Y0004114D01*
X0016747Y0004157D01*
X0016737Y0004199D01*
X0016721Y0004241D01*
X0016702Y0004284D01*
X0016678Y0004326D01*
X0016651Y0004369D01*
X0016618Y0004411D01*
X0016582Y0004454D01*
X0016541Y0004497D01*
Y0004921D01*
X0016581Y0004881D01*
D02*
G37*
G36*
X0021868Y0004676D02*
X0021913Y0004638D01*
X0021954Y0004607D01*
X0021992Y0004584D01*
X0022027Y0004568D01*
X0022058Y0004561D01*
X0022085Y0004561D01*
X0022109Y0004568D01*
X0022130Y0004584D01*
X0022147Y0004607D01*
X0021839Y0004069D01*
X0021851Y0004097D01*
X0021857Y0004127D01*
X0021855Y0004160D01*
X0021847Y0004195D01*
X0021833Y0004233D01*
X0021812Y0004273D01*
X0021784Y0004315D01*
X0021750Y0004360D01*
X0021709Y0004407D01*
X0021661Y0004456D01*
X0021820Y0004722D01*
X0021868Y0004676D01*
D02*
G37*
G36*
X0019328D02*
X0019373Y0004638D01*
X0019414Y0004607D01*
X0019452Y0004584D01*
X0019487Y0004568D01*
X0019518Y0004561D01*
X0019545Y0004561D01*
X0019569Y0004568D01*
X0019590Y0004584D01*
X0019607Y0004607D01*
X0019299Y0004069D01*
X0019311Y0004097D01*
X0019317Y0004127D01*
X0019315Y0004160D01*
X0019307Y0004195D01*
X0019293Y0004233D01*
X0019272Y0004273D01*
X0019244Y0004315D01*
X0019210Y0004360D01*
X0019169Y0004407D01*
X0019121Y0004456D01*
X0019280Y0004722D01*
X0019328Y0004676D01*
D02*
G37*
G36*
X0038902Y0004482D02*
X0038908Y0004439D01*
X0038918Y0004395D01*
X0038932Y0004352D01*
X0038950Y0004310D01*
X0038972Y0004268D01*
X0038998Y0004227D01*
X0039028Y0004187D01*
X0039062Y0004147D01*
X0039100Y0004107D01*
X0038400D01*
X0038438Y0004147D01*
X0038472Y0004187D01*
X0038502Y0004227D01*
X0038528Y0004268D01*
X0038550Y0004310D01*
X0038568Y0004352D01*
X0038582Y0004395D01*
X0038592Y0004439D01*
X0038598Y0004482D01*
X0038600Y0004527D01*
X0038900D01*
X0038902Y0004482D01*
D02*
G37*
G36*
X0022731Y0007508D02*
X0022743Y0007396D01*
X0022754Y0007350D01*
X0022767Y0007312D01*
X0022783Y0007280D01*
X0022803Y0007256D01*
X0022825Y0007238D01*
X0022850Y0007227D01*
X0022879Y0007224D01*
X0022281D01*
X0022310Y0007227D01*
X0022335Y0007238D01*
X0022357Y0007256D01*
X0022377Y0007280D01*
X0022393Y0007312D01*
X0022406Y0007350D01*
X0022417Y0007396D01*
X0022424Y0007449D01*
X0022429Y0007508D01*
X0022430Y0007575D01*
X0022730D01*
X0022731Y0007508D01*
D02*
G37*
G36*
X0020191D02*
X0020203Y0007396D01*
X0020214Y0007350D01*
X0020227Y0007312D01*
X0020243Y0007280D01*
X0020263Y0007256D01*
X0020285Y0007238D01*
X0020310Y0007227D01*
X0020339Y0007224D01*
X0019741D01*
X0019770Y0007227D01*
X0019795Y0007238D01*
X0019817Y0007256D01*
X0019837Y0007280D01*
X0019853Y0007312D01*
X0019866Y0007350D01*
X0019877Y0007396D01*
X0019884Y0007449D01*
X0019889Y0007508D01*
X0019890Y0007575D01*
X0020190D01*
X0020191Y0007508D01*
D02*
G37*
G36*
X0017651D02*
X0017663Y0007396D01*
X0017674Y0007350D01*
X0017687Y0007312D01*
X0017703Y0007280D01*
X0017723Y0007256D01*
X0017745Y0007238D01*
X0017770Y0007227D01*
X0017799Y0007224D01*
X0017201D01*
X0017230Y0007227D01*
X0017255Y0007238D01*
X0017277Y0007256D01*
X0017297Y0007280D01*
X0017313Y0007312D01*
X0017326Y0007350D01*
X0017337Y0007396D01*
X0017344Y0007449D01*
X0017349Y0007508D01*
X0017350Y0007575D01*
X0017650D01*
X0017651Y0007508D01*
D02*
G37*
G36*
X0033893Y0020650D02*
X0033853Y0020688D01*
X0033813Y0020722D01*
X0033773Y0020752D01*
X0033732Y0020778D01*
X0033690Y0020800D01*
X0033648Y0020818D01*
X0033605Y0020832D01*
X0033561Y0020842D01*
X0033518Y0020848D01*
X0033473Y0020850D01*
Y0021150D01*
X0033518Y0021152D01*
X0033561Y0021158D01*
X0033605Y0021168D01*
X0033648Y0021182D01*
X0033690Y0021200D01*
X0033732Y0021222D01*
X0033773Y0021248D01*
X0033813Y0021278D01*
X0033853Y0021312D01*
X0033893Y0021350D01*
Y0020650D01*
D02*
G37*
G36*
X0046521Y0028500D02*
X0046496Y0028491D01*
X0046473Y0028476D01*
X0046454Y0028455D01*
X0046438Y0028428D01*
X0046424Y0028395D01*
X0046414Y0028356D01*
X0046406Y0028311D01*
X0046402Y0028260D01*
X0046400Y0028203D01*
X0046100D01*
X0046098Y0028260D01*
X0046094Y0028311D01*
X0046086Y0028356D01*
X0046076Y0028395D01*
X0046062Y0028428D01*
X0046046Y0028455D01*
X0046027Y0028476D01*
X0046004Y0028491D01*
X0045979Y0028500D01*
X0045950Y0028503D01*
X0046550D01*
X0046521Y0028500D01*
D02*
G37*
G36*
X0013301Y0027240D02*
X0013305Y0027188D01*
X0013313Y0027138D01*
X0013324Y0027090D01*
X0013337Y0027045D01*
X0013355Y0027003D01*
X0013375Y0026963D01*
X0013399Y0026925D01*
X0013425Y0026890D01*
X0013455Y0026857D01*
X0013243Y0026645D01*
X0013210Y0026675D01*
X0013175Y0026701D01*
X0013137Y0026725D01*
X0013097Y0026745D01*
X0013055Y0026763D01*
X0013010Y0026776D01*
X0012962Y0026787D01*
X0012912Y0026795D01*
X0012860Y0026799D01*
X0012805Y0026800D01*
X0013300Y0027295D01*
X0013301Y0027240D01*
D02*
G37*
G36*
X0042090Y0025625D02*
X0042125Y0025599D01*
X0042163Y0025575D01*
X0042203Y0025555D01*
X0042245Y0025537D01*
X0042290Y0025524D01*
X0042338Y0025513D01*
X0042388Y0025505D01*
X0042440Y0025501D01*
X0042495Y0025500D01*
X0042000Y0025005D01*
X0041999Y0025060D01*
X0041995Y0025112D01*
X0041987Y0025162D01*
X0041976Y0025210D01*
X0041963Y0025255D01*
X0041945Y0025297D01*
X0041925Y0025337D01*
X0041901Y0025375D01*
X0041875Y0025410D01*
X0041845Y0025443D01*
X0042057Y0025655D01*
X0042090Y0025625D01*
D02*
G37*
G36*
X0042776Y0028951D02*
X0042773Y0028980D01*
X0042762Y0029005D01*
X0042744Y0029027D01*
X0042720Y0029047D01*
X0042688Y0029063D01*
X0042650Y0029076D01*
X0042604Y0029087D01*
X0042551Y0029094D01*
X0042492Y0029099D01*
X0042425Y0029100D01*
Y0029400D01*
X0042492Y0029401D01*
X0042604Y0029413D01*
X0042650Y0029424D01*
X0042688Y0029437D01*
X0042720Y0029453D01*
X0042744Y0029473D01*
X0042762Y0029495D01*
X0042773Y0029520D01*
X0042776Y0029549D01*
Y0028951D01*
D02*
G37*
G36*
X0013301Y0031240D02*
X0013305Y0031188D01*
X0013313Y0031138D01*
X0013324Y0031090D01*
X0013337Y0031045D01*
X0013355Y0031003D01*
X0013375Y0030963D01*
X0013399Y0030925D01*
X0013425Y0030890D01*
X0013455Y0030857D01*
X0013243Y0030645D01*
X0013210Y0030675D01*
X0013175Y0030701D01*
X0013137Y0030725D01*
X0013097Y0030745D01*
X0013055Y0030763D01*
X0013010Y0030776D01*
X0012962Y0030787D01*
X0012912Y0030795D01*
X0012860Y0030799D01*
X0012805Y0030800D01*
X0013300Y0031295D01*
X0013301Y0031240D01*
D02*
G37*
G36*
X0007340Y0029875D02*
X0007375Y0029849D01*
X0007413Y0029825D01*
X0007453Y0029805D01*
X0007495Y0029787D01*
X0007540Y0029774D01*
X0007588Y0029763D01*
X0007638Y0029755D01*
X0007690Y0029751D01*
X0007745Y0029750D01*
X0007250Y0029255D01*
X0007249Y0029310D01*
X0007245Y0029362D01*
X0007237Y0029412D01*
X0007226Y0029460D01*
X0007213Y0029505D01*
X0007195Y0029547D01*
X0007175Y0029587D01*
X0007151Y0029625D01*
X0007125Y0029660D01*
X0007095Y0029693D01*
X0007307Y0029905D01*
X0007340Y0029875D01*
D02*
G37*
G36*
X0002562Y0029603D02*
X0002528Y0029563D01*
X0002498Y0029523D01*
X0002472Y0029482D01*
X0002450Y0029440D01*
X0002432Y0029398D01*
X0002418Y0029355D01*
X0002408Y0029311D01*
X0002402Y0029268D01*
X0002400Y0029223D01*
X0002100D01*
X0002098Y0029268D01*
X0002092Y0029311D01*
X0002082Y0029355D01*
X0002068Y0029398D01*
X0002050Y0029440D01*
X0002028Y0029482D01*
X0002002Y0029523D01*
X0001972Y0029563D01*
X0001938Y0029603D01*
X0001900Y0029643D01*
X0002600D01*
X0002562Y0029603D01*
D02*
G37*
G36*
X0025152Y0021732D02*
X0025158Y0021689D01*
X0025168Y0021645D01*
X0025182Y0021602D01*
X0025200Y0021560D01*
X0025222Y0021518D01*
X0025248Y0021477D01*
X0025278Y0021437D01*
X0025312Y0021397D01*
X0025350Y0021357D01*
X0024650D01*
X0024688Y0021397D01*
X0024722Y0021437D01*
X0024752Y0021477D01*
X0024778Y0021518D01*
X0024800Y0021560D01*
X0024818Y0021602D01*
X0024832Y0021645D01*
X0024842Y0021689D01*
X0024848Y0021732D01*
X0024850Y0021777D01*
X0025150D01*
X0025152Y0021732D01*
D02*
G37*
G36*
X0002401Y0021484D02*
X0002406Y0021427D01*
X0002413Y0021376D01*
X0002424Y0021334D01*
X0002437Y0021299D01*
X0002454Y0021271D01*
X0002473Y0021251D01*
X0002496Y0021238D01*
X0002521Y0021233D01*
X0002550Y0021235D01*
X0001951Y0021113D01*
X0001980Y0021122D01*
X0002005Y0021138D01*
X0002027Y0021160D01*
X0002047Y0021188D01*
X0002063Y0021223D01*
X0002076Y0021263D01*
X0002087Y0021311D01*
X0002094Y0021364D01*
X0002099Y0021424D01*
X0002100Y0021490D01*
X0002400Y0021549D01*
X0002401Y0021484D01*
D02*
G37*
G36*
X0027840Y0021625D02*
X0027875Y0021599D01*
X0027913Y0021575D01*
X0027953Y0021555D01*
X0027995Y0021537D01*
X0028040Y0021524D01*
X0028088Y0021513D01*
X0028138Y0021505D01*
X0028190Y0021501D01*
X0028245Y0021500D01*
X0027750Y0021005D01*
X0027749Y0021060D01*
X0027745Y0021112D01*
X0027737Y0021162D01*
X0027726Y0021210D01*
X0027713Y0021255D01*
X0027695Y0021297D01*
X0027675Y0021337D01*
X0027651Y0021375D01*
X0027625Y0021410D01*
X0027595Y0021443D01*
X0027807Y0021655D01*
X0027840Y0021625D01*
D02*
G37*
G36*
X0030340Y0022125D02*
X0030375Y0022099D01*
X0030413Y0022075D01*
X0030453Y0022055D01*
X0030495Y0022037D01*
X0030540Y0022024D01*
X0030588Y0022013D01*
X0030638Y0022005D01*
X0030690Y0022001D01*
X0030745Y0022000D01*
X0030250Y0021505D01*
X0030249Y0021560D01*
X0030245Y0021612D01*
X0030237Y0021662D01*
X0030226Y0021710D01*
X0030213Y0021755D01*
X0030195Y0021797D01*
X0030175Y0021837D01*
X0030151Y0021875D01*
X0030125Y0021910D01*
X0030095Y0021943D01*
X0030307Y0022155D01*
X0030340Y0022125D01*
D02*
G37*
G36*
X0039995Y0022750D02*
X0039940Y0022749D01*
X0039888Y0022745D01*
X0039838Y0022737D01*
X0039790Y0022726D01*
X0039745Y0022713D01*
X0039703Y0022695D01*
X0039663Y0022675D01*
X0039625Y0022651D01*
X0039590Y0022625D01*
X0039557Y0022595D01*
X0039345Y0022807D01*
X0039375Y0022840D01*
X0039401Y0022875D01*
X0039425Y0022913D01*
X0039445Y0022953D01*
X0039463Y0022995D01*
X0039476Y0023040D01*
X0039487Y0023088D01*
X0039495Y0023138D01*
X0039499Y0023190D01*
X0039500Y0023245D01*
X0039995Y0022750D01*
D02*
G37*
G36*
X0013112Y0022903D02*
X0013078Y0022863D01*
X0013048Y0022823D01*
X0013022Y0022782D01*
X0013000Y0022740D01*
X0012982Y0022698D01*
X0012968Y0022655D01*
X0012958Y0022611D01*
X0012952Y0022568D01*
X0012950Y0022523D01*
X0012650D01*
X0012648Y0022568D01*
X0012642Y0022611D01*
X0012632Y0022655D01*
X0012618Y0022698D01*
X0012600Y0022740D01*
X0012578Y0022782D01*
X0012552Y0022823D01*
X0012522Y0022863D01*
X0012488Y0022903D01*
X0012450Y0022943D01*
X0013150D01*
X0013112Y0022903D01*
D02*
G37*
G36*
X0040643Y0021650D02*
X0040603Y0021688D01*
X0040563Y0021722D01*
X0040523Y0021752D01*
X0040482Y0021778D01*
X0040440Y0021800D01*
X0040398Y0021818D01*
X0040355Y0021832D01*
X0040311Y0021842D01*
X0040268Y0021848D01*
X0040223Y0021850D01*
Y0022150D01*
X0040268Y0022152D01*
X0040311Y0022158D01*
X0040355Y0022168D01*
X0040398Y0022182D01*
X0040440Y0022200D01*
X0040482Y0022222D01*
X0040523Y0022248D01*
X0040563Y0022278D01*
X0040603Y0022312D01*
X0040643Y0022350D01*
Y0021650D01*
D02*
G37*
G36*
X0044901Y0078718D02*
X0044913Y0078606D01*
X0044924Y0078560D01*
X0044937Y0078522D01*
X0044953Y0078490D01*
X0044973Y0078466D01*
X0044995Y0078448D01*
X0045020Y0078437D01*
X0045049Y0078434D01*
X0044451D01*
X0044480Y0078437D01*
X0044505Y0078448D01*
X0044527Y0078466D01*
X0044547Y0078490D01*
X0044563Y0078522D01*
X0044576Y0078560D01*
X0044587Y0078606D01*
X0044594Y0078659D01*
X0044599Y0078718D01*
X0044600Y0078785D01*
X0044900D01*
X0044901Y0078718D01*
D02*
G37*
G36*
X0020725Y0077036D02*
X0019675D01*
X0019680Y0077045D01*
X0019684Y0077062D01*
X0019688Y0077089D01*
X0019694Y0077166D01*
X0019700Y0077423D01*
X0019700Y0077509D01*
X0020700D01*
X0020725Y0077036D01*
D02*
G37*
G36*
X0023005Y0078016D02*
X0023045Y0077611D01*
X0023080Y0077446D01*
X0023124Y0077307D01*
X0023179Y0077193D01*
X0023244Y0077104D01*
X0023318Y0077041D01*
X0023403Y0077003D01*
X0023498Y0076990D01*
X0021502D01*
X0021597Y0077003D01*
X0021682Y0077041D01*
X0021756Y0077104D01*
X0021821Y0077193D01*
X0021876Y0077307D01*
X0021920Y0077446D01*
X0021955Y0077611D01*
X0021980Y0077801D01*
X0021995Y0078016D01*
X0022000Y0078257D01*
X0023000D01*
X0023005Y0078016D01*
D02*
G37*
G36*
X0042495Y0078600D02*
X0042440Y0078599D01*
X0042388Y0078595D01*
X0042338Y0078587D01*
X0042290Y0078576D01*
X0042245Y0078563D01*
X0042203Y0078545D01*
X0042163Y0078525D01*
X0042125Y0078501D01*
X0042090Y0078475D01*
X0042057Y0078445D01*
X0041845Y0078657D01*
X0041875Y0078690D01*
X0041901Y0078725D01*
X0041925Y0078763D01*
X0041945Y0078803D01*
X0041963Y0078845D01*
X0041976Y0078890D01*
X0041987Y0078938D01*
X0041995Y0078988D01*
X0041999Y0079040D01*
X0042000Y0079095D01*
X0042495Y0078600D01*
D02*
G37*
G36*
X0019847Y0082146D02*
X0019799Y0082185D01*
X0019736Y0082220D01*
X0019660Y0082250D01*
X0019569Y0082277D01*
X0019464Y0082299D01*
X0019344Y0082317D01*
X0019062Y0082342D01*
X0018723Y0082350D01*
Y0082650D01*
X0018900Y0082652D01*
X0019344Y0082683D01*
X0019464Y0082701D01*
X0019569Y0082723D01*
X0019660Y0082750D01*
X0019736Y0082780D01*
X0019799Y0082815D01*
X0019847Y0082854D01*
Y0082146D01*
D02*
G37*
G36*
X0029562Y0081103D02*
X0029528Y0081063D01*
X0029498Y0081023D01*
X0029472Y0080982D01*
X0029450Y0080940D01*
X0029432Y0080898D01*
X0029418Y0080855D01*
X0029408Y0080811D01*
X0029402Y0080768D01*
X0029400Y0080723D01*
X0029100D01*
X0029098Y0080768D01*
X0029092Y0080811D01*
X0029082Y0080855D01*
X0029068Y0080898D01*
X0029050Y0080940D01*
X0029028Y0080982D01*
X0029002Y0081023D01*
X0028972Y0081063D01*
X0028938Y0081103D01*
X0028900Y0081143D01*
X0029600D01*
X0029562Y0081103D01*
D02*
G37*
G36*
X0041360Y0079602D02*
X0041306Y0079604D01*
X0041255Y0079603D01*
X0041206Y0079598D01*
X0041159Y0079590D01*
X0041114Y0079578D01*
X0041072Y0079562D01*
X0041032Y0079543D01*
X0040994Y0079520D01*
X0040958Y0079493D01*
X0040925Y0079463D01*
X0040728Y0079691D01*
X0040758Y0079723D01*
X0040785Y0079758D01*
X0040809Y0079795D01*
X0040831Y0079835D01*
X0040849Y0079878D01*
X0040865Y0079923D01*
X0040878Y0079971D01*
X0040888Y0080022D01*
X0040896Y0080075D01*
X0040901Y0080130D01*
X0041360Y0079602D01*
D02*
G37*
G36*
X0030745Y0074750D02*
X0030690Y0074749D01*
X0030638Y0074745D01*
X0030588Y0074737D01*
X0030540Y0074726D01*
X0030495Y0074713D01*
X0030453Y0074695D01*
X0030413Y0074675D01*
X0030375Y0074651D01*
X0030340Y0074625D01*
X0030307Y0074595D01*
X0030095Y0074807D01*
X0030125Y0074840D01*
X0030151Y0074875D01*
X0030175Y0074913D01*
X0030195Y0074953D01*
X0030213Y0074995D01*
X0030226Y0075040D01*
X0030237Y0075088D01*
X0030245Y0075138D01*
X0030249Y0075190D01*
X0030250Y0075245D01*
X0030745Y0074750D01*
D02*
G37*
G36*
X0032495Y0074250D02*
X0032440Y0074249D01*
X0032388Y0074245D01*
X0032338Y0074237D01*
X0032290Y0074226D01*
X0032245Y0074213D01*
X0032203Y0074195D01*
X0032163Y0074175D01*
X0032125Y0074151D01*
X0032090Y0074125D01*
X0032057Y0074095D01*
X0031845Y0074307D01*
X0031875Y0074340D01*
X0031901Y0074375D01*
X0031925Y0074413D01*
X0031945Y0074453D01*
X0031963Y0074495D01*
X0031976Y0074540D01*
X0031987Y0074588D01*
X0031995Y0074638D01*
X0031999Y0074690D01*
X0032000Y0074745D01*
X0032495Y0074250D01*
D02*
G37*
G36*
X0031616Y0073654D02*
X0031220Y0073229D01*
X0031122Y0073882D01*
X0031155Y0073858D01*
X0031188Y0073841D01*
X0031221Y0073829D01*
X0031254Y0073824D01*
X0031289Y0073825D01*
X0031323Y0073833D01*
X0031358Y0073847D01*
X0031393Y0073867D01*
X0031428Y0073893D01*
X0031464Y0073926D01*
X0031616Y0073654D01*
D02*
G37*
G36*
X0033155Y0075193D02*
X0033125Y0075160D01*
X0033099Y0075125D01*
X0033075Y0075087D01*
X0033055Y0075047D01*
X0033037Y0075005D01*
X0033024Y0074960D01*
X0033013Y0074912D01*
X0033005Y0074862D01*
X0033001Y0074810D01*
X0033000Y0074755D01*
X0032505Y0075250D01*
X0032560Y0075251D01*
X0032612Y0075255D01*
X0032662Y0075263D01*
X0032710Y0075274D01*
X0032755Y0075287D01*
X0032797Y0075305D01*
X0032837Y0075325D01*
X0032875Y0075349D01*
X0032910Y0075375D01*
X0032943Y0075405D01*
X0033155Y0075193D01*
D02*
G37*
G36*
X0023130Y0076520D02*
Y0076220D01*
X0023124Y0076218D01*
X0023112Y0076210D01*
X0023095Y0076198D01*
X0022869Y0076025D01*
X0022812Y0075979D01*
Y0076761D01*
X0023130Y0076520D01*
D02*
G37*
G36*
X0023717Y0076165D02*
X0023711Y0076136D01*
X0023711Y0076104D01*
X0023718Y0076070D01*
X0023731Y0076033D01*
X0023751Y0075995D01*
X0023778Y0075953D01*
X0023810Y0075910D01*
X0023850Y0075864D01*
X0023896Y0075816D01*
X0023730Y0075558D01*
X0023683Y0075603D01*
X0023639Y0075640D01*
X0023599Y0075670D01*
X0023562Y0075692D01*
X0023528Y0075707D01*
X0023497Y0075715D01*
X0023469Y0075715D01*
X0023445Y0075707D01*
X0023424Y0075692D01*
X0023406Y0075670D01*
X0023730Y0076192D01*
X0023717Y0076165D01*
D02*
G37*
G36*
X0020720Y0075955D02*
X0020716Y0075938D01*
X0020712Y0075911D01*
X0020706Y0075834D01*
X0020700Y0075577D01*
X0020700Y0075491D01*
X0019700D01*
X0019675Y0075964D01*
X0020725D01*
X0020720Y0075955D01*
D02*
G37*
G36*
X0017897Y0082812D02*
X0017937Y0082778D01*
X0017977Y0082748D01*
X0018018Y0082722D01*
X0018060Y0082700D01*
X0018102Y0082682D01*
X0018145Y0082668D01*
X0018189Y0082658D01*
X0018232Y0082652D01*
X0018277Y0082650D01*
Y0082350D01*
X0018232Y0082348D01*
X0018189Y0082342D01*
X0018145Y0082332D01*
X0018102Y0082318D01*
X0018060Y0082300D01*
X0018018Y0082278D01*
X0017977Y0082252D01*
X0017937Y0082222D01*
X0017897Y0082188D01*
X0017857Y0082150D01*
Y0082850D01*
X0017897Y0082812D01*
D02*
G37*
G36*
X0022500Y0091330D02*
X0022853Y0091264D01*
Y0091684D01*
X0022901Y0091645D01*
X0022964Y0091610D01*
X0023040Y0091580D01*
X0023131Y0091553D01*
X0023236Y0091531D01*
X0023356Y0091513D01*
X0023638Y0091488D01*
X0023977Y0091480D01*
Y0091180D01*
X0023800Y0091178D01*
X0023356Y0091147D01*
X0023236Y0091129D01*
X0023169Y0091115D01*
X0023147Y0091090D01*
X0023108Y0091020D01*
X0023075Y0090930D01*
X0023048Y0090820D01*
X0023027Y0090690D01*
X0023003Y0090370D01*
X0023000Y0090180D01*
X0022000Y0090123D01*
X0021993Y0090320D01*
X0021972Y0090511D01*
X0021936Y0090697D01*
X0021887Y0090876D01*
X0021823Y0091050D01*
X0021745Y0091217D01*
X0021654Y0091379D01*
X0021547Y0091535D01*
X0021427Y0091686D01*
X0021293Y0091830D01*
X0022500Y0091330D01*
D02*
G37*
G36*
X0008179Y0088190D02*
X0008099Y0088268D01*
X0007947Y0088399D01*
X0007875Y0088452D01*
X0007804Y0088497D01*
X0007736Y0088534D01*
X0007670Y0088563D01*
X0007606Y0088584D01*
X0007544Y0088596D01*
X0007500Y0088599D01*
X0007456Y0088596D01*
X0007394Y0088584D01*
X0007330Y0088563D01*
X0007264Y0088534D01*
X0007196Y0088497D01*
X0007125Y0088452D01*
X0007053Y0088399D01*
X0006978Y0088338D01*
X0006821Y0088190D01*
Y0089310D01*
X0006901Y0089232D01*
X0007053Y0089101D01*
X0007125Y0089048D01*
X0007196Y0089003D01*
X0007264Y0088966D01*
X0007330Y0088937D01*
X0007394Y0088916D01*
X0007456Y0088904D01*
X0007500Y0088901D01*
X0007544Y0088904D01*
X0007606Y0088916D01*
X0007670Y0088937D01*
X0007736Y0088966D01*
X0007804Y0089003D01*
X0007875Y0089048D01*
X0007947Y0089101D01*
X0008022Y0089162D01*
X0008179Y0089310D01*
Y0088190D01*
D02*
G37*
G36*
X0034990Y0088600D02*
X0034841Y0088599D01*
X0034576Y0088583D01*
X0034459Y0088567D01*
X0034353Y0088547D01*
X0034258Y0088521D01*
X0034173Y0088491D01*
X0034099Y0088456D01*
X0034035Y0088416D01*
X0033983Y0088371D01*
X0033771Y0088583D01*
X0033816Y0088635D01*
X0033856Y0088699D01*
X0033891Y0088773D01*
X0033921Y0088858D01*
X0033947Y0088953D01*
X0033967Y0089059D01*
X0033983Y0089176D01*
X0033999Y0089441D01*
X0034000Y0089590D01*
X0034990Y0088600D01*
D02*
G37*
G36*
X0018253Y0092433D02*
X0018265Y0092373D01*
X0018284Y0092312D01*
X0018311Y0092248D01*
X0018346Y0092182D01*
X0018389Y0092113D01*
X0018440Y0092043D01*
X0018499Y0091970D01*
X0018640Y0091817D01*
X0017933Y0091110D01*
X0017856Y0091184D01*
X0017707Y0091310D01*
X0017637Y0091361D01*
X0017568Y0091404D01*
X0017502Y0091439D01*
X0017438Y0091466D01*
X0017377Y0091485D01*
X0017317Y0091497D01*
X0017260Y0091500D01*
X0018250Y0092490D01*
X0018253Y0092433D01*
D02*
G37*
G36*
X0017083Y0097483D02*
X0017093Y0097467D01*
X0017108Y0097446D01*
X0017159Y0097387D01*
X0017337Y0097201D01*
X0017397Y0097140D01*
X0016690Y0096433D01*
X0016337Y0096750D01*
X0017080Y0097493D01*
X0017083Y0097483D01*
D02*
G37*
G36*
X0034428Y0096203D02*
X0034404Y0096220D01*
X0034377Y0096229D01*
X0034345D01*
X0034309Y0096220D01*
X0034268Y0096203D01*
X0034224Y0096178D01*
X0034175Y0096144D01*
X0034122Y0096101D01*
X0034003Y0095991D01*
X0033791Y0096203D01*
X0033851Y0096265D01*
X0033944Y0096375D01*
X0033978Y0096424D01*
X0034003Y0096468D01*
X0034020Y0096509D01*
X0034029Y0096545D01*
Y0096577D01*
X0034020Y0096604D01*
X0034003Y0096628D01*
X0034428Y0096203D01*
D02*
G37*
G36*
X0017250Y0092000D02*
X0017189Y0091993D01*
X0017120Y0091974D01*
X0017045Y0091941D01*
X0016962Y0091896D01*
X0016890Y0091850D01*
X0017240Y0091500D01*
X0017091Y0091499D01*
X0016826Y0091483D01*
X0016709Y0091467D01*
X0016603Y0091447D01*
X0016508Y0091421D01*
X0016423Y0091391D01*
X0016349Y0091356D01*
X0016285Y0091316D01*
X0016233Y0091271D01*
X0016021Y0091483D01*
X0016066Y0091535D01*
X0016106Y0091599D01*
X0016141Y0091673D01*
X0016171Y0091758D01*
X0016197Y0091853D01*
X0016217Y0091959D01*
X0016233Y0092076D01*
X0016249Y0092341D01*
X0016250Y0092490D01*
X0016600Y0092140D01*
X0016646Y0092212D01*
X0016691Y0092295D01*
X0016724Y0092370D01*
X0016743Y0092439D01*
X0016750Y0092500D01*
X0017250Y0092000D01*
D02*
G37*
G36*
X0026697Y0085762D02*
X0026737Y0085728D01*
X0026777Y0085698D01*
X0026818Y0085672D01*
X0026860Y0085650D01*
X0026902Y0085632D01*
X0026945Y0085618D01*
X0026989Y0085608D01*
X0027032Y0085602D01*
X0027077Y0085600D01*
Y0085300D01*
X0027032Y0085298D01*
X0026989Y0085292D01*
X0026945Y0085282D01*
X0026902Y0085268D01*
X0026860Y0085250D01*
X0026818Y0085228D01*
X0026777Y0085202D01*
X0026737Y0085172D01*
X0026697Y0085138D01*
X0026657Y0085100D01*
Y0085800D01*
X0026697Y0085762D01*
D02*
G37*
G36*
X0029245Y0084000D02*
X0029190Y0083999D01*
X0029138Y0083995D01*
X0029088Y0083987D01*
X0029040Y0083976D01*
X0028995Y0083963D01*
X0028953Y0083945D01*
X0028913Y0083925D01*
X0028875Y0083901D01*
X0028840Y0083875D01*
X0028807Y0083845D01*
X0028595Y0084057D01*
X0028625Y0084090D01*
X0028651Y0084125D01*
X0028675Y0084163D01*
X0028695Y0084203D01*
X0028713Y0084245D01*
X0028726Y0084290D01*
X0028737Y0084338D01*
X0028745Y0084388D01*
X0028749Y0084440D01*
X0028750Y0084495D01*
X0029245Y0084000D01*
D02*
G37*
G36*
X0040995Y0083250D02*
X0040940Y0083249D01*
X0040888Y0083245D01*
X0040838Y0083237D01*
X0040790Y0083226D01*
X0040745Y0083213D01*
X0040703Y0083195D01*
X0040663Y0083175D01*
X0040625Y0083151D01*
X0040590Y0083125D01*
X0040557Y0083095D01*
X0040345Y0083307D01*
X0040375Y0083340D01*
X0040401Y0083375D01*
X0040425Y0083413D01*
X0040445Y0083453D01*
X0040463Y0083495D01*
X0040476Y0083540D01*
X0040487Y0083588D01*
X0040495Y0083638D01*
X0040499Y0083690D01*
X0040500Y0083745D01*
X0040995Y0083250D01*
D02*
G37*
G36*
X0046512Y0085603D02*
X0046478Y0085563D01*
X0046448Y0085523D01*
X0046422Y0085482D01*
X0046400Y0085440D01*
X0046382Y0085398D01*
X0046368Y0085355D01*
X0046358Y0085311D01*
X0046352Y0085268D01*
X0046350Y0085223D01*
X0046050D01*
X0046048Y0085268D01*
X0046042Y0085311D01*
X0046032Y0085355D01*
X0046018Y0085398D01*
X0046000Y0085440D01*
X0045978Y0085482D01*
X0045952Y0085523D01*
X0045922Y0085563D01*
X0045888Y0085603D01*
X0045850Y0085643D01*
X0046550D01*
X0046512Y0085603D01*
D02*
G37*
G36*
X0009401Y0089232D02*
X0009553Y0089101D01*
X0009625Y0089048D01*
X0009696Y0089003D01*
X0009764Y0088966D01*
X0009830Y0088937D01*
X0009894Y0088916D01*
X0009956Y0088904D01*
X0010016Y0088900D01*
Y0088600D01*
X0009956Y0088596D01*
X0009894Y0088584D01*
X0009830Y0088563D01*
X0009764Y0088534D01*
X0009696Y0088497D01*
X0009625Y0088452D01*
X0009553Y0088399D01*
X0009478Y0088338D01*
X0009321Y0088190D01*
Y0089310D01*
X0009401Y0089232D01*
D02*
G37*
G36*
X0042062Y0087353D02*
X0042028Y0087313D01*
X0041998Y0087273D01*
X0041972Y0087232D01*
X0041950Y0087190D01*
X0041932Y0087148D01*
X0041918Y0087105D01*
X0041908Y0087061D01*
X0041902Y0087018D01*
X0041900Y0086973D01*
X0041600D01*
X0041598Y0087018D01*
X0041592Y0087061D01*
X0041582Y0087105D01*
X0041568Y0087148D01*
X0041550Y0087190D01*
X0041528Y0087232D01*
X0041502Y0087273D01*
X0041472Y0087313D01*
X0041438Y0087353D01*
X0041400Y0087393D01*
X0042100D01*
X0042062Y0087353D01*
D02*
G37*
G36*
X0046352Y0086732D02*
X0046358Y0086689D01*
X0046368Y0086645D01*
X0046382Y0086602D01*
X0046400Y0086560D01*
X0046422Y0086518D01*
X0046448Y0086477D01*
X0046478Y0086437D01*
X0046512Y0086397D01*
X0046550Y0086357D01*
X0045850D01*
X0045888Y0086397D01*
X0045922Y0086437D01*
X0045952Y0086477D01*
X0045978Y0086518D01*
X0046000Y0086560D01*
X0046018Y0086602D01*
X0046032Y0086645D01*
X0046042Y0086689D01*
X0046048Y0086732D01*
X0046050Y0086777D01*
X0046350D01*
X0046352Y0086732D01*
D02*
G37*
G36*
X0029999Y0062674D02*
X0030002Y0062623D01*
X0030008Y0062573D01*
X0030018Y0062526D01*
X0030031Y0062481D01*
X0030047Y0062438D01*
X0030067Y0062398D01*
X0030090Y0062360D01*
X0030117Y0062325D01*
X0030147Y0062292D01*
X0029928Y0062087D01*
X0029895Y0062117D01*
X0029860Y0062144D01*
X0029823Y0062167D01*
X0029782Y0062188D01*
X0029740Y0062206D01*
X0029695Y0062221D01*
X0029647Y0062233D01*
X0029597Y0062242D01*
X0029544Y0062247D01*
X0029489Y0062250D01*
X0030000Y0062729D01*
X0029999Y0062674D01*
D02*
G37*
G36*
X0020561Y0062866D02*
X0020611Y0062832D01*
X0020667Y0062803D01*
X0020730Y0062777D01*
X0020799Y0062756D01*
X0020875Y0062738D01*
X0020957Y0062725D01*
X0021046Y0062716D01*
X0021243Y0062710D01*
X0020500Y0061967D01*
X0020499Y0062069D01*
X0020485Y0062253D01*
X0020472Y0062335D01*
X0020454Y0062411D01*
X0020433Y0062480D01*
X0020407Y0062543D01*
X0020378Y0062599D01*
X0020344Y0062649D01*
X0020306Y0062692D01*
X0020518Y0062904D01*
X0020561Y0062866D01*
D02*
G37*
G36*
X0024902Y0061982D02*
X0024908Y0061939D01*
X0024918Y0061895D01*
X0024932Y0061852D01*
X0024950Y0061810D01*
X0024972Y0061768D01*
X0024998Y0061727D01*
X0025028Y0061687D01*
X0025062Y0061647D01*
X0025100Y0061607D01*
X0024400D01*
X0024438Y0061647D01*
X0024472Y0061687D01*
X0024502Y0061727D01*
X0024528Y0061768D01*
X0024550Y0061810D01*
X0024568Y0061852D01*
X0024582Y0061895D01*
X0024592Y0061939D01*
X0024598Y0061982D01*
X0024600Y0062027D01*
X0024900D01*
X0024902Y0061982D01*
D02*
G37*
G36*
X0023552Y0062751D02*
X0023559Y0062707D01*
X0023570Y0062665D01*
X0023585Y0062624D01*
X0023605Y0062586D01*
X0023630Y0062549D01*
X0023659Y0062514D01*
X0023692Y0062481D01*
X0023729Y0062449D01*
X0023772Y0062420D01*
X0023086Y0062280D01*
X0023117Y0062328D01*
X0023169Y0062423D01*
X0023191Y0062469D01*
X0023209Y0062515D01*
X0023224Y0062560D01*
X0023235Y0062604D01*
X0023243Y0062648D01*
X0023248Y0062691D01*
X0023250Y0062733D01*
X0023550Y0062797D01*
X0023552Y0062751D01*
D02*
G37*
G36*
X0035893Y0063650D02*
X0035853Y0063688D01*
X0035813Y0063722D01*
X0035773Y0063752D01*
X0035732Y0063778D01*
X0035690Y0063800D01*
X0035648Y0063818D01*
X0035605Y0063832D01*
X0035561Y0063842D01*
X0035518Y0063848D01*
X0035473Y0063850D01*
Y0064150D01*
X0035518Y0064152D01*
X0035561Y0064158D01*
X0035605Y0064168D01*
X0035648Y0064182D01*
X0035690Y0064200D01*
X0035732Y0064222D01*
X0035773Y0064248D01*
X0035813Y0064278D01*
X0035853Y0064312D01*
X0035893Y0064350D01*
Y0063650D01*
D02*
G37*
G36*
X0026152Y0063932D02*
X0026158Y0063888D01*
X0026168Y0063845D01*
X0026182Y0063802D01*
X0026200Y0063760D01*
X0026222Y0063718D01*
X0026248Y0063677D01*
X0026278Y0063636D01*
X0026312Y0063596D01*
X0026350Y0063557D01*
X0025650D01*
X0025688Y0063596D01*
X0025722Y0063636D01*
X0025752Y0063677D01*
X0025778Y0063718D01*
X0025800Y0063760D01*
X0025818Y0063802D01*
X0025832Y0063845D01*
X0025842Y0063888D01*
X0025848Y0063932D01*
X0025850Y0063977D01*
X0026150D01*
X0026152Y0063932D01*
D02*
G37*
G36*
X0034495Y0062500D02*
X0034440Y0062499D01*
X0034388Y0062495D01*
X0034338Y0062487D01*
X0034290Y0062476D01*
X0034245Y0062463D01*
X0034203Y0062445D01*
X0034163Y0062425D01*
X0034125Y0062401D01*
X0034090Y0062375D01*
X0034057Y0062345D01*
X0033845Y0062557D01*
X0033875Y0062590D01*
X0033901Y0062625D01*
X0033925Y0062663D01*
X0033945Y0062703D01*
X0033963Y0062745D01*
X0033976Y0062790D01*
X0033987Y0062838D01*
X0033995Y0062888D01*
X0033999Y0062940D01*
X0034000Y0062995D01*
X0034495Y0062500D01*
D02*
G37*
G36*
X0029245Y0057000D02*
X0029190Y0056999D01*
X0029138Y0056995D01*
X0029088Y0056987D01*
X0029040Y0056976D01*
X0028995Y0056963D01*
X0028953Y0056945D01*
X0028913Y0056925D01*
X0028875Y0056901D01*
X0028840Y0056875D01*
X0028807Y0056845D01*
X0028595Y0057057D01*
X0028625Y0057090D01*
X0028651Y0057125D01*
X0028675Y0057163D01*
X0028695Y0057203D01*
X0028713Y0057245D01*
X0028726Y0057290D01*
X0028737Y0057338D01*
X0028745Y0057388D01*
X0028749Y0057440D01*
X0028750Y0057495D01*
X0029245Y0057000D01*
D02*
G37*
G36*
X0021858Y0057334D02*
X0021998Y0057214D01*
X0022066Y0057165D01*
X0022132Y0057124D01*
X0022196Y0057090D01*
X0022258Y0057064D01*
X0022319Y0057045D01*
X0022378Y0057034D01*
X0022435Y0057030D01*
Y0056730D01*
X0022378Y0056726D01*
X0022319Y0056715D01*
X0022258Y0056696D01*
X0022196Y0056670D01*
X0022132Y0056636D01*
X0022066Y0056595D01*
X0021998Y0056546D01*
X0021929Y0056490D01*
X0021786Y0056355D01*
Y0057405D01*
X0021858Y0057334D01*
D02*
G37*
G36*
X0037651Y0055953D02*
X0037656Y0055909D01*
X0037663Y0055867D01*
X0037673Y0055829D01*
X0037685Y0055793D01*
X0037701Y0055760D01*
X0037719Y0055730D01*
X0037741Y0055702D01*
X0037765Y0055678D01*
X0037792Y0055656D01*
X0037208D01*
X0037235Y0055678D01*
X0037259Y0055702D01*
X0037281Y0055730D01*
X0037299Y0055760D01*
X0037315Y0055793D01*
X0037327Y0055829D01*
X0037337Y0055867D01*
X0037344Y0055909D01*
X0037349Y0055953D01*
X0037350Y0056000D01*
X0037650D01*
X0037651Y0055953D01*
D02*
G37*
G36*
X0006428Y0057753D02*
X0006404Y0057770D01*
X0006377Y0057779D01*
X0006345D01*
X0006309Y0057770D01*
X0006268Y0057753D01*
X0006224Y0057728D01*
X0006175Y0057694D01*
X0006122Y0057651D01*
X0006003Y0057541D01*
X0005791Y0057753D01*
X0005851Y0057815D01*
X0005944Y0057925D01*
X0005978Y0057974D01*
X0006003Y0058018D01*
X0006020Y0058059D01*
X0006029Y0058095D01*
Y0058127D01*
X0006020Y0058154D01*
X0006003Y0058178D01*
X0006428Y0057753D01*
D02*
G37*
G36*
X0026227Y0061567D02*
X0026233Y0061523D01*
X0026243Y0061479D01*
X0026257Y0061437D01*
X0026275Y0061394D01*
X0026297Y0061353D01*
X0026323Y0061311D01*
X0026353Y0061271D01*
X0026387Y0061231D01*
X0026425Y0061191D01*
X0025725D01*
X0025763Y0061231D01*
X0025797Y0061271D01*
X0025827Y0061311D01*
X0025853Y0061353D01*
X0025875Y0061394D01*
X0025893Y0061437D01*
X0025907Y0061479D01*
X0025917Y0061523D01*
X0025923Y0061567D01*
X0025925Y0061611D01*
X0026225D01*
X0026227Y0061567D01*
D02*
G37*
G36*
X0021243Y0061210D02*
X0021141Y0061209D01*
X0020957Y0061195D01*
X0020875Y0061182D01*
X0020799Y0061164D01*
X0020730Y0061143D01*
X0020667Y0061117D01*
X0020611Y0061088D01*
X0020561Y0061054D01*
X0020518Y0061016D01*
X0020306Y0061228D01*
X0020344Y0061271D01*
X0020378Y0061321D01*
X0020407Y0061377D01*
X0020433Y0061440D01*
X0020454Y0061509D01*
X0020472Y0061585D01*
X0020485Y0061667D01*
X0020494Y0061756D01*
X0020500Y0061952D01*
X0021243Y0061210D01*
D02*
G37*
G36*
X0035248Y0061075D02*
X0035251Y0061070D01*
X0035256Y0061063D01*
X0035263Y0061054D01*
X0035299Y0061014D01*
X0035356Y0060956D01*
X0035144Y0060744D01*
X0035122Y0060765D01*
X0035025Y0060852D01*
X0035022Y0060852D01*
X0035248Y0061077D01*
X0035248Y0061075D01*
D02*
G37*
G36*
X0035893Y0064900D02*
X0035853Y0064938D01*
X0035813Y0064972D01*
X0035773Y0065002D01*
X0035732Y0065028D01*
X0035690Y0065050D01*
X0035648Y0065068D01*
X0035605Y0065082D01*
X0035561Y0065092D01*
X0035518Y0065098D01*
X0035473Y0065100D01*
Y0065400D01*
X0035518Y0065402D01*
X0035561Y0065408D01*
X0035605Y0065418D01*
X0035648Y0065432D01*
X0035690Y0065450D01*
X0035732Y0065472D01*
X0035773Y0065498D01*
X0035813Y0065528D01*
X0035853Y0065562D01*
X0035893Y0065600D01*
Y0064900D01*
D02*
G37*
G36*
X0046857Y0067120D02*
X0046765Y0067211D01*
X0046589Y0067365D01*
X0046506Y0067427D01*
X0046426Y0067480D01*
X0046349Y0067523D01*
X0046275Y0067557D01*
X0046250Y0067565D01*
X0046225Y0067557D01*
X0046151Y0067523D01*
X0046074Y0067480D01*
X0045994Y0067427D01*
X0045911Y0067365D01*
X0045735Y0067211D01*
X0045643Y0067120D01*
Y0068380D01*
X0045735Y0068289D01*
X0045911Y0068135D01*
X0045994Y0068073D01*
X0046074Y0068020D01*
X0046151Y0067977D01*
X0046225Y0067943D01*
X0046250Y0067935D01*
X0046275Y0067943D01*
X0046349Y0067977D01*
X0046426Y0068020D01*
X0046506Y0068073D01*
X0046589Y0068135D01*
X0046765Y0068289D01*
X0046857Y0068380D01*
Y0067120D01*
D02*
G37*
G36*
X0021147Y0067562D02*
X0021187Y0067528D01*
X0021227Y0067498D01*
X0021268Y0067472D01*
X0021310Y0067450D01*
X0021352Y0067432D01*
X0021395Y0067418D01*
X0021439Y0067408D01*
X0021482Y0067402D01*
X0021527Y0067400D01*
Y0067100D01*
X0021482Y0067098D01*
X0021439Y0067092D01*
X0021395Y0067082D01*
X0021352Y0067068D01*
X0021310Y0067050D01*
X0021268Y0067028D01*
X0021227Y0067002D01*
X0021187Y0066972D01*
X0021147Y0066938D01*
X0021107Y0066900D01*
Y0067600D01*
X0021147Y0067562D01*
D02*
G37*
G36*
X0036090Y0067375D02*
X0036125Y0067349D01*
X0036163Y0067325D01*
X0036203Y0067305D01*
X0036245Y0067287D01*
X0036290Y0067274D01*
X0036338Y0067263D01*
X0036388Y0067255D01*
X0036440Y0067251D01*
X0036495Y0067250D01*
X0036000Y0066755D01*
X0035999Y0066810D01*
X0035995Y0066862D01*
X0035987Y0066912D01*
X0035976Y0066960D01*
X0035963Y0067005D01*
X0035945Y0067047D01*
X0035925Y0067087D01*
X0035901Y0067125D01*
X0035875Y0067160D01*
X0035845Y0067193D01*
X0036057Y0067405D01*
X0036090Y0067375D01*
D02*
G37*
G36*
X0024812Y0072103D02*
X0024778Y0072063D01*
X0024748Y0072023D01*
X0024722Y0071982D01*
X0024700Y0071940D01*
X0024682Y0071898D01*
X0024668Y0071855D01*
X0024658Y0071811D01*
X0024652Y0071768D01*
X0024650Y0071723D01*
X0024350D01*
X0024348Y0071768D01*
X0024342Y0071811D01*
X0024332Y0071855D01*
X0024318Y0071898D01*
X0024300Y0071940D01*
X0024278Y0071982D01*
X0024252Y0072023D01*
X0024222Y0072063D01*
X0024188Y0072103D01*
X0024150Y0072143D01*
X0024850D01*
X0024812Y0072103D01*
D02*
G37*
G36*
X0033405Y0073943D02*
X0033375Y0073910D01*
X0033349Y0073875D01*
X0033325Y0073837D01*
X0033305Y0073797D01*
X0033287Y0073755D01*
X0033274Y0073710D01*
X0033263Y0073662D01*
X0033255Y0073612D01*
X0033251Y0073560D01*
X0033250Y0073505D01*
X0032755Y0074000D01*
X0032810Y0074001D01*
X0032862Y0074005D01*
X0032912Y0074013D01*
X0032960Y0074024D01*
X0033005Y0074037D01*
X0033047Y0074055D01*
X0033087Y0074075D01*
X0033125Y0074099D01*
X0033160Y0074125D01*
X0033193Y0074155D01*
X0033405Y0073943D01*
D02*
G37*
G36*
X0024652Y0073232D02*
X0024658Y0073189D01*
X0024668Y0073145D01*
X0024682Y0073102D01*
X0024700Y0073060D01*
X0024722Y0073018D01*
X0024748Y0072977D01*
X0024778Y0072937D01*
X0024812Y0072897D01*
X0024850Y0072857D01*
X0024150D01*
X0024188Y0072897D01*
X0024222Y0072937D01*
X0024252Y0072977D01*
X0024278Y0073018D01*
X0024300Y0073060D01*
X0024318Y0073102D01*
X0024332Y0073145D01*
X0024342Y0073189D01*
X0024348Y0073232D01*
X0024350Y0073277D01*
X0024650D01*
X0024652Y0073232D01*
D02*
G37*
G36*
X0032745Y0073000D02*
X0032690Y0072999D01*
X0032638Y0072995D01*
X0032588Y0072987D01*
X0032540Y0072976D01*
X0032495Y0072963D01*
X0032453Y0072945D01*
X0032413Y0072925D01*
X0032375Y0072901D01*
X0032340Y0072875D01*
X0032307Y0072845D01*
X0032095Y0073057D01*
X0032125Y0073090D01*
X0032151Y0073125D01*
X0032175Y0073163D01*
X0032195Y0073203D01*
X0032213Y0073245D01*
X0032226Y0073290D01*
X0032237Y0073338D01*
X0032245Y0073388D01*
X0032249Y0073440D01*
X0032250Y0073495D01*
X0032745Y0073000D01*
D02*
G37*
G36*
X0035245Y0065750D02*
X0035190Y0065749D01*
X0035138Y0065745D01*
X0035088Y0065737D01*
X0035040Y0065726D01*
X0034995Y0065713D01*
X0034953Y0065695D01*
X0034913Y0065675D01*
X0034875Y0065651D01*
X0034840Y0065625D01*
X0034807Y0065595D01*
X0034595Y0065807D01*
X0034625Y0065840D01*
X0034651Y0065875D01*
X0034675Y0065913D01*
X0034695Y0065953D01*
X0034713Y0065995D01*
X0034726Y0066040D01*
X0034737Y0066088D01*
X0034745Y0066138D01*
X0034749Y0066190D01*
X0034750Y0066245D01*
X0035245Y0065750D01*
D02*
G37*
G36*
X0025452Y0065932D02*
X0025458Y0065889D01*
X0025468Y0065845D01*
X0025482Y0065802D01*
X0025500Y0065760D01*
X0025522Y0065718D01*
X0025548Y0065677D01*
X0025578Y0065637D01*
X0025612Y0065597D01*
X0025650Y0065557D01*
X0024950D01*
X0024988Y0065597D01*
X0025022Y0065637D01*
X0025052Y0065677D01*
X0025078Y0065718D01*
X0025100Y0065760D01*
X0025118Y0065802D01*
X0025132Y0065845D01*
X0025142Y0065889D01*
X0025148Y0065932D01*
X0025150Y0065977D01*
X0025450D01*
X0025452Y0065932D01*
D02*
G37*
G36*
X0028152Y0065632D02*
X0028158Y0065588D01*
X0028168Y0065545D01*
X0028182Y0065502D01*
X0028200Y0065460D01*
X0028222Y0065418D01*
X0028248Y0065377D01*
X0028278Y0065336D01*
X0028312Y0065296D01*
X0028350Y0065257D01*
X0027650D01*
X0027688Y0065296D01*
X0027722Y0065336D01*
X0027752Y0065377D01*
X0027778Y0065418D01*
X0027800Y0065460D01*
X0027818Y0065502D01*
X0027832Y0065545D01*
X0027842Y0065588D01*
X0027848Y0065632D01*
X0027850Y0065677D01*
X0028150D01*
X0028152Y0065632D01*
D02*
G37*
G36*
X0031245Y0066000D02*
X0031190Y0065999D01*
X0031138Y0065995D01*
X0031088Y0065987D01*
X0031040Y0065976D01*
X0030995Y0065963D01*
X0030953Y0065945D01*
X0030913Y0065925D01*
X0030875Y0065901D01*
X0030840Y0065875D01*
X0030807Y0065845D01*
X0030595Y0066057D01*
X0030625Y0066090D01*
X0030651Y0066125D01*
X0030675Y0066163D01*
X0030695Y0066203D01*
X0030713Y0066245D01*
X0030726Y0066290D01*
X0030737Y0066338D01*
X0030745Y0066388D01*
X0030749Y0066440D01*
X0030750Y0066495D01*
X0031245Y0066000D01*
D02*
G37*
G36*
X0048401Y0067611D02*
X0048417Y0067378D01*
X0048431Y0067275D01*
X0048450Y0067181D01*
X0048474Y0067096D01*
X0048503Y0067021D01*
X0048536Y0066954D01*
X0048573Y0066896D01*
X0048615Y0066847D01*
X0048403Y0066635D01*
X0048354Y0066677D01*
X0048296Y0066714D01*
X0048229Y0066747D01*
X0048154Y0066776D01*
X0048069Y0066800D01*
X0047975Y0066819D01*
X0047872Y0066833D01*
X0047639Y0066849D01*
X0047509Y0066850D01*
X0048400Y0067741D01*
X0048401Y0067611D01*
D02*
G37*
G36*
X0020745Y0066750D02*
X0020690Y0066749D01*
X0020638Y0066745D01*
X0020588Y0066737D01*
X0020540Y0066726D01*
X0020495Y0066713D01*
X0020453Y0066695D01*
X0020413Y0066675D01*
X0020375Y0066651D01*
X0020340Y0066625D01*
X0020307Y0066595D01*
X0020095Y0066807D01*
X0020125Y0066840D01*
X0020151Y0066875D01*
X0020175Y0066913D01*
X0020195Y0066953D01*
X0020213Y0066995D01*
X0020226Y0067040D01*
X0020237Y0067088D01*
X0020245Y0067138D01*
X0020249Y0067190D01*
X0020250Y0067245D01*
X0020745Y0066750D01*
D02*
G37*
G36*
X0037001Y0066690D02*
X0037005Y0066638D01*
X0037013Y0066588D01*
X0037024Y0066540D01*
X0037037Y0066495D01*
X0037055Y0066453D01*
X0037075Y0066413D01*
X0037099Y0066375D01*
X0037125Y0066340D01*
X0037155Y0066307D01*
X0036943Y0066095D01*
X0036910Y0066125D01*
X0036875Y0066151D01*
X0036837Y0066175D01*
X0036797Y0066195D01*
X0036755Y0066213D01*
X0036710Y0066226D01*
X0036662Y0066237D01*
X0036612Y0066245D01*
X0036560Y0066249D01*
X0036505Y0066250D01*
X0037000Y0066745D01*
X0037001Y0066690D01*
D02*
G37*
D27*
X0029130Y0091330D02*
X0035000Y0097200D01*
X0022500Y0091330D02*
X0029130D01*
X0030850Y0085450D02*
X0035000Y0089600D01*
X0026300Y0085450D02*
X0030850D01*
X0041250Y0077850D02*
X0042500Y0079100D01*
X0041250Y0032750D02*
Y0077850D01*
X0041350Y0080100D02*
X0041400D01*
X0040500Y0079250D02*
X0041350Y0080100D01*
X0026500Y0064900D02*
Y0065957D01*
X0026000Y0064400D02*
X0026500Y0064900D01*
X0026000Y0063200D02*
Y0064400D01*
X0023400Y0066400D02*
X0028750Y0071750D01*
X0023900Y0066064D02*
X0029250Y0071414D01*
X0023900Y0063100D02*
X0024750Y0062250D01*
X0024400Y0065857D02*
X0029750Y0071207D01*
X0024400Y0063425D02*
X0026075Y0061750D01*
X0024400Y0063425D02*
Y0065857D01*
X0023900Y0063100D02*
Y0066064D01*
X0023400Y0062100D02*
Y0066400D01*
Y0062100D02*
X0023500Y0062000D01*
X0025300Y0065200D02*
Y0066050D01*
X0045414Y0090500D02*
X0047700Y0088214D01*
Y0084450D02*
Y0088214D01*
X0046750Y0083500D02*
X0047700Y0084450D01*
X0045207Y0090000D02*
X0047200Y0088007D01*
Y0084657D02*
Y0088007D01*
X0046250Y0083707D02*
X0047200Y0084657D01*
X0045000Y0089500D02*
X0046200Y0088300D01*
X0045750Y0083914D02*
X0046200Y0084364D01*
X0030800Y0073500D02*
X0031250D01*
X0029750Y0074250D02*
X0030750Y0075250D01*
X0029750Y0071207D02*
Y0074250D01*
X0029250Y0071414D02*
Y0081500D01*
X0028750Y0071750D02*
Y0079500D01*
X0026500Y0065957D02*
X0035750Y0075207D01*
X0027000Y0065750D02*
X0036250Y0075000D01*
X0035750Y0075207D02*
Y0084000D01*
X0036250Y0075000D02*
Y0083250D01*
X0040836Y0090500D02*
X0045414D01*
X0034750Y0084414D02*
X0040836Y0090500D01*
X0041043Y0090000D02*
X0045207D01*
X0035250Y0084207D02*
X0041043Y0090000D01*
X0041750Y0085750D02*
Y0087750D01*
X0028350Y0079900D02*
Y0083600D01*
Y0079900D02*
X0028750Y0079500D01*
X0028350Y0083600D02*
X0029250Y0084500D01*
X0024500Y0068207D02*
Y0072500D01*
X0023543Y0067250D02*
X0024500Y0068207D01*
X0020750Y0067250D02*
X0023543D01*
X0028000Y0064900D02*
Y0066000D01*
X0030000Y0068000D01*
X0035250D01*
X0028200Y0063450D02*
X0031250Y0066500D01*
X0028200Y0058962D02*
Y0063450D01*
X0029500Y0062727D02*
Y0062750D01*
Y0062727D02*
X0030500Y0061727D01*
X0020000Y0066500D02*
X0020750Y0067250D01*
X0016250Y0015000D02*
X0021300Y0009950D01*
Y0005030D02*
Y0009950D01*
Y0005030D02*
X0022580Y0003750D01*
X0008750Y0088750D02*
X0013500D01*
X0006250D02*
X0008750D01*
X0013500D02*
X0017250Y0092500D01*
X0046250Y0036870D02*
X0048500Y0039120D01*
X0041750Y0029250D02*
X0043710D01*
X0039750Y0031250D02*
X0041750Y0029250D01*
X0044960Y0030500D02*
X0046250Y0031790D01*
X0042000Y0030500D02*
X0044960D01*
X0040500Y0032000D02*
X0042000Y0030500D01*
X0042210Y0031790D02*
X0043710D01*
X0041250Y0032750D02*
X0042210Y0031790D01*
X0026075Y0060834D02*
Y0061750D01*
X0037250Y0057000D02*
Y0066000D01*
X0036250Y0056000D02*
X0037250Y0057000D01*
X0036250Y0055250D02*
Y0056000D01*
X0037500Y0055250D02*
Y0056000D01*
X0037750Y0056250D01*
X0036500Y0066750D02*
X0037250Y0066000D01*
X0034800Y0061300D02*
X0035250Y0060850D01*
Y0052964D02*
Y0060850D01*
X0029500Y0047214D02*
X0035250Y0052964D01*
X0029500Y0027457D02*
Y0047214D01*
X0029000Y0047422D02*
X0034750Y0053172D01*
X0028500Y0047629D02*
X0034250Y0053379D01*
X0028000Y0047836D02*
X0033750Y0053586D01*
X0027500Y0048043D02*
X0033250Y0053793D01*
X0027000Y0048250D02*
X0032750Y0054000D01*
X0026500Y0048500D02*
X0032250Y0054250D01*
X0026000Y0048707D02*
X0031750Y0054457D01*
X0025500Y0049000D02*
X0031250Y0054750D01*
X0025000Y0049250D02*
X0030750Y0055000D01*
X0029000Y0027250D02*
Y0047422D01*
X0028500Y0026914D02*
Y0047629D01*
X0028000Y0026707D02*
Y0047836D01*
X0027500Y0026500D02*
Y0048043D01*
X0027000Y0025250D02*
Y0048250D01*
X0026500Y0024957D02*
Y0048500D01*
X0026000Y0024750D02*
Y0048707D01*
X0025500Y0023750D02*
Y0049000D01*
X0025000Y0021000D02*
Y0049250D01*
X0029500Y0027457D02*
X0034457Y0022500D01*
X0029000Y0027250D02*
X0034250Y0022000D01*
X0028500Y0026914D02*
X0032750Y0022664D01*
X0028000Y0026707D02*
X0032250Y0022457D01*
X0027500Y0026500D02*
X0031750Y0022250D01*
X0027000Y0025250D02*
X0030750Y0021500D01*
X0026500Y0024957D02*
X0029750Y0021707D01*
X0026000Y0024750D02*
X0029250Y0021500D01*
X0025500Y0023750D02*
X0028250Y0021000D01*
X0029859Y0058434D02*
X0030250Y0058043D01*
X0034750Y0053172D02*
Y0060077D01*
X0033900Y0060927D02*
X0034750Y0060077D01*
X0033900Y0062400D02*
X0034500Y0063000D01*
X0033900Y0060927D02*
Y0062400D01*
X0033400Y0063400D02*
X0034000Y0064000D01*
X0033400Y0060720D02*
Y0063400D01*
X0032900Y0063943D02*
X0033707Y0064750D01*
X0032900Y0060513D02*
Y0063943D01*
X0032400Y0064150D02*
X0033500Y0065250D01*
X0032400Y0060306D02*
Y0064150D01*
X0031900Y0064400D02*
X0033750Y0066250D01*
X0031900Y0060099D02*
Y0064400D01*
X0031000Y0060121D02*
Y0062500D01*
X0030500Y0059914D02*
Y0061727D01*
X0029500Y0061250D02*
X0030000Y0060750D01*
X0033400Y0060720D02*
X0034250Y0059870D01*
Y0053379D02*
Y0059870D01*
X0031900Y0060099D02*
X0032750Y0059249D01*
Y0054000D02*
Y0059249D01*
X0032400Y0060306D02*
X0033250Y0059456D01*
Y0053793D02*
Y0059456D01*
X0032900Y0060513D02*
X0033750Y0059663D01*
Y0053586D02*
Y0059663D01*
X0034000Y0064000D02*
X0036250D01*
X0035250Y0065250D02*
X0036250D01*
X0034750Y0064750D02*
X0035250Y0065250D01*
X0033707Y0064750D02*
X0034750D01*
X0030000Y0059707D02*
X0031250Y0058457D01*
X0030500Y0059914D02*
X0031750Y0058664D01*
X0031000Y0060121D02*
X0032250Y0058871D01*
X0028727Y0058434D02*
X0029859D01*
X0029100Y0059334D02*
X0029666D01*
X0030750Y0058250D01*
X0030000Y0059707D02*
Y0060750D01*
X0032750Y0021500D02*
Y0022664D01*
Y0021500D02*
X0033250Y0021000D01*
X0034250D01*
X0032250Y0054250D02*
Y0058871D01*
X0031750Y0054457D02*
Y0058664D01*
X0031250Y0054750D02*
Y0058457D01*
X0028500Y0054500D02*
X0030250Y0056250D01*
Y0058043D01*
X0032250Y0020750D02*
Y0022457D01*
X0029750Y0020293D02*
Y0021707D01*
X0029250Y0020500D02*
Y0021500D01*
X0032250Y0020750D02*
X0033000Y0020000D01*
X0037000D01*
X0038000Y0021000D01*
X0034250Y0065250D02*
X0035250Y0066250D01*
X0033500Y0065250D02*
X0034250D01*
X0030750Y0055000D02*
Y0058250D01*
X0028630Y0056880D02*
X0029250Y0057500D01*
X0031750Y0020750D02*
Y0022250D01*
X0029500Y0018500D02*
X0031750Y0020750D01*
X0021500Y0018500D02*
X0029500D01*
X0020000Y0020000D02*
X0021500Y0018500D01*
X0025750Y0020000D02*
X0026750Y0021000D01*
X0028457Y0019000D02*
X0029750Y0020293D01*
X0023000Y0019000D02*
X0028457D01*
X0021000Y0021000D02*
X0023000Y0019000D01*
X0028250Y0019500D02*
X0029250Y0020500D01*
X0023750Y0019500D02*
X0028250D01*
X0023000Y0020250D02*
X0023750Y0019500D01*
X0023000Y0020250D02*
Y0021000D01*
X0020000Y0020000D02*
Y0021273D01*
X0020727Y0022000D01*
X0023500D01*
X0024000Y0021500D01*
Y0020500D02*
Y0021500D01*
Y0020500D02*
X0024500Y0020000D01*
X0025750D01*
X0021250Y0056880D02*
X0028630D01*
X0022500Y0076370D02*
X0023130D01*
X0028200Y0058962D02*
X0028727Y0058434D01*
X0024750Y0061250D02*
Y0062250D01*
X0035250Y0068000D02*
X0036500Y0066750D01*
X0034457Y0022500D02*
X0039250D01*
X0040000Y0023250D01*
X0041250Y0022000D02*
X0041500Y0021750D01*
X0041000Y0022000D02*
X0041250D01*
X0034250D02*
X0041000D01*
X0036250Y0031250D02*
X0042500Y0025000D01*
X0036250Y0031250D02*
Y0055250D01*
X0038750Y0003750D02*
Y0006250D01*
X0046250Y0013750D01*
Y0029250D01*
X0048750Y0058750D02*
Y0066500D01*
X0047500Y0067750D02*
X0048750Y0066500D01*
X0045000Y0067750D02*
X0047500D01*
X0042200Y0049800D02*
Y0070700D01*
Y0049800D02*
X0043000Y0049000D01*
X0042700Y0051550D02*
Y0070425D01*
Y0051550D02*
X0045250Y0049000D01*
X0043200Y0053300D02*
Y0070200D01*
Y0053300D02*
X0047500Y0049000D01*
X0043700Y0054300D02*
Y0069950D01*
Y0054300D02*
X0048500Y0049500D01*
Y0039120D02*
Y0049500D01*
X0047500Y0053500D02*
Y0057500D01*
X0048750Y0058750D01*
X0043700Y0069950D02*
X0047500Y0073750D01*
X0043200Y0070200D02*
X0047000Y0074000D01*
X0042700Y0070425D02*
X0046500Y0074225D01*
X0042200Y0070700D02*
X0046000Y0074500D01*
X0036250Y0083250D02*
X0038750Y0085750D01*
X0045250Y0081000D02*
X0046000Y0080250D01*
Y0074500D02*
Y0080250D01*
X0045750Y0081207D02*
Y0083914D01*
Y0081207D02*
X0046500Y0080457D01*
Y0074225D02*
Y0080457D01*
X0047000Y0074000D02*
Y0080664D01*
X0039750Y0031250D02*
Y0082500D01*
X0041000Y0083750D01*
X0040500Y0032000D02*
Y0079250D01*
X0037750Y0056250D02*
Y0084043D01*
X0038957Y0085250D01*
X0047500Y0073750D02*
Y0080871D01*
X0046750Y0081621D02*
X0047500Y0080871D01*
X0046750Y0081621D02*
Y0083500D01*
X0046250Y0081414D02*
X0047000Y0080664D01*
X0046250Y0081414D02*
Y0083707D01*
X0035750Y0084000D02*
X0041250Y0089500D01*
X0043500Y0085750D02*
X0045250Y0084000D01*
Y0081000D02*
Y0084000D01*
X0038957Y0085250D02*
X0043293D01*
X0044750Y0083793D01*
Y0077500D02*
Y0083793D01*
X0041250Y0089500D02*
X0045000D01*
X0023130Y0076370D02*
X0024500Y0075000D01*
Y0072500D02*
Y0075000D01*
X0035250Y0076000D02*
Y0084207D01*
X0034750Y0077000D02*
Y0084414D01*
X0002420Y0012500D02*
Y0020000D01*
X0002250Y0020170D02*
X0002420Y0020000D01*
X0002250Y0020170D02*
Y0030000D01*
X0009500Y0009250D02*
X0010750Y0008000D01*
X0009500Y0009250D02*
Y0025000D01*
X0005000Y0029500D02*
X0009500Y0025000D01*
X0012800Y0013450D02*
Y0023300D01*
Y0013450D02*
X0016250Y0010000D01*
X0012800Y0027300D02*
X0014000Y0026100D01*
X0016250Y0005000D02*
Y0010000D01*
Y0005000D02*
X0017500Y0003750D01*
X0018750Y0005040D02*
X0020040Y0003750D01*
X0014000Y0013500D02*
Y0026100D01*
Y0013500D02*
X0017500Y0010000D01*
Y0006290D02*
Y0010000D01*
X0018750Y0005040D02*
Y0010000D01*
X0014750Y0014000D02*
X0018750Y0010000D01*
X0014750Y0014000D02*
Y0029350D01*
X0012800Y0031300D02*
X0014750Y0029350D01*
X0012800Y0035300D02*
X0015500Y0032600D01*
Y0014500D02*
Y0032600D01*
Y0014500D02*
X0020040Y0009960D01*
Y0006290D02*
Y0009960D01*
X0012800Y0039250D02*
X0016250Y0035800D01*
Y0015000D02*
Y0035800D01*
X0012800Y0043250D02*
X0017000Y0039050D01*
Y0015500D02*
Y0039050D01*
Y0015500D02*
X0022580Y0009920D01*
Y0006290D02*
Y0009920D01*
X0008750Y0037400D02*
X0011500Y0040150D01*
Y0043750D01*
X0012250Y0044500D01*
X0018750D01*
X0020250Y0043000D01*
X0008750Y0043750D02*
X0010250Y0045250D01*
X0018000D01*
X0019800Y0047050D01*
X0021750Y0045100D01*
Y0040750D02*
Y0045100D01*
X0019950Y0038950D02*
X0021750Y0040750D01*
X0019800Y0053950D02*
X0021250Y0052500D01*
Y0050500D02*
Y0052500D01*
X0017000Y0046250D02*
X0021250Y0050500D01*
X0008250Y0046250D02*
X0017000D01*
X0006750Y0044750D02*
X0008250Y0046250D01*
X0006750Y0030250D02*
Y0044750D01*
Y0030250D02*
X0007750Y0029250D01*
X0007400Y0048750D02*
X0010100D01*
X0003750Y0045100D02*
X0007400Y0048750D01*
X0001500Y0046500D02*
X0003750Y0048750D01*
X0001500Y0036750D02*
Y0046500D01*
Y0036750D02*
X0002250Y0036000D01*
X0010100Y0048750D02*
X0011350Y0047500D01*
X0016500D01*
X0020000Y0051000D01*
Y0063210D02*
X0021250Y0061960D01*
X0020000Y0063210D02*
Y0066500D01*
X0003750Y0048750D02*
Y0055500D01*
X0007000Y0058750D01*
X0020000Y0060710D02*
X0021250Y0061960D01*
X0020000Y0056250D02*
Y0060710D01*
X0018000Y0054250D02*
X0020000Y0056250D01*
X0018000Y0050500D02*
Y0054250D01*
X0016250Y0048750D02*
X0018000Y0050500D01*
X0013500Y0048750D02*
X0016250D01*
X0011500Y0050750D02*
X0013500Y0048750D01*
X0007000Y0050750D02*
X0011500D01*
X0002250Y0036000D02*
X0005000D01*
Y0029500D02*
Y0036000D01*
X0017500Y0082500D02*
X0020200D01*
X0046200Y0084364D02*
Y0086000D01*
Y0088300D01*
X0031250Y0073500D02*
X0032500Y0074750D01*
X0034750Y0077000D01*
X0038750Y0085750D02*
X0041750D01*
X0043500D01*
X0025300Y0066050D02*
X0032750Y0073500D01*
X0035250Y0076000D01*
X0027000Y0063650D02*
Y0065750D01*
D28*
X0022500Y0076370D02*
Y0091330D01*
X0016330Y0097500D02*
X0022500Y0091330D01*
X0017250Y0092500D02*
X0020200Y0089550D01*
X0020750Y0068750D02*
X0022500D01*
X0020200Y0069300D02*
X0020750Y0068750D01*
X0020200Y0069300D02*
Y0076500D01*
Y0082500D01*
Y0089550D01*
D30*
X0045000Y0095000D02*
D03*
X0005000D02*
D03*
Y0005000D02*
D03*
X0045000D02*
D03*
D31*
X0017250Y0087500D02*
D03*
X0007000Y0058750D02*
D03*
X0035000Y0097200D02*
D03*
D32*
X0017250Y0092500D02*
D03*
X0007000Y0053750D02*
D03*
X0005000Y0067500D02*
D03*
X0014000D02*
D03*
X0014000Y0076500D02*
D03*
X0005000Y0076500D02*
D03*
X0010100Y0048750D02*
D03*
X0003750D02*
D03*
Y0045100D02*
D03*
Y0038750D02*
D03*
X0008750Y0037400D02*
D03*
Y0043750D02*
D03*
X0035000Y0089600D02*
D03*
D33*
X0015000Y0049960D02*
D03*
Y0052500D02*
D03*
Y0055040D02*
D03*
D34*
X0004960Y0012500D02*
D03*
X0002420D02*
D03*
X0007500D02*
D03*
X0004960Y0020000D02*
D03*
X0002420D02*
D03*
X0007500D02*
D03*
D35*
X0022500Y0071290D02*
D03*
Y0073830D02*
D03*
Y0068750D02*
D03*
Y0076370D02*
D03*
D36*
X0021250Y0064500D02*
D03*
D37*
Y0061960D02*
D03*
Y0056880D02*
D03*
Y0059420D02*
D03*
X0016330Y0097500D02*
D03*
X0013790D02*
D03*
X0020200Y0076500D02*
D03*
D38*
X0043710Y0034330D02*
D03*
X0046250Y0034330D02*
D03*
X0043710Y0031790D02*
D03*
X0046250D02*
D03*
X0043710Y0029250D02*
D03*
X0046250Y0036870D02*
D03*
X0043710D02*
D03*
X0046250Y0039410D02*
D03*
X0043710D02*
D03*
D39*
X0046250Y0029250D02*
D03*
D40*
X0035280Y0003750D02*
D03*
X0035280Y0006290D02*
D03*
X0032740D02*
D03*
Y0003750D02*
D03*
X0027660Y0006290D02*
D03*
Y0003750D02*
D03*
X0030200Y0006290D02*
D03*
Y0003750D02*
D03*
X0025120Y0006290D02*
D03*
Y0003750D02*
D03*
X0017500Y0006290D02*
D03*
X0020040Y0003750D02*
D03*
Y0006290D02*
D03*
X0022580Y0003750D02*
D03*
X0022580Y0006290D02*
D03*
X0044750Y0077500D02*
D03*
X0048250Y0082500D02*
D03*
X0044750Y0087500D02*
D03*
D41*
X0017500Y0003750D02*
D03*
D42*
X0003750Y0088750D02*
D03*
X0008750D02*
D03*
X0006250D02*
D03*
D43*
X0011250Y0097500D02*
D03*
D44*
X0022000Y0096250D02*
D03*
X0027250Y0097500D02*
D03*
D45*
X0045000Y0060250D02*
D03*
X0047500D02*
D03*
D46*
X0045000Y0067750D02*
D03*
X0047500D02*
D03*
D47*
X0026300Y0085450D02*
D03*
X0042500Y0079100D02*
D03*
X0041400Y0080100D02*
D03*
X0025300Y0065200D02*
D03*
X0046200Y0086000D02*
D03*
X0030800Y0073500D02*
D03*
X0032750D02*
D03*
X0032500Y0074750D02*
D03*
X0041750Y0087750D02*
D03*
X0029250Y0081500D02*
D03*
X0026000Y0063200D02*
D03*
X0028000Y0064900D02*
D03*
X0027000Y0064000D02*
D03*
X0029500Y0062750D02*
D03*
X0020750Y0067250D02*
D03*
X0007750Y0029250D02*
D03*
X0010750Y0008000D02*
D03*
X0031250Y0066500D02*
D03*
X0026075Y0060834D02*
D03*
X0023500Y0062000D02*
D03*
X0024750Y0061250D02*
D03*
X0029250Y0084500D02*
D03*
X0030750Y0075250D02*
D03*
X0037500Y0055250D02*
D03*
X0036250D02*
D03*
X0036500Y0066750D02*
D03*
X0031000Y0062500D02*
D03*
X0029500Y0061250D02*
D03*
X0034800Y0061300D02*
D03*
X0036250Y0064000D02*
D03*
X0034500Y0063000D02*
D03*
X0029100Y0059334D02*
D03*
X0036250Y0065250D02*
D03*
X0030750Y0021500D02*
D03*
X0028250Y0021000D02*
D03*
X0029250Y0057500D02*
D03*
X0035250Y0066250D02*
D03*
X0033750D02*
D03*
X0028500Y0054500D02*
D03*
X0026750Y0021000D02*
D03*
X0025000D02*
D03*
X0021000D02*
D03*
X0023000D02*
D03*
X0034250D02*
D03*
X0038000D02*
D03*
X0012800Y0043250D02*
D03*
Y0039250D02*
D03*
X0040000Y0023250D02*
D03*
X0041000Y0022000D02*
D03*
X0042500Y0025000D02*
D03*
X0038750Y0003750D02*
D03*
X0043000Y0049000D02*
D03*
X0045250D02*
D03*
X0047500D02*
D03*
Y0053500D02*
D03*
X0041000Y0083750D02*
D03*
X0024500Y0072500D02*
D03*
X0005000Y0036000D02*
D03*
X0002250Y0030000D02*
D03*
X0012800Y0023300D02*
D03*
Y0027300D02*
D03*
Y0031300D02*
D03*
Y0035300D02*
D03*
X0020250Y0043000D02*
D03*
X0019950Y0038950D02*
D03*
X0019800Y0047050D02*
D03*
X0020000Y0051000D02*
D03*
X0019800Y0053950D02*
D03*
X0007000Y0050750D02*
D03*
X0017500Y0082500D02*
D03*
M02*
